<?xml version="1.0" encoding="iso-8859-1"?>
<!-- Generator: Adobe Illustrator 22.0.1, SVG Export Plug-In . SVG Version: 6.00 Build 0)  -->
<svg version="1.1" id="Layer_1" xmlns="http://www.w3.org/2000/svg" xmlns:xlink="http://www.w3.org/1999/xlink" x="0px" y="0px"
	 viewBox="0 0 100.25 100.25" style="enable-background:new 0 0 100.25 100.25;" xml:space="preserve">
<g>
	<path d="M98.266,43.615L51.231,3.749c-0.565-0.478-1.39-0.475-1.95,0.008L3.231,43.484c-0.627,0.541-0.697,1.488-0.156,2.116
		c0.542,0.627,1.487,0.697,2.116,0.156L16,36.431V91.75c0,0.828,0.671,1.5,1.5,1.5h65.643c0.458,0,0.891-0.209,1.175-0.567
		l0.357-0.45C84.886,91.967,85,91.639,85,91.3V36.303l11.326,9.6c0.282,0.239,0.626,0.356,0.969,0.356
		c0.426,0,0.849-0.18,1.146-0.53C98.976,45.097,98.897,44.15,98.266,43.615z M68,90.25H32V75.893c0-9.925,8.075-18,18-18
		c9.925,0,18,8.075,18,18V90.25z M82,90.25H71V75.893c0-11.579-9.421-21-21-21c-11.58,0-21,9.421-21,21V90.25H19V33.843L50.27,6.867
		L82,33.76V90.25z"/>
	<path d="M49,23.75v9.5h-9.5c-0.829,0-1.5,0.671-1.5,1.5s0.671,1.5,1.5,1.5H49v9.5c0,0.829,0.671,1.5,1.5,1.5
		c0.828,0,1.5-0.671,1.5-1.5v-9.5h9.5c0.828,0,1.5-0.671,1.5-1.5s-0.672-1.5-1.5-1.5H52v-9.5c0-0.829-0.672-1.5-1.5-1.5
		C49.671,22.25,49,22.921,49,23.75z"/>
</g>
</svg>
