<?xml version="1.0" encoding="iso-8859-1"?>
<!-- Generator: Adobe Illustrator 22.0.1, SVG Export Plug-In . SVG Version: 6.00 Build 0)  -->
<svg version="1.1" id="Layer_1" xmlns="http://www.w3.org/2000/svg" xmlns:xlink="http://www.w3.org/1999/xlink" x="0px" y="0px"
	 viewBox="0 0 100.25 100.25" style="enable-background:new 0 0 100.25 100.25;" xml:space="preserve">
<g>
	<path d="M39.625,49.018c-3.033,0-5.5,2.468-5.5,5.5s2.467,5.5,5.5,5.5s5.5-2.468,5.5-5.5S42.658,49.018,39.625,49.018z
		 M39.625,57.018c-1.378,0-2.5-1.121-2.5-2.5s1.122-2.5,2.5-2.5s2.5,1.121,2.5,2.5S41.003,57.018,39.625,57.018z"/>
	<path d="M60.625,49.018c-3.032,0-5.5,2.468-5.5,5.5s2.468,5.5,5.5,5.5s5.5-2.468,5.5-5.5S63.657,49.018,60.625,49.018z
		 M60.625,57.018c-1.379,0-2.5-1.121-2.5-2.5s1.121-2.5,2.5-2.5s2.5,1.121,2.5,2.5S62.004,57.018,60.625,57.018z"/>
	<path d="M90.914,66.37l-2.998,0.545c2.065-4.891,3.209-10.263,3.209-15.898c0-8.553-2.636-16.5-7.134-23.079
		c0.372,0.047,0.749,0.079,1.134,0.079c4.963,0,9-4.038,9-9s-4.037-9-9-9s-9,4.038-9,9c0,0.114,0.013,0.224,0.017,0.336
		c-7.083-5.83-16.148-9.336-26.017-9.336s-18.934,3.506-26.017,9.336c0.004-0.113,0.017-0.223,0.017-0.336c0-4.962-4.038-9-9-9
		s-9,4.038-9,9s4.038,9,9,9c0.385,0,0.762-0.032,1.134-0.079c-4.498,6.579-7.134,14.526-7.134,23.079
		c0,5.718,1.18,11.163,3.304,16.112l-1.327-0.19c-0.813-0.107-1.58,0.453-1.697,1.273s0.453,1.58,1.273,1.697l3.322,0.475
		c1.573,2.923,3.49,5.633,5.697,8.078l-4.202,0.901c-0.81,0.174-1.326,0.971-1.152,1.781c0.151,0.704,0.773,1.186,1.465,1.186
		c0.104,0,0.21-0.011,0.316-0.033l6.074-1.302c7.327,6.83,17.145,11.021,27.928,11.021c10.591,0,20.256-4.037,27.539-10.652
		l8.186,1.637c0.099,0.021,0.198,0.029,0.296,0.029c0.7,0,1.326-0.493,1.469-1.206c0.163-0.812-0.364-1.603-1.177-1.765
		l-6.214-1.243c2.378-2.573,4.43-5.448,6.093-8.564l5.133-0.933c0.814-0.148,1.355-0.929,1.207-1.744S91.732,66.219,90.914,66.37z
		 M85.125,13.018c3.309,0,6,2.691,6,6s-2.691,6-6,6s-6-2.691-6-6S81.816,13.018,85.125,13.018z M9.125,19.018c0-3.309,2.691-6,6-6
		s6,2.691,6,6s-2.691,6-6,6S9.125,22.327,9.125,19.018z M76.726,78.119l-5.288-1.058c-0.806-0.166-1.603,0.365-1.765,1.177
		c-0.163,0.812,0.364,1.603,1.177,1.765l3.067,0.613C67.855,85.499,60.273,88.566,52,88.97V76.25h3.5c0.828,0,1.5-0.672,1.5-1.5
		s-0.672-1.5-1.5-1.5h-10c-0.829,0-1.5,0.672-1.5,1.5s0.671,1.5,1.5,1.5H49v12.739c-8.79-0.258-16.842-3.506-23.163-8.773
		l4.286-0.918c0.81-0.174,1.326-0.971,1.152-1.781c-0.173-0.81-0.97-1.326-1.781-1.152l-6.366,1.364
		c-2.031-2.052-3.829-4.335-5.354-6.803l13.903,1.986c0.072,0.01,0.143,0.015,0.214,0.015c0.734,0,1.376-0.54,1.483-1.288
		c0.117-0.82-0.453-1.58-1.273-1.697l-16.143-2.306c-2.453-5.023-3.833-10.661-3.833-16.617c0-20.953,17.047-38,38-38
		s38,17.046,38,38c0,5.929-1.367,11.544-3.799,16.55L68.914,70.37c-0.814,0.148-1.355,0.929-1.207,1.744
		c0.132,0.725,0.763,1.231,1.474,1.231c0.089,0,0.18-0.008,0.271-0.024l13.004-2.364C80.837,73.572,78.91,75.975,76.726,78.119z"/>
</g>
</svg>
