<?xml version="1.0" encoding="iso-8859-1"?>
<!-- Generator: Adobe Illustrator 22.0.1, SVG Export Plug-In . SVG Version: 6.00 Build 0)  -->
<svg version="1.1" id="Layer_1" xmlns="http://www.w3.org/2000/svg" xmlns:xlink="http://www.w3.org/1999/xlink" x="0px" y="0px"
	 viewBox="0 0 100.25 100.25" style="enable-background:new 0 0 100.25 100.25;" xml:space="preserve">
<g>
	<path d="M39.172,72.065c-18.196,0-33-14.804-33-33c0-18.196,14.804-33,33-33s33,14.804,33,33c0,0.829,0.672,1.5,1.5,1.5
		s1.5-0.671,1.5-1.5c0-19.851-16.149-36-36-36s-36,16.149-36,36c0,19.851,16.149,36,36,36c0.829,0,1.5-0.672,1.5-1.5
		S40,72.065,39.172,72.065z"/>
	<path d="M95.881,93.603L80.235,77.957c3.076-3.449,4.963-7.979,4.963-12.953c0-10.751-8.747-19.498-19.499-19.498
		c-10.753,0-19.501,8.747-19.501,19.498c0,10.753,8.748,19.502,19.501,19.502c4.701,0,9.018-1.673,12.389-4.454L93.76,95.724
		c0.293,0.293,0.677,0.439,1.061,0.439s0.768-0.146,1.061-0.439C96.467,95.138,96.467,94.188,95.881,93.603z M49.198,65.004
		c0-9.097,7.402-16.498,16.501-16.498c9.098,0,16.499,7.401,16.499,16.498c0,9.1-7.401,16.502-16.499,16.502
		C56.601,81.506,49.198,74.104,49.198,65.004z"/>
	<path d="M13.125,35.518c0,3.584,2.916,6.5,6.5,6.5s6.5-2.916,6.5-6.5s-2.916-6.5-6.5-6.5S13.125,31.934,13.125,35.518z
		 M23.125,35.518c0,1.93-1.57,3.5-3.5,3.5s-3.5-1.57-3.5-3.5s1.57-3.5,3.5-3.5S23.125,33.588,23.125,35.518z"/>
	<path d="M41.624,27.937c2.736,0,5.36-0.99,7.458-2.831c2.384-2.09,3.809-5.01,4.013-8.221c0.053-0.827-0.575-1.54-1.402-1.592
		c-0.846-0.055-1.539,0.576-1.592,1.402c-0.153,2.41-1.217,4.596-2.997,6.156c-1.691,1.482-3.838,2.216-6.049,2.066
		c-4.686-0.318-8.247-4.528-7.938-9.385c0.053-0.827-0.575-1.54-1.402-1.592c-0.813-0.051-1.539,0.575-1.592,1.402
		c-0.414,6.501,4.399,12.14,10.729,12.569C41.11,27.928,41.367,27.937,41.624,27.937z"/>
	<circle cx="58.625" cy="36.518" r="3.5"/>
	<path d="M38.892,56.838c-1.555-1.027-3.403-1.382-5.211-0.994c-3.795,0.813-6.258,4.688-5.49,8.635
		c0.139,0.717,0.767,1.214,1.471,1.214c0.095,0,0.191-0.009,0.288-0.027c0.813-0.158,1.344-0.946,1.186-1.759
		c-0.458-2.354,0.966-4.655,3.174-5.129c1.011-0.215,2.052-0.017,2.928,0.563c0.958,0.633,1.611,1.629,1.839,2.806
		c0.157,0.813,0.941,1.341,1.759,1.187c0.813-0.158,1.344-0.945,1.187-1.759C41.638,59.601,40.527,57.919,38.892,56.838z"/>
	<circle cx="35.625" cy="43.518" r="3.5"/>
</g>
</svg>
