<?xml version="1.0" encoding="iso-8859-1"?>
<!-- Generator: Adobe Illustrator 22.0.1, SVG Export Plug-In . SVG Version: 6.00 Build 0)  -->
<svg version="1.1" id="Layer_1" xmlns="http://www.w3.org/2000/svg" xmlns:xlink="http://www.w3.org/1999/xlink" x="0px" y="0px"
	 viewBox="0 0 100.25 100.25" style="enable-background:new 0 0 100.25 100.25;" xml:space="preserve">
<g>
	<path d="M90.546,60.145l-9.735-9.752c-0.009-0.009-0.022-0.012-0.032-0.021l8.944-8.944c2.315-2.316,3.592-5.407,3.592-8.704
		s-1.276-6.387-3.592-8.704l-12.4-12.399c-4.8-4.8-12.609-4.798-17.407,0l-9.167,9.168l-9.212-9.161
		c-4.798-4.771-12.604-4.771-17.402,0L11.732,23.96c-2.318,2.305-3.596,5.382-3.596,8.664s1.277,6.359,3.596,8.664l9.285,9.233
		l-9.203,9.204c-2.316,2.316-3.592,5.407-3.592,8.704c0,3.296,1.276,6.387,3.592,8.703l12.399,12.399
		c2.316,2.316,5.407,3.592,8.704,3.592s6.387-1.275,8.704-3.592l8.949-8.949l9.783,9.799c2.349,2.352,5.481,3.647,8.823,3.647
		c3.341-0.001,6.474-1.296,8.821-3.647l12.55-12.57C95.409,72.94,95.409,65.016,90.546,60.145z M13.668,39.342
		c-1.797-1.787-2.786-4.172-2.786-6.718s0.989-4.931,2.786-6.718l12.401-12.332c3.731-3.709,9.8-3.709,13.531,0l9.206,9.156
		L22.958,48.58L13.668,39.342z M39.678,87.59c-1.797,1.799-4.199,2.789-6.762,2.789s-4.965-0.99-6.762-2.789L13.754,75.19
		c-1.798-1.798-2.788-4.199-2.788-6.762c0-2.563,0.99-4.965,2.788-6.763l48.102-48.104c1.864-1.865,4.313-2.797,6.762-2.797
		c2.449,0,4.898,0.932,6.763,2.797l12.4,12.399c1.798,1.797,2.788,4.199,2.788,6.762s-0.99,4.965-2.788,6.762L39.678,87.59z
		 M88.556,75.824l-12.55,12.57c-1.816,1.819-4.242,2.821-6.831,2.821c-2.59,0.001-5.017-1.002-6.833-2.821l-9.784-9.801
		L78.801,52.35c0.008,0.009,0.011,0.021,0.019,0.029l9.735,9.752C92.325,65.906,92.325,72.049,88.556,75.824z"/>
	<path d="M51.178,34.422c-0.536-0.535-1.405-0.535-1.941,0L33.682,49.977c-0.536,0.536-0.536,1.405,0,1.941l15.555,15.555
		c0.268,0.268,0.62,0.401,0.971,0.401s0.703-0.134,0.971-0.401l15.555-15.555c0.536-0.536,0.536-1.405,0-1.941L51.178,34.422z
		 M50.207,64.561L36.593,50.947l13.614-13.614L63.82,50.947L50.207,64.561z"/>
	<path d="M59.152,25.076c-0.537-0.535-1.404-0.536-1.941,0c-0.536,0.536-0.536,1.405,0,1.941l17.386,17.385
		c0.269,0.268,0.619,0.402,0.971,0.402s0.702-0.134,0.971-0.402c0.536-0.536,0.536-1.405,0-1.941L59.152,25.076z"/>
	<path d="M25.299,58.931c-0.536-0.535-1.405-0.535-1.941,0c-0.536,0.536-0.536,1.405,0,1.941l17.385,17.385
		c0.268,0.268,0.62,0.401,0.971,0.401s0.703-0.134,0.971-0.401c0.536-0.536,0.536-1.405,0-1.941L25.299,58.931z"/>
</g>
</svg>
