<?xml version="1.0" encoding="iso-8859-1"?>
<!-- Generator: Adobe Illustrator 22.0.1, SVG Export Plug-In . SVG Version: 6.00 Build 0)  -->
<svg version="1.1" id="Layer_1" xmlns="http://www.w3.org/2000/svg" xmlns:xlink="http://www.w3.org/1999/xlink" x="0px" y="0px"
	 viewBox="0 0 100.25 100.25" style="enable-background:new 0 0 100.25 100.25;" xml:space="preserve">
<g>
	<path d="M59.524,39.627c0.205,0.028,0.41,0.042,0.615,0.042c1.228,0,2.448-0.497,3.426-1.41c1.074-1.004,1.785-2.419,2.001-3.985
		c0.216-1.566-0.086-3.122-0.849-4.379c-0.811-1.334-2.094-2.212-3.521-2.409c-2.877-0.399-5.58,2.006-6.042,5.353l0,0
		C54.695,36.187,56.655,39.231,59.524,39.627z M58.046,33.238c0.237-1.724,1.503-3.037,2.753-2.861
		c0.758,0.104,1.218,0.692,1.425,1.033c0.41,0.676,0.575,1.575,0.452,2.467c-0.122,0.891-0.524,1.711-1.102,2.251
		c-0.292,0.272-0.901,0.71-1.651,0.609C58.668,36.564,57.809,34.961,58.046,33.238z"/>
	<path d="M43.921,38.326c0.97,0.865,2.161,1.333,3.353,1.333c0.24,0,0.479-0.019,0.718-0.058c1.422-0.229,2.685-1.135,3.465-2.488
		c0.734-1.274,1-2.835,0.749-4.397c-0.537-3.336-3.305-5.677-6.162-5.214c-1.422,0.229-2.685,1.135-3.464,2.488
		c-0.735,1.274-1.001,2.835-0.75,4.397C42.082,35.947,42.824,37.346,43.921,38.326z M45.107,31.447
		c0.199-0.346,0.646-0.944,1.401-1.065c0.087-0.014,0.174-0.021,0.261-0.021c1.164,0,2.299,1.22,2.557,2.819
		c0.143,0.888-0.002,1.791-0.397,2.476c-0.199,0.346-0.646,0.944-1.401,1.065c-0.756,0.125-1.367-0.306-1.664-0.572
		c-0.59-0.526-1.011-1.338-1.154-2.227C44.568,33.034,44.712,32.132,45.107,31.447z"/>
	<path d="M31.501,37.464c-0.458,1.397-0.399,2.98,0.164,4.459c0.564,1.479,1.575,2.699,2.846,3.437
		c0.827,0.48,1.727,0.725,2.609,0.725c0.56,0,1.112-0.099,1.634-0.297c1.345-0.513,2.396-1.658,2.882-3.143
		c0.458-1.397,0.399-2.981-0.164-4.459c-1.205-3.162-4.384-4.893-7.089-3.864l0,0C33.038,34.833,31.987,35.979,31.501,37.464z
		 M34.273,38.372c0.124-0.378,0.438-1.055,1.149-1.326c1.178-0.45,2.702,0.547,3.324,2.177c0.321,0.844,0.365,1.759,0.118,2.512
		c-0.124,0.379-0.438,1.055-1.149,1.326c-0.71,0.27-1.395-0.025-1.739-0.225c-0.685-0.397-1.262-1.109-1.584-1.953
		C34.07,40.04,34.026,39.125,34.273,38.372z"/>
	<path d="M39.042,55.172v0.169c0,4.485,3.804,7.868,8.85,7.868h10.097c5.114,0,8.971-3.383,8.971-7.868v-0.169
		c0-7.221-6.262-13.095-13.959-13.095C45.303,42.077,39.042,47.951,39.042,55.172z M53,44.994c6.088,0,11.041,4.566,11.041,10.178
		v0.169c0,2.868-2.545,4.95-6.053,4.95H47.891c-3.438,0-5.933-2.082-5.933-4.95v-0.169C41.958,49.56,46.912,44.994,53,44.994z"/>
	<path d="M65.197,42.641c0.487,1.485,1.538,2.63,2.883,3.143c0.521,0.199,1.074,0.298,1.634,0.298c0.882,0,1.782-0.245,2.609-0.725
		c1.271-0.738,2.282-1.958,2.846-3.437c1.204-3.161-0.015-6.571-2.718-7.602c-1.348-0.515-2.894-0.358-4.243,0.427
		c-1.272,0.738-2.283,1.958-2.847,3.437C64.798,39.66,64.739,41.244,65.197,42.641z M68.088,39.22
		c0.321-0.844,0.898-1.555,1.584-1.953c0.245-0.143,0.663-0.333,1.141-0.333c0.192,0,0.395,0.031,0.6,0.109
		c1.18,0.45,1.651,2.208,1.03,3.837c-0.321,0.844-0.898,1.555-1.584,1.953c-0.345,0.2-1.034,0.494-1.739,0.224
		c-0.711-0.271-1.025-0.946-1.149-1.325C67.723,40.979,67.766,40.064,68.088,39.22z"/>
	<path d="M93.516,19.36h-61c-0.595,0-1.106,0.39-1.333,0.918L20.316,39.962L4.77,49.207c-0.442,0.263-0.713,0.739-0.713,1.254
		v20.357c0,0.806,0.653,1.459,1.458,1.459h13.746c0.736,3.667,4.021,6.44,7.954,6.44s7.218-2.774,7.954-6.44h28.942
		c0.734,3.667,4.012,6.44,7.936,6.44c3.932,0,7.218-2.774,7.954-6.44h13.515c0.806,0,1.459-0.653,1.459-1.459v-50
		C94.975,20.012,94.322,19.36,93.516,19.36z M27.216,75.799c-2.864,0-5.194-2.277-5.194-5.076c0-2.803,2.33-5.082,5.194-5.082
		c2.863,0,5.193,2.279,5.193,5.082C32.41,73.522,30.079,75.799,27.216,75.799z M72.048,75.799c-2.853,0-5.174-2.277-5.174-5.076
		c0-2.803,2.321-5.082,5.174-5.082c2.687,0,4.877,2.015,5.14,4.578c0.038,0.325,0.03,0.819-0.017,1.167
		C76.836,73.87,74.679,75.799,72.048,75.799z M92.057,69.359H80.032c-0.659-3.762-3.984-6.636-7.983-6.636
		c-3.991,0-7.307,2.873-7.965,6.636H35.2c-0.659-3.762-3.984-6.636-7.983-6.636c-4,0-7.325,2.873-7.984,6.636H6.974V51.291
		l15.173-9.024c0.223-0.133,0.406-0.322,0.531-0.549L33.41,22.277h58.646L92.057,69.359L92.057,69.359z"/>
</g>
</svg>
