<?xml version="1.0" encoding="iso-8859-1"?>
<!-- Generator: Adobe Illustrator 21.1.0, SVG Export Plug-In . SVG Version: 6.00 Build 0)  -->
<svg version="1.1" id="Layer_1" xmlns="http://www.w3.org/2000/svg" xmlns:xlink="http://www.w3.org/1999/xlink" x="0px" y="0px"
	 viewBox="0 0 100.353 100.352" style="enable-background:new 0 0 100.353 100.352;" xml:space="preserve">
<g>
	<path d="M40.133,44.019c6.166,0,11.446-3.827,13.616-9.227c2.171,5.4,7.453,9.227,13.622,9.227c8.089,0,14.669-6.584,14.669-14.677
		s-6.581-14.677-14.669-14.677c-6.169,0-11.452,3.827-13.622,9.226c-2.17-5.399-7.45-9.226-13.616-9.226
		c-8.091,0-14.673,6.584-14.673,14.677C25.459,37.435,32.042,44.019,40.133,44.019z M67.371,17.665
		c6.435,0,11.669,5.238,11.669,11.677s-5.235,11.677-11.669,11.677c-6.442,0-11.684-5.238-11.684-11.677
		S60.929,17.665,67.371,17.665z M40.133,17.665c6.438,0,11.677,5.238,11.677,11.677s-5.238,11.677-11.677,11.677
		c-6.437,0-11.673-5.238-11.673-11.677C28.459,22.903,33.696,17.665,40.133,17.665z"/>
	<path d="M88.352,57.192h-6.69v-7.327c0-0.829-0.671-1.5-1.5-1.5H28.414c-0.829,0-1.5,0.671-1.5,1.5v11.51l-16.667-7.277
		c-0.463-0.203-0.999-0.159-1.421,0.12c-0.423,0.277-0.679,0.749-0.679,1.255v22.752c0,0.506,0.255,0.978,0.678,1.255
		c0.248,0.163,0.534,0.245,0.822,0.245c0.204,0,0.408-0.042,0.6-0.125l16.667-7.274v11.507c0,0.829,0.671,1.5,1.5,1.5h51.748
		c0.829,0,1.5-0.671,1.5-1.5v-7.335h6.69c0.829,0,1.5-0.671,1.5-1.5V58.692C89.852,57.863,89.181,57.192,88.352,57.192z
		 M11.148,75.934V57.765l15.767,6.885v4.403L11.148,75.934z M78.663,82.333H29.915V51.365h48.748v7.327v16.306V82.333z
		 M86.852,73.498h-5.19V60.192h5.19V73.498z"/>
	<path d="M40.133,35.519c3.408,0,6.18-2.771,6.18-6.177c0-3.407-2.772-6.178-6.18-6.178c-3.404,0-6.173,2.771-6.173,6.178
		C33.959,32.748,36.729,35.519,40.133,35.519z M40.133,26.164c1.753,0,3.18,1.426,3.18,3.178c0,1.751-1.427,3.177-3.18,3.177
		c-1.75,0-3.173-1.425-3.173-3.177C36.959,27.59,38.383,26.164,40.133,26.164z"/>
	<path d="M67.36,35.519c3.41,0,6.184-2.771,6.184-6.177c0-3.407-2.774-6.178-6.184-6.178c-3.406,0-6.177,2.771-6.177,6.178
		C61.183,32.748,63.954,35.519,67.36,35.519z M67.36,26.164c1.755,0,3.184,1.426,3.184,3.178c0,1.751-1.428,3.177-3.184,3.177
		c-1.751,0-3.177-1.425-3.177-3.177S65.609,26.164,67.36,26.164z"/>
</g>
</svg>
