<?xml version="1.0" encoding="iso-8859-1"?>
<!-- Generator: Adobe Illustrator 21.1.0, SVG Export Plug-In . SVG Version: 6.00 Build 0)  -->
<svg version="1.1" id="Layer_1" xmlns="http://www.w3.org/2000/svg" xmlns:xlink="http://www.w3.org/1999/xlink" x="0px" y="0px"
	 viewBox="0 0 100.353 100.353" style="enable-background:new 0 0 100.353 100.353;" xml:space="preserve">
<g>
	<path d="M86.165,96.798c0-19.943-16.224-36.169-36.165-36.169c-19.757,0-35.855,15.931-36.15,35.622
		c-0.001,0.1-0.015,0.196-0.015,0.296c0,0.02,0.005,0.038,0.006,0.058c0,0.065-0.005,0.128-0.005,0.193c0,0.828,0.671,1.5,1.5,1.5
		h68.886c0.124,0.033,0.252,0.057,0.386,0.057c0.429,0,0.813-0.182,1.086-0.471C85.983,97.611,86.165,97.227,86.165,96.798z
		 M50,63.629c12.81,0,23.945,7.301,29.467,17.96c-3.658-3.351-8.549-5.388-14.014-5.388c-5.917,0-11.43,2.486-15.388,6.882
		c-3.958-4.396-9.469-6.882-15.384-6.882c-5.481,0-10.388,1.982-14.073,5.245C26.156,70.865,37.248,63.629,50,63.629z
		 M83.032,95.298H16.898c0.641-9.119,8.211-16.097,17.783-16.097c5.588,0,10.759,2.603,14.187,7.141c0.566,0.75,1.827,0.75,2.394,0
		c3.428-4.538,8.601-7.141,14.191-7.141C74.827,79.201,82.266,86.156,83.032,95.298z"/>
	<path d="M49.397,56.843c11.473,0,20.807-9.334,20.807-20.807c0-7.795-4.315-14.594-10.676-18.157
		c0.752-1.535,1.148-3.22,1.148-4.952c0-6.222-5.06-11.283-11.278-11.283c-6.221,0-11.283,5.062-11.283,11.283
		c0,2.117,0.375,3.529,1.066,5.002c-5.756,3.26-9.817,9.173-10.489,16.073c-0.007,0.059-0.009,0.116-0.009,0.174
		c-0.055,0.614-0.094,1.232-0.094,1.859C28.59,47.509,37.924,56.843,49.397,56.843z M49.397,53.843
		c-9.819,0-17.807-7.988-17.807-17.807c0-0.081,0.011-0.158,0.012-0.239c0.22,0.005,0.446,0.009,0.7,0.009
		c0.98,0,2.226-0.034,3.778-0.089c0.678-0.024,1.233-0.044,1.529-0.044c5.164,0,9.458-2.84,11.675-7.212
		c2.559,4.718,8.299,7.216,13.786,7.216c0.16,0,0.721,0.02,1.425,0.043c1.198,0.041,2.062,0.068,2.697,0.083
		c0.001,0.078,0.012,0.154,0.012,0.233C67.204,45.855,59.216,53.843,49.397,53.843z M66.894,32.794
		c-0.799-0.021-1.711-0.052-2.297-0.071c-0.754-0.026-1.354-0.045-1.526-0.045c-5.895,0-12.159-3.426-12.159-9.775
		c0-2.049,0-3.388-0.004-4.597C58.935,18.984,65.453,25.004,66.894,32.794z M41.116,12.927c0-4.567,3.716-8.283,8.283-8.283
		c4.564,0,8.278,3.716,8.278,8.283c0,1.292-0.306,2.546-0.877,3.687c-2.304-0.881-4.793-1.385-7.403-1.385
		c-2.647,0-5.171,0.516-7.502,1.422C41.372,15.529,41.116,14.513,41.116,12.927z M47.884,18.305c0.003,0.908,0.01,1.328,0.016,1.694
		c0.006,0.368,0.011,0.688,0.011,1.446c0,6.506-4.332,11.228-10.3,11.228c-0.316,0-0.91,0.021-1.635,0.046
		c-0.959,0.034-2.789,0.098-4.077,0.087C33.334,25.011,39.853,18.986,47.884,18.305z"/>
</g>
</svg>
