<?xml version="1.0" encoding="iso-8859-1"?>
<!-- Generator: Adobe Illustrator 21.1.0, SVG Export Plug-In . SVG Version: 6.00 Build 0)  -->
<svg version="1.1" id="Layer_1" xmlns="http://www.w3.org/2000/svg" xmlns:xlink="http://www.w3.org/1999/xlink" x="0px" y="0px"
	 viewBox="0 0 100.353 100.353" style="enable-background:new 0 0 100.353 100.353;" xml:space="preserve">
<path d="M85.072,11.842c-0.213-0.335-0.552-0.573-0.94-0.659c-0.418-0.093-4.157-0.851-6.362,1.123
	c-0.565,0.505-1.277,1.575-1.983,2.793c-0.126-1.352-0.34-2.614-0.699-3.411c-1.552-3.466-5.359-3.712-5.52-3.72
	c-0.737-0.048-1.387,0.456-1.546,1.172l-2.328,10.467c-0.597,2.683-0.299,5.41,0.839,7.679c0.93,1.856,2.332,3.227,4.026,3.991
	l-2.187,8.934H51.285v-8.652c4.332-0.671,7.692-5.076,7.692-10.406V10.428c0-0.829-0.671-1.5-1.5-1.5
	c-0.429,0-4.243,0.069-5.967,2.475c-0.441,0.616-0.905,1.816-1.33,3.158c-0.417-1.293-0.9-2.481-1.424-3.181
	c-2.269-3.042-6.037-2.46-6.195-2.432c-0.725,0.12-1.256,0.746-1.256,1.48v10.725c0,5.036,2.996,9.251,6.979,10.268v8.791H31.443
	l-2.17-8.864c1.769-0.747,3.234-2.145,4.194-4.061c1.138-2.269,1.436-4.997,0.839-7.679L31.978,9.141
	c-0.16-0.716-0.814-1.22-1.546-1.172c-0.161,0.008-3.968,0.254-5.519,3.717c-0.359,0.798-0.574,2.062-0.7,3.414
	c-0.705-1.217-1.417-2.288-1.982-2.792c-2.205-1.974-5.944-1.216-6.363-1.124c-0.389,0.086-0.727,0.323-0.94,0.659
	c-0.214,0.336-0.286,0.743-0.199,1.131l2.328,10.471c0.597,2.683,2.023,5.027,4.015,6.6c1.598,1.262,3.41,1.918,5.232,1.918
	c0.01,0,0.02-0.002,0.03-0.002l2.02,8.251h-6.877c-0.535,0-1.03,0.285-1.298,0.749c-0.268,0.463-0.269,1.034-0.002,1.499
	l20.916,36.421l-4.925,11.043c-0.207,0.464-0.165,1.001,0.112,1.427c0.277,0.426,0.75,0.684,1.258,0.684h25.561
	c0.507,0,0.98-0.257,1.257-0.682s0.32-0.962,0.114-1.426l-4.903-11.063l19.839-36.433c0.253-0.465,0.243-1.028-0.028-1.483
	s-0.76-0.734-1.29-0.734H71.46l2.022-8.261c0.071,0.002,0.142,0.012,0.213,0.012c1.823,0,3.635-0.656,5.232-1.917
	c1.993-1.573,3.418-3.917,4.016-6.601l2.328-10.471C85.358,12.584,85.286,12.178,85.072,11.842z M44.306,21.153v-9.194
	c0.67,0.125,1.472,0.445,2.046,1.216c0.783,1.048,1.825,5.162,2.313,7.749c0.132,0.7,0.739,1.21,1.451,1.221
	c0.708,0.034,1.334-0.479,1.488-1.175c0.701-3.165,1.796-7.054,2.344-7.819c0.381-0.531,1.222-0.856,2.028-1.037v9.039
	c0,4.138-2.619,7.505-5.837,7.505C46.923,28.658,44.306,25.291,44.306,21.153z M19.986,22.792l-1.962-8.824
	c0.828,0.001,1.72,0.137,2.208,0.574c0.701,0.626,2.612,4.185,3.981,7.124c0.301,0.646,1.013,0.992,1.708,0.825
	c0.693-0.165,1.174-0.795,1.151-1.507c-0.083-2.631,0.041-6.874,0.579-8.07c0.395-0.883,1.106-1.368,1.73-1.634l1.997,8.979
	c0.447,2.011,0.237,4.03-0.592,5.684c-0.777,1.551-2.01,2.583-3.473,2.909c-1.462,0.325-3.02-0.086-4.381-1.161
	C21.48,26.543,20.434,24.804,19.986,22.792z M60.793,89.033H39.85l3.897-8.739h4.896v6.877c0,0.829,0.671,1.5,1.5,1.5
	s1.5-0.671,1.5-1.5v-6.877h5.276L60.793,89.033z M57.005,77.294h-5.361V64.349c0-0.829-0.671-1.5-1.5-1.5s-1.5,0.671-1.5,1.5v12.945
	h-5.001L24.07,43.211h25.672c0.015,0,0.029,0.004,0.044,0.004c0.015,0,0.029-0.004,0.044-0.004h25.735L57.005,77.294z
	 M80.015,22.792c-0.447,2.011-1.494,3.75-2.946,4.897c-1.362,1.075-2.919,1.486-4.382,1.161c-1.462-0.325-2.695-1.357-3.472-2.908
	c-0.829-1.654-1.04-3.672-0.592-5.684l1.997-8.978c0.625,0.267,1.335,0.753,1.731,1.637c0.537,1.193,0.661,5.436,0.578,8.067
	c-0.023,0.712,0.458,1.342,1.151,1.507c0.694,0.167,1.406-0.18,1.708-0.826c1.369-2.938,3.28-6.496,3.982-7.124
	c0.488-0.437,1.38-0.573,2.208-0.574L80.015,22.792z"/>
</svg>
