<?xml version="1.0" encoding="iso-8859-1"?>
<!-- Generator: Adobe Illustrator 21.1.0, SVG Export Plug-In . SVG Version: 6.00 Build 0)  -->
<svg version="1.1" id="Layer_1" xmlns="http://www.w3.org/2000/svg" xmlns:xlink="http://www.w3.org/1999/xlink" x="0px" y="0px"
	 viewBox="0 0 100.353 100.352" style="enable-background:new 0 0 100.353 100.352;" xml:space="preserve">
<g>
	<path d="M89.007,32.286H74.733l-9.962-18.013c-0.264-0.478-0.767-0.774-1.312-0.774H36.513c-0.55,0-1.055,0.301-1.318,0.784
		l-9.786,18.003H10.993c-0.829,0-1.5,0.671-1.5,1.5v51.213c0,0.828,0.671,1.5,1.5,1.5h78.014c0.828,0,1.5-0.672,1.5-1.5V33.786
		C90.507,32.957,89.835,32.286,89.007,32.286z M87.507,83.499H12.493V35.286h13.808c0.55,0,1.055-0.301,1.318-0.784l9.786-18.003
		h25.169l9.962,18.013c0.264,0.478,0.767,0.774,1.312,0.774h13.658V83.499z"/>
	<path d="M50.007,29.808c-13.352,0-24.214,10.861-24.214,24.212c0,13.349,10.862,24.208,24.214,24.208
		c13.34,0,24.192-10.859,24.192-24.208C74.199,40.669,63.347,29.808,50.007,29.808z M50.007,75.228
		c-11.697,0-21.214-9.514-21.214-21.208c0-11.696,9.517-21.212,21.214-21.212c11.686,0,21.192,9.516,21.192,21.212
		C71.199,65.714,61.692,75.228,50.007,75.228z"/>
	<path d="M49.998,38.9c-8.335,0-15.116,6.783-15.116,15.12c0,8.335,6.781,15.116,15.116,15.116c8.327,0,15.102-6.781,15.102-15.116
		C65.1,45.683,58.325,38.9,49.998,38.9z M49.998,66.136c-6.681,0-12.116-5.436-12.116-12.116c0-6.683,5.436-12.12,12.116-12.12
		c6.673,0,12.102,5.437,12.102,12.12C62.1,60.7,56.671,66.136,49.998,66.136z"/>
</g>
</svg>
