<?xml version="1.0" encoding="iso-8859-1"?>
<!-- Generator: Adobe Illustrator 21.1.0, SVG Export Plug-In . SVG Version: 6.00 Build 0)  -->
<svg version="1.1" id="Layer_1" xmlns="http://www.w3.org/2000/svg" xmlns:xlink="http://www.w3.org/1999/xlink" x="0px" y="0px"
	 viewBox="0 0 100.354 100.352" style="enable-background:new 0 0 100.354 100.352;" xml:space="preserve">
<g>
	<path d="M50.001,53.826c-19.805,0-35.917,16.114-35.917,35.921c0,0.828,0.671,1.5,1.5,1.5h68.834c0.828,0,1.5-0.672,1.5-1.5
		C85.918,69.941,69.806,53.826,50.001,53.826z M71.108,64.516l-11.17,23.731H40.071L28.866,64.539
		c5.723-4.807,13.094-7.712,21.135-7.712C58.029,56.826,65.389,59.722,71.108,64.516z M26.557,66.672l10.196,21.575H17.118
		C17.496,79.86,21.033,72.285,26.557,66.672z M63.254,88.247l10.167-21.599c5.538,5.615,9.084,13.2,9.463,21.599H63.254z"/>
	<path d="M49.402,50.089c11.397,0,20.669-9.272,20.669-20.669c0-0.511-0.04-1.011-0.077-1.513c0.003-0.086-0.001-0.172-0.013-0.257
		c-0.902-10.57-9.78-18.9-20.58-18.9c-11.397,0-20.669,9.272-20.669,20.669S38.005,50.089,49.402,50.089z M49.402,47.089
		c-9.705,0-17.602-7.866-17.663-17.557c2.453-0.061,9.344-0.399,13.778-2.273c3.128-1.32,7.278-4.083,8.979-5.253l12.544,6.771
		c0.008,0.215,0.033,0.427,0.033,0.644C67.071,39.163,59.145,47.089,49.402,47.089z M49.402,11.751
		c8.244,0,15.167,5.683,17.108,13.331l-11.403-6.155c-0.505-0.272-1.117-0.234-1.584,0.099c-0.055,0.039-5.532,3.933-9.174,5.47
		c-3.749,1.584-9.838,1.943-12.357,2.025C33.382,18.155,40.649,11.751,49.402,11.751z"/>
	<path d="M42.562,71.999h5.939v8.208c0,0.828,0.671,1.5,1.5,1.5s1.5-0.672,1.5-1.5v-8.208h5.938c0.828,0,1.5-0.672,1.5-1.5
		s-0.672-1.5-1.5-1.5h-5.938v-7.421c0-0.828-0.671-1.5-1.5-1.5s-1.5,0.672-1.5,1.5v7.421h-5.939c-0.829,0-1.5,0.672-1.5,1.5
		S41.733,71.999,42.562,71.999z"/>
</g>
</svg>
