<svg id="Слой_2" data-name="Слой 2" xmlns="http://www.w3.org/2000/svg" viewBox="0 0 101 101"><title>hhhArtboard 2 copy 10 копия 8</title><path d="M47.69,81h5.62A17.71,17.71,0,0,0,71,63.31V59h9.87A5.13,5.13,0,0,0,86,53.87V44.13A5.13,5.13,0,0,0,80.87,39H71V32.5C71,27.58,60.69,25,50.5,25S30,27.58,30,32.5V63.31A17.71,17.71,0,0,0,47.69,81ZM80.87,42A2.13,2.13,0,0,1,83,44.13v9.74A2.13,2.13,0,0,1,80.87,56H71V42ZM50.5,28C61.82,28,68,31,68,32.5S61.82,37,50.5,37,33,34,33,32.5,39.18,28,50.5,28ZM33,36.6C36.8,38.84,43.67,40,50.5,40S64.2,38.84,68,36.6V63.31A14.71,14.71,0,0,1,53.31,78H47.69A14.71,14.71,0,0,1,33,63.31Z"/><path d="M53.45,8a2.8,2.8,0,0,1-.16,3.52L51,13.65a5.82,5.82,0,0,0-.75,7.17,1.5,1.5,0,1,0,2.51-1.65A2.82,2.82,0,0,1,53,15.84l2.32-2.17a5.73,5.73,0,0,0,.43-7.61L51.66,1A1.5,1.5,0,1,0,49.34,3Z"/><path d="M74.76,66.79A1.5,1.5,0,1,0,74,69.69c8,2.19,13,5.45,13,8.51,0,5.34-15,11.3-36.5,11.3S14,83.54,14,78.2c0-3,4.88-6.25,12.73-8.43a1.5,1.5,0,0,0-.8-2.89C16.3,69.55,11,73.57,11,78.2c0,6.93,13.84,14.3,39.5,14.3S90,85.13,90,78.2C90,73.52,84.59,69.47,74.76,66.79Z"/></svg>