<svg id="Слой_2" data-name="Слой 2" xmlns="http://www.w3.org/2000/svg" viewBox="0 0 101 101"><title>hhhArtboard 2 copy 9</title><path d="M92.5,73H79V63h2.43A9.53,9.53,0,0,0,91,53.53V20.63a1.5,1.5,0,0,0-1.18-1.47c-.51-.11-12.7-2.52-24.46,15.14C61,40.92,55,44.77,48,45.44c-7.51.72-15.32-2.42-21.44-8.61A1.5,1.5,0,0,0,24,37.88V53.53A9.53,9.53,0,0,0,33.57,63H35V73H13.28a6.68,6.68,0,0,1-6.6-5,6.44,6.44,0,0,1,1.24-5.54A6.57,6.57,0,0,1,13.07,60a1.5,1.5,0,0,0,0-3A9.53,9.53,0,0,0,3.75,68.68,9.7,9.7,0,0,0,13.28,76H92.5a1.5,1.5,0,0,0,0-3ZM27,53.53V41.3c6.32,5.26,13.92,7.84,21.3,7.13C56.06,47.68,63,43.25,67.86,36,76.46,23,84.93,21.92,88,22V53.53A6.53,6.53,0,0,1,81.43,60H33.57A6.53,6.53,0,0,1,27,53.53ZM38,63H76V73H38Z"/></svg>