<svg id="Слой_2" data-name="Слой 2" xmlns="http://www.w3.org/2000/svg" viewBox="0 0 101 101"><defs><style>.cls-1{fill:#007c47;}</style></defs><title>NY</title><path class="cls-1" d="M73.74,74A13.27,13.27,0,0,0,87,60.74V16.5A1.5,1.5,0,0,0,85.5,15H73V10.5a1.5,1.5,0,0,0-3,0V15H35V10.5a1.5,1.5,0,0,0-3,0V15H18.5A1.5,1.5,0,0,0,17,16.5V60.8A10.27,10.27,0,0,1,6.7,71a1.5,1.5,0,0,0,0,3H17v9.5A1.5,1.5,0,0,0,18.5,85h67A1.5,1.5,0,0,0,87,83.5v-8a1.5,1.5,0,0,0-3,0V82H20V74ZM20,60.8V18H32v4.5a1.5,1.5,0,0,0,3,0V18H70v4.5a1.5,1.5,0,0,0,3,0V18H84V60.74A10.27,10.27,0,0,1,73.74,71H15.13A13.15,13.15,0,0,0,20,60.8Z"/><path class="cls-1" d="M68.17,45.55c-2.51-1.92-6-1.87-8.17-1.6V37.31h9.5a1.5,1.5,0,0,0,0-3h-11a1.5,1.5,0,0,0-1.5,1.5v9.94a1.5,1.5,0,0,0,1.89,1.45c1.34-.36,5.29-.93,7.46.73,1.12.86,1.67,2.24,1.67,4.21a4.87,4.87,0,0,1-4.25,5c-2.4.46-5.44-.36-6.39-2.77a1.5,1.5,0,0,0-2.79,1.09c1.29,3.28,4.75,4.79,7.94,4.79a9.63,9.63,0,0,0,1.8-.17,7.81,7.81,0,0,0,6.69-8C71,49.21,70.06,47,68.17,45.55Z"/><path class="cls-1" d="M40.61,51.45l.95-.51c3.32-1.79,7.44-4,7.44-8.52A8.06,8.06,0,0,0,41.4,34c-3.6-.19-7.77,2.1-8.39,7.63A1.5,1.5,0,0,0,36,42c.43-3.86,3.09-5.1,5.24-5A5,5,0,0,1,46,42.43c0,2.52-2.32,4-5.87,5.88l-.94.51c-3.46,1.85-6.73,3.61-6.73,10a1.5,1.5,0,0,0,1.5,1.5H47.5a1.5,1.5,0,0,0,0-3h-12C35.93,54,37.69,53,40.61,51.45Z"/></svg>