<svg id="Слой_2" data-name="Слой 2" xmlns="http://www.w3.org/2000/svg" viewBox="0 0 101 101"><defs><style>.cls-1{fill:#007c47;}</style></defs><title>hhhArtboard 2 copy 13</title><path class="cls-1" d="M73.5,7A1.5,1.5,0,0,0,72,8.5V19H40.5A1.5,1.5,0,0,0,39,20.5V50.36a13.44,13.44,0,0,1-3.9,9.5L24,71.08a15.37,15.37,0,0,0,0,21.53,15.32,15.32,0,0,0,21.8,0L68.26,69.89A23.23,23.23,0,0,0,75,53.47V8.5A1.5,1.5,0,0,0,73.5,7ZM26.16,90.5A12.37,12.37,0,0,1,24.69,75L41.78,92.08A12.33,12.33,0,0,1,26.16,90.5Zm17.91-.38L26.64,72.7,37.24,62A16.42,16.42,0,0,0,42,50.36V22H72v7H47.5a1.5,1.5,0,0,0,0,3H72V47A16.64,16.64,0,0,0,59.71,74.27ZM66.12,67.78l-4.29,4.34A13.63,13.63,0,0,1,72,50v3.48A20.25,20.25,0,0,1,66.12,67.78Z"/></svg>