<svg id="Слой_2" data-name="Слой 2" xmlns="http://www.w3.org/2000/svg" viewBox="0 0 101 101"><defs><style>.cls-1{fill:#007c47;}</style></defs><title>hhhArtboard 2 copy 10 копия</title><path class="cls-1" d="M50.5,6A44.5,44.5,0,1,0,95,50.5,44.55,44.55,0,0,0,50.5,6Zm0,86A41.5,41.5,0,1,1,92,50.5,41.55,41.55,0,0,1,50.5,92Z"/><path class="cls-1" d="M50.5,12A1.5,1.5,0,0,0,49,13.5v6a1.5,1.5,0,0,0,3,0v-6A1.5,1.5,0,0,0,50.5,12Z"/><path class="cls-1" d="M50.5,80A1.5,1.5,0,0,0,49,81.5v6a1.5,1.5,0,0,0,3,0v-6A1.5,1.5,0,0,0,50.5,80Z"/><path class="cls-1" d="M87.5,49h-6a1.5,1.5,0,0,0,0,3h6a1.5,1.5,0,0,0,0-3Z"/><path class="cls-1" d="M19.5,49h-6a1.5,1.5,0,0,0,0,3h6a1.5,1.5,0,0,0,0-3Z"/><path class="cls-1" d="M50.5,27A1.5,1.5,0,0,0,49,28.5v23a1.5,1.5,0,0,0,3,0v-23A1.5,1.5,0,0,0,50.5,27Z"/></svg>