<svg id="Слой_2" data-name="Слой 2" xmlns="http://www.w3.org/2000/svg" viewBox="0 0 101 101"><defs><style>.cls-1{fill:#007c47;}</style></defs><title>hhhArtboard 2 copy 11</title><path class="cls-1" d="M95.3,66.14c-6.55-1.69-11-6.77-10.52-12.07a12.18,12.18,0,0,1,.43-2.33,1.5,1.5,0,0,0-2.55-1.42,8.36,8.36,0,0,1-7,2.77,8.52,8.52,0,0,1-7.48-6.37,1.5,1.5,0,0,0-2.82-.24c-.92,2-6.11,12.19-17.68,11.16a11.19,11.19,0,0,0-3.8-.2c0-.3.07-.6.09-.91a11,11,0,0,0-.25-2.89,1.49,1.49,0,0,0,0-.22c-1.1-12.07,9.57-17.25,10.79-17.79a1.5,1.5,0,0,0-.24-2.82,8.52,8.52,0,0,1-6.38-7.48,8.42,8.42,0,0,1,2.77-7,1.5,1.5,0,0,0-1.42-2.55,12.18,12.18,0,0,1-2.32.43c-5.32.44-10.38-4-12.07-10.52a1.5,1.5,0,0,0-3,.38c0,7.14-5.09,11.85-10.07,12.27a12.28,12.28,0,0,1-2.37,0,1.5,1.5,0,0,0-1,2.76,8.41,8.41,0,0,1,3.91,6.41,8.52,8.52,0,0,1-5,8.45A1.5,1.5,0,0,0,18,38.81h0c3.54,0,7.73,4.69,8.46,8.33a11.23,11.23,0,0,0-.88.72A11,11,0,0,0,32.47,67H33a11.07,11.07,0,0,0,1.16-.07,11.2,11.2,0,0,0,2,8.19,8.12,8.12,0,0,1-2.41,4,8.2,8.2,0,0,1-11.9-11.22A1.5,1.5,0,1,0,19.53,66a11.2,11.2,0,1,0,19,11.48,11.12,11.12,0,0,0,6.17,2.22h.55a11.11,11.11,0,0,0,9.35-5.07c3.55,1.08,7.61,4.92,7.59,8.3a1.5,1.5,0,0,0,2.87.62,8.52,8.52,0,0,1,8.45-5,8.41,8.41,0,0,1,6.41,3.91,1.5,1.5,0,0,0,2.76-1,12.18,12.18,0,0,1,0-2.36c.42-5,5.1-10.07,12.2-10.07h.08a1.5,1.5,0,0,0,.37-3ZM21.66,36.68a11.48,11.48,0,0,0,3.74-9.45,11.33,11.33,0,0,0-2.34-6,14.51,14.51,0,0,0,11-9.7c2.77,4.74,7.32,7.73,12.16,7.73h0a11.33,11.33,0,0,0-1.29,6.32,11.48,11.48,0,0,0,5.59,8.87c-3.3,2.16-8.38,6.6-9.58,13.94a11,11,0,0,0-11.72-2.72A15.29,15.29,0,0,0,21.66,36.68ZM32.62,64A8,8,0,0,1,33,48h.39a8,8,0,0,1-.76,16Zm6.55,10.08a8.21,8.21,0,0,1-1.74-8A11,11,0,0,0,43,60.7a8.2,8.2,0,1,1-3.79,13.38Zm40.61,3.87a11.32,11.32,0,0,0-6-2.34,11.47,11.47,0,0,0-9.47,3.76A15.69,15.69,0,0,0,55.9,72,11.2,11.2,0,0,0,53.53,61c-.2-.22-.41-.43-.63-.63,7.16-1.32,11.5-6.43,13.67-9.86a11.48,11.48,0,0,0,8.85,5.55,11.33,11.33,0,0,0,6.32-1.29c0,4.85,3,9.4,7.73,12.18A14.51,14.51,0,0,0,79.78,77.95Z"/></svg>