<svg id="Слой_2" data-name="Слой 2" xmlns="http://www.w3.org/2000/svg" viewBox="0 0 101 101"><defs><style>.cls-1{fill:#007c47;}</style></defs><title>hhhArtboard 2 copy 10 копия 6</title><path class="cls-1" d="M90,57.46a15.75,15.75,0,0,0-22.24,0l-2.69,2.69A11.89,11.89,0,0,1,48.28,43.34l2.92-2.92A20.61,20.61,0,0,0,55.54,34h10a1.49,1.49,0,0,0,.56-.11A22.1,22.1,0,0,0,76.55,36.5a21.5,21.5,0,0,0,17.21-8.35,1.5,1.5,0,0,0,0-1.8A21.5,21.5,0,0,0,76.55,18,22,22,0,0,0,65.4,21h-8.7a20.71,20.71,0,0,0-34.84-9.93L10.6,22.32a1.5,1.5,0,0,0,2.12,2.12L24,13.2a17.75,17.75,0,0,1,25.1,25.1l-2.92,2.92a14.84,14.84,0,0,0-3.5,15.49l-7.2,7.2-.08.1a22.05,22.05,0,0,0-9.76,5.7,21.5,21.5,0,0,0-6.26,18.07,1.5,1.5,0,0,0,1.27,1.27,19.85,19.85,0,0,0,2.8.2A21.76,21.76,0,0,0,38.7,82.79,22,22,0,0,0,44.41,73L44.5,73l7.2-7.2a14.89,14.89,0,0,0,15.52-3.48l2.69-2.69a12.73,12.73,0,0,1,18,18A1.5,1.5,0,1,0,90,79.71,15.75,15.75,0,0,0,90,57.46Zm.6-30.21A18.61,18.61,0,0,1,76.55,33.5,19,19,0,0,1,67,31V23.54A19,19,0,0,1,76.55,21,18.61,18.61,0,0,1,90.64,27.25ZM64,24v7H56.57a20.89,20.89,0,0,0,.61-7ZM36.58,80.67A18.58,18.58,0,0,1,22.2,86.21a18.62,18.62,0,0,1,5.54-14.38,19.05,19.05,0,0,1,8.55-5l5.25,5.25A19,19,0,0,1,36.58,80.67Zm6.86-10.9L38.64,65,44,59.58a14.47,14.47,0,0,0,4.8,4.8Z"/><path class="cls-1" d="M30,58.5v-22a1.5,1.5,0,0,0-3,0v22a1.5,1.5,0,0,0,3,0Z"/><path class="cls-1" d="M44.69,86.56a1.5,1.5,0,1,0-2.12,2.12l8.88,8.88a1.5,1.5,0,0,0,2.12-2.12Z"/><path class="cls-1" d="M20.5,66a1.5,1.5,0,0,0,1.06-2.56l-8.87-8.87a1.5,1.5,0,0,0-2.12,2.12l8.88,8.88A1.5,1.5,0,0,0,20.5,66Z"/></svg>