<svg id="Слой_2" data-name="Слой 2" xmlns="http://www.w3.org/2000/svg" viewBox="0 0 101 101"><defs><style>.cls-1{fill:#007c47;}</style></defs><title>hhhArtboard 2 copy 5</title><path class="cls-1" d="M84.2,85.18C72.38,78.87,65.36,66.83,62.91,62H78.36a1.5,1.5,0,0,0,.71-2.82A51.64,51.64,0,0,1,58.85,39H68.92a1.5,1.5,0,0,0,.67-2.84c-9.65-4.82-15.44-14.42-17.17-17.64l5.8-5.8a1.5,1.5,0,0,0,0-2.12L51.56,3.94a1.5,1.5,0,0,0-2.12,0L42.78,10.6a1.5,1.5,0,0,0,0,2.12l5.8,5.8c-1.74,3.22-7.52,12.82-17.17,17.64A1.5,1.5,0,0,0,32.08,39H42.15A51.64,51.64,0,0,1,21.93,59.18,1.5,1.5,0,0,0,22.64,62H38.09c-2.45,4.83-9.48,16.87-21.29,23.18A1.5,1.5,0,0,0,17.51,88H39.74l9.65,10.51.07.06,0,0,0,0a1.48,1.48,0,0,0,.42.26l.06,0a1.5,1.5,0,0,0,.5.09h0a1.5,1.5,0,0,0,.5-.09l.06,0a1.48,1.48,0,0,0,.42-.26l0,0,0,0,.07-.06L61.26,88H83.49a1.5,1.5,0,0,0,.71-2.82ZM50.5,7.12,55,11.66,50.5,16.19,46,11.66ZM60.6,85a1.5,1.5,0,0,0-1.1.49l-9,9.8-9-9.8A1.5,1.5,0,0,0,40.4,85H22.78c12.76-9,18.8-23.26,19.07-23.92A1.5,1.5,0,0,0,40.47,59H28A53.4,53.4,0,0,0,46,38.09,1.5,1.5,0,0,0,44.59,36H37.45A48.08,48.08,0,0,0,50.5,21.25,48.08,48.08,0,0,0,63.55,36H56.41A1.5,1.5,0,0,0,55,38.09,53.4,53.4,0,0,0,73,59H60.53a1.5,1.5,0,0,0-1.38,2.08c.28.67,6.32,14.9,19.07,23.92Z"/></svg>