<?xml version="1.0" encoding="iso-8859-1"?>
<!-- Generator: Adobe Illustrator 21.0.0, SVG Export Plug-In . SVG Version: 6.00 Build 0)  -->
<svg version="1.1" id="Layer_1" xmlns="http://www.w3.org/2000/svg" xmlns:xlink="http://www.w3.org/1999/xlink" x="0px" y="0px"
	 viewBox="0 0 100.353 100.353" style="enable-background:new 0 0 100.353 100.353;" xml:space="preserve">
<g>
	<path d="M38.532,46.651c6.016,0,11.175-3.714,13.323-8.967c2.149,5.253,7.31,8.967,13.329,8.967
		c7.933,0,14.386-6.457,14.386-14.394c0-7.936-6.454-14.393-14.386-14.393c-6.019,0-11.18,3.714-13.329,8.966
		c-2.147-5.252-7.306-8.966-13.323-8.966c-7.934,0-14.389,6.457-14.389,14.393C24.143,40.194,30.598,46.651,38.532,46.651z
		 M65.184,20.865c6.278,0,11.386,5.111,11.386,11.393s-5.108,11.394-11.386,11.394c-6.286,0-11.399-5.111-11.399-11.394
		C53.784,25.976,58.898,20.865,65.184,20.865z M38.532,20.865c6.282,0,11.393,5.111,11.393,11.393s-5.111,11.394-11.393,11.394
		c-6.28,0-11.389-5.111-11.389-11.394C27.143,25.976,32.253,20.865,38.532,20.865z"/>
	<path d="M85.714,59.475H79.2v-7.136c0-0.829-0.671-1.5-1.5-1.5H27.067c-0.829,0-1.5,0.671-1.5,1.5v11.213L9.305,56.451
		c-0.462-0.203-0.999-0.158-1.421,0.12c-0.424,0.277-0.679,0.749-0.679,1.255v22.262c0,0.506,0.255,0.978,0.678,1.255
		c0.248,0.163,0.534,0.245,0.822,0.245c0.204,0,0.408-0.042,0.6-0.125l16.262-7.097v11.209c0,0.829,0.671,1.5,1.5,1.5H77.7
		c0.829,0,1.5-0.671,1.5-1.5V78.43h6.514c0.829,0,1.5-0.671,1.5-1.5V60.976C87.214,60.147,86.542,59.475,85.714,59.475z
		 M25.567,71.091l-15.362,6.705V60.117l15.362,6.708V71.091z M76.2,60.975v15.954v7.145H28.567V53.839H76.2V60.975z M84.214,75.429
		H79.2V62.475h5.014V75.429z"/>
	<path d="M38.532,38.334c3.353,0,6.08-2.726,6.08-6.076c0-3.351-2.727-6.077-6.08-6.077c-3.348,0-6.072,2.726-6.072,6.077
		C32.46,35.608,35.184,38.334,38.532,38.334z M38.532,29.18c1.698,0,3.08,1.38,3.08,3.077c0,1.696-1.381,3.076-3.08,3.076
		c-1.694,0-3.072-1.38-3.072-3.076S36.839,29.18,38.532,29.18z"/>
	<path d="M65.174,38.334c3.354,0,6.083-2.726,6.083-6.076c0-3.351-2.729-6.077-6.083-6.077c-3.35,0-6.076,2.726-6.076,6.077
		C59.098,35.608,61.824,38.334,65.174,38.334z M65.174,29.18c1.7,0,3.083,1.38,3.083,3.077c0,1.696-1.383,3.076-3.083,3.076
		c-1.696,0-3.076-1.38-3.076-3.076C62.098,30.561,63.478,29.18,65.174,29.18z"/>
</g>
</svg>
