<?xml version="1.0" encoding="utf-8"?>
<!-- Generator: Adobe Illustrator 22.1.0, SVG Export Plug-In . SVG Version: 6.00 Build 0)  -->
<svg version="1.1" id="Layer_1" xmlns="http://www.w3.org/2000/svg" xmlns:xlink="http://www.w3.org/1999/xlink" x="0px" y="0px"
	 viewBox="0 0 100.4 100.4" style="enable-background:new 0 0 100.4 100.4;" xml:space="preserve">
<g>
	<path d="M65.8,57.5v-4.3c0-0.5-0.3-1-0.7-1.3c-0.4-0.3-1-0.3-1.4-0.1l-13.4,5.9l-13.4-5.9c-0.5-0.2-1-0.2-1.4,0.1
		c-0.4,0.3-0.7,0.7-0.7,1.3v4.1c-12.4,5.9-20.3,18.4-20.3,32.1c0,0.8,0.7,1.5,1.5,1.5h68.2c0.8,0,1.5-0.7,1.5-1.5
		C85.6,75.9,77.8,63.5,65.8,57.5z M62.8,55.5v7.7L54,59.3L62.8,55.5z M46.5,59.3l-8.8,3.8v-5c0,0,0,0,0,0v-2.7L46.5,59.3z
		 M34.7,60.6v4.8c0,0.5,0.3,1,0.7,1.3c0.2,0.2,0.5,0.2,0.8,0.2c0.2,0,0.4,0,0.6-0.1l13.4-5.9l13.4,5.9c0.2,0.1,0.4,0.1,0.6,0.1
		c0.3,0,0.6-0.1,0.8-0.2c0.4-0.3,0.7-0.7,0.7-1.3v-4.5c3.4,1.9,6.4,4.4,8.9,7.3c0,0,0,0.1-0.1,0.1L62.2,87.9H37L25.4,68.3
		c0,0-0.1-0.1-0.1-0.1C27.9,65.1,31.1,62.5,34.7,60.6z M23.3,70.7l10.2,17.2h-16C17.7,81.6,19.8,75.7,23.3,70.7z M65.7,87.9
		l10.9-17.2c3.5,5,5.6,10.9,5.9,17.2L65.7,87.9L65.7,87.9z"/>
	<path d="M49.4,50.1c11.3,0,20.5-9.2,20.5-20.5c0-0.7,0-1.5-0.1-2.2c-0.1-0.6-0.2-1-0.2-1.5C67.8,16.4,59.4,9.1,49.4,9.1
		c-10,0-18.4,7.2-20.1,16.8c-0.1,0.3-0.2,1.2-0.2,1.5c-0.1,0.7-0.1,1.4-0.1,2.2C28.9,40.9,38.1,50.1,49.4,50.1z M49.4,47.1
		c-9.6,0-17.5-7.8-17.5-17.5c0-0.4,0-0.9,0.1-1.3c2.8-0.1,8.9-0.5,13-2.2c3.1-1.3,7.2-4,8.9-5.2l12.9,6.8c0.1,0.6,0.1,1.3,0.1,1.9
		C66.9,39.3,59,47.1,49.4,47.1z M49.4,12.1c7.6,0,14.1,4.9,16.5,11.7l-11.4-6c-0.5-0.3-1.1-0.2-1.6,0.1c-0.1,0-5.5,3.9-9.1,5.4
		c-3.3,1.4-8.5,1.8-11.3,2C34.4,17.7,41.3,12.1,49.4,12.1z"/>
</g>
</svg>
