<?xml version="1.0" encoding="iso-8859-1"?>
<!-- Generator: Adobe Illustrator 22.0.1, SVG Export Plug-In . SVG Version: 6.00 Build 0)  -->
<svg version="1.1" id="Layer_1" xmlns="http://www.w3.org/2000/svg" xmlns:xlink="http://www.w3.org/1999/xlink" x="0px" y="0px"
	 viewBox="0 0 100.25 100.25" style="enable-background:new 0 0 100.25 100.25;" xml:space="preserve">
<g>
	<path style="fill:#F44E21;" d="M89.5,32.92c0-4.606-3.452-13.671-3.6-14.055c-0.038-0.1-0.087-0.193-0.143-0.279
		c-1.601-4.614-10.93-7.087-19.757-7.087c-7.263,0-13.888,1.565-17.329,4.088c-3.901-2.026-9.894-3.086-15.672-3.086
		c-9.4,0-19.373,2.804-19.971,8.013C12.562,21.552,9.5,28.524,9.5,32.92c0,12.706,10.016,23.097,22.522,23.616
		C32.011,56.606,32,56.677,32,56.75v18.99c-6.433,0.293-12.5,2.462-12.5,6.36c0,4.2,7.043,6.398,14,6.398s14-2.198,14-6.398
		c0-3.898-6.067-6.068-12.5-6.36V56.75c0-0.096-0.011-0.188-0.028-0.279c5.721-0.481,10.866-3.026,14.69-6.899
		c4.085,4.172,9.575,6.658,15.36,6.956C65.011,56.602,65,56.674,65,56.75v18.99c-6.433,0.293-12.5,2.462-12.5,6.36
		c0,4.2,7.043,6.398,14,6.398s14-2.198,14-6.398c0-3.898-6.067-6.068-12.5-6.36V56.75c0-0.091-0.011-0.179-0.027-0.265
		C79.995,55.561,89.5,45.349,89.5,32.92z M83.001,20.009c0,2.247-6.622,5.51-17,5.51c-4.319,0-8.441-0.587-11.659-1.648
		c-0.63-1.683-1.195-2.966-1.371-3.359c-0.131-1.141-0.716-2.166-1.643-3.072c3.149-1.805,8.715-2.942,14.673-2.942
		C76.379,14.499,83.001,17.762,83.001,20.009z M33,15.501c10.377,0,17,3.263,17,5.51s-6.623,5.51-17,5.51s-17-3.264-17-5.51
		S22.623,15.501,33,15.501z M44.5,82.101c0,1.198-4.176,3.398-11,3.398s-11-2.2-11-3.398c0-1.107,3.573-3.066,9.5-3.357v3.007
		c0,0.828,0.671,1.5,1.5,1.5s1.5-0.672,1.5-1.5v-3.007C40.927,79.035,44.5,80.993,44.5,82.101z M33,53.561
		c-11.304,0-20.5-9.259-20.5-20.641c0-2.391,1.169-5.918,2.119-8.393C17.891,27.791,25.62,29.521,33,29.521
		c7.382,0,15.112-1.731,18.383-4.996c1.001,2.627,2.117,6.121,2.117,8.395C53.5,44.301,44.304,53.561,33,53.561z M77.5,82.101
		c0,1.198-4.177,3.398-11,3.398s-11-2.2-11-3.398c0-1.107,3.573-3.066,9.5-3.357v3.007c0,0.828,0.672,1.5,1.5,1.5s1.5-0.672,1.5-1.5
		v-3.007C73.927,79.035,77.5,80.993,77.5,82.101z M66.198,53.561c-5.486,0-10.748-2.277-14.56-6.266
		c1.346-1.762,2.45-3.72,3.264-5.823c2.888,1.137,6.204,1.656,10.613,1.656c8.73,0,12.89-2.385,17.058-5.266
		c0.681-0.471,0.852-1.406,0.38-2.087c-0.473-0.683-1.406-0.852-2.087-0.381c-3.879,2.682-7.473,4.734-15.351,4.734
		c-4.118,0-7.138-0.478-9.707-1.525c0.449-1.821,0.691-3.724,0.691-5.683c0-1.653-0.436-3.669-1.002-5.6
		c3.117,0.775,6.75,1.199,10.503,1.199c7.367,0,15.081-1.724,18.363-4.976C85.382,26.66,86.5,30.65,86.5,32.92
		C86.5,44.301,77.393,53.561,66.198,53.561z"/>
	<path style="fill:#F44E21;" d="M47.737,35.394c-3.88,2.682-7.475,4.734-15.357,4.734c-8.062,0-10.802-1.804-14.271-4.087
		l-0.7-0.459c-0.694-0.452-1.624-0.256-2.076,0.438s-0.256,1.624,0.438,2.076l0.688,0.451c3.579,2.356,6.96,4.582,15.921,4.582
		c8.734,0,12.895-2.385,17.063-5.266c0.681-0.471,0.852-1.405,0.381-2.087C49.353,35.094,48.419,34.924,47.737,35.394z"/>
</g>
</svg>
