<?xml version="1.0" encoding="iso-8859-1"?>
<!-- Generator: Adobe Illustrator 22.0.1, SVG Export Plug-In . SVG Version: 6.00 Build 0)  -->
<svg version="1.1" id="Layer_1" xmlns="http://www.w3.org/2000/svg" xmlns:xlink="http://www.w3.org/1999/xlink" x="0px" y="0px"
	 viewBox="0 0 100.25 100.25" style="enable-background:new 0 0 100.25 100.25;" xml:space="preserve">
<g>
	<path style="fill:#F44E21;" d="M49.002,52.25c-18.473,0-33.502,15.028-33.502,33.5c0,0.828,0.671,1.5,1.5,1.5h64
		c0.828,0,1.5-0.672,1.5-1.5C82.5,67.278,67.473,52.25,49.002,52.25z M65.539,60.135c-2.346,7.099-8.976,11.864-16.537,11.864
		c-7.558,0-14.189-4.765-16.539-11.864c4.768-3.089,10.447-4.885,16.539-4.885C55.093,55.25,60.771,57.046,65.539,60.135z
		 M18.537,84.25c0.438-9.002,4.8-16.989,11.405-22.291c3.001,7.838,10.522,13.04,19.06,13.04c8.54,0,16.061-5.201,19.058-13.04
		c6.604,5.302,10.966,13.289,11.404,22.291H18.537z"/>
	<path style="fill:#F44E21;" d="M32.978,39.247c3.461,5.549,9.595,9.004,16.327,9.004c7.275,0,13.618-4.027,16.873-9.948
		c0.031-0.012,0.062-0.025,0.093-0.04c2.191-1.021,4.361-4.233,4.624-4.631C72.39,31.231,73,29.142,73,26.42
		C73,13.644,62.264,3.249,49.067,3.249h-0.133C35.737,3.25,25,13.645,25,26.421v4.854c0,2.114,0.842,4.106,2.371,5.608
		C28.876,38.361,30.854,39.193,32.978,39.247z M49.304,45.251c-6.41,0-12.176-3.705-14.786-9.468
		c-0.01-0.212-0.005-0.394,0.017-0.52l0.25-0.154c4.66-2.868,10.458-6.436,13.885-9.718c3.715-3.559,7.571-7.867,9.208-9.73
		c4.729,2.914,7.622,8.019,7.622,13.585C65.501,38.071,58.235,45.251,49.304,45.251z M28,26.421C28,15.299,37.391,6.25,48.933,6.25
		h0.133c11.542,0,20.933,9.049,20.933,20.171c0,1.836-0.276,3.417-1.629,5.59c-0.029,0.044-0.061,0.09-0.093,0.137
		c0.147-0.947,0.224-1.917,0.224-2.903c0-7.078-3.93-13.524-10.255-16.824c-0.619-0.323-1.378-0.176-1.832,0.354
		c-0.05,0.058-5.059,5.89-9.818,10.449c-3.196,3.061-8.844,6.537-13.382,9.329l-0.444,0.273c-1.042,0.642-1.296,1.881-1.258,3.057
		c-0.004,0.032-0.007,0.065-0.008,0.097c-0.758-0.25-1.45-0.668-2.029-1.237C28.524,33.81,28,32.578,28,31.275V26.421z"/>
</g>
</svg>
