<?xml version="1.0" encoding="iso-8859-1"?>
<!-- Generator: Adobe Illustrator 22.0.1, SVG Export Plug-In . SVG Version: 6.00 Build 0)  -->
<svg version="1.1" id="Layer_1" xmlns="http://www.w3.org/2000/svg" xmlns:xlink="http://www.w3.org/1999/xlink" x="0px" y="0px"
	 viewBox="0 0 100.25 100.25" style="enable-background:new 0 0 100.25 100.25;" xml:space="preserve">
<g>
	<path style="fill:#F44E21;" d="M48.561,59.561c0.586-0.586,0.586-1.535,0-2.121s-1.535-0.586-2.121,0L30.987,72.892H22.5
		c-0.829,0-1.5,0.672-1.5,1.5s0.671,1.5,1.5,1.5h5.487l-4,4H15.5c-0.829,0-1.5,0.672-1.5,1.5s0.671,1.5,1.5,1.5H23v7.5
		c0,0.828,0.671,1.5,1.5,1.5s1.5-0.672,1.5-1.5v-8.271l4-4v5.271c0,0.828,0.671,1.5,1.5,1.5c0.829,0,1.5-0.672,1.5-1.5v-8.271
		L48.561,59.561z"/>
	<path style="fill:#F44E21;" d="M86.5,17.892h-9c-0.828,0-1.5,0.671-1.5,1.5s0.672,1.5,1.5,1.5h5.487l-7.512,7.512
		C72.406,26.575,68.8,25.5,64.93,25.5c-7.723,0-14.63,4.25-17.961,10.703c-3.359-6.383-10.241-10.585-17.9-10.585
		C18.003,25.618,9,34.261,9,44.885c0,4.935,1.834,9.507,5.166,12.874c2.208,2.231,5.97,5.886,11.182,10.86
		c0.599,0.572,1.549,0.551,2.121-0.049c0.572-0.6,0.55-1.549-0.049-2.121c-5.191-4.955-8.933-8.589-11.121-10.8
		C13.526,52.848,12,49.024,12,44.885c0-8.969,7.657-16.267,17.069-16.267c7.704,0,14.477,4.959,16.471,12.059
		c0.182,0.647,0.772,1.095,1.444,1.095c0.002,0,0.003,0,0.005,0c0.674-0.002,1.264-0.455,1.442-1.105
		C50.386,33.503,57.171,28.5,64.93,28.5C74.343,28.5,82,35.797,82,44.767c0,4.157-1.555,8.01-4.379,10.849
		c-6.707,6.745-25.96,24.927-30.625,29.325c-1.41-1.321-4.153-3.895-7.482-7.031c-0.604-0.567-1.552-0.54-2.121,0.063
		c-0.568,0.603-0.54,1.552,0.063,2.12c4.891,4.608,8.518,8.002,8.518,8.002c0.29,0.27,0.658,0.405,1.026,0.405
		c0.37,0,0.739-0.136,1.028-0.408c0.24-0.226,24.069-22.666,31.72-30.36C83.135,54.326,85,49.722,85,44.767
		c0-5.845-2.735-11.08-7.03-14.616l7.03-7.03v5.271c0,0.829,0.672,1.5,1.5,1.5s1.5-0.671,1.5-1.5v-9
		C88,18.563,87.328,17.892,86.5,17.892z"/>
	<path style="fill:#F44E21;" d="M70.407,53.076c0.292,0.283,0.668,0.424,1.045,0.424c0.392,0,0.782-0.152,1.076-0.455
		c4.706-4.85,4.225-9.422,3.519-11.715c-1.03-3.347-3.866-6.206-6.744-6.799c-0.814-0.168-1.605,0.355-1.771,1.167
		c-0.168,0.812,0.354,1.604,1.166,1.772c1.586,0.327,3.697,2.19,4.482,4.743c0.624,2.027,0.645,5.19-2.804,8.743
		C69.799,51.55,69.813,52.5,70.407,53.076z"/>
</g>
</svg>
