<?xml version="1.0" encoding="iso-8859-1"?>
<!-- Generator: Adobe Illustrator 22.0.1, SVG Export Plug-In . SVG Version: 6.00 Build 0)  -->
<svg version="1.1" id="Layer_1" xmlns="http://www.w3.org/2000/svg" xmlns:xlink="http://www.w3.org/1999/xlink" x="0px" y="0px"
	 viewBox="0 0 100.25 100.25" style="enable-background:new 0 0 100.25 100.25;" xml:space="preserve">
<g>
	<path style="fill:#F44E21;" d="M49.996,18.325c-15.713,0-28.496,12.961-28.496,28.893c0,5.309,1.455,10.511,4.21,15.065
		c0.043,0.114,0.101,0.224,0.173,0.326L48.31,94.684c0.278,0.397,0.73,0.636,1.215,0.641c0.005,0,0.009,0,0.014,0
		c0.479,0,0.93-0.229,1.213-0.617L74.1,62.633c0.084-0.115,0.148-0.239,0.193-0.369c2.753-4.552,4.207-9.746,4.207-15.046
		C78.5,31.286,65.713,18.325,49.996,18.325z M71.574,60.959c-0.034,0.055-0.063,0.111-0.09,0.168l-21.92,30.115L28.508,61.128
		c-0.026-0.058-0.056-0.113-0.089-0.168c-2.563-4.14-3.918-8.893-3.918-13.742c0-14.277,11.438-25.893,25.496-25.893
		c14.062,0,25.504,11.615,25.504,25.893C75.5,52.066,74.143,56.817,71.574,60.959z"/>
	<path style="fill:#F44E21;" d="M56.87,35.499c-0.004,0-0.007,0-0.011,0c-2.771,0-5.296,1.324-6.883,3.441
		c-1.597-2.095-4.113-3.407-6.862-3.411c-0.004,0-0.007,0-0.011,0c-2.302,0-4.464,0.895-6.089,2.52s-2.518,3.785-2.515,6.082
		c0.002,2.201,0.795,4.247,2.232,5.763C39.68,53,48.596,61.704,48.974,62.073c0.292,0.284,0.67,0.427,1.048,0.427
		c0.379,0,0.759-0.144,1.051-0.43c0.375-0.369,9.231-9.068,12.173-12.155c1.456-1.529,2.256-3.588,2.254-5.798l0,0
		C65.494,39.372,61.623,35.506,56.87,35.499z M61.074,47.846c-2.315,2.429-8.562,8.597-11.055,11.052
		c-2.506-2.453-8.793-8.628-11.11-11.07c-0.907-0.957-1.408-2.271-1.409-3.702c-0.002-1.495,0.579-2.9,1.636-3.957
		c1.058-1.059,2.467-1.641,3.968-1.641c0.002,0,0.005,0,0.007,0c2.537,0.003,4.771,1.715,5.432,4.164
		c0.177,0.654,0.771,1.108,1.448,1.108c0.002,0,0.004,0,0.007,0c0.68-0.003,1.273-0.463,1.444-1.122
		c0.643-2.462,2.869-4.18,5.417-4.18c0.002,0,0.004,0,0.007,0c3.103,0.004,5.63,2.526,5.634,5.621
		C62.501,45.556,61.995,46.879,61.074,47.846z"/>
	<path style="fill:#F44E21;" d="M87.438,32.571c-0.237-0.795-1.074-1.244-1.867-1.008c-0.793,0.237-1.245,1.073-1.008,1.867
		c1.286,4.304,1.938,8.877,1.938,13.591c0,3.294-0.323,6.551-0.96,9.681c-0.165,0.812,0.358,1.604,1.171,1.769
		c0.101,0.021,0.201,0.03,0.301,0.03c0.698,0,1.323-0.49,1.468-1.201c0.677-3.325,1.021-6.784,1.021-10.279
		C89.5,42.015,88.806,37.154,87.438,32.571z"/>
	<path style="fill:#F44E21;" d="M33.5,13c0.194,0,0.392-0.038,0.583-0.119C38.616,10.97,43.467,10,48.5,10
		c0.829,0,1.5-0.671,1.5-1.5S49.329,7,48.5,7c-5.436,0-10.679,1.049-15.583,3.118c-0.763,0.322-1.121,1.202-0.799,1.965
		C32.36,12.656,32.916,13,33.5,13z"/>
	<path style="fill:#F44E21;" d="M25.467,18.146c0.633-0.534,0.714-1.48,0.18-2.113c-0.533-0.633-1.48-0.716-2.113-0.18
		C14.933,23.106,10,33.73,10,45c0,0.829,0.671,1.5,1.5,1.5S13,45.829,13,45C13,34.616,17.544,24.829,25.467,18.146z"/>
</g>
</svg>
