<?xml version="1.0" encoding="iso-8859-1"?>
<!-- Generator: Adobe Illustrator 22.0.1, SVG Export Plug-In . SVG Version: 6.00 Build 0)  -->
<svg version="1.1" id="Layer_1" xmlns="http://www.w3.org/2000/svg" xmlns:xlink="http://www.w3.org/1999/xlink" x="0px" y="0px"
	 viewBox="0 0 100.25 100.25" style="enable-background:new 0 0 100.25 100.25;" xml:space="preserve">
<g>
	<path style="fill:#F44E21;" d="M83.5,18.25h-10c-0.176,0-0.343,0.036-0.5,0.092v-1.725c0-2.822-2.243-5.118-5-5.118
		s-5,2.296-5,5.118v1.633h-8v-1.633c0-2.822-2.243-5.118-5-5.118s-5,2.296-5,5.118v1.633h-8v-1.633c0-2.822-2.243-5.118-5-5.118
		s-5,2.296-5,5.118v1.633h-9.5c-0.829,0-1.5,0.671-1.5,1.5v64c0,0.828,0.671,1.5,1.5,1.5h66c0.828,0,1.5-0.672,1.5-1.5v-64
		C85,18.921,84.328,18.25,83.5,18.25z M66,16.617c0-1.168,0.897-2.118,2-2.118s2,0.95,2,2.118v6.765c0,1.168-0.897,2.118-2,2.118
		s-2-0.95-2-2.118V16.617z M48,16.617c0-1.168,0.897-2.118,2-2.118s2,0.95,2,2.118v6.765c0,1.168-0.897,2.118-2,2.118
		s-2-0.95-2-2.118V16.617z M30,16.617c0-1.168,0.897-2.118,2-2.118s2,0.95,2,2.118v6.765c0,1.168-0.897,2.118-2,2.118
		s-2-0.95-2-2.118V16.617z M82,82.25H19v-61h8v2.132c0,2.822,2.243,5.118,5,5.118s5-2.296,5-5.118V21.25h8v2.132
		c0,2.822,2.243,5.118,5,5.118s5-2.296,5-5.118V21.25h8v2.132c0,2.822,2.243,5.118,5,5.118s5-2.296,5-5.118v-2.224
		c0.157,0.056,0.324,0.092,0.5,0.092H82V82.25z"/>
	<path style="fill:#F44E21;" d="M40.045,39.603c-0.575-0.224-1.23-0.073-1.649,0.381l-8,8.687c-0.561,0.609-0.522,1.558,0.087,2.119
		c0.609,0.562,1.558,0.522,2.12-0.087L38,44.843V70.75c0,0.828,0.671,1.5,1.5,1.5s1.5-0.672,1.5-1.5V41
		C41,40.382,40.621,39.827,40.045,39.603z"/>
	<path style="fill:#F44E21;" d="M68.5,59.25H65V40.356c0-0.674-0.449-1.265-1.099-1.445c-0.648-0.183-1.339,0.095-1.687,0.672
		L49.943,59.977c-0.279,0.464-0.287,1.041-0.021,1.512s0.765,0.762,1.306,0.762H62v8.5c0,0.828,0.672,1.5,1.5,1.5
		c0.828,0,1.5-0.672,1.5-1.5v-8.5h3.5c0.828,0,1.5-0.672,1.5-1.5S69.328,59.25,68.5,59.25z M62,59.25h-8.118L62,45.758V59.25z"/>
</g>
</svg>
