<?xml version="1.0" encoding="iso-8859-1"?>
<!-- Generator: Adobe Illustrator 22.0.1, SVG Export Plug-In . SVG Version: 6.00 Build 0)  -->
<svg version="1.1" id="Layer_1" xmlns="http://www.w3.org/2000/svg" xmlns:xlink="http://www.w3.org/1999/xlink" x="0px" y="0px"
	 viewBox="0 0 100.25 100.25" style="enable-background:new 0 0 100.25 100.25;" xml:space="preserve">
<g>
	<path style="fill:#F44E21;" d="M74.973,47.478C74.426,41.692,64.831,37.336,52,37.02v-3.132c5.357-0.721,9.5-5.224,9.5-10.668
		c0-5.415-8.746-19.006-9.743-20.538c-0.553-0.85-1.96-0.851-2.514,0C48.246,4.214,39.5,17.806,39.5,23.22
		c0,5.444,4.143,9.947,9.5,10.668v3.132c-12.83,0.316-22.426,4.672-22.973,10.457C26.011,47.566,26,47.657,26,47.75v39
		c0,0.02,0,0.039,0.001,0.058C26,86.826,26,86.843,26,86.855c0,6.162,10.533,10.81,24.5,10.81c13.968,0,24.5-4.647,24.5-10.81
		c0-0.019,0-0.037-0.001-0.055C75,86.784,75,86.767,75,86.75v-39C75,47.657,74.989,47.566,74.973,47.478z M42.5,23.22
		c0-3.062,4.406-11.154,7.999-16.924C54.011,11.95,58.5,20.188,58.5,23.22c0,3.791-2.804,6.953-6.5,7.638V24.75
		c0-0.829-0.672-1.5-1.5-1.5c-0.829,0-1.5,0.671-1.5,1.5v6.108C45.304,30.173,42.5,27.011,42.5,23.22z M49,40.031v7.719
		c0,0.829,0.671,1.5,1.5,1.5c0.828,0,1.5-0.671,1.5-1.5v-7.719C63.856,40.35,72,44.369,72,48c0,3.784-8.83,8-21.5,8S29,51.784,29,48
		C29,44.369,37.144,40.35,49,40.031z M72,86.855c0,3.693-8.83,7.81-21.5,7.81S29,90.549,28.998,86.934
		c0.002-0.031,0.008-0.11,0.009-0.142c0.001-0.062,0-0.122-0.006-0.183V53.435c1.303,1.076,2.992,2.031,5,2.833V80.75
		c0,0.828,0.671,1.5,1.5,1.5s1.5-0.672,1.5-1.5V57.283c1.546,0.442,3.218,0.808,5,1.086V69.75c0,0.828,0.671,1.5,1.5,1.5
		s1.5-0.672,1.5-1.5V58.742C46.758,58.909,48.596,59,50.5,59c9.504,0,17.413-2.19,21.5-5.565v33.171
		c-0.006,0.062-0.008,0.123-0.006,0.186L72,86.855z"/>
	<path style="fill:#F44E21;" d="M65.347,29.805c-0.384,0.734-0.1,1.641,0.634,2.024C66.203,31.945,66.44,32,66.675,32
		c0.54,0,1.062-0.293,1.33-0.806c5.079-9.717-1.033-18.226-1.296-18.583c-0.491-0.667-1.426-0.81-2.093-0.321
		c-0.668,0.488-0.813,1.426-0.327,2.095C64.506,14.683,69.543,21.776,65.347,29.805z"/>
	<path style="fill:#F44E21;" d="M33.599,34c0.257,0,0.518-0.066,0.756-0.206c0.715-0.418,0.955-1.337,0.537-2.052
		C26.9,18.093,37.943,9.064,38.431,8.677c0.649-0.513,0.76-1.456,0.247-2.105c-0.512-0.65-1.454-0.761-2.106-0.25
		c-0.137,0.108-13.603,10.993-4.269,26.936C32.582,33.735,33.083,34,33.599,34z"/>
</g>
</svg>
