<?xml version="1.0" encoding="iso-8859-1"?>
<!-- Generator: Adobe Illustrator 22.0.1, SVG Export Plug-In . SVG Version: 6.00 Build 0)  -->
<svg version="1.1" id="Layer_1" xmlns="http://www.w3.org/2000/svg" xmlns:xlink="http://www.w3.org/1999/xlink" x="0px" y="0px"
	 viewBox="0 0 100.25 100.25" style="enable-background:new 0 0 100.25 100.25;" xml:space="preserve">
<g>
	<path style="fill:#F44E21;" d="M86.069,36.088C84.985,19.034,71.274,5.282,54.177,4.101c-9.682-0.671-18.898,2.588-25.952,9.173
		c-6.926,6.464-10.898,15.591-10.898,25.04c0,1.366,0.08,2.733,0.238,4.072l-6.991,14.196c-0.564,1.146-0.508,2.484,0.151,3.579
		c0.66,1.097,1.82,1.773,3.101,1.811c1.905,0.057,3.231,0.096,4.169,0.104l-0.014,3.752c0,11.737,2.893,18.532,17.632,18.531
		L42,84.57v8.18c0,0.828,0.671,1.5,1.5,1.5s1.5-0.672,1.5-1.5v-9.631c0-0.81-0.642-1.473-1.451-1.499l-7.888-0.26
		c-11.389,0-14.682-3.483-14.682-15.526L21,60.527c0-0.103-0.01-0.205-0.031-0.307c-0.154-0.754-0.855-1.28-1.618-1.191
		c-0.067,0.006-0.132,0.018-0.195,0.032c-0.311,0.012-1.406,0.024-5.243-0.088c-0.357-0.011-0.541-0.23-0.62-0.36
		c-0.078-0.129-0.184-0.392-0.029-0.706l7.189-14.599c0.131-0.266,0.18-0.565,0.142-0.859c-0.179-1.354-0.27-2.745-0.27-4.135
		c0-8.621,3.625-16.948,9.945-22.847c6.44-6.011,14.863-8.989,23.698-8.373c15.604,1.078,28.116,13.625,29.105,29.185
		c0.62,9.743-3.225,19.029-10.547,25.476c-0.323,0.285-0.509,0.694-0.509,1.125L72,92.749c-0.001,0.828,0.671,1.5,1.499,1.501H73.5
		c0.828,0,1.499-0.671,1.5-1.499l0.02-29.201C82.714,56.507,86.734,46.538,86.069,36.088z"/>
	<path style="fill:#F44E21;" d="M69,31.709L69,31.709L69,31.709z"/>
	<path style="fill:#F44E21;" d="M59.605,22.499c-0.004,0-0.009,0-0.013,0c-3.091,0-5.9,1.487-7.618,3.849
		c-1.73-2.338-4.532-3.813-7.598-3.817c-0.004,0-0.008,0-0.012,0c-2.538,0-4.913,0.978-6.689,2.753
		c-1.729,1.729-2.68,4.016-2.677,6.441c0.003,2.358,0.87,4.548,2.439,6.167c3.261,3.363,13.131,12.792,13.549,13.191
		c0.29,0.276,0.663,0.415,1.036,0.415c0.375,0,0.749-0.14,1.039-0.419c0.416-0.399,10.218-9.822,13.473-13.163
		c1.593-1.635,2.469-3.84,2.465-6.208C68.993,26.638,64.778,22.506,59.605,22.499z M66,31.713c0.002,1.58-0.57,3.04-1.613,4.11
		c-2.604,2.673-9.695,9.522-12.366,12.097c-2.686-2.572-9.823-9.428-12.428-12.115c-1.025-1.058-1.591-2.508-1.593-4.084
		c-0.002-1.622,0.637-3.154,1.798-4.316c1.208-1.208,2.831-1.874,4.567-1.874c0.002,0,0.005,0,0.008,0
		c2.884,0.004,5.422,1.9,6.171,4.611c0.18,0.65,0.772,1.101,1.446,1.101c0.002,0,0.005,0,0.007,0
		c0.678-0.003,1.269-0.459,1.442-1.114c0.727-2.727,3.256-4.63,6.153-4.63c0.003,0,0.006,0,0.009,0
		C63.125,25.504,65.995,28.292,66,31.713L66,31.713z"/>
</g>
</svg>
