<svg id="Слой_2" data-name="Слой 2" xmlns="http://www.w3.org/2000/svg" viewBox="0 0 101 101"><defs><style>.cls-1{fill:#f44e21;}</style></defs><title>hhhArtboard 2 copy 10 копия 20</title><path class="cls-1" d="M88.94,29.94C82.4,22.89,75.84,19.39,69.51,16S57.13,9.39,52.3,2.77a1.43,1.43,0,0,0-.79-.66h0L51.25,2h-.52l-.22.06h0a1.42,1.42,0,0,0-.78.66C44.85,9.39,38.84,12.61,32.48,16S19.6,22.89,13.06,29.94C4.2,39.48,3,51.48,3,62v4.58A1.5,1.5,0,0,0,4.5,68H29v9.64c0,11.76,9.31,21.63,20.76,22h.74A21.5,21.5,0,0,0,72,78.2V68H97.5a1.5,1.5,0,0,0,1.5-1.5V62C99,51.48,97.8,39.48,88.94,29.94ZM69,78.2A18.5,18.5,0,0,1,49.86,96.69C40,96.36,32,87.83,32,77.67V64.13a18.56,18.56,0,0,1,.88-5.64A28,28,0,0,0,38,59,27.69,27.69,0,0,0,59.89,48.31,19.26,19.26,0,0,1,69,64.65V78.2ZM34.06,55.65a18.48,18.48,0,0,1,17.07-10,17.6,17.6,0,0,1,6,1.3A24.71,24.71,0,0,1,38,56,25,25,0,0,1,34.06,55.65ZM96,65H72v-.5s0-.08,0-.11C71.87,52.77,62.61,43,51.23,42.64A21.5,21.5,0,0,0,29,64.13V65H6V62c0-14.21,2.68-22.89,9.26-30,6.2-6.68,12.52-10.05,18.64-13.32S46,12.19,51,6c5,6.19,10.89,9.35,17.1,12.66S80.54,25.3,86.74,32C93.32,39.06,96,47.75,96,62Z"/><path class="cls-1" d="M13.5,70a1.5,1.5,0,0,0-1.5,1.5v11a1.5,1.5,0,0,0,3,0v-11A1.5,1.5,0,0,0,13.5,70Z"/><path class="cls-1" d="M21.5,70a1.5,1.5,0,0,0-1.5,1.5v11a1.5,1.5,0,0,0,3,0v-11A1.5,1.5,0,0,0,21.5,70Z"/><path class="cls-1" d="M79.5,70a1.5,1.5,0,0,0-1.5,1.5v11a1.5,1.5,0,0,0,3,0v-11A1.5,1.5,0,0,0,79.5,70Z"/><path class="cls-1" d="M87.5,70a1.5,1.5,0,0,0-1.5,1.5v11a1.5,1.5,0,0,0,3,0v-11A1.5,1.5,0,0,0,87.5,70Z"/><path class="cls-1" d="M60.5,25h-3a1.5,1.5,0,0,0,0,3h3a1.5,1.5,0,0,0,0-3Z"/><path class="cls-1" d="M43.5,25h-3a1.5,1.5,0,0,0,0,3h3a1.5,1.5,0,0,0,0-3Z"/><path class="cls-1" d="M50.5,32a1.5,1.5,0,0,0-1.5,1.5v3a1.5,1.5,0,0,0,3,0v-3A1.5,1.5,0,0,0,50.5,32Z"/><path class="cls-1" d="M50.5,22a1.5,1.5,0,0,0,1.5-1.5v-3a1.5,1.5,0,0,0-3,0v3A1.5,1.5,0,0,0,50.5,22Z"/><circle class="cls-1" cx="50.5" cy="27" r="2.5" transform="translate(-0.27 0.5) rotate(-0.57)"/><path class="cls-1" d="M50.5,79.1a5.07,5.07,0,0,0,4.38-2.55,1.5,1.5,0,1,0-2.6-1.49,2,2,0,0,1-3.56,0,1.5,1.5,0,1,0-2.6,1.49A5.07,5.07,0,0,0,50.5,79.1Z"/><path class="cls-1" d="M55.6,84.35a8.31,8.31,0,0,1-10.2,0,1.5,1.5,0,1,0-1.84,2.37,11.31,11.31,0,0,0,13.88,0,1.5,1.5,0,0,0-1.84-2.37Z"/><circle class="cls-1" cx="40.5" cy="65.53" r="2.5"/><circle class="cls-1" cx="60.5" cy="65.53" r="2.5"/></svg>