<svg id="Слой_2" data-name="Слой 2" xmlns="http://www.w3.org/2000/svg" viewBox="0 0 101 101"><defs><style>.cls-1{fill:#f44e21;}</style></defs><title>hhhArtboard 2 copy 8</title><path class="cls-1" d="M84.78,29.71s0-.07-.07-.1l-.17-.15a38.9,38.9,0,0,0-46.47-8.08l-3-3a7.14,7.14,0,0,0-6.31-1.75A8.84,8.84,0,1,0,16.48,29a7.15,7.15,0,0,0,1.75,6.32l3,3a38.95,38.95,0,0,0,16.22,52l.07,0A39,39,0,0,0,84.78,29.71Zm-69.09-8a5.84,5.84,0,0,1,10-4.13,17,17,0,0,0-8.26,8.27A5.88,5.88,0,0,1,15.69,21.72Zm4.67,11.44c-2-2-.84-6.62,2.58-10s8-4.6,10-2.58l2.39,2.39A39.3,39.3,0,0,0,22.78,35.59ZM56,20a35.82,35.82,0,0,1,22.51,7.93A28.35,28.35,0,0,0,69.06,31c-7,3.47-14.74,9.29-21.85,16.41q-1.36,1.36-2.64,2.72a1.5,1.5,0,1,0,2.19,2.05q1.25-1.33,2.58-2.66C56.22,42.66,63.7,37,70.4,33.71c5.71-2.84,10.3-3.62,12.07-2.08A36.25,36.25,0,0,1,85.93,36C78.35,35.93,65.38,44.81,55,55.21,44.76,65.44,35.61,78,35.46,85.54A36.26,36.26,0,0,1,31.18,82a1.41,1.41,0,0,0-.12-.19c-1.71-1.71-1.12-7.13,5.67-17.22A1.5,1.5,0,0,0,34.24,63C31.11,67.62,28,73.22,27.37,77.79A36,36,0,0,1,56,20Zm0,72a35.77,35.77,0,0,1-17-4.26c-2.7-3.31,3.81-16.12,18.09-30.4,15-15,28.15-20.36,31-17.59A36,36,0,0,1,56,92Z"/></svg>