<svg id="Слой_2" data-name="Слой 2" xmlns="http://www.w3.org/2000/svg" viewBox="0 0 101 101"><defs><style>.cls-1{fill:#f44e21;}</style></defs><title>hhhArtboard 2</title><path class="cls-1" d="M94.33,28.26l-15.8-3.52a8.45,8.45,0,0,0-7.67-14.5c-3.83,1-9.48,8-11.05,10C59.25,17.77,57.11,9,54.05,6.5a8.45,8.45,0,0,0-13.1,9.87L23.66,12.52a1.5,1.5,0,0,0-1.79,1.14L18.68,28a1.5,1.5,0,0,0,1.14,1.79L85,44.3V81H52V43.5a1.5,1.5,0,0,0-3,0V81H16V41H37.5a1.5,1.5,0,0,0,0-3h-23A1.5,1.5,0,0,0,13,39.5v43A1.5,1.5,0,0,0,14.5,84h72A1.5,1.5,0,0,0,88,82.5V45l2.48.55a1.48,1.48,0,0,0,.33,0,1.5,1.5,0,0,0,1.46-1.17l3.19-14.32A1.5,1.5,0,0,0,94.33,28.26ZM71.58,13.16a5.45,5.45,0,0,1,2.64,10.57l-.1,0L62.85,21.25C65.46,18,69.5,13.68,71.58,13.16Zm-26.3,4.12a5.45,5.45,0,0,1,6.88-8.45c1.66,1.36,3.48,7,4.47,11L45.36,17.36Zm44.39,25L21.93,27.17l2.54-11.4L92.21,30.87Z"/></svg>