<svg id="Слой_2" data-name="Слой 2" xmlns="http://www.w3.org/2000/svg" viewBox="0 0 101 101"><defs><style>.cls-1{fill:#f44e21;}</style></defs><title>hhhArtboard 2 copy 12</title><path class="cls-1" d="M88.55,25.86a1.5,1.5,0,0,0-2.12,0L71.27,41a31.65,31.65,0,0,0-9.47-5.67,18,18,0,1,0-22.6,0,31.65,31.65,0,0,0-9.51,5.71L14.5,25.86A1.5,1.5,0,0,0,12.38,28L27.52,43.11a31.83,31.83,0,1,0,45.94,0L88.55,28A1.5,1.5,0,0,0,88.55,25.86ZM79.33,65.11A28.83,28.83,0,1,1,43,37.27a1.5,1.5,0,0,0,.33-2.76,15,15,0,1,1,14.36,0A1.5,1.5,0,0,0,58,37.27a28.69,28.69,0,0,1,12.26,6.86h0A28.85,28.85,0,0,1,79.33,65.11Z"/><path class="cls-1" d="M56.5,27.75l-4.94-4.94a1.5,1.5,0,0,0-2.12,2.12l4.94,4.94a1.5,1.5,0,0,0,2.12-2.12Z"/><circle class="cls-1" cx="45" cy="18.5" r="2.5"/><circle class="cls-1" cx="56" cy="18.5" r="2.5"/><circle class="cls-1" cx="50.5" cy="49.5" r="2.5"/><circle class="cls-1" cx="50.5" cy="62.5" r="2.5"/><circle class="cls-1" cx="50.5" cy="76.5" r="2.5"/></svg>