<svg id="Слой_2" data-name="Слой 2" xmlns="http://www.w3.org/2000/svg" viewBox="0 0 101 101"><defs><style>.cls-1{fill:#f44e21;}</style></defs><title>hhhArtboard 2 copy 10 копия 7</title><path class="cls-1" d="M79.5,26H28.11L66,7.88v13.7a1.5,1.5,0,0,0,3,0V5.5a1.5,1.5,0,0,0-2.15-1.35l-46,22-.09.05-.14.08-.11.09-.1.1-.1.12-.08.11-.07.13L20.1,27s0,.09,0,.14,0,.09,0,.14a1.51,1.51,0,0,0,0,.16s0,.07,0,.1v62A1.5,1.5,0,0,0,21.5,91h58A1.5,1.5,0,0,0,81,89.5v-62A1.5,1.5,0,0,0,79.5,26ZM78,88H23V29H78Z"/><path class="cls-1" d="M42.87,65.22a1.5,1.5,0,0,0,2.12,0l5.74-5.74,5.74,5.74a1.5,1.5,0,0,0,2.12-2.12l-5.74-5.74,5.74-5.74a1.5,1.5,0,0,0-2.12-2.12l-5.74,5.74L45,49.5a1.5,1.5,0,0,0-2.12,2.12l5.74,5.74L42.87,63.1A1.5,1.5,0,0,0,42.87,65.22Z"/><path class="cls-1" d="M60.5,59h5a1.5,1.5,0,0,0,0-3h-5a1.5,1.5,0,0,0,0,3Z"/><path class="cls-1" d="M35.5,59h5a1.5,1.5,0,0,0,0-3h-5a1.5,1.5,0,0,0,0,3Z"/><path class="cls-1" d="M50.5,66A1.5,1.5,0,0,0,49,67.5v5a1.5,1.5,0,0,0,3,0v-5A1.5,1.5,0,0,0,50.5,66Z"/><path class="cls-1" d="M50.5,50A1.5,1.5,0,0,0,52,48.5v-6a1.5,1.5,0,0,0-3,0v6A1.5,1.5,0,0,0,50.5,50Z"/></svg>