<svg id="Слой_2" data-name="Слой 2" xmlns="http://www.w3.org/2000/svg" viewBox="0 0 101 101"><defs><style>.cls-1{fill:#f44e21;}</style></defs><title>hhhArtboard 2 copy</title><path class="cls-1" d="M85.5,39h-70A1.5,1.5,0,0,0,14,40.5v44A1.5,1.5,0,0,0,15.5,86h70A1.5,1.5,0,0,0,87,84.5v-44A1.5,1.5,0,0,0,85.5,39ZM84,83H17V42H84Z"/><path class="cls-1" d="M23.3,49.75,49.62,68.69a1.5,1.5,0,0,0,1.75,0l26.34-19A1.5,1.5,0,1,0,76,47.29L50.5,65.63,25.05,47.32a1.5,1.5,0,1,0-1.75,2.44Z"/><path class="cls-1" d="M38.36,34.4a1.5,1.5,0,0,0,1.4-2c-3.54-9.19-4.54-16.09-3.06-21.09.89-3,3.37-4.71,6-4.2a5.12,5.12,0,0,1,4.06,6,1.5,1.5,0,0,0,2.95.57,8.12,8.12,0,0,0-6.43-9.51c-4.17-.81-8.16,1.84-9.48,6.29-1.68,5.66-.65,13.19,3.14,23A1.5,1.5,0,0,0,38.36,34.4Z"/><path class="cls-1" d="M19.12,19.33c2.7.3,5.16,3.1,8.21,9.38A1.5,1.5,0,0,0,30,27.4C27.39,22,24.28,16.88,19.45,16.34a7.91,7.91,0,0,0-8.72,7,1.5,1.5,0,0,0,3,.33A4.91,4.91,0,0,1,19.12,19.33Z"/><path class="cls-1" d="M70.34,34.89a1.49,1.49,0,0,0,.61-.13c10.29-4.56,14.78-9.68,13.74-15.67-.81-4.64-4.45-7.82-8.73-7.56a1.5,1.5,0,0,0,.19,3c3.16-.18,5.14,2.49,5.59,5.08.28,1.63,1.14,6.59-12,12.42a1.5,1.5,0,0,0,.61,2.87Z"/></svg>