<svg id="Слой_2" data-name="Слой 2" xmlns="http://www.w3.org/2000/svg" viewBox="0 0 101 101"><defs><style>.cls-1{fill:#f44e21;}</style></defs><title>hhhArtboard 2 copy 10 копия 3</title><path class="cls-1" d="M84.9,16.7a26,26,0,0,0-36.69,0L36.54,28.37V21.62a10.75,10.75,0,0,0-21.5,0V49.87l-10,10A4.38,4.38,0,0,0,5,66.1l30.5,30.5a4.38,4.38,0,0,0,6.19,0L52.17,86.13,84.9,53.4A26,26,0,0,0,84.9,16.7ZM39.58,94.48a1.38,1.38,0,0,1-1.95,0L7.13,64a1.38,1.38,0,0,1,0-1.95l9.41-9.41L49,85.07Zm43.2-43.2L51.11,82.95,18,49.88V21.62a7.75,7.75,0,1,1,15.5,0V32A1.5,1.5,0,0,0,36.11,33L50.33,18.82A22.95,22.95,0,0,1,82.78,51.27Z"/><path class="cls-1" d="M64.85,38.36l5.74-5.74a1.5,1.5,0,0,0-2.12-2.12l-5.74,5.74L57,30.5a1.5,1.5,0,0,0-2.12,2.12l5.74,5.74L54.87,44.1A1.5,1.5,0,1,0,57,46.22l5.74-5.74,5.74,5.74a1.5,1.5,0,0,0,2.12-2.12Z"/><path class="cls-1" d="M77.5,37h-5a1.5,1.5,0,0,0,0,3h5a1.5,1.5,0,0,0,0-3Z"/><path class="cls-1" d="M52.5,37h-5a1.5,1.5,0,0,0,0,3h5a1.5,1.5,0,0,0,0-3Z"/><path class="cls-1" d="M62.5,47A1.5,1.5,0,0,0,61,48.5v5a1.5,1.5,0,0,0,3,0v-5A1.5,1.5,0,0,0,62.5,47Z"/><path class="cls-1" d="M62.5,31A1.5,1.5,0,0,0,64,29.5v-6a1.5,1.5,0,0,0-3,0v6A1.5,1.5,0,0,0,62.5,31Z"/></svg>