<?xml version="1.0" encoding="iso-8859-1"?>
<!-- Generator: Adobe Illustrator 21.1.0, SVG Export Plug-In . SVG Version: 6.00 Build 0)  -->
<svg version="1.1" id="Layer_1" xmlns="http://www.w3.org/2000/svg" xmlns:xlink="http://www.w3.org/1999/xlink" x="0px" y="0px"
	 viewBox="0 0 100.75 100.75" style="enable-background:new 0 0 100.75 100.75;" xml:space="preserve">
<g>
	<path d="M75.563,88.75H8.097c0.787-17.699,15.431-31.857,33.318-31.857c5.554,0,11.052,1.392,15.9,4.025
		c0.727,0.395,1.638,0.127,2.034-0.603c0.396-0.728,0.126-1.639-0.603-2.034c-5.287-2.871-11.28-4.389-17.332-4.389
		c-20.044,0-36.352,16.31-36.352,36.357c0,0.828,0.672,1.5,1.5,1.5h68.999c0.828,0,1.5-0.672,1.5-1.5S76.392,88.75,75.563,88.75z"/>
	<path d="M40.807,50.072c11.533,0,20.916-9.381,20.916-20.911S52.34,8.251,40.807,8.251c-11.53,0-20.91,9.38-20.91,20.91
		S29.276,50.072,40.807,50.072z M40.807,11.25c9.879,0,17.916,8.034,17.916,17.91s-8.037,17.911-17.916,17.911
		c-9.876,0-17.91-8.035-17.91-17.911S30.931,11.25,40.807,11.25z"/>
	<path d="M89.133,65.037c-0.014,0-0.027,0-0.042,0.001c-0.05-0.004-4.273,0.062-6.31-4.725c-0.547-1.286-0.749-2.73-0.822-3.512
		c1.297-1.519,2.004-3.427,2.004-5.445c0-4.632-3.769-8.399-8.4-8.399s-8.399,3.768-8.399,8.399c0,1.99,0.688,3.876,1.953,5.385
		c-0.111,0.975-0.377,2.577-0.879,3.708c-2.115,4.771-5.976,4.592-6.129,4.593c-0.039-0.003-0.078-0.005-0.117-0.005
		c-3.198,0-5.801,2.603-5.801,5.802v4.198c0,0.828,0.672,1.5,1.5,1.5h0.429l0.029,6.479c0.004,0.825,0.674,1.493,1.5,1.493h31.984
		c0.828,0,1.5-0.672,1.5-1.5v-6.472h0.303c0.828,0,1.5-0.672,1.5-1.5v-4.198C94.936,67.64,92.332,65.037,89.133,65.037z
		 M59.19,70.839c0-1.533,1.237-2.782,2.765-2.802c0.763,0.041,6.179,0.047,9.024-6.371c0.979-2.204,1.18-5.223,1.188-5.351
		c0.027-0.428-0.131-0.848-0.433-1.152c-1.014-1.02-1.571-2.371-1.571-3.807c0-2.978,2.422-5.399,5.399-5.399s5.4,2.422,5.4,5.399
		c0,1.45-0.568,2.812-1.6,3.835c-0.293,0.29-0.453,0.688-0.444,1.101c0.003,0.112,0.076,2.785,1.103,5.195
		c2.756,6.478,8.585,6.534,9.122,6.55c1.54,0.006,2.792,1.261,2.792,2.802v2.698h-0.022c-0.091-0.017-0.185-0.028-0.281-0.028
		s-0.19,0.011-0.281,0.028H59.19L59.19,70.839L59.19,70.839z M90.133,81.509H61.142l-0.022-4.972h29.013V81.509z"/>
</g>
</svg>
