<?xml version="1.0" encoding="iso-8859-1"?>
<!-- Generator: Adobe Illustrator 21.1.0, SVG Export Plug-In . SVG Version: 6.00 Build 0)  -->
<svg version="1.1" id="Layer_1" xmlns="http://www.w3.org/2000/svg" xmlns:xlink="http://www.w3.org/1999/xlink" x="0px" y="0px"
	 viewBox="0 0 100.75 100.748" style="enable-background:new 0 0 100.75 100.748;" xml:space="preserve">
<path d="M89.588,10.244c-0.22-2.152-1.265-4.089-2.942-5.454c-1.675-1.365-3.786-1.998-5.934-1.78
	c-2.153,0.218-4.09,1.262-5.453,2.938c-1.368,1.676-2.001,3.784-1.783,5.938c0.011,0.106,0.033,0.208,0.047,0.313
	c-6.789-2.705-14.757-1.127-19.997,4.317l-2.222-1.812c-2.751-2.246-6.82-1.832-9.072,0.922c-1.088,1.332-1.592,3.01-1.417,4.725
	c0.175,1.713,1.005,3.256,2.339,4.345l1.951,1.591L26.05,49.646l-1.943-1.585c-2.759-2.247-6.829-1.833-9.074,0.922
	c-2.242,2.759-1.828,6.827,0.922,9.067l2.221,1.811c-4.289,6.239-4.228,14.379-0.192,20.488c-0.109,0.007-0.218,0.006-0.328,0.017
	c-2.152,0.219-4.089,1.262-5.456,2.938v-0.001c-1.367,1.677-1.998,3.784-1.779,5.937c0.22,2.151,1.264,4.089,2.94,5.455
	c1.459,1.19,3.246,1.823,5.103,1.823c0.276,0,0.554-0.014,0.833-0.042c2.152-0.219,4.089-1.262,5.456-2.938
	c1.367-1.677,1.998-3.784,1.779-5.937c-0.012-0.119-0.036-0.234-0.053-0.352c2.137,0.856,4.418,1.314,6.755,1.314
	c0.625,0,1.254-0.032,1.885-0.096c4.371-0.443,8.343-2.4,11.35-5.535l2.221,1.812c1.16,0.948,2.58,1.453,4.057,1.453
	c0.222,0,0.445-0.012,0.669-0.034c1.709-0.176,3.25-1.006,4.34-2.339c0.001,0,0.001-0.001,0.002-0.002
	c2.24-2.75,1.829-6.816-0.92-9.065l-1.945-1.586L73.95,49.809l1.939,1.581c1.16,0.948,2.583,1.452,4.062,1.452
	c0.221,0,0.442-0.011,0.665-0.034c1.714-0.174,3.257-1.005,4.344-2.339c1.09-1.336,1.594-3.016,1.418-4.73
	c-0.175-1.712-1.006-3.253-2.339-4.337l-2.221-1.811c4.283-6.226,4.228-14.347,0.212-20.455c0.106-0.007,0.212-0.005,0.319-0.016
	c2.152-0.218,4.091-1.261,5.457-2.936C89.175,14.507,89.808,12.397,89.588,10.244z M69.913,46.517l-40.247,3.442l17.766-21.776
	L69.913,46.517z M22.429,91.645c-0.86,1.055-2.079,1.711-3.434,1.849c-1.351,0.138-2.681-0.26-3.737-1.122
	c-1.056-0.86-1.713-2.08-1.851-3.435c-0.138-1.354,0.259-2.681,1.119-3.735c0,0,0,0,0-0.001c0.86-1.055,2.079-1.711,3.434-1.849
	c0.175-0.018,0.35-0.026,0.524-0.026c1.169,0,2.294,0.398,3.213,1.148c1.056,0.86,1.713,2.08,1.851,3.435
	C23.687,89.263,23.289,90.589,22.429,91.645z M34.817,85.484c-4.073,0.416-8.064-0.784-11.236-3.371
	c-6.154-5.019-7.389-13.868-3.08-20.355l23.644,19.281C41.651,83.558,38.391,85.122,34.817,85.484z M55.435,81.928
	c-0.584,0.714-1.409,1.159-2.324,1.253c-0.913,0.089-1.809-0.175-2.521-0.758L21.201,58.458c-0.009-0.008-0.015-0.017-0.024-0.024
	c-0.009-0.007-0.019-0.012-0.028-0.018l-3.298-2.69c-1.47-1.197-1.689-3.373-0.49-4.85c0.679-0.833,1.67-1.265,2.671-1.265
	c0.767,0,1.54,0.254,2.18,0.775L54.94,77.082C56.409,78.283,56.631,80.457,55.435,81.928z M30.082,52.935l40.256-3.442
	L52.569,71.276L30.082,52.935z M83.394,46.044c0.094,0.917-0.176,1.814-0.759,2.529c0,0-0.001,0-0.001,0.001
	c-0.58,0.713-1.404,1.156-2.321,1.25c-0.917,0.097-1.814-0.175-2.527-0.758l-3.052-2.489c-0.013-0.011-0.024-0.024-0.037-0.035
	c-0.003-0.003-0.006-0.007-0.009-0.009c-0.013-0.01-0.027-0.016-0.04-0.026L48.175,24.918c-0.003-0.003-0.005-0.006-0.009-0.009
	s-0.007-0.004-0.01-0.007l-3.104-2.532c-0.713-0.583-1.158-1.408-1.251-2.325c-0.093-0.916,0.175-1.812,0.756-2.522
	c0.683-0.835,1.678-1.269,2.68-1.269c0.766,0,1.535,0.253,2.172,0.774l3.31,2.7c0.005,0.004,0.009,0.01,0.014,0.014
	c0.005,0.004,0.011,0.007,0.016,0.011l26.047,21.244c0.008,0.007,0.014,0.015,0.022,0.022c0.005,0.004,0.011,0.005,0.016,0.009
	l3.313,2.702C82.856,44.308,83.301,45.13,83.394,46.044z M79.493,37.695L55.851,18.412c5.488-5.525,14.406-6.093,20.561-1.073
	C82.569,22.361,83.803,31.21,79.493,37.695z M85.481,14.288c-0.86,1.054-2.08,1.71-3.436,1.848c-1.356,0.137-2.681-0.26-3.734-1.12
	c-1.056-0.86-1.713-2.08-1.851-3.434c-0.138-1.355,0.261-2.682,1.124-3.739c0.857-1.055,2.075-1.711,3.43-1.848
	c0.175-0.018,0.35-0.027,0.522-0.027c1.17,0,2.295,0.399,3.215,1.148c1.056,0.859,1.713,2.078,1.852,3.432
	C86.741,11.904,86.343,13.231,85.481,14.288z"/>
</svg>
