<?xml version="1.0" encoding="iso-8859-1"?>
<!-- Generator: Adobe Illustrator 21.0.2, SVG Export Plug-In . SVG Version: 6.00 Build 0)  -->
<svg version="1.1" id="Layer_1" xmlns="http://www.w3.org/2000/svg" xmlns:xlink="http://www.w3.org/1999/xlink" x="0px" y="0px"
	 viewBox="0 0 100.75 100.749" style="enable-background:new 0 0 100.75 100.749;" xml:space="preserve">
<g>
	<path d="M90.147,11.784l-1.931-1.931c-2.435-2.436-5.673-3.777-9.117-3.777s-6.682,1.341-9.177,3.84
		C69.71,10.154,48.634,33.82,41.228,41.227C33.821,48.634,10.155,69.71,9.853,69.981c-5.027,5.027-5.027,13.208,0,18.234
		l1.932,1.931c2.435,2.436,5.673,3.777,9.117,3.777s6.682-1.342,9.175-3.839c0.212-0.238,21.313-23.881,28.72-31.288
		c7.408-7.408,31.05-28.508,31.35-28.779c2.436-2.435,3.777-5.673,3.777-9.117C93.924,17.457,92.583,14.219,90.147,11.784z
		 M88.088,27.838c-0.239,0.212-23.944,21.37-31.412,28.837c-7.467,7.467-28.625,31.173-28.779,31.35
		c-1.869,1.869-4.353,2.898-6.996,2.898s-5.127-1.029-6.996-2.898l-1.932-1.931C8.116,82.237,8.116,75.96,11.91,72.161
		c0.239-0.212,23.969-21.346,31.438-28.814c7.468-7.468,28.602-31.198,28.754-31.374c1.869-1.869,4.354-2.898,6.996-2.898
		s5.127,1.029,6.996,2.898l1.931,1.931c1.869,1.869,2.898,4.353,2.898,6.996C90.924,23.544,89.895,26.028,88.088,27.838z"/>
	<path d="M60.685,29.711c-0.586-0.586-1.535-0.586-2.121,0c-0.586,0.585-0.586,1.536,0,2.121l9.593,9.593
		c0.293,0.293,0.677,0.439,1.061,0.439s0.768-0.146,1.061-0.439c0.586-0.585,0.586-1.536,0-2.121L60.685,29.711z"/>
	<path d="M32.212,58.018c-0.586-0.586-1.535-0.586-2.121,0s-0.586,1.535,0,2.121l9.593,9.593c0.293,0.293,0.677,0.439,1.061,0.439
		s0.768-0.146,1.061-0.439c0.586-0.586,0.586-1.535,0-2.121L32.212,58.018z"/>
</g>
</svg>
