<?xml version="1.0" encoding="iso-8859-1"?>
<!-- Generator: Adobe Illustrator 22.0.0, SVG Export Plug-In . SVG Version: 6.00 Build 0)  -->
<svg version="1.1" id="Layer_1" xmlns="http://www.w3.org/2000/svg" xmlns:xlink="http://www.w3.org/1999/xlink" x="0px" y="0px"
	 viewBox="0 0 100.25 100.25" style="enable-background:new 0 0 100.25 100.25;" xml:space="preserve">
<path d="M79.567,29.925l-18.26-18.479C61.025,11.161,60.641,11,60.24,11H20.5c-0.829,0-1.5,0.671-1.5,1.5v75
	c0,0.829,0.671,1.5,1.5,1.5h58c0.829,0,1.5-0.671,1.5-1.5V30.979C80,30.584,79.844,30.206,79.567,29.925z M62,16.415L74.93,29.5H62
	V16.415z M22,86V14h37v17c0,0.829,0.671,1.5,1.5,1.5H77V86H22z"/>
<path d="M51.376,61.522c-0.853-0.047-3.146-0.008-3.404-0.002c-0.818,0.015-1.473,0.682-1.473,1.5V77c0,0.829,0.671,1.5,1.5,1.5
	s1.5-0.671,1.5-1.5v-5.49h2.206c1.927,0,4.794-1.275,4.794-4.79C56.5,64.886,55.834,61.77,51.376,61.522z M51.706,68.51H49.5v-4.008
	c0.675-0.007,1.374-0.003,1.71,0.016c1.519,0.084,2.29,0.448,2.29,2.203C53.5,68.242,52.366,68.495,51.706,68.51z"/>
<path d="M40.908,61.557c-0.646-0.185-1.335,0.086-1.686,0.659l-3.655,5.955l-3.801-5.975c-0.357-0.562-1.042-0.82-1.685-0.635
	C29.441,61.748,29,62.334,29,63.001v14c0,0.829,0.671,1.5,1.5,1.5s1.5-0.671,1.5-1.5v-8.847l2.323,3.652
	c0.275,0.433,0.753,0.695,1.266,0.695c0.004,0,0.008,0,0.012,0c0.517-0.004,0.996-0.274,1.266-0.715L39,68.312v8.689
	c0,0.829,0.671,1.5,1.5,1.5s1.5-0.671,1.5-1.5v-14C42,62.329,41.554,61.739,40.908,61.557z"/>
<path d="M68.626,69.38c0.733-0.94,1.081-2.111,1.081-3.086c0-1.62-1.41-4.794-4.67-4.794c-2.812,0-4.169,2.511-4.495,3.839
	c-0.196,0.8,0.291,1.601,1.089,1.804c0.799,0.204,1.612-0.281,1.822-1.078c0.017-0.064,0.427-1.565,1.584-1.565
	c1.423,0,1.669,1.779,1.67,1.794c0,0.018-0.098,1.794-1.67,1.794c-0.829,0-1.5,0.671-1.5,1.5s0.671,1.5,1.5,1.5
	c0.411,0,2.462,0.126,2.462,2.618c0,0.821-0.905,1.794-1.67,1.794c-0.991,0-1.707,0-2.411-2.055
	c-0.269-0.784-1.122-1.201-1.906-0.932c-0.784,0.269-1.201,1.122-0.932,1.906c1.234,3.597,3.346,4.082,5.249,4.082
	c2.4,0,4.67-2.33,4.67-4.794C70.5,71.667,69.7,70.271,68.626,69.38z"/>
</svg>
