<?xml version="1.0" encoding="iso-8859-1"?>
<!-- Generator: Adobe Illustrator 21.1.0, SVG Export Plug-In . SVG Version: 6.00 Build 0)  -->
<svg version="1.1" id="Layer_1" xmlns="http://www.w3.org/2000/svg" xmlns:xlink="http://www.w3.org/1999/xlink" x="0px" y="0px"
	 viewBox="0 0 100.75 100.75" style="enable-background:new 0 0 100.75 100.75;" xml:space="preserve">
<g>
	<path d="M92.209,10.936c-0.563-0.207-1.201-0.033-1.581,0.436c-0.064,0.081-6.609,8.043-13.812,4.642
		c-2.422-1.145-4.259-3.056-6.036-4.904c-2.17-2.257-4.415-4.591-7.667-5.426c-6.239-1.603-9.866,0.352-11.957,2.875
		c-2.093-2.523-5.723-4.481-11.965-2.875c-3.255,0.835-5.499,3.168-7.669,5.424c-1.778,1.849-3.616,3.76-6.042,4.906
		c-7.166,3.386-13.548-4.314-13.815-4.642c-0.38-0.469-1.015-0.645-1.581-0.436c-0.566,0.209-0.936,0.755-0.92,1.357
		c0.011,0.419,0.361,10.345,8.023,17.172c0.656,0.585,1.346,1.126,2.067,1.628c0.07,19.029,2.562,23.311,4.975,27.443
		c0.3,0.514,0.601,1.028,0.896,1.574c0.254,0.471,0.739,0.738,1.239,0.738c0.226,0,0.455-0.055,0.667-0.17
		c0.684-0.369,0.938-1.223,0.569-1.906c-0.31-0.574-0.625-1.115-0.941-1.655c-2.156-3.692-4.38-7.515-4.578-24.359
		c4.769,2.377,10.655,3.276,17.586,2.659c0.663-0.06,1.318-0.181,1.968-0.332l0.645,3.839c0.114,0.678,0.701,1.174,1.388,1.174
		h14.718c0.663,0,1.236-0.463,1.376-1.111l0.844-3.92c0.672,0.159,1.349,0.288,2.034,0.35c1.419,0.126,2.794,0.189,4.124,0.189
		c5.167,0,9.648-0.972,13.437-2.86c-0.584,23.482-9.499,39.377-22.555,39.829c-0.776,0.027-1.385,0.679-1.357,1.455
		c0.026,0.76,0.65,1.358,1.405,1.358c0.017,0,0.033,0,0.05-0.001c14.979-0.519,25.087-18.288,25.294-44.304
		c0.721-0.502,1.418-1.033,2.074-1.618c7.66-6.828,8.007-16.754,8.018-17.173C93.146,11.69,92.774,11.144,92.209,10.936z
		 M57.248,37.285H44.857l-0.52-3.097c2.635-1.159,5.013-3.048,6.812-5.468c1.788,2.406,4.15,4.289,6.769,5.45L57.248,37.285z
		 M83.238,27.365c-0.643,0.573-1.326,1.097-2.043,1.579c-0.227,0.076-0.427,0.204-0.586,0.376
		c-4.545,2.826-10.486,3.936-17.72,3.295c-4.224-0.379-8.251-3.125-10.512-7.165c-0.248-0.444-0.718-0.72-1.228-0.72
		c-0.509,0-0.979,0.275-1.228,0.719c-2.264,4.041-6.29,6.786-10.506,7.166c-7.243,0.64-13.187-0.471-17.734-3.3
		c-0.157-0.167-0.354-0.293-0.575-0.368c-0.71-0.477-1.386-0.995-2.024-1.561c-3.941-3.5-5.702-8.047-6.485-11.248
		c3.14,2.467,8.324,5.142,14.083,2.419c2.895-1.366,5.006-3.562,6.869-5.5c2.071-2.153,3.859-4.013,6.34-4.649
		c4.851-1.245,8.131-0.155,10.03,3.332c0.247,0.453,0.721,0.734,1.236,0.734c0.516,0,0.99-0.282,1.236-0.735
		c1.896-3.485,5.171-4.575,10.021-3.331c2.478,0.636,4.267,2.497,6.338,4.651c1.862,1.937,3.973,4.131,6.862,5.498
		c5.768,2.725,10.954,0.041,14.092-2.427C88.931,19.319,87.181,23.853,83.238,27.365z"/>
	<path d="M60.429,58.897c-0.062-0.368-0.266-0.697-0.569-0.914l-10.411-7.458c-1.568-1.125-3.48-1.571-5.385-1.258
		c-1.904,0.314-3.573,1.351-4.699,2.92L13.518,88.276c-2.137,2.979-1.45,7.145,1.533,9.287c1.169,0.838,2.52,1.241,3.86,1.241
		c2.074,0,4.12-0.966,5.42-2.777c0.058-0.081,0.107-0.168,0.147-0.26c0.041-0.093,4.07-9.363,6.021-13.389
		c0.798-1.634,1.453-1.998,1.697-2.08c0.088-0.029,0.16-0.033,0.204-0.033c0.046,0.001,0.062,0.004,0.043-0.01l7.572,5.428
		c0.303,0.218,0.681,0.302,1.049,0.245c0.369-0.062,0.697-0.266,0.915-0.569l18.205-25.413
		C60.401,59.643,60.489,59.266,60.429,58.897z M54.545,62.986l-6.651-4.766c-0.63-0.451-1.51-0.308-1.963,0.324
		c-0.453,0.632-0.308,1.511,0.324,1.963l6.652,4.766l-3.095,4.32l-6.512-4.67c-0.63-0.451-1.51-0.308-1.963,0.323
		c-0.453,0.632-0.308,1.511,0.324,1.964l6.513,4.671l-3.345,4.669l-6.62-4.741c-0.632-0.452-1.511-0.309-1.963,0.324
		c-0.452,0.632-0.307,1.511,0.325,1.963l6.62,4.741l-2.679,3.739l-6.427-4.606c-0.181-0.131-1.153-0.759-2.527-0.414
		c-1.387,0.35-2.594,1.556-3.589,3.592c-1.865,3.849-5.461,12.098-6.007,13.351c-1.257,1.628-3.593,1.981-5.27,0.779
		c-1.722-1.237-2.12-3.643-0.887-5.361c0,0,0,0,0-0.001l25.846-36.087c0.688-0.958,1.707-1.592,2.87-1.783
		c0.243-0.04,0.486-0.06,0.727-0.06c0.914,0,1.803,0.284,2.561,0.827l9.269,6.639L54.545,62.986z"/>
</g>
</svg>
