<svg id="Layer_1" data-name="Layer 1" xmlns="http://www.w3.org/2000/svg" viewBox="0 0 101 101"><title>Artboard 2 copy 7</title><path d="M88.5,22H64V14.5A1.5,1.5,0,0,0,62.5,13h-24A1.5,1.5,0,0,0,37,14.5V22H12.5A1.5,1.5,0,0,0,11,23.5v55A1.5,1.5,0,0,0,12.5,80h76A1.5,1.5,0,0,0,90,78.5v-55A1.5,1.5,0,0,0,88.5,22ZM87,68H84.5A6.51,6.51,0,0,0,78,74.5V77H75V25H87ZM38.5,25H64V77H37V25ZM40,16H61v6H40ZM26,25V77H23V74.5A6.51,6.51,0,0,0,16.5,68H14V25ZM14,77V71h2.5A3.5,3.5,0,0,1,20,74.5V77Zm15,0V25h5V77Zm38,0V25h5V77Zm20,0H81V74.5A3.5,3.5,0,0,1,84.5,71H87Z"/></svg>