<?xml version="1.0" encoding="iso-8859-1"?>
<!-- Generator: Adobe Illustrator 21.0.0, SVG Export Plug-In . SVG Version: 6.00 Build 0)  -->
<svg version="1.1" id="Layer_1" xmlns="http://www.w3.org/2000/svg" xmlns:xlink="http://www.w3.org/1999/xlink" x="0px" y="0px"
	 viewBox="0 0 100.353 100.353" style="enable-background:new 0 0 100.353 100.353;" xml:space="preserve">
<path style="fill:#231F20;" d="M84.977,100.004H15.022C6.739,100.004,0,93.263,0,84.977v-69.95C0,6.741,6.739,0,15.022,0h69.955
	C93.261,0,100,6.741,100,15.027v69.95C100,93.262,93.261,100.004,84.977,100.004z M15.023,2.912c-6.678,0-12.11,5.435-12.11,12.115
	v69.95c0,6.68,5.432,12.115,12.11,12.115h69.955c6.678,0,12.11-5.435,12.11-12.115v-69.95c0-6.68-5.433-12.115-12.11-12.115H15.023z
	"/>
<path style="fill:#231F20;" d="M49.998,67.77c-9.798,0-17.769-7.973-17.769-17.773c0-9.798,7.971-17.769,17.769-17.769
	c9.8,0,17.773,7.971,17.773,17.769C67.771,59.797,59.798,67.77,49.998,67.77z M49.998,35.141c-8.192,0-14.856,6.665-14.856,14.856
	c0,8.194,6.664,14.86,14.856,14.86c8.194,0,14.86-6.667,14.86-14.86C64.858,41.805,58.192,35.141,49.998,35.141z"/>
</svg>
