<svg id="Слой_1" data-name="Слой 1" xmlns="http://www.w3.org/2000/svg" viewBox="0 0 100 100"><title>testМонтажная область 8</title><path d="M59.52,47.37a9.43,9.43,0,0,0,3-6.87A9.55,9.55,0,0,0,52.92,31H36a1.5,1.5,0,0,0,0,3h4.5V65H36a1.5,1.5,0,0,0,0,3H56.89a10.47,10.47,0,0,0,2.63-20.63ZM52.92,34a6.5,6.5,0,1,1,0,13H43.5V34Zm4,31H43.5V50h9.42c.28,0,.56,0,.84,0a1.5,1.5,0,0,0,.33,0h2.74a7.7,7.7,0,0,1,7.67,7.52A7.55,7.55,0,0,1,56.89,65Z"/><path d="M94,51.5a1.5,1.5,0,0,0,0-3H84.5v-11H94a1.5,1.5,0,0,0,0-3H84.5V17A1.5,1.5,0,0,0,83,15.5H65.5V5a1.5,1.5,0,0,0-3,0V15.5h-11V5a1.5,1.5,0,0,0-3,0V15.5h-11V5a1.5,1.5,0,0,0-3,0V15.5H17A1.5,1.5,0,0,0,15.5,17V34.5H5a1.5,1.5,0,0,0,0,3H15.5v11H5a1.5,1.5,0,0,0,0,3H15.5v11H5a1.5,1.5,0,0,0,0,3H15.5V83A1.5,1.5,0,0,0,17,84.5H34.5V94a1.5,1.5,0,0,0,3,0V84.5h11V94a1.5,1.5,0,0,0,3,0V84.5h11V94a1.5,1.5,0,0,0,3,0V84.5H83A1.5,1.5,0,0,0,84.5,83V65.5H94a1.5,1.5,0,0,0,0-3H84.5v-11Zm-12.5,30h-63v-63h63Z"/></svg>