<?xml version="1.0" encoding="iso-8859-1"?>
<!-- Generator: Adobe Illustrator 21.1.0, SVG Export Plug-In . SVG Version: 6.00 Build 0)  -->
<svg version="1.1" id="Layer_1" xmlns="http://www.w3.org/2000/svg" xmlns:xlink="http://www.w3.org/1999/xlink" x="0px" y="0px"
	 viewBox="0 0 100.353 100.353" style="enable-background:new 0 0 100.353 100.353;" xml:space="preserve">
<g>
	<path d="M86.782,70.501c-0.47-0.684-1.404-0.854-2.086-0.385l-7.067,4.869v-8.584c0-0.828-0.672-1.5-1.5-1.5s-1.5,0.672-1.5,1.5
		v8.579l-7.053-4.878c-0.682-0.473-1.615-0.302-2.087,0.38s-0.301,1.616,0.38,2.087l7.619,5.27l-7.629,5.256
		c-0.683,0.47-0.854,1.404-0.385,2.086c0.291,0.423,0.76,0.649,1.236,0.649c0.294,0,0.59-0.086,0.85-0.265l7.068-4.87v8.577
		c0,0.828,0.672,1.5,1.5,1.5s1.5-0.672,1.5-1.5v-8.57l7.05,4.876c0.261,0.181,0.558,0.267,0.853,0.267
		c0.476,0,0.943-0.226,1.234-0.646c0.472-0.682,0.301-1.616-0.38-2.087l-7.617-5.269l7.629-5.256
		C87.08,72.117,87.252,71.183,86.782,70.501z"/>
	<path d="M81.207,7.778H17.114c-5.756,0-10.439,4.193-10.439,9.348v29.338c0,5.154,4.683,9.348,10.439,9.348h64.093
		c5.756,0,10.439-4.193,10.439-9.348V17.126C91.646,11.971,86.963,7.778,81.207,7.778z M88.646,46.464
		c0,3.5-3.337,6.348-7.439,6.348H17.114c-4.102,0-7.439-2.848-7.439-6.348V17.126c0-3.5,3.337-6.348,7.439-6.348h64.093
		c4.103,0,7.439,2.848,7.439,6.348V46.464z"/>
	<path d="M76.129,38.361H22.771c-0.829,0-1.5,0.671-1.5,1.5s0.671,1.5,1.5,1.5h53.358c0.828,0,1.5-0.671,1.5-1.5
		S76.957,38.361,76.129,38.361z"/>
	<path d="M22.771,25.239h7.621c0.829,0,1.5-0.671,1.5-1.5v-7.62c0-0.829-0.671-1.5-1.5-1.5h-7.621c-0.829,0-1.5,0.671-1.5,1.5v7.62
		C21.271,24.568,21.942,25.239,22.771,25.239z M24.271,17.619h4.621v4.62h-4.621V17.619z"/>
	<path d="M49.165,64.902c-0.829,0-1.5,0.672-1.5,1.5v26.127c0,0.828,0.671,1.5,1.5,1.5s1.5-0.672,1.5-1.5V66.402
		C50.665,65.574,49.994,64.902,49.165,64.902z"/>
	<path d="M27.883,64.594c-0.829,0-1.5,0.672-1.5,1.5v16.229c0,3.181-2.584,5.769-5.762,5.769c-3.178,0-5.764-2.588-5.764-5.769
		c0-0.828-0.671-1.5-1.5-1.5s-1.5,0.672-1.5,1.5c0,4.835,3.932,8.769,8.764,8.769c4.831,0,8.762-3.934,8.762-8.769V66.094
		C29.383,65.266,28.711,64.594,27.883,64.594z"/>
</g>
</svg>
