<?xml version="1.0" encoding="utf-8"?>
<!-- Generator: Adobe Illustrator 22.1.0, SVG Export Plug-In . SVG Version: 6.00 Build 0)  -->
<svg version="1.1" id="Layer_1" xmlns="http://www.w3.org/2000/svg" xmlns:xlink="http://www.w3.org/1999/xlink" x="0px" y="0px"
	 viewBox="0 0 101 101" style="enable-background:new 0 0 101 101;" xml:space="preserve">
<title>log_Artboard 2 copy 7</title>
<path d="M88.6,23H87v-4.5c0-0.8-0.7-1.5-1.5-1.5S84,17.7,84,18.5V23H18v-4.5c0-0.8-0.7-1.5-1.5-1.5c-0.8,0-1.5,0.7-1.5,1.5V23h-1.6
	C11,23,9.1,24.8,9,27.2v27.5c0,2.4,2,4.3,4.4,4.2h1.7v1.6C15.1,81.8,31.5,99,51.7,99s36.6-17.2,36.6-38.5v-1.6h0.3
	c2.4,0,4.3-1.9,4.4-4.2V27.2C92.9,24.8,91,23,88.6,23z M85.3,60.5C85.3,80.1,70.2,96,51.7,96S18.1,80.1,18.1,60.5v-1.6h28.6
	c0.4,0,0.9-0.2,1.2-0.5l3.7-4.4l3.5,4.4c0.3,0.4,0.7,0.6,1.2,0.6h29.1V60.5z M90,54.7c-0.1,0.7-0.7,1.3-1.4,1.2H56.9l-4.2-5.3
	c-0.3-0.4-0.7-0.6-1.2-0.6l0,0c-0.4,0-0.9,0.2-1.2,0.5l-4.4,5.3H13.4c-0.7,0-1.3-0.5-1.4-1.2V27.2c0.1-0.7,0.7-1.2,1.4-1.2h75.2
	c0.7,0,1.3,0.5,1.4,1.2V54.7z"/>
<path d="M36.8,34.4c-0.7-0.4-1.6-0.2-2,0.5l-5.4,9.2L24.8,35c-0.3-0.8-1.2-1.1-2-0.8c-0.8,0.3-1.1,1.2-0.8,2c0,0,0,0.1,0.1,0.1
	L28,47.9c0.2,0.5,0.7,0.8,1.3,0.8l0,0c0.6,0,1.1-0.3,1.3-0.8l6.8-11.6C37.8,35.7,37.5,34.8,36.8,34.4C36.8,34.4,36.8,34.4,36.8,34.4
	z"/>
<path d="M75.9,41.8c1.6-0.8,2.7-2.5,2.8-4.3c0-1.3-0.7-4.5-7.2-4.5h-3c-0.8,0-1.5,0.7-1.5,1.5v13c0,0.8,0.7,1.5,1.5,1.5
	s1.5-0.7,1.5-1.5V43h1.5c0.5,0,1-0.1,1.4-0.2l3.8,5.5c0.5,0.7,1.4,0.8,2.1,0.4c0.7-0.5,0.8-1.4,0.4-2.1L75.9,41.8z M70,40v-4h1.5
	c0.7,0,4.2,0.1,4.2,1.5c0,1.2-1.7,2.5-4.2,2.5H70z"/>
<path d="M45,65.4c0,0.8,0.7,1.5,1.5,1.5h10c0.8,0,1.5-0.7,1.5-1.5s-0.7-1.5-1.5-1.5h-10C45.7,63.9,45,64.6,45,65.4z"/>
<path d="M51.3,74c-4.6,0-8.3,3.1-8.3,7s3.7,7,8.3,7s8.3-3.1,8.3-7S55.8,74,51.3,74z M51.3,85c-2.9,0-5.3-1.8-5.3-4s2.4-4,5.3-4
	s5.3,1.8,5.3,4S54.2,85,51.3,85z"/>
</svg>
