<?xml version="1.0" encoding="iso-8859-1"?>
<!-- Generator: Adobe Illustrator 21.1.0, SVG Export Plug-In . SVG Version: 6.00 Build 0)  -->
<svg version="1.1" id="Layer_1" xmlns="http://www.w3.org/2000/svg" xmlns:xlink="http://www.w3.org/1999/xlink" x="0px" y="0px"
	 viewBox="0 0 100.176 100.178" style="enable-background:new 0 0 100.176 100.178;" xml:space="preserve">
<g>
	<path d="M87.001,7.889H12.756c-0.829,0-1.5,0.671-1.5,1.5v74.247c0,0.828,0.671,1.5,1.5,1.5h7.242v7.478c0,0.828,0.671,1.5,1.5,1.5
		s1.5-0.672,1.5-1.5v-7.478h54.079v7.478c0,0.828,0.672,1.5,1.5,1.5s1.5-0.672,1.5-1.5v-7.478h6.924c0.828,0,1.5-0.672,1.5-1.5
		V9.389C88.501,8.56,87.829,7.889,87.001,7.889z M85.501,82.135H14.256V10.889h71.245V82.135z"/>
	<path d="M21.498,76.392h56.761c0.828,0,1.5-0.672,1.5-1.5V18.133c0-0.829-0.672-1.5-1.5-1.5H21.498c-0.829,0-1.5,0.671-1.5,1.5
		v56.759C19.998,75.72,20.669,76.392,21.498,76.392z M22.998,19.633h53.761v53.759H22.998V19.633z"/>
	<path d="M57.89,35.932c0-2.138-0.834-4.149-2.349-5.662c-1.513-1.512-3.523-2.344-5.66-2.344c-0.001,0-0.002,0-0.002,0
		c-4.419,0-8.015,3.591-8.015,8.006c0,3.905,2.81,7.161,6.514,7.866v15.981c0,0.01-0.003,0.019-0.003,0.029s0.003,0.019,0.003,0.029
		v3.766c0,0.828,0.671,1.5,1.5,1.5s1.5-0.672,1.5-1.5v-2.295h5.012c0.828,0,1.5-0.672,1.5-1.5s-0.672-1.5-1.5-1.5h-5.012v-3.785
		h5.012c0.828,0,1.5-0.672,1.5-1.5s-0.672-1.5-1.5-1.5h-5.012v-7.725C55.08,43.094,57.89,39.837,57.89,35.932z M44.864,35.932
		c0-2.76,2.25-5.006,5.016-5.006c0,0,0.001,0,0.001,0c1.336,0,2.594,0.521,3.54,1.466c0.947,0.946,1.469,2.203,1.469,3.54
		c0,2.762-2.246,5.009-5.006,5.012c-0.002,0-0.003-0.001-0.005-0.001c-0.001,0-0.003,0-0.004,0
		C47.111,40.941,44.864,38.694,44.864,35.932z"/>
</g>
</svg>
