<?xml version="1.0" encoding="iso-8859-1"?>
<!-- Generator: Adobe Illustrator 21.0.0, SVG Export Plug-In . SVG Version: 6.00 Build 0)  -->
<svg version="1.1" id="Layer_1" xmlns="http://www.w3.org/2000/svg" xmlns:xlink="http://www.w3.org/1999/xlink" x="0px" y="0px"
	 viewBox="0 0 100.353 100.353" style="enable-background:new 0 0 100.353 100.353;" xml:space="preserve">
<g>
	<path style="fill:#231F20;" d="M70.571,38.35c0.005,0,0.01,0,0.016,0c2.12,0,4.115-0.825,5.618-2.323
		c1.507-1.502,2.338-3.501,2.34-5.629l0,0c0.004-4.394-3.565-7.973-7.957-7.979c-0.002,0-0.005,0-0.007,0
		c-2.125,0-4.124,0.826-5.628,2.326c-1.507,1.502-2.338,3.501-2.34,5.625c-0.004,2.13,0.823,4.134,2.328,5.643
		C66.446,37.52,68.446,38.35,70.571,38.35z M67.071,26.869c0.938-0.935,2.185-1.45,3.509-1.45c0.002,0,0.003,0,0.005,0
		c2.737,0.003,4.962,2.235,4.96,4.976c-0.001,1.326-0.52,2.572-1.458,3.508c-0.937,0.934-2.18,1.448-3.503,1.448
		c-0.003,0-0.007,0-0.01,0c-1.325,0-2.571-0.517-3.509-1.457c-0.939-0.94-1.455-2.19-1.452-3.52
		C65.614,29.05,66.131,27.805,67.071,26.869z"/>
	<path style="fill:#231F20;" d="M96.632,85.441L81.335,49.656l5.214-8.34c0.056-0.088,0.101-0.181,0.135-0.277
		c1.782-2.956,2.724-6.305,2.724-9.705c0.008-5.034-1.941-9.767-5.489-13.329c-3.549-3.563-8.276-5.53-13.312-5.538
		c-0.009,0-0.016,0-0.023,0c-10.375,0-18.827,8.434-18.845,18.813c0,3.453,0.945,6.822,2.736,9.762
		c0.028,0.07,0.062,0.139,0.102,0.205l2.837,4.765H21.212c-0.601,0-1.144,0.358-1.379,0.911L3.37,85.44
		c-0.198,0.463-0.15,0.995,0.127,1.416c0.278,0.42,0.748,0.673,1.252,0.673h90.506c0.504,0,0.975-0.253,1.252-0.674
		C96.783,86.436,96.831,85.905,96.632,85.441z M57.159,39.681c-1.585-2.516-2.422-5.42-2.422-8.397
		c0.015-8.725,7.121-15.816,15.845-15.816c0.006,0,0.013,0,0.02,0c4.233,0.006,8.208,1.66,11.191,4.655
		c2.982,2.994,4.621,6.974,4.614,11.207c0,0.001,0,0.001,0,0.002c0,2.944-0.843,5.847-2.438,8.393
		c-0.053,0.085-0.097,0.175-0.131,0.267L70.256,61.719l-8.933-15.002c-0.011-0.017-0.02-0.036-0.031-0.053l-4.002-6.721
		C57.255,39.853,57.211,39.765,57.159,39.681z M22.201,49.013h3.46c0.21,4.312,3.906,5.935,6.631,7.123
		c1.432,0.625,2.912,1.27,3.378,2.064c0.736,1.255,0.262,2.128-1.177,4.124c-1.311,1.818-2.941,4.081-1.826,7.046
		c1.73,4.602,10.712,5.837,20.559,6.79c1.788,0.173,3.332,0.322,4.3,0.486c7.629,1.295,10.181,5.626,11.008,7.884H7.021
		L22.201,49.013z M71.681,84.53c-0.683-2.589-3.403-9.102-13.654-10.841c-1.074-0.182-2.668-0.336-4.513-0.515
		c-5.461-0.528-16.824-1.627-18.039-4.86c-0.523-1.39,0.211-2.515,1.451-4.236c1.319-1.83,3.125-4.335,1.331-7.396
		c-0.96-1.637-2.896-2.481-4.768-3.297c-2.852-1.243-4.623-2.198-4.812-4.373h30.521l9.737,16.353
		c0.268,0.449,0.75,0.727,1.272,0.732c0.006,0,0.011,0,0.017,0c0.517,0,0.998-0.266,1.271-0.705l7.901-12.639l13.583,31.775H71.681
		V84.53z"/>
</g>
</svg>
