<?xml version="1.0" encoding="iso-8859-1"?>
<!-- Generator: Adobe Illustrator 21.0.0, SVG Export Plug-In . SVG Version: 6.00 Build 0)  -->
<svg version="1.1" id="Layer_1" xmlns="http://www.w3.org/2000/svg" xmlns:xlink="http://www.w3.org/1999/xlink" x="0px" y="0px"
	 viewBox="0 0 100.355 100.94" style="enable-background:new 0 0 100.355 100.94;" xml:space="preserve">
<path d="M84.043,50.749h-4.809V22.286C79.234,11.652,69.181,3,56.824,3c-12.355,0-22.407,8.651-22.407,19.286v21.451h-10.56
	c-0.593,0-1.13,0.35-1.371,0.892l-6.688,15.067c-0.055,0.124-0.093,0.255-0.113,0.39L10.25,96.927
	c-0.063,0.431,0.063,0.869,0.349,1.199c0.285,0.33,0.699,0.52,1.135,0.52h49.223c0.447,0,0.87-0.199,1.155-0.543
	s0.402-0.797,0.318-1.236l-6.976-36.841c-0.007-0.04-0.022-0.078-0.032-0.117c-0.009-0.033-0.016-0.067-0.027-0.099
	c-0.003-0.007-0.004-0.015-0.006-0.022l-5.538-15.067c-0.217-0.59-0.779-0.982-1.408-0.982H37.417V22.288
	c0-8.98,8.706-16.286,19.407-16.286c10.703,0,19.41,7.306,19.41,16.286v28.463H71.43c-0.829,0-1.5,0.671-1.5,1.5v15.154
	c0,0.829,0.671,1.5,1.5,1.5h12.613c0.829,0,1.5-0.671,1.5-1.5V52.251C85.543,51.421,84.872,50.749,84.043,50.749z M52.659,95.645
	l1.927-24.087l4.561,24.087H52.659z M47.397,46.736l5.063,13.776l-2.811,35.132H13.472l5.152-34.919l6.209-13.989h9.584v2.117
	c-1.305,0.579-2.221,1.881-2.221,3.396c0,2.052,1.671,3.721,3.726,3.721s3.726-1.669,3.726-3.721c0-1.52-0.92-2.825-2.231-3.402
	v-2.111L47.397,46.736L47.397,46.736z M35.923,51.53c0.4,0,0.726,0.323,0.726,0.719c0,0.404-0.319,0.721-0.726,0.721
	c-0.4,0-0.726-0.323-0.726-0.721C35.197,51.853,35.523,51.53,35.923,51.53z M82.543,65.903H72.93V53.749h9.613V65.903z"/>
</svg>
