<?xml version="1.0" encoding="iso-8859-1"?>
<!-- Generator: Adobe Illustrator 21.1.0, SVG Export Plug-In . SVG Version: 6.00 Build 0)  -->
<svg version="1.1" id="Layer_1" xmlns="http://www.w3.org/2000/svg" xmlns:xlink="http://www.w3.org/1999/xlink" x="0px" y="0px"
	 viewBox="0 0 100.353 100.352" style="enable-background:new 0 0 100.353 100.352;" xml:space="preserve">
<g>
	<path d="M39.949,23.108l-1.345,7.839c-0.158,0.908,0.205,1.813,0.947,2.361c0.426,0.315,0.928,0.475,1.434,0.475
		c0.372,0,0.746-0.087,1.092-0.263l7.219-3.655l6.845,3.6c0.813,0.431,1.787,0.366,2.538-0.171c0.755-0.541,1.131-1.445,0.981-2.377
		l-1.344-7.809l5.677-5.535c0.663-0.647,0.896-1.597,0.608-2.479c-0.288-0.883-1.039-1.513-1.956-1.645l-7.836-1.139l-3.512-7.112
		c-0.416-0.83-1.246-1.344-2.169-1.344c-0.003,0-0.007,0-0.01,0c-0.924,0.004-1.751,0.523-2.159,1.355l-3.502,7.101l-7.841,1.138
		c-0.919,0.13-1.668,0.76-1.955,1.643c-0.288,0.885-0.051,1.837,0.614,2.481L39.949,23.108z M44.668,15.166
		c0.489-0.071,0.912-0.378,1.13-0.821l3.333-6.758l3.337,6.758c0.218,0.442,0.641,0.75,1.129,0.82l7.455,1.083l-5.396,5.261
		c-0.354,0.345-0.516,0.842-0.432,1.329l1.278,7.427l-6.497-3.417c-0.43-0.226-0.942-0.23-1.376-0.011l-6.875,3.481l1.283-7.482
		c0.083-0.486-0.078-0.982-0.431-1.327l-5.395-5.263L44.668,15.166z"/>
	<path d="M73.988,43.132H59.784c-0.397,0-0.779,0.158-1.061,0.439s-0.439,0.663-0.439,1.061l0.005,16.258H39.983l-0.006-16.259
		c0-0.828-0.672-1.5-1.5-1.5H24.271c-0.829,0-1.5,0.671-1.5,1.5v49.72c0,0.828,0.671,1.5,1.5,1.5h14.207
		c0.828,0,1.5-0.671,1.5-1.499l0.006-16.259h18.306l-0.005,16.258c0,0.397,0.158,0.779,0.439,1.061s0.663,0.439,1.061,0.439h14.204
		c0.828,0,1.5-0.672,1.5-1.5v-49.72C75.488,43.803,74.816,43.132,73.988,43.132z M72.488,92.852H61.284l0.005-16.258
		c0-0.397-0.158-0.779-0.439-1.061s-0.663-0.439-1.061-0.439H38.484c-0.828,0-1.5,0.671-1.5,1.499l-0.006,16.259H25.771v-46.72
		h11.207l0.006,16.259c0,0.828,0.672,1.499,1.5,1.499h21.305c0.397,0,0.779-0.158,1.061-0.439s0.439-0.663,0.439-1.061
		l-0.005-16.258h11.204V92.852z"/>
</g>
</svg>
