<svg id="Layer_1" data-name="Layer 1" xmlns="http://www.w3.org/2000/svg" viewBox="0 0 101 101"><title>Artboard 33</title><path d="M90.5,52H83V45.5A1.5,1.5,0,0,0,81.5,44h-11A1.5,1.5,0,0,0,69,45.5V52H58V45.5A1.5,1.5,0,0,0,56.5,44h-11A1.5,1.5,0,0,0,44,45.5V52H32V45.5A1.5,1.5,0,0,0,30.5,44h-11A1.5,1.5,0,0,0,18,45.5V52H9.5A1.5,1.5,0,0,0,8,53.5v24A1.5,1.5,0,0,0,9.5,79h81A1.5,1.5,0,0,0,92,77.5v-24A1.5,1.5,0,0,0,90.5,52ZM72,47h8v5H72ZM47,47h8v5H47ZM21,47h8v5H21ZM89,76H11V55H89Z"/><path d="M73.29,35a1.5,1.5,0,0,0,.42-.06c9.87-.65,17.63-6.6,17.63-13.81a1.5,1.5,0,0,0-3,0C88.34,27.12,81,32,71.92,32H8.5a1.5,1.5,0,0,0,0,3Z"/><path d="M22.5,39a1.5,1.5,0,0,0,0,3h5a1.5,1.5,0,0,0,0-3Z"/><path d="M47.63,39a1.5,1.5,0,0,0,0,3h6a1.5,1.5,0,0,0,0-3Z"/><path d="M73.25,39a1.5,1.5,0,0,0,0,3h6a1.5,1.5,0,0,0,0-3Z"/></svg>