<svg id="Layer_1" data-name="Layer 1" xmlns="http://www.w3.org/2000/svg" viewBox="0 0 101 101"><title>log_Artboard 2 copy 10</title><path d="M79.5,40H74.59s0-.07-.07-.1L58.8,25.25A8,8,0,0,0,53,14.14V6.5a1.5,1.5,0,0,0-3,0v9A1.5,1.5,0,0,0,51.5,17a5,5,0,0,1,4.9,6L52.52,19.4a1.5,1.5,0,0,0-2,0l-3.91,3.49A5,5,0,0,1,46.5,22a1.5,1.5,0,0,0-3,0,8,8,0,0,0,.62,3.07L27.5,39.88a1.4,1.4,0,0,0-.09.12H22.5A1.5,1.5,0,0,0,21,41.5v46A1.5,1.5,0,0,0,22.5,89h57A1.5,1.5,0,0,0,81,87.5v-46A1.5,1.5,0,0,0,79.5,40Zm-28-17.47,3.38,3.15A4.95,4.95,0,0,1,48,25.59ZM45.79,27.6a8,8,0,0,0,11.27.14L70.23,40H31.88ZM78,86H24V43H78Z"/><path d="M40.5,73A1.5,1.5,0,0,0,42,71.5v-14a1.5,1.5,0,0,0-3,0v14A1.5,1.5,0,0,0,40.5,73Z"/><path d="M51.5,73A1.5,1.5,0,0,0,53,71.5v-14a1.5,1.5,0,0,0-3,0v14A1.5,1.5,0,0,0,51.5,73Z"/><path d="M61.5,73A1.5,1.5,0,0,0,63,71.5v-14a1.5,1.5,0,0,0-3,0v14A1.5,1.5,0,0,0,61.5,73Z"/></svg>