<?xml version="1.0" encoding="iso-8859-1"?>
<!-- Generator: Adobe Illustrator 21.0.2, SVG Export Plug-In . SVG Version: 6.00 Build 0)  -->
<svg version="1.1" id="Layer_1" xmlns="http://www.w3.org/2000/svg" xmlns:xlink="http://www.w3.org/1999/xlink" x="0px" y="0px"
	 viewBox="0 0 100.353 100.352" style="enable-background:new 0 0 100.353 100.352;" xml:space="preserve">
<g>
	
		<polyline style="fill:none;stroke:#000000;stroke-width:3;stroke-linecap:round;stroke-linejoin:round;stroke-miterlimit:10;" points="
		68.901,79.602 75.874,88.169 86.059,74.854 	"/>
	
		<polyline style="fill:none;stroke:#000000;stroke-width:3;stroke-linecap:round;stroke-linejoin:round;stroke-miterlimit:10;" points="
		50.547,79.088 6.835,79.088 6.835,3.797 82.117,3.797 82.117,53.463 	"/>
	
		<line style="fill:none;stroke:#000000;stroke-width:3;stroke-linecap:round;stroke-linejoin:round;stroke-miterlimit:10;" x1="7.243" y1="58.849" x2="68.221" y2="58.849"/>
	
		<polyline style="fill:none;stroke:#000000;stroke-width:3;stroke-linecap:round;stroke-linejoin:round;stroke-miterlimit:10;" points="
		6.949,50.409 25.32,20.796 46.098,58.302 	"/>
	
		<polyline style="fill:none;stroke:#000000;stroke-width:3;stroke-linecap:round;stroke-linejoin:round;stroke-miterlimit:10;" points="
		39.892,46.97 50.416,28.623 68.221,58.849 	"/>
	<path style="fill:none;stroke:#000000;stroke-width:3;stroke-linecap:round;stroke-linejoin:round;stroke-miterlimit:10;" d="
		M71.056,17.283c0,2.913-2.353,5.27-5.264,5.27c-2.904,0-5.257-2.357-5.257-5.27c0-2.905,2.353-5.253,5.257-5.253
		C68.703,12.029,71.056,14.378,71.056,17.283z"/>
	
		<circle style="fill:none;stroke:#000000;stroke-width:3;stroke-linecap:round;stroke-linejoin:round;stroke-miterlimit:10;" cx="76.859" cy="79.895" r="16.661"/>
</g>
</svg>
