<?xml version="1.0" encoding="iso-8859-1"?>
<!-- Generator: Adobe Illustrator 21.1.0, SVG Export Plug-In . SVG Version: 6.00 Build 0)  -->
<svg version="1.1" id="Layer_1" xmlns="http://www.w3.org/2000/svg" xmlns:xlink="http://www.w3.org/1999/xlink" x="0px" y="0px"
	 viewBox="0 0 100.75 100.75" style="enable-background:new 0 0 100.75 100.75;" xml:space="preserve">
<g>
	<path d="M81.664,25.537L65.126,8.999c-0.143-0.146-0.314-0.262-0.506-0.34l0,0c-0.174-0.071-0.364-0.112-0.564-0.112H19.408
		c-0.829,0-1.5,0.672-1.5,1.5v79.904c0,0.828,0.671,1.5,1.5,1.5h61.101c0.829,0,1.5-0.672,1.5-1.5V27.088
		C82.191,26.563,82.084,25.958,81.664,25.537z M65.555,13.671l11.567,11.567l-11.567,0.138V13.671z M79.007,88.453H20.906V11.549
		h41.648v15.346c0,0.401,0.161,0.785,0.446,1.067c0.285,0.281,0.627,0.413,1.072,0.433l14.935-0.179V88.453z"/>
	<path d="M48.443,34.967v5.392c-4.191,0.6-7.394,3.655-7.394,7.334c0,3.675,3.203,6.729,7.394,7.328v8.861
		c-2.524-0.502-4.394-2.237-4.394-4.301c0-0.828-0.671-1.5-1.5-1.5s-1.5,0.672-1.5,1.5c0,3.682,3.203,6.74,7.394,7.338v5.388
		c0,0.828,0.671,1.5,1.5,1.5s1.5-0.672,1.5-1.5v-5.39c4.187-0.603,7.386-3.659,7.386-7.337c0-3.675-3.199-6.728-7.386-7.33v-8.854
		c2.52,0.503,4.386,2.236,4.386,4.296c0,0.828,0.671,1.5,1.5,1.5s1.5-0.672,1.5-1.5c0-3.678-3.2-6.733-7.386-7.334v-5.392
		c0-0.828-0.671-1.5-1.5-1.5S48.443,34.139,48.443,34.967z M44.049,47.693c0-2.061,1.869-3.794,4.394-4.297v8.588
		C45.918,51.482,44.049,49.751,44.049,47.693z M55.828,59.58c0,2.061-1.866,3.794-4.386,4.299v-8.592
		C53.963,55.792,55.828,57.523,55.828,59.58z"/>
	<path d="M24.308,53.635c0,14.131,11.497,25.628,25.628,25.628s25.628-11.497,25.628-25.628c0-14.13-11.497-25.626-25.628-25.626
		S24.308,39.505,24.308,53.635z M72.564,53.635c0,12.478-10.151,22.628-22.628,22.628s-22.628-10.15-22.628-22.628
		c0-12.476,10.151-22.626,22.628-22.626S72.564,41.16,72.564,53.635z"/>
</g>
</svg>
