<?xml version="1.0" encoding="iso-8859-1"?>
<!-- Generator: Adobe Illustrator 22.0.0, SVG Export Plug-In . SVG Version: 6.00 Build 0)  -->
<svg version="1.1" id="Layer_1" xmlns="http://www.w3.org/2000/svg" xmlns:xlink="http://www.w3.org/1999/xlink" x="0px" y="0px"
	 viewBox="0 0 100.25 100.25" style="enable-background:new 0 0 100.25 100.25;" xml:space="preserve">
<g>
	<path d="M79.567,29.924l-18.26-18.479c-0.282-0.285-0.666-0.446-1.067-0.446H20.5c-0.829,0-1.5,0.671-1.5,1.5v75
		c0,0.829,0.671,1.5,1.5,1.5h58c0.829,0,1.5-0.671,1.5-1.5V30.978C80,30.584,79.844,30.205,79.567,29.924z M62,16.415L74.93,29.5H62
		V16.415z M22,86V14h37v17c0,0.829,0.671,1.5,1.5,1.5H77V86H22z"/>
	<path d="M39,62.5H28c-0.829,0-1.5,0.671-1.5,1.5s0.671,1.5,1.5,1.5h4v12c0,0.829,0.671,1.5,1.5,1.5s1.5-0.671,1.5-1.5v-12h4
		c0.829,0,1.5-0.671,1.5-1.5S39.829,62.5,39,62.5z"/>
	<path d="M71,62.5H60c-0.829,0-1.5,0.671-1.5,1.5s0.671,1.5,1.5,1.5h4v12c0,0.829,0.671,1.5,1.5,1.5s1.5-0.671,1.5-1.5v-12h4
		c0.829,0,1.5-0.671,1.5-1.5S71.829,62.5,71,62.5z"/>
	<path d="M54.811,62.738c-0.696-0.449-1.625-0.247-2.073,0.451L49.5,68.226l-3.238-5.037c-0.448-0.697-1.376-0.9-2.073-0.451
		c-0.697,0.448-0.899,1.376-0.451,2.073L47.717,71l-3.979,6.189c-0.448,0.697-0.246,1.625,0.451,2.073
		c0.251,0.162,0.532,0.238,0.81,0.238c0.493,0,0.977-0.243,1.263-0.689l3.238-5.037l3.238,5.037c0.287,0.446,0.77,0.689,1.263,0.689
		c0.278,0,0.559-0.077,0.81-0.238c0.697-0.448,0.899-1.376,0.451-2.073L51.283,71l3.979-6.189
		C55.71,64.114,55.508,63.186,54.811,62.738z"/>
</g>
</svg>
