<?xml version="1.0" encoding="iso-8859-1"?>
<!-- Generator: Adobe Illustrator 22.0.0, SVG Export Plug-In . SVG Version: 6.00 Build 0)  -->
<svg version="1.1" id="Layer_1" xmlns="http://www.w3.org/2000/svg" xmlns:xlink="http://www.w3.org/1999/xlink" x="0px" y="0px"
	 viewBox="0 0 100.25 100.25" style="enable-background:new 0 0 100.25 100.25;" xml:space="preserve">
<path d="M94.46,6.338c-0.586-0.586-1.535-0.586-2.121,0l-8.132,8.132l-0.384-0.384c-0.488-0.488-1.249-0.58-1.843-0.22
	L65.298,24.054c-0.251,0.153-0.437,0.37-0.559,0.615c-0.12,0.066-0.243,0.127-0.344,0.229L49.223,40.069L16.392,7.238
	c-0.586-0.586-1.535-0.586-2.121,0L5.079,16.43c-0.586,0.586-0.586,1.535,0,2.121l4.614,4.614c-1.577,1.752-2.439,3.997-2.417,6.389
	c0.022,2.552,1.036,4.958,2.854,6.776l12.627,12.626c0.293,0.293,0.677,0.439,1.061,0.439s0.768-0.146,1.061-0.439
	c0.586-0.586,0.586-1.535,0-2.121L12.252,34.209c-1.258-1.259-1.96-2.921-1.976-4.682c-0.014-1.58,0.532-3.066,1.539-4.241
	l25.921,25.921L11.513,77.43c-0.464,0.464-0.545,1.151-0.273,1.71c-1.418,1.636-2.312,3.6-2.537,5.61
	c-0.267,2.391,0.43,4.55,1.961,6.081c1.317,1.317,3.099,2.017,5.092,2.017c0.324,0,0.654-0.019,0.989-0.056
	c2.01-0.224,3.973-1.12,5.609-2.537c0.207,0.101,0.425,0.167,0.65,0.167c0.384,0,0.768-0.146,1.061-0.439L50.288,63.76L78.62,92.092
	c0.293,0.293,0.677,0.439,1.061,0.439s0.768-0.146,1.061-0.439l9.192-9.192c0.586-0.586,0.586-1.535,0-2.121L61.778,52.623
	L76.95,37.452c0.107-0.107,0.189-0.231,0.259-0.362c0.247-0.129,0.462-0.323,0.61-0.583l9.719-17.151
	c0.333-0.587,0.232-1.323-0.244-1.8l-0.963-0.963l8.132-8.132C95.046,7.873,95.046,6.924,94.46,6.338z M15.332,10.42l15.26,15.26
	l-7.071,7.071l-15.26-15.26L15.332,10.42z M16.411,89.811c-1.471,0.163-2.753-0.228-3.627-1.101
	c-0.873-0.873-1.264-2.161-1.101-3.627c0.147-1.313,0.719-2.61,1.624-3.736l6.84,6.84C19.021,89.092,17.724,89.664,16.411,89.811z
	 M23.003,86.801l-8.31-8.31l25.163-25.163l8.31,8.31L23.003,86.801z M79.679,88.91L25.642,34.873l7.071-7.071L86.75,81.839
	L79.679,88.91z M59.655,50.501l-8.31-8.31L65.457,28.08l8.309,8.31L59.655,50.501z M75.727,34.108l-8.013-8.013l14.823-9.053
	l1.825,1.826L75.727,34.108z"/>
</svg>
