<svg id="Layer_1" data-name="Layer 1" xmlns="http://www.w3.org/2000/svg" viewBox="0 0 100 100"><title>Artboard 5</title><path d="M17,22A14,14,0,1,0,31,36,14,14,0,0,0,17,22Zm0,25A11,11,0,1,1,28,36,11,11,0,0,1,17,47Z"/><path d="M64,38a8,8,0,1,0-8,8A8,8,0,0,0,64,38ZM51,38a5,5,0,1,1,5,5A5,5,0,0,1,51,38Z"/><path d="M40,63A10,10,0,1,0,50,73,10,10,0,0,0,40,63Zm0,17a7,7,0,1,1,7-7A7,7,0,0,1,40,80Z"/><path d="M23.5,70H9V57.5a1.5,1.5,0,0,0-3,0v14A1.5,1.5,0,0,0,7.5,73H22V90.5a1.5,1.5,0,0,0,3,0v-19A1.5,1.5,0,0,0,23.5,70Z"/><path d="M85.71,31.5A10.07,10.07,0,0,0,79,34v-17A12.14,12.14,0,0,0,66.8,5H34.19A12.14,12.14,0,0,0,22,17.05a1.5,1.5,0,0,0,3,0A9.14,9.14,0,0,1,34.19,8H66.8A9.14,9.14,0,0,1,76,17.06V52H30.5a1.5,1.5,0,0,0,0,3H76V69.5H56.5a1.5,1.5,0,0,0,0,3H76v17a1.5,1.5,0,0,0,3,0v-17H93.5A1.5,1.5,0,0,0,95,71V40.8A9.31,9.31,0,0,0,85.71,31.5ZM92,69.5H79v-29c0-3.31,3-6,6.71-6A6.3,6.3,0,0,1,92,40.8Z"/></svg>