<?xml version="1.0" encoding="iso-8859-1"?>
<!-- Generator: Adobe Illustrator 21.1.0, SVG Export Plug-In . SVG Version: 6.00 Build 0)  -->
<svg version="1.1" id="Layer_1" xmlns="http://www.w3.org/2000/svg" xmlns:xlink="http://www.w3.org/1999/xlink" x="0px" y="0px"
	 viewBox="0 0 100 100" style="enable-background:new 0 0 100 100;" xml:space="preserve">
<path d="M82.125,16.375h-64.25c-0.829,0-1.5,0.671-1.5,1.5v64.25c0,0.828,0.671,1.5,1.5,1.5h24.566c0.829,0,1.5-0.672,1.5-1.5
	s-0.671-1.5-1.5-1.5H19.375v-18.48h12.331c0.829,0,1.5-0.672,1.5-1.5s-0.671-1.5-1.5-1.5H19.375v-39.77h30.767V38.53
	c0,0.829,0.672,1.5,1.5,1.5s1.5-0.671,1.5-1.5V19.375h27.483v29.879H41.163c-0.829,0-1.5,0.671-1.5,1.5c0,0.828,0.671,1.5,1.5,1.5
	h39.462v28.371H63.166l-9.138-13.303c-0.469-0.682-1.401-0.855-2.086-0.387c-0.683,0.469-0.855,1.402-0.387,2.086l9.585,13.953
	c0.279,0.407,0.742,0.65,1.236,0.65h19.748c0.828,0,1.5-0.672,1.5-1.5v-64.25C83.625,17.046,82.953,16.375,82.125,16.375z"/>
</svg>
