<svg id="Layer_1" data-name="Layer 1" xmlns="http://www.w3.org/2000/svg" viewBox="0 0 101 101"><title>log_Artboard 2 copy 13</title><path d="M81.5,33H76V13.5A1.5,1.5,0,0,0,74.5,12h-24A1.5,1.5,0,0,0,49,13.5V25H39.5A1.5,1.5,0,0,0,38,26.5V46H28V25.5A1.5,1.5,0,0,0,26.5,24h-14a1.5,1.5,0,0,0,0,3H25V76.5a1.48,1.48,0,0,0,0,.17c0,.11,0,.22,0,.33a9,9,0,1,0,17.94-1H65.06A9,9,0,1,0,83,77c0-.11,0-.22,0-.33a1.47,1.47,0,0,0,0-.17v-42A1.5,1.5,0,0,0,81.5,33ZM80,46H62V36H80ZM52,15H73V33H62V26.5A1.5,1.5,0,0,0,60.5,25H52ZM41,28H59V46H41ZM34,83a6,6,0,1,1,6-6A6,6,0,0,1,34,83Zm8.5-10a1.48,1.48,0,0,0-.42.07A9,9,0,0,0,28,70.31V49H80V70.31A9,9,0,0,0,65.95,73ZM74,83a6,6,0,1,1,6-6A6,6,0,0,1,74,83Z"/></svg>