<?xml version="1.0" encoding="iso-8859-1"?>
<!-- Generator: Adobe Illustrator 21.0.0, SVG Export Plug-In . SVG Version: 6.00 Build 0)  -->
<svg version="1.1" id="Layer_1" xmlns="http://www.w3.org/2000/svg" xmlns:xlink="http://www.w3.org/1999/xlink" x="0px" y="0px"
	 viewBox="0 0 100.353 100.353" style="enable-background:new 0 0 100.353 100.353;" xml:space="preserve">
<path style="fill:#231F20;" d="M94.186,49.632h-7.719V36.603c0-0.829-0.672-1.5-1.5-1.5H60.781v-13c0-0.829-0.672-1.5-1.5-1.5H5.814
	c-0.829,0-1.5,0.671-1.5,1.5v48.965c0,0.828,0.671,1.5,1.5,1.5H18.29c0.522,3.849,3.823,6.829,7.816,6.829
	c3.983,0,7.278-2.98,7.798-6.829h25.377h9.636c0.522,3.851,3.823,6.831,7.816,6.831c3.992,0,7.294-2.98,7.815-6.831h9.637
	c0.828,0,1.5-0.672,1.5-1.5V51.132C95.686,50.304,95.014,49.632,94.186,49.632z M26.106,76.397c-2.7,0-4.896-2.194-4.896-4.891
	c0-2.699,2.196-4.896,4.896-4.896c2.69,0,4.878,2.196,4.878,4.896C30.984,74.203,28.796,76.397,26.106,76.397z M26.106,63.611
	c-3.684,0-6.778,2.539-7.645,5.957H7.314V23.603h50.467v13v14.529v18.437H33.734C32.868,66.151,29.781,63.611,26.106,63.611z
	 M76.733,76.399c-2.7,0-4.896-2.195-4.896-4.894s2.196-4.893,4.896-4.893c2.699,0,4.896,2.194,4.896,4.893
	S79.433,76.399,76.733,76.399z M92.686,69.568h-8.307c-0.868-3.416-3.961-5.955-7.645-5.955c-3.685,0-6.778,2.539-7.646,5.955
	h-8.306V51.132V38.103h22.686v13.029c0,0.828,0.672,1.5,1.5,1.5h7.719V69.568z"/>
</svg>
