<?xml version="1.0" encoding="iso-8859-1"?>
<!-- Generator: Adobe Illustrator 21.1.0, SVG Export Plug-In . SVG Version: 6.00 Build 0)  -->
<svg version="1.1" id="Layer_1" xmlns="http://www.w3.org/2000/svg" xmlns:xlink="http://www.w3.org/1999/xlink" x="0px" y="0px"
	 viewBox="0 0 100.353 100.353" style="enable-background:new 0 0 100.353 100.353;" xml:space="preserve">
<g>
	<path d="M92.032,53.624c-3.421-2.777-8.126-2.993-12.677-3.202c-4.139-0.19-8.048-0.37-10.48-2.418c0,0-0.001,0-0.001-0.001
		c-0.635-0.534-0.848-0.92-0.835-1.104c0.056-0.801,2.391-2.265,4.096-3.333c3.695-2.316,8.294-5.198,8.516-10.093
		c0.204-4.497-3.501-9.585-11.325-15.555c-0.038-0.036-0.077-0.07-0.118-0.102c-9.875-7.652-21.491-10.723-32.71-8.644
		c-10.867,2.013-20.382,8.58-26.105,18.018C-0.613,45.347,7.793,70.65,29.133,83.595c8.795,5.332,18.518,7.895,27.706,7.895
		c13.669,0,26.152-5.676,32.624-16.349C93.167,69.018,97.139,57.761,92.032,53.624z M86.897,73.587
		c-9.979,16.454-35.72,19.863-56.209,7.442C10.763,68.942,2.81,45.488,12.958,28.746c5.28-8.707,14.059-14.766,24.086-16.623
		c2.104-0.39,4.224-0.583,6.345-0.583c8.297,0,16.595,2.95,23.899,8.585c0.027,0.025,0.055,0.05,0.083,0.073
		c0.019,0.016,0.038,0.032,0.059,0.047c6.938,5.28,10.378,9.684,10.224,13.091c-0.15,3.324-3.849,5.642-7.112,7.687
		c-2.861,1.794-5.333,3.343-5.494,5.667c-0.088,1.263,0.55,2.477,1.897,3.608c3.211,2.702,7.817,2.914,12.273,3.118
		c4.253,0.195,8.27,0.38,10.925,2.535C93.349,58.551,90.258,68.03,86.897,73.587z"/>
	<path d="M56.453,36.514c1.828,1.112,3.835,1.695,5.738,1.695c0.703,0,1.393-0.08,2.053-0.241c1.76-0.431,3.138-1.4,3.988-2.807
		c2.071-3.44,0.167-8.406-4.244-11.071c-2.511-1.524-5.352-2.054-7.797-1.45c-1.755,0.433-3.13,1.406-3.973,2.807
		c-0.854,1.407-1.077,3.082-0.646,4.843C52.172,32.732,53.952,35.001,56.453,36.514z M54.786,26.999
		c0.538-0.895,1.452-1.28,2.124-1.446c0.419-0.103,0.864-0.154,1.325-0.154c1.356,0,2.849,0.438,4.198,1.257
		c0.001,0,0.002,0.001,0.003,0.002c2.947,1.779,4.425,4.965,3.228,6.954c-0.54,0.893-1.458,1.277-2.134,1.442
		c-1.657,0.404-3.718-0.007-5.521-1.104c-1.802-1.09-3.119-2.725-3.523-4.374C54.32,28.899,54.237,27.904,54.786,26.999z"/>
	<path d="M66.204,65.963c-0.001,0-0.001,0-0.002-0.001c-1.92-1.164-4.18-1.508-6.362-0.972c-2.182,0.537-4.022,1.891-5.178,3.805
		c-1.167,1.911-1.519,4.164-0.989,6.344c0.531,2.188,1.885,4.037,3.81,5.205c1.356,0.825,2.857,1.219,4.342,1.219
		c2.844,0,5.625-1.442,7.213-4.048c1.164-1.917,1.51-4.175,0.975-6.358C69.476,68.974,68.123,67.13,66.204,65.963z M66.474,75.955
		c-1.556,2.555-4.889,3.372-7.434,1.825c-1.239-0.752-2.109-1.942-2.452-3.351c-0.34-1.398-0.114-2.845,0.639-4.077
		c0.745-1.234,1.928-2.104,3.33-2.449c0.433-0.106,0.869-0.159,1.303-0.159c0.975,0,1.934,0.266,2.787,0.783
		c1.236,0.751,2.106,1.938,2.451,3.344C67.442,73.276,67.221,74.727,66.474,75.955z"/>
	<path d="M40.163,57.594c-1.917-1.164-4.173-1.513-6.353-0.977c-2.183,0.535-4.025,1.888-5.185,3.806
		c-1.168,1.919-1.518,4.179-0.982,6.362c0.535,2.181,1.887,4.024,3.809,5.193c1.328,0.807,2.819,1.22,4.334,1.22
		c0.674,0,1.354-0.082,2.027-0.248c2.181-0.538,4.024-1.894,5.188-3.814c1.163-1.909,1.51-4.161,0.978-6.342
		C43.444,60.607,42.089,58.76,40.163,57.594z M40.437,67.578c-0.751,1.24-1.938,2.113-3.343,2.46
		c-1.402,0.345-2.853,0.124-4.085-0.623c-1.237-0.753-2.108-1.94-2.453-3.345c-0.344-1.402-0.12-2.854,0.633-4.091
		c0.747-1.235,1.931-2.104,3.333-2.449c0.43-0.104,0.864-0.157,1.295-0.157c0.975,0,1.934,0.267,2.788,0.785
		c0.001,0.001,0.002,0.002,0.002,0.002c1.239,0.75,2.111,1.938,2.455,3.346C41.406,64.907,41.184,66.352,40.437,67.578z"/>
	<path d="M31.766,46.305c1.164-1.916,1.51-4.172,0.975-6.352c-0.535-2.183-1.889-4.027-3.813-5.191
		c-1.924-1.168-4.186-1.515-6.365-0.977c-2.18,0.536-4.02,1.891-5.178,3.811c-2.401,3.954-1.132,9.133,2.831,11.547
		c1.33,0.807,2.821,1.221,4.338,1.221c0.673,0,1.352-0.082,2.023-0.247C28.759,49.581,30.603,48.226,31.766,46.305z M29.201,44.749
		c-0.75,1.238-1.936,2.109-3.34,2.455c-1.403,0.346-2.855,0.123-4.086-0.625c-2.55-1.553-3.369-4.884-1.823-7.43
		c0.746-1.237,1.928-2.107,3.329-2.452c0.431-0.106,0.866-0.159,1.298-0.159c0.976,0,1.937,0.267,2.793,0.787
		c0,0,0.001,0.001,0.001,0.001c1.239,0.75,2.11,1.936,2.455,3.34C30.171,42.068,29.949,43.518,29.201,44.749z"/>
</g>
</svg>
