<?xml version="1.0" encoding="iso-8859-1"?>
<!-- Generator: Adobe Illustrator 22.0.1, SVG Export Plug-In . SVG Version: 6.00 Build 0)  -->
<svg version="1.1" id="Layer_1" xmlns="http://www.w3.org/2000/svg" xmlns:xlink="http://www.w3.org/1999/xlink" x="0px" y="0px"
	 viewBox="0 0 100.25 100.25" style="enable-background:new 0 0 100.25 100.25;" xml:space="preserve">
<path d="M88.845,23.746c-0.511-0.652-1.453-0.768-2.105-0.255L62.593,42.411c-1.378-2.08-3.278-3.778-5.511-4.922l6.805-16.525
	c0.235-0.571,0.097-1.228-0.35-1.655c-0.445-0.427-1.108-0.537-1.668-0.277l-7.088,3.287l-3.354-10.387
	c-0.2-0.619-0.777-1.039-1.428-1.039s-1.228,0.42-1.427,1.039l-3.354,10.387l-7.087-3.287c-0.56-0.26-1.222-0.15-1.668,0.277
	c-0.446,0.427-0.585,1.083-0.35,1.655l6.992,16.979c-1.972,1.176-3.639,2.801-4.863,4.741L13.536,23.486
	c-0.655-0.509-1.597-0.39-2.105,0.264s-0.39,1.597,0.264,2.105l25.197,19.58C36.325,46.985,36,48.65,36,50.393
	c0,3.793,1.476,7.24,3.869,9.827L26.841,70.427l-5.193-6.533c-0.516-0.647-1.459-0.756-2.107-0.24
	c-0.649,0.515-0.757,1.459-0.241,2.107l5.18,6.517l-10.615,8.317c-0.652,0.511-0.767,1.454-0.255,2.105
	c0.296,0.378,0.736,0.575,1.182,0.575c0.324,0,0.65-0.104,0.924-0.319l10.631-8.33l5.633,7.086c0.296,0.372,0.734,0.566,1.175,0.566
	c0.327,0,0.656-0.106,0.932-0.326c0.649-0.515,0.757-1.459,0.241-2.107l-5.619-7.07l13.217-10.357l0.235-0.184
	c2.362,1.669,5.235,2.659,8.34,2.659c2.853,0,5.508-0.84,7.753-2.268L71.222,72.85l-5.641,7.054
	c-0.517,0.646-0.412,1.591,0.235,2.108c0.276,0.221,0.607,0.328,0.936,0.328c0.44,0,0.876-0.192,1.173-0.563l5.653-7.069
	l10.606,8.363c0.275,0.217,0.603,0.322,0.928,0.322c0.443,0,0.883-0.196,1.179-0.571c0.513-0.65,0.401-1.594-0.249-2.106
	l-10.59-8.35l5.199-6.5c0.517-0.646,0.412-1.591-0.235-2.108c-0.646-0.517-1.59-0.412-2.108,0.235l-5.211,6.516l-12.424-9.796
	C63.34,58.08,65,54.428,65,50.393c0-1.86-0.365-3.633-1.006-5.269l24.595-19.273C89.241,25.341,89.355,24.398,88.845,23.746z
	 M40.347,23.367l5.147,2.387c0.389,0.181,0.838,0.185,1.231,0.014c0.394-0.172,0.695-0.505,0.827-0.914L50,17.274l2.447,7.58
	c0.133,0.409,0.434,0.741,0.827,0.914c0.395,0.172,0.842,0.167,1.231-0.014l5.147-2.387l-5.371,13.044
	c-1.208-0.327-2.472-0.518-3.782-0.518c-1.636,0-3.203,0.285-4.671,0.787L40.347,23.367z M50.5,61.893
	c-6.341,0-11.5-5.159-11.5-11.5c0-6.341,5.159-11.5,11.5-11.5c6.341,0,11.5,5.159,11.5,11.5C62,56.734,56.841,61.893,50.5,61.893z"
	/>
</svg>
