<?xml version="1.0" encoding="iso-8859-1"?>
<!-- Generator: Adobe Illustrator 22.0.1, SVG Export Plug-In . SVG Version: 6.00 Build 0)  -->
<svg version="1.1" id="Layer_1" xmlns="http://www.w3.org/2000/svg" xmlns:xlink="http://www.w3.org/1999/xlink" x="0px" y="0px"
	 viewBox="0 0 102.125 100.25" style="enable-background:new 0 0 102.125 100.25;" xml:space="preserve">
<g>
	<polygon style="fill:none;" points="68,37.444 15,56.428 15,63.848 68,44.864 	"/>
	<path style="fill:none;" d="M82.8,55.429l-3.829-5.771L71,52.677v3.807c0.194,0.41,0.205,0.9-0.021,1.333l-1.748,3.355L82.8,55.429
		z"/>
	<polygon style="fill:none;" points="15,53.242 68,34.258 68,26.838 15,45.823 	"/>
	<polygon style="fill:none;" points="83.385,34.395 87.006,26.584 71,33.338 71,39.232 	"/>
	<path style="fill:none;" d="M71,42.393v7.076l6.639-2.515c0.02-0.143,0.056-0.284,0.118-0.418l3.805-8.209l-10.266,4.01
		C71.198,42.375,71.099,42.376,71,42.393z"/>
	<path style="fill:none;" d="M68.052,64.93c-0.191,0.08-0.39,0.118-0.584,0.118c-0.081,0-0.159-0.022-0.238-0.035l-4.062,7.795
		l24.566-9.943l-3.246-4.893L68.052,64.93z"/>
	<polygon style="fill:none;" points="68,48.05 15,67.035 15,73.598 39.512,65.176 39.52,65.174 68,55.569 	"/>
	<polygon style="fill:none;" points="68,17.406 42.582,25.744 15,35.451 15,42.636 68,23.651 	"/>
	<path d="M91.25,62.738l-4.959-7.474l-0.01-0.015l-5.449-8.212l10.529-22.713c0.26-0.562,0.148-1.227-0.282-1.673
		c-0.432-0.446-1.091-0.581-1.662-0.34L71,30.083V15.335c0-0.481-0.23-0.933-0.62-1.215c-0.389-0.282-0.889-0.36-1.348-0.21
		l-27.416,8.994l-28.614,10.07C12.402,33.185,12,33.752,12,34.389V75.7c0,0.484,0.234,0.939,0.628,1.221
		c0.258,0.185,0.563,0.279,0.872,0.279c0.164,0,0.329-0.026,0.487-0.081l26.497-9.104l26.447-8.92l-8.305,15.939
		c-0.291,0.558-0.203,1.237,0.22,1.702c0.29,0.319,0.696,0.491,1.11,0.491c0.189,0,0.38-0.036,0.562-0.109l30.044-12.16
		c0.418-0.169,0.737-0.517,0.87-0.947C91.566,63.581,91.499,63.113,91.25,62.738z M68,34.258L15,53.242v-7.419l53-18.985V34.258z
		 M15,56.428l53-18.984v7.419L15,63.848V56.428z M70.8,57.972c0.296-0.456,0.212-0.957,0.2-1.488v-3.807l7.971-3.019l3.829,5.771
		l-13.569,5.743L70.8,57.972z M77.757,46.536c-0.062,0.134-0.098,0.275-0.118,0.418L71,49.469v-7.076
		c0.099-0.017,0.198-0.018,0.296-0.056l10.266-4.01L77.757,46.536z M87.006,26.584l-3.621,7.811L71,39.232v-5.894L87.006,26.584z
		 M15,35.451l27.582-9.707L68,17.406v6.246L15,42.636V35.451z M39.52,65.174c-0.002,0-0.005,0.001-0.008,0.002L15,73.598v-6.563
		L68,48.05v7.518L39.52,65.174z M63.168,72.809c0,0,3.69-7.368,3.881-7.448l17.439-7.387l3.246,4.893L63.168,72.809z"/>
</g>
</svg>
