<?xml version="1.0" encoding="iso-8859-1"?>
<!-- Generator: Adobe Illustrator 21.1.0, SVG Export Plug-In . SVG Version: 6.00 Build 0)  -->
<svg version="1.1" id="Layer_1" xmlns="http://www.w3.org/2000/svg" xmlns:xlink="http://www.w3.org/1999/xlink" x="0px" y="0px"
	 viewBox="0 0 100.176 100.178" style="enable-background:new 0 0 100.176 100.178;" xml:space="preserve">
<g>
	<path d="M83.834,18.483H16.166c-6.372,0-11.556,5.184-11.556,11.556v39.922c0,6.372,5.184,11.557,11.556,11.557h67.668
		c6.372,0,11.556-5.185,11.556-11.557V30.039C95.39,23.667,90.206,18.483,83.834,18.483z M92.39,69.962
		c0,4.718-3.838,8.557-8.556,8.557H16.166c-4.718,0-8.556-3.839-8.556-8.557V30.039c0-4.718,3.838-8.556,8.556-8.556h67.668
		c4.718,0,8.556,3.838,8.556,8.556V69.962z"/>
	<path d="M35.311,40.847H24.794c-0.829,0-1.5,0.671-1.5,1.5c0,0.013,0.004,0.026,0.004,0.039v7.905c0,0.013-0.004,0.025-0.004,0.039
		s0.004,0.026,0.004,0.039v7.942c0,0.828,0.671,1.5,1.5,1.5s1.5-0.672,1.5-1.5v-6.48h5.053c0.829,0,1.5-0.672,1.5-1.5
		c0-0.829-0.671-1.5-1.5-1.5h-5.053v-4.983h9.013c0.829,0,1.5-0.671,1.5-1.5S36.14,40.847,35.311,40.847z"/>
	<path d="M77.921,40.849H61.965c-0.828,0-1.5,0.671-1.5,1.5s0.672,1.5,1.5,1.5h6.482v14.459c0,0.828,0.672,1.5,1.5,1.5
		s1.5-0.672,1.5-1.5V43.849h6.474c0.828,0,1.5-0.671,1.5-1.5S78.749,40.849,77.921,40.849z"/>
	<path d="M53.03,43.846c0.828,0,1.5-0.671,1.5-1.5s-0.672-1.5-1.5-1.5h-3.952c-0.013,0-0.025-0.004-0.039-0.004
		S49.013,40.845,49,40.846h-3.951c-0.829,0-1.5,0.671-1.5,1.5s0.671,1.5,1.5,1.5h2.49v12.958h-2.49c-0.829,0-1.5,0.672-1.5,1.5
		s0.671,1.5,1.5,1.5h7.981c0.828,0,1.5-0.672,1.5-1.5s-0.672-1.5-1.5-1.5h-2.491V43.846H53.03z"/>
</g>
</svg>
