<svg id="Layer_1" data-name="Layer 1" xmlns="http://www.w3.org/2000/svg" viewBox="0 0 100 100"><title>Artboard 16 copy 4</title><path d="M60.51,39.28a1.5,1.5,0,0,0,3-.39A23.6,23.6,0,0,0,16.5,42a1.5,1.5,0,0,0,3,0,20.6,20.6,0,0,1,41-2.72Z"/><path d="M45.63,62.85a20.72,20.72,0,0,1-5.15.65,20.42,20.42,0,0,1-17.22-9.32,1.5,1.5,0,1,0-2.52,1.63A23.42,23.42,0,0,0,40.48,66.5a23.72,23.72,0,0,0,5.9-.74,1.5,1.5,0,0,0-.75-2.91Z"/><path d="M91.7,53H87V46.5A1.5,1.5,0,0,0,85.5,45h-30A1.5,1.5,0,0,0,54,46.5V75A33.82,33.82,0,0,1,41.23,77.5a34.5,34.5,0,0,1,0-69,33.88,33.88,0,0,1,24.2,10.1,1.5,1.5,0,1,0,2.13-2.11,36.86,36.86,0,0,0-26.33-11,37.5,37.5,0,0,0,0,75A36.81,36.81,0,0,0,54,78.23V83.5A1.5,1.5,0,0,0,55.5,85h30A1.5,1.5,0,0,0,87,83.5V72h4.7A4.32,4.32,0,0,0,96,67.66V57.34A4.32,4.32,0,0,0,91.7,53ZM84,82H57V48H84Zm9-14.34A1.32,1.32,0,0,1,91.7,69H87V56h4.7A1.32,1.32,0,0,1,93,57.34Z"/><path d="M65.29,25.31l-.14,0H65a1.5,1.5,0,0,0,0,3h.12A10.75,10.75,0,0,1,75.64,38.79a1.86,1.86,0,0,0,1.63,1.71h0A1.5,1.5,0,0,0,78.77,39a10.31,10.31,0,0,1,9.94-10.61H89a1.5,1.5,0,0,0,0-3h0a9.78,9.78,0,0,1-7.11-3,10.62,10.62,0,0,1-3-6.75c0-.15,0-.29,0-.44a1.49,1.49,0,0,0-.08-.45,1.5,1.5,0,0,0-1.47-1.25h0A1.5,1.5,0,0,0,75.84,15c0,.22,0,.44,0,.66C75.68,21,71,25.25,65.29,25.31Zm12.09-4.07a13.51,13.51,0,0,0,2.36,3.26,13.11,13.11,0,0,0,3.16,2.37,13.36,13.36,0,0,0-5.73,6,13.93,13.93,0,0,0-2.65-3.61,13.78,13.78,0,0,0-3.19-2.33A13.47,13.47,0,0,0,77.38,21.24Z"/><path d="M46,44.39h0A7.86,7.86,0,0,1,40.24,42a8.6,8.6,0,0,1-2.43-5.44c0-.12,0-.25,0-.37a1.45,1.45,0,0,0-.07-.42,1.5,1.5,0,0,0-1.47-1.25h0A1.5,1.5,0,0,0,34.78,36c0,.19,0,.37,0,.55a8.42,8.42,0,0,1-8.58,7.78H26a1.5,1.5,0,0,0,0,3h.1a8.71,8.71,0,0,1,8.51,8.48,1.8,1.8,0,0,0,1.61,1.67h0A1.5,1.5,0,0,0,37.73,56a8.34,8.34,0,0,1,8-8.59H46a1.5,1.5,0,0,0,0-3Zm-9.87,5.93a11.94,11.94,0,0,0-2-2.64A11.75,11.75,0,0,0,31.8,46a11.49,11.49,0,0,0,4.51-4.25,11.5,11.5,0,0,0,1.79,2.39,11.22,11.22,0,0,0,2.3,1.79A11.4,11.4,0,0,0,36.13,50.33Z"/></svg>