<?xml version="1.0" encoding="iso-8859-1"?>
<!-- Generator: Adobe Illustrator 22.0.0, SVG Export Plug-In . SVG Version: 6.00 Build 0)  -->
<svg version="1.1" id="Layer_1" xmlns="http://www.w3.org/2000/svg" xmlns:xlink="http://www.w3.org/1999/xlink" x="0px" y="0px"
	 viewBox="0 0 100.25 100.25" style="enable-background:new 0 0 100.25 100.25;" xml:space="preserve">
<g>
	<path d="M79.567,29.924l-18.26-18.479C61.025,11.16,60.641,11,60.24,11H20.5c-0.829,0-1.5,0.672-1.5,1.5v75
		c0,0.828,0.671,1.5,1.5,1.5h58c0.829,0,1.5-0.672,1.5-1.5V30.979C80,30.585,79.844,30.206,79.567,29.924z M62,16.415L74.929,29.5
		H62V16.415z M22,86V14h37v17c0,0.828,0.671,1.5,1.5,1.5H77V86H22z"/>
	<path d="M60,62.5c-0.829,0-1.5,0.672-1.5,1.5v13.973c0,0.775,0.591,1.423,1.363,1.494c0.052,0.004,0.387,0.033,0.911,0.033
		c1.627,0,5.066-0.277,7.401-2.408c1.543-1.408,2.325-3.324,2.325-5.694C70.5,64.044,64.79,62.5,60,62.5z M66.16,74.869
		c-1.312,1.205-3.327,1.533-4.66,1.609V65.547c3.165,0.224,6,1.355,6,5.85C67.5,72.906,67.062,74.042,66.16,74.869z"/>
	<path d="M34.377,62.522c-0.853-0.046-3.146-0.006-3.405-0.002c-0.817,0.016-1.472,0.683-1.472,1.5v13.979
		c0,0.828,0.671,1.5,1.5,1.5s1.5-0.672,1.5-1.5v-5.49h2.206c1.927,0,4.794-1.275,4.794-4.789
		C39.5,65.884,38.834,62.768,34.377,62.522z M34.706,69.509H32.5v-4.008c0.678-0.004,1.374-0.003,1.711,0.017
		c1.518,0.084,2.289,0.447,2.289,2.202C36.5,69.242,35.366,69.495,34.706,69.509z"/>
	<path d="M49.065,69.534c-0.667-0.212-2.844-1.004-2.844-2.284c0-1.75,1.334-1.75,1.903-1.75c1.5,0,2.372,1.414,2.419,1.491
		c0.414,0.711,1.326,0.958,2.042,0.545c0.719-0.411,0.967-1.328,0.555-2.047c-0.07-0.122-1.751-2.989-5.016-2.989
		c-3.619,0-4.903,2.559-4.903,4.75c0,2.305,1.752,4.131,4.935,5.144C51,73.299,51,73.908,51,74.678c0,0.453-0.268,0.956-0.7,1.313
		c-0.303,0.251-0.949,0.646-1.895,0.463c-1.686-0.321-2.448-1.335-2.642-1.638c-0.447-0.699-1.375-0.903-2.072-0.456
		c-0.698,0.446-0.902,1.373-0.457,2.071c0.458,0.716,1.822,2.438,4.607,2.97c0.342,0.065,0.685,0.098,1.025,0.098
		c1.22,0,2.4-0.415,3.344-1.196c1.12-0.926,1.788-2.28,1.788-3.625C54,71.712,52.027,70.477,49.065,69.534z"/>
</g>
</svg>
