<?xml version="1.0" encoding="iso-8859-1"?>
<!-- Generator: Adobe Illustrator 21.1.0, SVG Export Plug-In . SVG Version: 6.00 Build 0)  -->
<svg version="1.1" id="Layer_1" xmlns="http://www.w3.org/2000/svg" xmlns:xlink="http://www.w3.org/1999/xlink" x="0px" y="0px"
	 viewBox="0 0 100.353 100.353" style="enable-background:new 0 0 100.353 100.353;" xml:space="preserve">
<g>
	<path d="M66.047,55.315c-15.28,0-27.711,12.432-27.711,27.713c0,0.828,0.671,1.5,1.5,1.5h52.422c0.828,0,1.5-0.672,1.5-1.5
		C93.758,67.746,81.327,55.315,66.047,55.315z M41.381,81.528c0.778-12.931,11.544-23.213,24.666-23.213
		s23.888,10.282,24.666,23.213H41.381z"/>
	<path d="M65.589,53.185c8.877,0,16.099-7.222,16.099-16.099s-7.222-16.099-16.099-16.099S49.49,28.209,49.49,37.086
		S56.712,53.185,65.589,53.185z M65.589,23.987c7.223,0,13.099,5.876,13.099,13.099s-5.876,13.099-13.099,13.099
		S52.49,44.309,52.49,37.086S58.366,23.987,65.589,23.987z"/>
	<path d="M38.342,61.399c-0.001,0.829,0.669,1.501,1.497,1.503c0.001,0,0.002,0,0.003,0c0.827,0,1.499-0.67,1.5-1.497l0.033-18.277
		c0.029-0.117,0.044-0.238,0.044-0.361V18.609l0.003-1.625c0-0.01-0.003-0.019-0.003-0.03v-0.019c0-0.03-0.009-0.058-0.011-0.088
		c-0.006-0.062-0.009-0.125-0.022-0.185c-0.07-0.379-0.278-0.722-0.598-0.949c-0.396-0.282-0.905-0.354-1.361-0.195L3.266,28.07
		c-0.599,0.208-1.002,0.77-1.008,1.404c-0.005,0.634,0.388,1.203,0.983,1.421l35.133,12.902L38.342,61.399z M8.218,29.527
		l30.2-10.483l-0.039,21.559L8.218,29.527z"/>
</g>
</svg>
