<svg id="Layer_1" data-name="Layer 1" xmlns="http://www.w3.org/2000/svg" viewBox="0 0 101 101"><title>log_Artboard 2 copy 17</title><path d="M65.56,68.29a1.5,1.5,0,0,0-2.06-.49L53.14,74.2a7.83,7.83,0,0,1-10.4-2.31L28.65,49.06A7.18,7.18,0,0,1,31,39.19l10.75-6.64a1.5,1.5,0,0,0,.49-2.06L33.31,16a1.5,1.5,0,0,0-2.06-.49L20.5,22.18C8.59,29.53,9,48.86,21.57,69.18c5.76,9.33,13,16.75,20.39,20.89a25.91,25.91,0,0,0,12.55,3.64,17.26,17.26,0,0,0,9.19-2.56L74,84.8a1.5,1.5,0,0,0,.49-2.06Zm-3.43,20.3c-6.55,4-13.78,1.61-18.7-1.14-7-3.89-13.81-10.94-19.3-19.84-11.61-18.82-12.45-36.45-2-42.87l9.47-5.85,7.34,11.89-9.48,5.85a10.19,10.19,0,0,0-3.31,14L40.18,73.46a10.81,10.81,0,0,0,14.53,3.29l9.08-5.61L71.14,83Z"/><path d="M52.91,33.06A16.67,16.67,0,0,1,67.76,55a1.5,1.5,0,1,0,2.85.95A19.66,19.66,0,0,0,53.09,30.06a1.48,1.48,0,0,0-1.59,1.41A1.5,1.5,0,0,0,52.91,33.06Z"/><path d="M55.56,17.89a1.5,1.5,0,1,0-.34,3A29,29,0,0,1,79.83,57.71a1.5,1.5,0,1,0,2.88.83A32,32,0,0,0,55.56,17.89Z"/><path d="M87.94,26.29A42.89,42.89,0,0,0,57.88,7.17a1.5,1.5,0,0,0-.41,3,39.94,39.94,0,0,1,33.05,50,1.5,1.5,0,1,0,2.9.78A43,43,0,0,0,87.94,26.29Z"/></svg>