<?xml version="1.0" encoding="iso-8859-1"?>
<!-- Generator: Adobe Illustrator 21.1.0, SVG Export Plug-In . SVG Version: 6.00 Build 0)  -->
<svg version="1.1" id="Layer_1" xmlns="http://www.w3.org/2000/svg" xmlns:xlink="http://www.w3.org/1999/xlink" x="0px" y="0px"
	 viewBox="0 0 100.353 100.353" style="enable-background:new 0 0 100.353 100.353;" xml:space="preserve">
<path d="M97.691,82.094l-11.77-13.792c-0.076-0.09-0.163-0.165-0.254-0.232c-0.058-0.164-0.136-0.322-0.251-0.461L50.95,26.254
	V16.93c0-0.829-0.671-1.5-1.5-1.5s-1.5,0.671-1.5,1.5v9.308l-34.473,41.37c-0.135,0.162-0.217,0.351-0.274,0.547L2.279,81.808
	c-0.518,0.647-0.413,1.591,0.234,2.108c0.276,0.222,0.607,0.329,0.936,0.329c0.44,0,0.876-0.192,1.172-0.562L14.4,71.463
	l5.849,11.705c0.254,0.508,0.773,0.829,1.342,0.829h55.705c0.568,0,1.087-0.321,1.342-0.829l5.923-11.841L95.41,84.041
	c0.296,0.348,0.718,0.526,1.142,0.526c0.344,0,0.69-0.118,0.973-0.359C98.154,83.671,98.229,82.724,97.691,82.094z M61.157,80.997
	H37.73l11.714-29.276L61.157,80.997z M53.552,53.913l14.952,14.952l-4.979,9.972L53.552,53.913z M35.362,78.838l-4.984-9.973
	L45.337,53.91L35.362,78.838z M16.41,68.776l31.534-37.843v16.129L27.492,67.508c-0.457,0.456-0.57,1.153-0.281,1.731l5.876,11.758
	H22.518L16.41,68.776z M76.369,80.997H65.798l5.872-11.759c0.288-0.577,0.175-1.274-0.281-1.73L50.944,47.062v-16.13l31.54,37.842
	L76.369,80.997z"/>
</svg>
