<?xml version="1.0" encoding="iso-8859-1"?>
<!-- Generator: Adobe Illustrator 21.0.0, SVG Export Plug-In . SVG Version: 6.00 Build 0)  -->
<svg version="1.1" id="Layer_1" xmlns="http://www.w3.org/2000/svg" xmlns:xlink="http://www.w3.org/1999/xlink" x="0px" y="0px"
	 viewBox="0 0 100.353 100.353" style="enable-background:new 0 0 100.353 100.353;" xml:space="preserve">
<g>
	<g>
		<path style="fill:#231F20;" d="M50.18,99.928c-27.433,0-49.751-22.315-49.751-49.743c0-27.438,22.318-49.76,49.751-49.76
			c27.429,0,49.743,22.322,49.743,49.76C99.924,77.613,77.609,99.928,50.18,99.928z M50.18,2.723
			c-26.166,0-47.453,21.291-47.453,47.462c0,26.161,21.287,47.445,47.453,47.445c26.161,0,47.445-21.284,47.445-47.445
			C97.626,24.015,76.342,2.723,50.18,2.723z"/>
		<path style="fill:#231F20;" d="M50.18,100.176c-27.57,0-50-22.426-50-49.992c0-27.575,22.43-50.008,50-50.008
			c27.566,0,49.992,22.433,49.992,50.008C100.172,77.75,77.746,100.176,50.18,100.176z M50.18,0.674
			c-27.296,0-49.502,22.21-49.502,49.511c0,27.291,22.206,49.495,49.502,49.495c27.291,0,49.495-22.204,49.495-49.495
			C99.675,22.884,77.471,0.674,50.18,0.674z M50.18,97.879c-26.303,0-47.702-21.395-47.702-47.694
			c0-26.308,21.399-47.71,47.702-47.71c26.299,0,47.694,21.402,47.694,47.71C97.874,76.483,76.479,97.879,50.18,97.879z
			 M50.18,2.972c-26.029,0-47.204,21.179-47.204,47.213c0,26.024,21.176,47.197,47.204,47.197c26.024,0,47.197-21.173,47.197-47.197
			C97.377,24.151,76.204,2.972,50.18,2.972z"/>
	</g>
	<g>
		<path style="fill:#231F20;" d="M65.136,75.72c-1.469,0-2.827-0.493-3.81-1.507L50.014,62.566L38.362,73.879
			c-2.358,2.287-6.654,1.698-9.581-1.314c-2.925-3.012-3.387-7.326-1.03-9.617l11.652-11.313L28.092,39.983
			c-2.288-2.359-1.698-6.658,1.314-9.584c1.413-1.372,3.157-2.255,4.911-2.487c1.875-0.248,3.549,0.269,4.703,1.457l11.312,11.652
			l11.656-11.309c1.191-1.155,2.876-1.625,4.747-1.322c1.744,0.283,3.461,1.218,4.833,2.633c1.375,1.413,2.26,3.158,2.491,4.913
			c0.247,1.879-0.272,3.551-1.461,4.707L60.949,51.952L72.257,63.6c0,0,0.001,0.001,0.001,0.001c2.288,2.364,1.7,6.663-1.312,9.584
			C69.226,74.853,67.084,75.72,65.136,75.72z M50.038,59.792c0.299,0,0.599,0.117,0.824,0.349l12.113,12.472
			c1.381,1.425,4.3,0.931,6.371-1.078c2.067-2.004,2.644-4.904,1.262-6.334L58.5,52.729c-0.442-0.455-0.431-1.183,0.024-1.625
			l12.472-12.109c0.656-0.637,0.934-1.617,0.784-2.759c-0.167-1.267-0.827-2.55-1.86-3.612c-1.032-1.064-2.293-1.762-3.553-1.966
			c-1.136-0.184-2.122,0.066-2.779,0.703L51.107,43.47c-0.455,0.442-1.182,0.431-1.625-0.024L37.37,30.97
			c-0.634-0.653-1.61-0.93-2.753-0.779c-1.268,0.167-2.55,0.827-3.61,1.857c-2.068,2.009-2.648,4.91-1.266,6.335l12.112,12.476
			c0.442,0.455,0.431,1.183-0.024,1.625L29.353,64.596c-1.424,1.384-0.93,4.3,1.077,6.367c2.008,2.067,4.908,2.648,6.331,1.266
			l12.476-12.113C49.46,59.9,49.749,59.792,50.038,59.792z"/>
		<path style="fill:#231F20;" d="M65.136,75.969c-1.582,0-2.998-0.562-3.989-1.583L50.008,62.918l-11.473,11.14
			c-2.456,2.382-6.912,1.791-9.932-1.319c-3.02-3.11-3.48-7.583-1.025-9.969L39.052,51.63L27.913,40.156
			c-2.383-2.457-1.792-6.914,1.319-9.936c1.451-1.409,3.245-2.317,5.052-2.555c1.96-0.26,3.704,0.284,4.914,1.53l11.139,11.473
			l11.478-11.135c1.25-1.212,3.012-1.707,4.96-1.389c1.798,0.291,3.563,1.252,4.972,2.705c1.412,1.451,2.321,3.246,2.559,5.053
			c0.257,1.959-0.288,3.706-1.535,4.918L61.302,51.957l11.061,11.395h0.144l0.001,0.151c2.302,2.477,1.692,6.875-1.387,9.861
			C69.412,75.019,67.23,75.969,65.136,75.969z M50.019,62.214l0.173,0.179l11.313,11.648c0.908,0.937,2.164,1.431,3.631,1.431
			c1.967,0,4.022-0.899,5.638-2.466c2.911-2.823,3.498-6.96,1.311-9.227l-0.006-0.006L60.598,51.947l11.827-11.482
			c1.131-1.1,1.624-2.697,1.387-4.496c-0.224-1.702-1.084-3.397-2.422-4.772c-1.336-1.377-3.002-2.287-4.695-2.561
			c-1.79-0.291-3.402,0.156-4.535,1.255L50.326,41.373l-11.485-11.83c-1.097-1.13-2.693-1.62-4.492-1.384
			c-1.701,0.224-3.395,1.083-4.77,2.418c-2.914,2.831-3.501,6.973-1.309,9.232l11.486,11.83l-0.178,0.174L27.925,63.127
			c-2.259,2.195-1.794,6.352,1.035,9.265c2.83,2.912,6.972,3.499,9.229,1.308L50.019,62.214z M65.121,73.678
			c-0.948,0-1.756-0.306-2.325-0.893L50.684,60.314c-0.335-0.344-0.928-0.354-1.274-0.017L36.935,72.408
			c-1.519,1.473-4.58,0.893-6.683-1.272c-2.102-2.164-2.592-5.241-1.072-6.719l12.476-12.113c0.172-0.167,0.269-0.392,0.273-0.633
			c0.003-0.24-0.087-0.467-0.255-0.639L29.563,38.556c-1.476-1.522-0.894-4.584,1.271-6.687c1.1-1.067,2.432-1.751,3.751-1.925
			c1.222-0.162,2.274,0.142,2.964,0.853l12.112,12.476c0.346,0.355,0.916,0.363,1.273,0.019l12.481-12.109
			c0.716-0.693,1.779-0.966,2.992-0.77c1.311,0.212,2.622,0.936,3.692,2.037c1.07,1.1,1.755,2.433,1.928,3.752
			c0.161,1.221-0.144,2.276-0.858,2.97L58.697,51.282c-0.172,0.167-0.269,0.393-0.273,0.633c-0.003,0.241,0.087,0.468,0.256,0.641
			l12.107,12.472c1.476,1.527,0.896,4.589-1.267,6.686c-1.038,1.007-2.308,1.679-3.577,1.894
			C65.66,73.655,65.385,73.678,65.121,73.678z M50.038,59.544c0.382,0,0.738,0.151,1.003,0.424L63.154,72.44
			c0.609,0.63,1.571,0.869,2.707,0.677c1.153-0.195,2.361-0.837,3.313-1.761c1.969-1.909,2.545-4.649,1.255-5.982L58.322,52.902
			c-0.26-0.267-0.4-0.621-0.394-0.995c0.005-0.373,0.155-0.722,0.424-0.982l12.472-12.108c0.598-0.582,0.85-1.487,0.71-2.548
			c-0.159-1.214-0.795-2.447-1.792-3.471c-0.995-1.026-2.208-1.698-3.414-1.894c-1.056-0.172-1.967,0.054-2.566,0.636L51.28,43.649
			c-0.55,0.538-1.438,0.524-1.976-0.029L37.192,31.144c-0.579-0.596-1.482-0.849-2.543-0.706c-1.214,0.16-2.446,0.795-3.469,1.788
			c-1.972,1.916-2.549,4.656-1.261,5.984l12.111,12.476c0.26,0.267,0.401,0.62,0.395,0.994c-0.006,0.373-0.156,0.722-0.424,0.982
			L29.527,64.775c-1.327,1.289-0.832,4.044,1.082,6.015c1.915,1.97,4.654,2.55,5.979,1.26l12.476-12.112
			C49.326,59.684,49.672,59.544,50.038,59.544z"/>
	</g>
</g>
</svg>
