<?xml version="1.0" encoding="iso-8859-1"?>
<!-- Generator: Adobe Illustrator 22.0.1, SVG Export Plug-In . SVG Version: 6.00 Build 0)  -->
<svg version="1.1" id="Layer_1" xmlns="http://www.w3.org/2000/svg" xmlns:xlink="http://www.w3.org/1999/xlink" x="0px" y="0px"
	 viewBox="0 0 100.25 100.25" style="enable-background:new 0 0 100.25 100.25;" xml:space="preserve">
<g>
	<path d="M78.5,27.25H67V7.5c0-0.513-0.262-0.99-0.694-1.265c-0.432-0.276-0.975-0.312-1.44-0.094l-45,21
		c-0.589,0.275-0.91,0.883-0.854,1.495C19.009,28.674,19,28.711,19,28.75v58c0,0.828,0.671,1.5,1.5,1.5h58
		c0.828,0,1.5-0.672,1.5-1.5v-58C80,27.921,79.328,27.25,78.5,27.25z M64,27.25H26.726L64,9.855V27.25z M77,85.25H22v-55h55V85.25z"
		/>
	<path d="M47.974,72.073c0.292,0.284,0.67,0.427,1.048,0.427c0.38,0,0.759-0.144,1.051-0.43c0.376-0.369,9.232-9.068,12.173-12.155
		c1.456-1.528,2.256-3.588,2.254-5.799c-0.006-4.745-3.877-8.61-8.63-8.617c-0.004,0-0.007,0-0.011,0
		c-2.771,0-5.295,1.324-6.883,3.441c-1.597-2.095-4.113-3.407-6.862-3.411c-0.004,0-0.007,0-0.011,0
		c-2.302,0-4.464,0.895-6.089,2.52c-1.625,1.625-2.518,3.785-2.515,6.083c0.002,2.199,0.795,4.246,2.233,5.763
		C38.68,63,47.596,71.704,47.974,72.073z M38.136,50.17c1.058-1.059,2.467-1.641,3.968-1.641c0.002,0,0.005,0,0.007,0
		c2.537,0.003,4.771,1.715,5.432,4.164c0.177,0.654,0.771,1.108,1.448,1.108c0.002,0,0.004,0,0.007,0
		c0.68-0.003,1.273-0.464,1.445-1.121c0.642-2.462,2.869-4.181,5.417-4.181c0.002,0,0.004,0,0.007,0
		c3.103,0.004,5.63,2.526,5.634,5.621c0.001,1.436-0.505,2.759-1.426,3.726c-2.315,2.43-8.562,8.598-11.055,11.053
		c-2.506-2.453-8.793-8.627-11.109-11.069c-0.908-0.957-1.408-2.271-1.41-3.702C36.498,52.632,37.079,51.227,38.136,50.17z"/>
</g>
</svg>
