<svg id="Слой_1" data-name="Слой 1" xmlns="http://www.w3.org/2000/svg" viewBox="0 0 100 100"><title>testМонтажная область 24</title><path d="M63.5,44.5V26.58a3,3,0,1,0-3,0V46A1.5,1.5,0,0,0,62,47.5h3.5v15H61A1.5,1.5,0,0,0,59.5,64V80.42a3,3,0,1,0,3,0V65.5H73.42a3,3,0,1,0,0-3H68.5v-15H80.42a3,3,0,1,0,0-3Z"/><path d="M95,31.2H79.21V11a1.5,1.5,0,0,0-1.5-1.5H22.29a1.5,1.5,0,0,0-1.5,1.5V31.2H5a1.5,1.5,0,0,0-1.5,1.5V54.45A1.5,1.5,0,0,0,5,55.95h6.23V77.18a1.5,1.5,0,0,0,1.5,1.5H27V92a1.5,1.5,0,0,0,1.5,1.5h43A1.5,1.5,0,0,0,73,92V78.68H87.27a1.5,1.5,0,0,0,1.5-1.5V55.95H95a1.5,1.5,0,0,0,1.5-1.5V32.7A1.5,1.5,0,0,0,95,31.2ZM28.5,75.68H14.23V54.45a1.5,1.5,0,0,0-1.5-1.5H6.5V34.2H22.29a1.5,1.5,0,0,0,1.5-1.5V12.5H48.5v78H30V77.18A1.5,1.5,0,0,0,28.5,75.68Zm65-22.73H87.27a1.5,1.5,0,0,0-1.5,1.5V75.68H71.5a1.5,1.5,0,0,0-1.5,1.5V90.5H51.5v-78H76.21V32.7a1.5,1.5,0,0,0,1.5,1.5H93.5Z"/><path d="M37.5,80.42a3,3,0,1,0,3,0V64A1.5,1.5,0,0,0,39,62.5H34.5v-15H38A1.5,1.5,0,0,0,39.5,46V26.58a3,3,0,1,0-3,0V44.5H19.58a3,3,0,1,0,0,3H31.5v15H26.58a3,3,0,1,0,0,3H37.5Z"/></svg>