<?xml version="1.0" encoding="iso-8859-1"?>
<!-- Generator: Adobe Illustrator 21.0.2, SVG Export Plug-In . SVG Version: 6.00 Build 0)  -->
<svg version="1.1" id="Layer_1" xmlns="http://www.w3.org/2000/svg" xmlns:xlink="http://www.w3.org/1999/xlink" x="0px" y="0px"
	 viewBox="0 0 100.75 100.75" style="enable-background:new 0 0 100.75 100.75;" xml:space="preserve">
<path d="M90.653,72.567c-0.829,0-1.5,0.671-1.5,1.5c0,4.904-3.989,8.893-8.893,8.893H70.061v-9.401h3.866
	c4.378,0,8.333-2.633,10.074-6.708c1.684-3.941,0.924-8.278-1.981-11.316l-0.234-0.24c-4.152-4.152-14.292-8.082-27.124-10.51
	c-3.346-0.634-6.398-2.408-8.77-4.958V16.336c0-0.799-0.626-1.458-1.423-1.498c-0.363-0.019-8.528-0.352-13.551,5.076l-14.588-4.19
	c-1.338-0.312-2.723,0-3.8,0.855c-1.051,0.835-1.665,2.074-1.692,3.412c-0.261,2.245-3.954,34.277-3.299,42.887
	c0.456,5.99,5.713,10.682,11.97,10.682h5.029v9.401H8.96c-0.829,0-1.5,0.671-1.5,1.5s0.671,1.5,1.5,1.5h71.3
	c6.558,0,11.893-5.335,11.893-11.893C92.153,73.238,91.481,72.567,90.653,72.567z M42.892,35.444
	c-0.275-0.564-0.53-1.142-0.75-1.741l-2.909-7.935c-0.855-2.333-2.706-4.112-4.974-4.885c2.885-2.295,6.624-2.875,8.632-3.013
	L42.892,35.444L42.892,35.444z M10.529,62.65c-0.642-8.448,3.257-42.052,3.297-42.39c0.007-0.058,0.01-0.116,0.01-0.174
	c0-0.454,0.204-0.876,0.56-1.159c0.275-0.219,0.612-0.33,0.921-0.33c0.089,0,0.177,0.009,0.259,0.028l15.418,4.428
	c0.014,0.004,0.027,0.008,0.041,0.012l1.715,0.492c1.697,0.395,3.068,1.606,3.667,3.242l2.909,7.935
	c1.302,3.551,3.488,6.603,6.227,8.891l-5.83,6.391c-0.559,0.612-0.515,1.561,0.097,2.119c0.288,0.263,0.649,0.392,1.01,0.392
	c0.407,0,0.812-0.165,1.108-0.489l6.072-6.656c1.114,0.671,2.289,1.228,3.513,1.655l-4.062,7.126
	c-0.41,0.72-0.159,1.636,0.561,2.046c0.234,0.134,0.489,0.197,0.741,0.197c0.521,0,1.028-0.272,1.305-0.758l4.463-7.831
	c1.38,0.266,2.734,0.549,4.047,0.851l-2.481,8.743c-0.226,0.797,0.236,1.626,1.033,1.853c0.137,0.039,0.275,0.058,0.411,0.058
	c0.654,0,1.255-0.431,1.442-1.091l2.51-8.847c8.591,2.224,15.273,5.135,18.171,8.033l0.185,0.189
	c2.095,2.19,2.616,5.206,1.393,8.066c-1.01,2.363-3.462,4.888-7.315,4.888H19.508C14.81,70.559,10.867,67.085,10.529,62.65z
	 M27.537,73.559h39.524v9.401H27.537V73.559z"/>
</svg>
