<?xml version="1.0" encoding="iso-8859-1"?>
<!-- Generator: Adobe Illustrator 21.1.0, SVG Export Plug-In . SVG Version: 6.00 Build 0)  -->
<svg version="1.1" id="Layer_1" xmlns="http://www.w3.org/2000/svg" xmlns:xlink="http://www.w3.org/1999/xlink" x="0px" y="0px"
	 viewBox="0 0 100.75 100.749" style="enable-background:new 0 0 100.75 100.749;" xml:space="preserve">
<g>
	<path d="M45.531,68.348h-3.286c-0.733-5.168-5.174-9.16-10.542-9.16c-5.878,0-10.659,4.782-10.659,10.66
		s4.781,10.659,10.659,10.659c5.368,0,9.809-3.991,10.542-9.159h3.286c0.828,0,1.5-0.672,1.5-1.5S46.359,68.348,45.531,68.348z
		 M31.703,77.507c-4.224,0-7.659-3.436-7.659-7.659s3.436-7.66,7.659-7.66c3.71,0,6.811,2.652,7.511,6.16h-7.511
		c-0.828,0-1.5,0.672-1.5,1.5s0.672,1.5,1.5,1.5h7.511C38.514,74.855,35.413,77.507,31.703,77.507z"/>
	<path d="M93.332,87.33H81.268c2.943-2.421,4.824-6.088,4.824-10.188v-5.427c0-6.062-4.107-11.322-9.989-12.793l-6.543-1.636
		l16.691-41.725c0.308-0.769-0.066-1.642-0.836-1.949c-0.767-0.307-1.642,0.066-1.949,0.836l-4.824,12.059H67.929
		c-0.828,0-1.5,0.672-1.5,1.5s0.672,1.5,1.5,1.5h9.513L66.623,56.552l-34.586-8.646V28.954h5.855c0.828,0,1.5-0.672,1.5-1.5
		s-0.672-1.5-1.5-1.5H23.169c-0.828,0-1.5,0.672-1.5,1.5s0.672,1.5,1.5,1.5h5.867v18.23c-3.824-0.814-7.747,0.071-10.842,2.489
		c-3.224,2.517-5.072,6.305-5.072,10.395v17.074c0,4.099,1.881,7.767,4.824,10.188H5.882c-0.828,0-1.5,0.672-1.5,1.5
		s0.672,1.5,1.5,1.5H26.31h46.595h20.428c0.828,0,1.5-0.672,1.5-1.5S94.16,87.33,93.332,87.33z M16.122,77.143V60.069
		c0-3.159,1.428-6.086,3.918-8.03c1.817-1.418,4.005-2.161,6.245-2.161c0.83,0,1.667,0.102,2.495,0.309l46.595,11.647
		c4.544,1.136,7.717,5.2,7.717,9.883v5.427c0,5.617-4.57,10.188-10.188,10.188H26.309C20.692,87.33,16.122,82.76,16.122,77.143z"/>
</g>
</svg>
