<?xml version="1.0" encoding="iso-8859-1"?>
<!-- Generator: Adobe Illustrator 21.1.0, SVG Export Plug-In . SVG Version: 6.00 Build 0)  -->
<svg version="1.1" id="Layer_1" xmlns="http://www.w3.org/2000/svg" xmlns:xlink="http://www.w3.org/1999/xlink" x="0px" y="0px"
	 viewBox="0 0 100.75 100.75" style="enable-background:new 0 0 100.75 100.75;" xml:space="preserve">
<g>
	<path d="M88.127,7.64H64.729c-2.908,0-5.274,2.366-5.274,5.274v4.52c0,0.003-0.001,0.006-0.001,0.01s0.001,0.006,0.001,0.01V47.9
		c0,0.003-0.001,0.006-0.001,0.01s0.001,0.006,0.001,0.01V52.4c0,2.909,2.366,5.276,5.274,5.276h23.398
		c2.912,0,5.282-2.367,5.282-5.276V12.914C93.409,10.006,91.039,7.64,88.127,7.64z M62.36,18.897h28.143v27.56H62.36V18.897z
		 M64.729,10.546h23.398c1.311,0,2.376,1.062,2.376,2.368v3.077H62.36v-3.077C62.36,11.608,63.423,10.546,64.729,10.546z
		 M88.127,54.771H64.729c-1.306,0-2.368-1.063-2.368-2.37v-3.037h28.143V52.4C90.503,53.707,89.438,54.771,88.127,54.771z"/>
	<path d="M83.743,64.316c-0.803,0-1.453,0.65-1.453,1.453v18.909H51.801c-0.803,0-1.453,0.65-1.453,1.453s0.65,1.453,1.453,1.453
		h31.942c0.803,0,1.453-0.65,1.453-1.453V65.77C85.196,64.967,84.546,64.316,83.743,64.316z"/>
	<path d="M16.861,52.236c0.803,0,1.453-0.65,1.453-1.453V20.702h32.351c0.803,0,1.453-0.65,1.453-1.453s-0.65-1.453-1.453-1.453
		H16.861c-0.803,0-1.453,0.65-1.453,1.453v31.534C15.408,51.586,16.058,52.236,16.861,52.236z"/>
	<path d="M41.482,73.741c-0.803,0-1.453,0.65-1.453,1.453v14.26h-7.606v-14.26c0-0.803-0.65-1.453-1.453-1.453
		s-1.453,0.65-1.453,1.453v14.26h-9.417v-14.26c0-0.803-0.65-1.453-1.453-1.453s-1.453,0.65-1.453,1.453v14.26H9.526v-14.26
		c0-0.803-0.65-1.453-1.453-1.453s-1.453,0.65-1.453,1.453v15.713c0,0.803,0.65,1.453,1.453,1.453h33.409
		c0.803,0,1.453-0.65,1.453-1.453V75.194C42.935,74.392,42.285,73.741,41.482,73.741z"/>
	<path d="M48.66,69.249L26.006,56.304c-0.445-0.255-0.992-0.255-1.438-0.002L1.767,69.247c-0.479,0.272-0.738,0.776-0.729,1.29
		c-0.001,0.023-0.007,0.045-0.007,0.069c0,0.803,0.65,1.453,1.453,1.453h44.775c0.19,0,0.37-0.039,0.537-0.105
		c0.552,0.054,1.112-0.209,1.405-0.723C49.599,70.535,49.356,69.647,48.66,69.249z M25.283,59.237l17.352,9.916H7.818L25.283,59.237
		z"/>
</g>
</svg>
