<?xml version="1.0" encoding="iso-8859-1"?>
<!-- Generator: Adobe Illustrator 21.0.0, SVG Export Plug-In . SVG Version: 6.00 Build 0)  -->
<svg version="1.1" id="Layer_1" xmlns="http://www.w3.org/2000/svg" xmlns:xlink="http://www.w3.org/1999/xlink" x="0px" y="0px"
	 viewBox="0 0 100.353 100.353" style="enable-background:new 0 0 100.353 100.353;" xml:space="preserve">
<g>
	<path style="fill:#231F20;" d="M33.389,32.752c7.812,0,14.166-6.354,14.166-14.166S41.201,4.42,33.389,4.42
		c-7.811,0-14.165,6.355-14.165,14.166S25.579,32.752,33.389,32.752z M33.389,7.389c6.174,0,11.197,5.023,11.197,11.197
		s-5.023,11.197-11.197,11.197S22.193,24.76,22.193,18.586S27.215,7.389,33.389,7.389z"/>
	<path style="fill:#231F20;" d="M29.282,39.894c0-3.785-3.079-6.864-6.864-6.864s-6.864,3.079-6.864,6.864s3.079,6.864,6.864,6.864
		S29.282,43.68,29.282,39.894z M18.522,39.894c0-2.148,1.747-3.896,3.896-3.896s3.896,1.748,3.896,3.896s-1.747,3.896-3.896,3.896
		S18.522,42.042,18.522,39.894z"/>
	<path style="fill:#231F20;" d="M85.661,62.482c0.015-0.085,0.026-0.171,0.026-0.26l-0.02-15.092c0-0.174-0.036-0.339-0.091-0.495
		c-0.039-1.157-0.258-2.35-0.681-3.562c-1.589-4.555-5.673-8.663-11.204-11.271c-13.899-6.549-22.709-1.199-25.854,1.405
		c-2.085,1.727-4.121,4.951-6.091,8.07c-1.106,1.752-2.152,3.407-3.062,4.55l0,0c-1.175,1.476-3.998,2.577-6.987,3.742
		c-5.152,2.009-10.993,4.287-12.943,9.857c-0.529,1.512-0.697,3.055-0.552,4.597v13.258c0,0.057,0.003,0.113,0.01,0.17l0.213,1.85
		c0.01,0.09,0.028,0.178,0.055,0.265c1.646,5.381,6.931,9.645,17.132,13.823c5.407,2.218,10.471,3.309,14.899,3.309
		c6.423,0,11.506-2.296,14.34-6.778c1.277-2.021,2.481-4.673,3.646-7.237c1.466-3.228,2.981-6.566,4.611-8.616
		c0.562-0.707,1.988-1.328,3.498-1.985c3.37-1.468,7.985-3.479,9.055-9.066C85.696,62.833,85.691,62.654,85.661,62.482z
		 M21.557,60.407c1.499-4.28,6.44-6.208,11.22-8.071c3.372-1.315,6.558-2.558,8.23-4.66l0,0c1.011-1.27,2.099-2.991,3.249-4.814
		c1.76-2.786,3.754-5.944,5.476-7.369c2.707-2.243,10.336-6.829,22.693-1.005c4.815,2.27,8.339,5.756,9.667,9.563
		c0.748,2.145,0.701,4.171-0.134,5.862c-1.846,3.739-5.499,5.476-8.723,7.008c-2.31,1.099-4.491,2.135-5.818,3.802
		c-1.738,2.188-3.226,5.466-4.665,8.636c-1.097,2.416-2.132,4.699-3.222,6.421c-3.623,5.728-12.963,6.56-23.793,2.118
		c-8.598-3.523-13.967-8.801-14.566-13.924v-0.169c0-0.079-0.011-0.155-0.023-0.23C21.075,62.503,21.195,61.442,21.557,60.407z
		 M75.421,69.358c-1.859,0.81-3.615,1.575-4.637,2.86c-1.857,2.337-3.45,5.845-4.99,9.236c-1.175,2.587-2.284,5.03-3.452,6.879
		c-3.907,6.181-13.956,7.086-25.604,2.309c-9.215-3.774-13.968-7.426-15.379-11.82l-0.188-1.625v-6.065
		c2.785,3.686,7.395,7.035,13.44,9.512c5.061,2.076,9.803,3.097,13.952,3.097c6.032,0,10.81-2.159,13.477-6.375
		c1.198-1.896,2.326-4.379,3.416-6.781c1.364-3.006,2.774-6.113,4.284-8.014c0.898-1.129,2.779-2.022,4.771-2.969
		c2.665-1.267,5.827-2.776,8.197-5.508l0.01,8.131c0,0.082,0.012,0.161,0.024,0.239C81.965,66.507,78.638,67.957,75.421,69.358z"/>
	<path style="fill:#231F20;" d="M27.489,19.271c0-3.631,2.954-6.585,6.585-6.585c0.82,0,1.484-0.665,1.484-1.484
		s-0.664-1.484-1.484-1.484c-5.268,0-9.554,4.286-9.554,9.554c0,0.82,0.664,1.484,1.484,1.484S27.489,20.091,27.489,19.271z"/>
</g>
</svg>
