<?xml version="1.0" encoding="iso-8859-1"?>
<!-- Generator: Adobe Illustrator 21.0.2, SVG Export Plug-In . SVG Version: 6.00 Build 0)  -->
<svg version="1.1" id="Layer_1" xmlns="http://www.w3.org/2000/svg" xmlns:xlink="http://www.w3.org/1999/xlink" x="0px" y="0px"
	 viewBox="0 0 100.75 100.75" style="enable-background:new 0 0 100.75 100.75;" xml:space="preserve">
<path d="M50,11.157c-21.89,0-39.699,17.809-39.699,39.699S28.11,90.555,50,90.555s39.699-17.809,39.699-39.699
	S71.89,11.157,50,11.157z M78.52,73.917c-0.027-0.001-0.053-0.008-0.08-0.008H65.151l-6.352-10.778l6.221-10.775h12.658
	l6.637,11.495C82.919,67.523,80.952,70.914,78.52,73.917z M65.124,76.909h10.694c-4.411,4.371-9.923,7.628-16.077,9.324
	L65.124,76.909z M34.847,76.909l5.378,9.314c-6.14-1.699-11.641-4.951-16.043-9.314H34.847z M34.791,73.909h-13.26
	c-0.018,0-0.035,0.005-0.054,0.005c-2.431-3.002-4.397-6.392-5.792-10.063l6.636-11.495h12.601l6.221,10.775L34.791,73.909z
	 M13.301,50.856c0-3.151,0.4-6.211,1.151-9.132l5.272,9.132l-5.272,9.132C13.701,57.067,13.301,54.007,13.301,50.856z
	 M21.478,27.798c0.018,0.001,0.035,0.005,0.053,0.005h13.26l6.353,10.779l-6.221,10.774H22.322l-6.636-11.494
	C17.08,34.19,19.046,30.799,21.478,27.798z M34.847,24.803H24.182c4.403-4.363,9.903-7.615,16.043-9.314L34.847,24.803z
	 M43.746,61.639L37.52,50.856l6.226-10.782h12.45l6.226,10.782l-6.226,10.783H43.746z M65.124,24.803l-5.383-9.324
	c6.154,1.697,11.666,4.953,16.077,9.324H65.124z M64.734,27.803H78.44c0.027,0,0.053-0.007,0.08-0.008
	c2.432,3.002,4.399,6.394,5.795,10.066l-6.637,11.494H65.02l-6.234-10.798L64.734,27.803z M80.276,50.856l5.273-9.132
	c0.751,2.921,1.151,5.98,1.151,9.132c0,3.152-0.4,6.211-1.151,9.132L80.276,50.856z M55.799,14.62
	c0.022,0.051,0.04,0.102,0.068,0.151l6.459,11.187l-6.148,11.116H43.737l-6.32-10.723l6.686-11.58
	c0.027-0.047,0.044-0.097,0.066-0.146c1.9-0.305,3.846-0.468,5.83-0.468C51.973,14.157,53.909,14.318,55.799,14.62z M44.169,87.087
	c-0.022-0.049-0.038-0.098-0.066-0.146L37.417,75.36l6.32-10.722h12.468l6.334,10.747l-6.672,11.556
	c-0.028,0.049-0.046,0.101-0.068,0.151c-1.89,0.301-3.826,0.463-5.8,0.463C48.015,87.555,46.069,87.391,44.169,87.087z"/>
</svg>
