<?xml version="1.0" encoding="iso-8859-1"?>
<!-- Generator: Adobe Illustrator 21.0.0, SVG Export Plug-In . SVG Version: 6.00 Build 0)  -->
<svg version="1.1" id="Layer_1" xmlns="http://www.w3.org/2000/svg" xmlns:xlink="http://www.w3.org/1999/xlink" x="0px" y="0px"
	 viewBox="0 0 100.355 100.352" style="enable-background:new 0 0 100.355 100.352;" xml:space="preserve">
<path d="M87.544,83.559L77.426,16.972c-0.006-0.038-0.02-0.073-0.028-0.111c-0.011-0.046-0.02-0.091-0.035-0.136
	c-0.019-0.058-0.044-0.112-0.07-0.166c-0.018-0.038-0.034-0.077-0.055-0.113c-0.033-0.057-0.072-0.108-0.112-0.16
	c-0.019-0.025-0.033-0.053-0.053-0.076c-0.004-0.005-0.01-0.009-0.015-0.014c-0.054-0.06-0.114-0.112-0.176-0.162
	c-0.017-0.014-0.032-0.031-0.049-0.044c-0.081-0.059-0.167-0.11-0.259-0.152c-0.031-0.014-0.063-0.022-0.095-0.034
	c-0.064-0.025-0.127-0.049-0.194-0.064c-0.038-0.009-0.078-0.012-0.117-0.018c-0.062-0.01-0.124-0.019-0.188-0.02
	c-0.012,0-0.024-0.004-0.037-0.004H15.491c-0.829,0-1.5,0.671-1.5,1.5v12.93c0,0.829,0.671,1.5,1.5,1.5h4.08l-9.147,51.897
	c-0.077,0.437,0.043,0.885,0.328,1.225c0.285,0.339,0.706,0.536,1.149,0.536h74.16c0.437,0,0.853-0.191,1.138-0.522
	C87.484,84.43,87.61,83.991,87.544,83.559z M22.618,31.626h38.8c0.829,0,1.5-0.671,1.5-1.5s-0.671-1.5-1.5-1.5H16.993v-9.93h57.234
	l-8.639,63.587H13.691L22.618,31.626z M68.615,82.284l7.412-54.556l8.29,54.556H68.615z"/>
</svg>
