<?xml version="1.0" encoding="iso-8859-1"?>
<!-- Generator: Adobe Illustrator 21.0.2, SVG Export Plug-In . SVG Version: 6.00 Build 0)  -->
<svg version="1.1" id="Layer_1" xmlns="http://www.w3.org/2000/svg" xmlns:xlink="http://www.w3.org/1999/xlink" x="0px" y="0px"
	 viewBox="0 0 100.75 100.749" style="enable-background:new 0 0 100.75 100.749;" xml:space="preserve">
<path d="M84.492,62.317c-0.716,0-1.297,0.581-1.297,1.298v19.722H17.651V57.951c0-0.717-0.581-1.298-1.297-1.298
	s-1.297,0.581-1.297,1.298v26.684c0,0.717,0.581,1.298,1.297,1.298h68.139c0.716,0,1.297-0.581,1.297-1.298v-21.02
	C85.789,62.898,85.208,62.317,84.492,62.317z"/>
<path d="M16.353,34.662c0.716,0,1.297-0.581,1.297-1.297V16.662h65.544v19.727c0,0.716,0.581,1.297,1.297,1.297
	s1.297-0.581,1.297-1.297V15.365c0-0.716-0.581-1.297-1.297-1.297H16.352c-0.716,0-1.297,0.581-1.297,1.297v18
	C15.056,34.081,15.637,34.662,16.353,34.662z"/>
<path d="M93.531,55.786L79.527,41.613c-0.269-0.271-0.64-0.403-1.025-0.381c-0.381,0.03-0.73,0.227-0.953,0.538L58.296,68.644
	L42.821,27.905c-0.183-0.481-0.634-0.81-1.148-0.835c-0.525-0.027-0.996,0.256-1.226,0.717L26.702,55.375l-9.103-13.573
	c-0.241-0.359-0.645-0.575-1.078-0.575s-0.836,0.215-1.078,0.575L5.096,57.228c-0.399,0.595-0.24,1.401,0.355,1.8
	c0.596,0.402,1.401,0.24,1.8-0.354l9.27-13.82l9.269,13.82c0.257,0.384,0.697,0.604,1.161,0.572c0.461-0.03,0.872-0.303,1.078-0.717
	l13.418-26.933l15.281,40.229c0.17,0.446,0.571,0.764,1.045,0.825c0.056,0.008,0.112,0.012,0.167,0.012
	c0.415,0,0.809-0.199,1.055-0.542l19.766-27.59l12.923,13.079c0.504,0.511,1.325,0.514,1.835,0.011
	C94.03,57.117,94.035,56.296,93.531,55.786z"/>
</svg>
