<?xml version="1.0" encoding="iso-8859-1"?>
<!-- Generator: Adobe Illustrator 21.1.0, SVG Export Plug-In . SVG Version: 6.00 Build 0)  -->
<svg version="1.1" id="Layer_1" xmlns="http://www.w3.org/2000/svg" xmlns:xlink="http://www.w3.org/1999/xlink" x="0px" y="0px"
	 viewBox="0 0 100.176 100.178" style="enable-background:new 0 0 100.176 100.178;" xml:space="preserve">
<path d="M94.924,74H52.333c-9.023-9.118-17.943-13.196-28.874-13.196c-0.885,0-1.736,0.034-2.567,0.089L33.387,34.1h20.7
	c0.828,0,1.5-0.671,1.5-1.5v-9.055c0-0.829-0.672-1.5-1.5-1.5H31.265c-0.023-0.024-0.032-0.056-0.057-0.079L17.736,9.638
	c-0.612-0.559-1.56-0.518-2.119,0.094c-0.56,0.611-0.518,1.56,0.094,2.119L26.85,22.045h-5.431c-0.829,0-1.5,0.671-1.5,1.5V32.6
	c0,0.829,0.671,1.5,1.5,1.5h8.658L17.385,61.313C8.919,62.815,4.032,67.662,3.624,75.14c-0.029,0.116-0.048,0.235-0.048,0.36v13.756
	c0,0.828,0.671,1.5,1.5,1.5h89.848c0.828,0,1.5-0.672,1.5-1.5V75.5C96.424,74.672,95.752,74,94.924,74z M22.919,25.045h29.668V31.1
	H22.919V25.045z M23.459,63.803c9.324,0,16.823,3.09,24.551,10.196H6.738C8.069,65.193,17.604,63.803,23.459,63.803z M93.424,87.756
	H6.576V77h86.848V87.756z"/>
</svg>
