<?xml version="1.0" encoding="iso-8859-1"?>
<!-- Generator: Adobe Illustrator 21.1.0, SVG Export Plug-In . SVG Version: 6.00 Build 0)  -->
<svg version="1.1" id="Layer_1" xmlns="http://www.w3.org/2000/svg" xmlns:xlink="http://www.w3.org/1999/xlink" x="0px" y="0px"
	 viewBox="0 0 100.75 100.75" style="enable-background:new 0 0 100.75 100.75;" xml:space="preserve">
<path d="M49.997,8.056c-23.127,0-41.942,18.816-41.942,41.945c0,23.128,18.815,41.944,41.942,41.944
	c23.13,0,41.948-18.816,41.948-41.944C91.945,26.872,73.127,8.056,49.997,8.056z M49.997,11.056
	c10.077,0,19.272,3.847,26.194,10.148L63.974,33.421c-0.396-4.612-4.271-8.246-8.984-8.246h-9.404c-4.893,0-8.879,3.916-9.011,8.777
	h-9.171c-0.829,0-1.5,0.672-1.5,1.5v33.229c0,0.769,0.581,1.396,1.327,1.483l-6.03,6.03C14.9,69.272,11.053,60.078,11.053,50.002
	C11.055,28.526,28.524,11.056,49.997,11.056z M28.905,67.181V36.952h31.538L30.215,67.181H28.905z M39.576,33.952
	c0.13-3.207,2.773-5.777,6.011-5.777h9.404c3.238,0,5.88,2.571,6.011,5.777H39.576z M64.685,36.952h6.987v30.229H34.457
	L64.685,36.952z M49.997,88.945c-10.32,0-19.709-4.043-26.684-10.62l8.145-8.145h41.715c0.829,0,1.5-0.672,1.5-1.5V35.451
	c0-0.828-0.671-1.5-1.5-1.5h-5.487l10.638-10.639c6.577,6.976,10.621,16.366,10.621,26.687
	C88.945,71.475,71.473,88.945,49.997,88.945z"/>
</svg>
