<svg id="Layer_1" data-name="Layer 1" xmlns="http://www.w3.org/2000/svg" viewBox="0 0 101 101"><title>Artboard 2 copy 13</title><path d="M40,73.8a13.74,13.74,0,0,0,3.48-5.71q.59-.18,1.17-.4a1.48,1.48,0,0,0,.3.45L47.81,71a1.5,1.5,0,0,0,2.12-2.12l-2.48-2.48a24.07,24.07,0,0,0,3.35-2.31l2,2a1.5,1.5,0,0,0,2.12-2.12L53,62a19.07,19.07,0,0,0,2.4-3.25l2.3,2.3A1.5,1.5,0,0,0,59.83,59L57,56.12a1.41,1.41,0,0,0-.13-.09c.39-.82.75-1.65,1.09-2.49a21.36,21.36,0,0,0,9.67,3.64,14,14,0,0,0,23.2,5.58c5.11-5.11,10.64-18.56,5.09-24.3A1.5,1.5,0,0,0,94.85,38c-.73,0-.74,0-12.06,11.41l-.61-9.48a1.5,1.5,0,0,0-.56-1.08,1.52,1.52,0,0,0-1.18-.31C77.54,39,73.26,40.73,71,43a14,14,0,0,0-4,11.14,20.55,20.55,0,0,1-8-3.45,75.19,75.19,0,0,0,2.54-9.56,1.5,1.5,0,0,0-1.76-1.75,79.69,79.69,0,0,0-9.52,2.58,21,21,0,0,1-3.43-7.69,14.12,14.12,0,0,0,1.54.09,14,14,0,0,0,9.9-4.09c2.23-2.23,3.94-6.51,4.42-9.41a1.5,1.5,0,0,0-1.46-1.74L52.46,19C63.81,7.69,63.81,7.65,63.81,7a1.5,1.5,0,0,0-.46-1.07c-5.86-5.67-20-.31-24.85,4.54a14,14,0,0,0,5.24,23.08A21.62,21.62,0,0,0,47.38,43c-.83.33-1.65.68-2.45,1.06l-2.78-2.78A1.5,1.5,0,0,0,40,43.4l2.12,2.12a18.75,18.75,0,0,0-3.27,2.39l-1.68-1.68a1.5,1.5,0,0,0-2.12,2.12l1.77,1.77a18.81,18.81,0,0,0-2.24,3.42l-2.35-2.35a1.5,1.5,0,0,0-2.12,2.12L33,56.12a1.5,1.5,0,0,0,.49.33c-.1.36-.2.73-.28,1.1a13.69,13.69,0,0,0-5.87,3.52,14.61,14.61,0,0,0-1.08,1.22,1.53,1.53,0,0,0-.31,0c-5,1.27-13.86,6.9-14.23,7.14a1.47,1.47,0,0,0-.25.2,5.85,5.85,0,0,0-.24,8.25,5.51,5.51,0,0,0,4.13,1.59h.18a5.45,5.45,0,0,0,5.89,5.89,5.44,5.44,0,0,0,5.48,5.91,6.16,6.16,0,0,0,4.35-1.83,1.49,1.49,0,0,0,.21-.27c.21-.34,5.23-8.44,6.86-13.56a1.49,1.49,0,0,0,.06-.41A14.84,14.84,0,0,0,40,73.8ZM73.15,45.09a15.73,15.73,0,0,1,6.15-3.2l.71,11a1.5,1.5,0,0,0,2.56,1c4-4,9.59-9.65,12-12.08C96.8,46.54,93,56.39,88.7,60.64A11,11,0,0,1,73.15,45.09ZM37.4,20.34a10.93,10.93,0,0,1,3.22-7.78C43.8,9.38,50.86,6.45,56.13,6.45A9,9,0,0,1,60,7.2c-2.44,2.46-8.15,8.14-12.19,12.15a1.5,1.5,0,0,0,1,2.56l10.5.14a15.63,15.63,0,0,1-3.17,6.06A11,11,0,0,1,37.4,20.34ZM50.16,45.15h0a78.53,78.53,0,0,1,8-2.35c-1,4.25-3.5,13.38-7.52,17.41A20.67,20.67,0,0,1,44,64.75a7.44,7.44,0,0,0-7.59-7.62,16.16,16.16,0,0,1,4.32-6.83C42.83,48.18,46.53,46.45,50.16,45.15Zm-14,14.93a4.89,4.89,0,0,1,3.54,1.34c2.34,2.34,1.55,6.94-1.77,10.25a10.31,10.31,0,0,1-5.7,3,5.2,5.2,0,0,1-4.55-1.25c-2.34-2.34-1.55-6.94,1.77-10.25A9.91,9.91,0,0,1,36.14,60.08ZM29,87.46a2.68,2.68,0,1,1-3.66-3.88,1.5,1.5,0,0,0-2.12-2.12,2.85,2.85,0,0,1-4,.24,2.86,2.86,0,0,1,.24-4,1.5,1.5,0,0,0-2.12-2.12,3.17,3.17,0,0,1-2.11,1,2.45,2.45,0,0,1-1.9-.71,2.84,2.84,0,0,1,.13-3.9A86.36,86.36,0,0,1,24,66.15c-1.26,3.48-.82,7.1,1.49,9.42a7.78,7.78,0,0,0,5.63,2.21,10.34,10.34,0,0,0,1.46-.11,11.5,11.5,0,0,0,1.85-.43A97.93,97.93,0,0,1,29,87.46Z"/><path d="M24.28,27.35a1.5,1.5,0,0,0-2.06.5,37.38,37.38,0,0,0-5.47,20.54,1.5,1.5,0,0,0,1.5,1.46h0a1.5,1.5,0,0,0,1.46-1.54,34.39,34.39,0,0,1,5-18.9A1.5,1.5,0,0,0,24.28,27.35Z"/><path d="M78.62,71.79a34.22,34.22,0,0,1-12.34,7.94,1.5,1.5,0,0,0,1,2.81,37.19,37.19,0,0,0,13.42-8.63,1.5,1.5,0,0,0-2.12-2.12Z"/><path d="M74.32,16.08a1.5,1.5,0,1,0-1.77,2.42A34.91,34.91,0,0,1,76.62,22a34.33,34.33,0,0,1,7.3,10.75,1.5,1.5,0,1,0,2.76-1.19,37.33,37.33,0,0,0-7.94-11.68A37.79,37.79,0,0,0,74.32,16.08Z"/><path d="M68.53,9.22A41.11,41.11,0,0,1,92.25,33.9a1.5,1.5,0,1,0,2.83-1A44.11,44.11,0,0,0,69.62,6.43a1.5,1.5,0,0,0-1.1,2.79Z"/><path d="M12.77,61a1.5,1.5,0,0,0,1.44-1.93A41.07,41.07,0,0,1,31.75,12.63a1.5,1.5,0,0,0-1.59-2.54A44.07,44.07,0,0,0,11.33,59.92,1.5,1.5,0,0,0,12.77,61Z"/><path d="M90.39,68.59a1.5,1.5,0,0,0-2.07.48A41.07,41.07,0,0,1,41.92,86.72a1.5,1.5,0,1,0-.85,2.88,44.07,44.07,0,0,0,49.8-18.94A1.5,1.5,0,0,0,90.39,68.59Z"/></svg>