<?xml version="1.0" encoding="iso-8859-1"?>
<!-- Generator: Adobe Illustrator 21.0.0, SVG Export Plug-In . SVG Version: 6.00 Build 0)  -->
<svg version="1.1" id="Layer_1" xmlns="http://www.w3.org/2000/svg" xmlns:xlink="http://www.w3.org/1999/xlink" x="0px" y="0px"
	 viewBox="0 0 100.353 100.353" style="enable-background:new 0 0 100.353 100.353;" xml:space="preserve">
<g>
	<path style="fill:#231F20;" d="M85.527,22.357H14.474c-3.676,0-6.666,2.989-6.666,6.662v4.357v9.384v28.219
		c0,3.675,2.99,6.664,6.666,6.664h71.053c3.676,0,6.666-2.989,6.666-6.664V42.76v-9.384v-4.357
		C92.193,25.346,89.203,22.357,85.527,22.357z M14.474,25.357h71.053c2.021,0,3.666,1.643,3.666,3.662v2.857H10.808v-2.857
		C10.808,26.999,12.453,25.357,14.474,25.357z M89.193,41.26H10.808v-6.384h78.385V41.26z M85.527,74.643H14.474
		c-2.021,0-3.666-1.644-3.666-3.664V44.26h78.385v26.719C89.193,72.999,87.549,74.643,85.527,74.643z"/>
	<path style="fill:#231F20;" d="M21.036,59.875c-2.683,0-4.865,2.183-4.865,4.865s2.183,4.865,4.865,4.865s4.865-2.183,4.865-4.865
		S23.719,59.875,21.036,59.875z M21.036,66.605c-1.028,0-1.865-0.837-1.865-1.865s0.837-1.865,1.865-1.865s1.865,0.837,1.865,1.865
		S22.064,66.605,21.036,66.605z"/>
	<path style="fill:#231F20;" d="M69.253,63.397H31.126c-0.829,0-1.5,0.672-1.5,1.5s0.671,1.5,1.5,1.5h38.127
		c0.828,0,1.5-0.672,1.5-1.5S70.081,63.397,69.253,63.397z"/>
</g>
</svg>
