<?xml version="1.0" encoding="iso-8859-1"?>
<!-- Generator: Adobe Illustrator 21.0.2, SVG Export Plug-In . SVG Version: 6.00 Build 0)  -->
<svg version="1.1" id="Layer_1" xmlns="http://www.w3.org/2000/svg" xmlns:xlink="http://www.w3.org/1999/xlink" x="0px" y="0px"
	 viewBox="0 0 103 102.999" style="enable-background:new 0 0 103 102.999;" xml:space="preserve">
<g>
	<path style="fill:none;stroke:#000000;stroke-width:3;stroke-linecap:round;stroke-linejoin:round;stroke-miterlimit:10;" d="
		M68.491,60.291c0.702,2.546,1.076,5.235,1.076,8.01c0,16.671-13.512,30.181-30.182,30.181c-16.666,0-30.181-13.51-30.181-30.181
		c0-16.665,13.515-30.18,30.181-30.18c0.714,0,1.425,0.026,2.126,0.074"/>
	
		<polygon style="fill:none;stroke:#000000;stroke-width:3;stroke-linecap:round;stroke-linejoin:round;stroke-miterlimit:10;" points="
		34.759,83.414 34.54,53.187 49.767,68.414 	"/>
	<path style="fill:none;stroke:#000000;stroke-width:3;stroke-linecap:round;stroke-linejoin:round;stroke-miterlimit:10;" d="
		M74.913,41.962c0,7.396-5.999,13.396-13.406,13.396c-7.395,0-13.397-6.001-13.397-13.396c0-7.399,6.002-13.401,13.397-13.401
		C68.914,28.561,74.913,34.563,74.913,41.962z"/>
	<path style="fill:none;stroke:#000000;stroke-width:3;stroke-linecap:round;stroke-linejoin:round;stroke-miterlimit:10;" d="
		M87.478,31.658c0,0,7.982-10.605-0.821-15.09c-1.677-0.854-5.466-1.75-7.854-4.555c-3.561-4.187-3.895-8.496-3.895-8.496v37.771"/>
</g>
</svg>
