<?xml version="1.0" encoding="iso-8859-1"?>
<!-- Generator: Adobe Illustrator 21.1.0, SVG Export Plug-In . SVG Version: 6.00 Build 0)  -->
<svg version="1.1" id="Layer_1" xmlns="http://www.w3.org/2000/svg" xmlns:xlink="http://www.w3.org/1999/xlink" x="0px" y="0px"
	 viewBox="0 0 100.353 100.353" style="enable-background:new 0 0 100.353 100.353;" xml:space="preserve">
<g>
	<path d="M89.147,55.395L60.751,22.893V9.292c0-0.829-0.672-1.5-1.5-1.5H40.75c-0.829,0-1.5,0.671-1.5,1.5v13.601L10.854,55.395
		c-0.387,0.443-0.479,1.072-0.236,1.607c0.243,0.536,0.777,0.88,1.366,0.88h76.035c0.588,0,1.122-0.344,1.365-0.88
		C89.627,56.467,89.534,55.838,89.147,55.395z M15.285,54.882l26.594-30.439c0.239-0.273,0.371-0.624,0.371-0.987V10.792h15.501
		v12.664c0,0.363,0.132,0.713,0.37,0.987l26.594,30.439H15.285z"/>
	<path d="M22.554,65.493c-0.829,0-1.5,0.672-1.5,1.5v8.438c0,0.828,0.671,1.5,1.5,1.5s1.5-0.672,1.5-1.5v-8.438
		C24.054,66.165,23.382,65.493,22.554,65.493z"/>
	<path d="M22.554,80.768c-0.829,0-1.5,0.672-1.5,1.5v8.439c0,0.828,0.671,1.5,1.5,1.5s1.5-0.672,1.5-1.5v-8.439
		C24.054,81.44,23.382,80.768,22.554,80.768z"/>
	<path d="M33.534,65.493c-0.829,0-1.5,0.672-1.5,1.5v8.438c0,0.828,0.671,1.5,1.5,1.5s1.5-0.672,1.5-1.5v-8.438
		C35.034,66.165,34.363,65.493,33.534,65.493z"/>
	<path d="M33.534,80.768c-0.829,0-1.5,0.672-1.5,1.5v8.439c0,0.828,0.671,1.5,1.5,1.5s1.5-0.672,1.5-1.5v-8.439
		C35.034,81.44,34.363,80.768,33.534,80.768z"/>
	<path d="M44.513,65.493c-0.829,0-1.5,0.672-1.5,1.5v8.438c0,0.828,0.671,1.5,1.5,1.5s1.5-0.672,1.5-1.5v-8.438
		C46.013,66.165,45.341,65.493,44.513,65.493z"/>
	<path d="M44.513,80.768c-0.829,0-1.5,0.672-1.5,1.5v8.439c0,0.828,0.671,1.5,1.5,1.5s1.5-0.672,1.5-1.5v-8.439
		C46.013,81.44,45.341,80.768,44.513,80.768z"/>
	<path d="M55.493,65.493c-0.828,0-1.5,0.672-1.5,1.5v8.438c0,0.828,0.672,1.5,1.5,1.5s1.5-0.672,1.5-1.5v-8.438
		C56.993,66.165,56.321,65.493,55.493,65.493z"/>
	<path d="M55.493,80.768c-0.828,0-1.5,0.672-1.5,1.5v8.439c0,0.828,0.672,1.5,1.5,1.5s1.5-0.672,1.5-1.5v-8.439
		C56.993,81.44,56.321,80.768,55.493,80.768z"/>
	<path d="M66.469,65.493c-0.828,0-1.5,0.672-1.5,1.5v8.438c0,0.828,0.672,1.5,1.5,1.5s1.5-0.672,1.5-1.5v-8.438
		C67.969,66.165,67.297,65.493,66.469,65.493z"/>
	<path d="M66.469,80.768c-0.828,0-1.5,0.672-1.5,1.5v8.439c0,0.828,0.672,1.5,1.5,1.5s1.5-0.672,1.5-1.5v-8.439
		C67.969,81.44,67.297,80.768,66.469,80.768z"/>
	<path d="M77.448,65.493c-0.828,0-1.5,0.672-1.5,1.5v8.438c0,0.828,0.672,1.5,1.5,1.5s1.5-0.672,1.5-1.5v-8.438
		C78.948,66.165,78.276,65.493,77.448,65.493z"/>
	<path d="M77.448,80.768c-0.828,0-1.5,0.672-1.5,1.5v8.439c0,0.828,0.672,1.5,1.5,1.5s1.5-0.672,1.5-1.5v-8.439
		C78.948,81.44,78.276,80.768,77.448,80.768z"/>
</g>
</svg>
