<svg id="Layer_1" data-name="Layer 1" xmlns="http://www.w3.org/2000/svg" viewBox="0 0 101 101"><title>Artboard 2 copy 8</title><path d="M79.5,12h-58A1.5,1.5,0,0,0,20,13.5v73A1.5,1.5,0,0,0,21.5,88h58A1.5,1.5,0,0,0,81,86.5v-73A1.5,1.5,0,0,0,79.5,12ZM78,48.32l-26-.15V15H78ZM23,34H49V48.16L23,48Zm26-3H38V15H49ZM35,15V31H23V15ZM23,85V51l55,.31V85Z"/><path d="M50.72,61.6a1.5,1.5,0,0,0-1.38-.92h0a1.5,1.5,0,0,0-1.38,1L42.17,76.35A1.5,1.5,0,0,0,45,77.44L46.31,74H52.7l1.5,3.55A1.5,1.5,0,0,0,57,76.38ZM47.49,71l1.9-4.84,2,4.84Z"/></svg>