<svg id="Layer_1" data-name="Layer 1" xmlns="http://www.w3.org/2000/svg" viewBox="0 0 101 101"><title>log_Artboard 2</title><path d="M79.5,24h7a1.5,1.5,0,0,0,0-3h-10A1.5,1.5,0,0,0,75,22.5v10a1.5,1.5,0,0,0,3,0V26.81A36.62,36.62,0,0,1,87,51,37,37,0,1,1,50,14a1.5,1.5,0,0,0,0-3A40,40,0,1,0,90,51,39.59,39.59,0,0,0,79.5,24Z"/><path d="M23,51.5A27.5,27.5,0,1,0,50.5,24,27.53,27.53,0,0,0,23,51.5Zm52,0A24.5,24.5,0,1,1,50.5,27,24.53,24.53,0,0,1,75,51.5Z"/><path d="M49,34.5v17a1.5,1.5,0,0,0,2.56,1.06l13-13a1.5,1.5,0,0,0-2.12-2.12L52,47.88V34.5a1.5,1.5,0,0,0-3,0Z"/></svg>