<?xml version="1.0" encoding="iso-8859-1"?>
<!-- Generator: Adobe Illustrator 21.1.0, SVG Export Plug-In . SVG Version: 6.00 Build 0)  -->
<svg version="1.1" id="Layer_1" xmlns="http://www.w3.org/2000/svg" xmlns:xlink="http://www.w3.org/1999/xlink" x="0px" y="0px"
	 viewBox="0 0 100.354 100.352" style="enable-background:new 0 0 100.354 100.352;" xml:space="preserve">
<g>
	<path d="M57.242,67.466l12.76-20.517c0.045-0.072,0.083-0.147,0.114-0.225c2.247-3.672,3.433-7.863,3.433-12.139
		c0-12.85-10.455-23.304-23.307-23.304c-12.849,0-23.302,10.454-23.302,23.304c0,4.281,1.188,8.473,3.437,12.143
		c0.028,0.068,0.061,0.134,0.1,0.199l12.307,20.597c-9.607,1.426-15.911,5.444-15.911,10.326c0,6.196,10.034,10.868,23.339,10.868
		c13.305,0,23.338-4.672,23.338-10.868C73.549,72.864,67.092,68.83,57.242,67.466z M33.058,45.359
		c-2.04-3.245-3.118-6.97-3.118-10.773c0-11.196,9.107-20.304,20.302-20.304c11.198,0,20.307,9.108,20.307,20.304
		c0,3.801-1.077,7.526-3.116,10.774c-0.046,0.073-0.085,0.149-0.116,0.228l-13.63,21.916c-0.267,0.211-0.458,0.51-0.533,0.858
		l-3.251,5.227L33.185,45.611C33.15,45.524,33.108,45.439,33.058,45.359z M50.211,85.717c-11.986,0-20.339-4.146-20.339-7.868
		c0-3.653,7.262-6.615,14.586-7.522l4.13,6.913c0.268,0.449,0.751,0.726,1.274,0.73c0.004,0,0.009,0,0.013,0
		c0.518,0,1-0.268,1.273-0.708l4.346-6.988c9.439,1.037,15.054,4.597,15.054,7.574C70.549,81.571,62.196,85.717,50.211,85.717z"/>
	<path d="M58.816,34.586c0-4.745-3.86-8.606-8.606-8.606c-4.745,0-8.605,3.861-8.605,8.606s3.86,8.606,8.605,8.606
		C54.956,43.192,58.816,39.331,58.816,34.586z M44.604,34.586c0-3.091,2.515-5.606,5.605-5.606c3.092,0,5.606,2.515,5.606,5.606
		s-2.515,5.606-5.606,5.606C47.119,40.192,44.604,37.677,44.604,34.586z"/>
</g>
</svg>
