<?xml version="1.0" encoding="iso-8859-1"?>
<!-- Generator: Adobe Illustrator 21.0.0, SVG Export Plug-In . SVG Version: 6.00 Build 0)  -->
<svg version="1.1" id="Layer_1" xmlns="http://www.w3.org/2000/svg" xmlns:xlink="http://www.w3.org/1999/xlink" x="0px" y="0px"
	 viewBox="0 0 100.354 100.352" style="enable-background:new 0 0 100.354 100.352;" xml:space="preserve">
<g>
	<path d="M86.651,35.138l-7.777-23.329c-0.204-0.612-0.777-1.025-1.423-1.025H23.027c-0.646,0-1.219,0.413-1.423,1.025
		l-7.777,23.329c-0.051,0.153-0.077,0.313-0.077,0.475V90.03c0,0.829,0.671,1.5,1.5,1.5h69.978c0.829,0,1.5-0.671,1.5-1.5V35.613
		C86.728,35.452,86.702,35.292,86.651,35.138z M83.281,34.517c-2.998,2.269-5.985,3.259-9.884,3.259
		c-3.56,0-6.997-1.101-9.996-3.167V13.784h12.968L83.281,34.517z M40.076,13.784h20.325v20.825c-3,2.066-6.436,3.167-9.995,3.167
		c-3.704,0-7.257-1.192-10.331-3.428V13.784H40.076z M24.108,13.784h12.968v20.565c-3.073,2.235-6.625,3.427-10.331,3.427
		c-3.483,0-6.804-0.995-9.679-2.87L24.108,13.784z M16.75,88.529V38.208c3.044,1.678,6.448,2.567,9.996,2.567
		c4.238,0,8.305-1.308,11.831-3.793c3.527,2.485,7.594,3.793,11.831,3.793c4.089,0,8.041-1.221,11.495-3.542
		c3.453,2.32,7.405,3.542,11.496,3.542c3.962,0,7.228-0.922,10.33-2.915v50.669H16.75z"/>
	<path d="M50.171,47.653c-7.847,0-14.23,7.592-14.23,16.923c0,9.332,6.384,16.924,14.23,16.924s14.23-7.592,14.23-16.924
		C64.402,55.245,58.018,47.653,50.171,47.653z M38.941,64.576c0-6.924,4.102-12.666,9.448-13.73
		c-0.956,2.656-2.612,7.71-2.317,10.115c0.193,1.567,1.318,3.178,2.508,4.883c0.829,1.187,1.768,2.532,1.915,3.322
		c0.27,1.452-0.596,6.049-1.345,9.271C43.435,77.793,38.941,71.826,38.941,64.576z M52.271,78.247
		c0.637-2.847,1.556-7.569,1.172-9.632c-0.267-1.427-1.305-2.915-2.404-4.489c-0.841-1.205-1.888-2.705-1.99-3.532
		c-0.208-1.697,1.412-6.774,2.562-9.814c5.514,0.88,9.791,6.724,9.791,13.795C61.402,71.363,57.462,77.023,52.271,78.247z"/>
</g>
</svg>
