<?xml version="1.0" encoding="iso-8859-1"?>
<!-- Generator: Adobe Illustrator 21.0.0, SVG Export Plug-In . SVG Version: 6.00 Build 0)  -->
<svg version="1.1" id="Layer_1" xmlns="http://www.w3.org/2000/svg" xmlns:xlink="http://www.w3.org/1999/xlink" x="0px" y="0px"
	 viewBox="0 0 101.767 100.353" style="enable-background:new 0 0 101.767 100.353;" xml:space="preserve">
<g>
	<path style="fill:#231F20;" d="M60.493,51.338c0.737-0.537,1.098-1.429,0.94-2.323l-1.292-7.549l5.482-5.35
		c0.651-0.634,0.882-1.565,0.602-2.431c-0.281-0.867-1.016-1.487-1.918-1.619l-7.584-1.102l-3.39-6.877
		c-0.407-0.813-1.223-1.317-2.13-1.317c-0.003,0-0.007,0-0.01,0c-0.908,0.004-1.72,0.512-2.119,1.326l-3.386,6.868l-7.581,1.102
		c-0.904,0.132-1.64,0.754-1.92,1.624c-0.279,0.866-0.047,1.797,0.602,2.424l5.485,5.352l-1.296,7.581
		c-0.154,0.891,0.201,1.778,0.928,2.314c0.418,0.309,0.911,0.466,1.406,0.466c0.366,0,0.733-0.085,1.073-0.258l6.979-3.532
		l6.62,3.481C58.793,51.945,59.755,51.876,60.493,51.338z M50.709,45.042l-6.604,3.342l1.228-7.187
		c0.083-0.481-0.077-0.972-0.426-1.312l-5.181-5.055l7.163-1.041c0.483-0.07,0.901-0.375,1.117-0.813l3.2-6.49l3.199,6.49
		c0.216,0.438,0.634,0.743,1.117,0.813l7.166,1.041l-5.18,5.055c-0.349,0.341-0.509,0.832-0.426,1.313l1.221,7.133l-6.235-3.279
		C51.646,44.829,51.137,44.826,50.709,45.042z"/>
	<path style="fill:#231F20;" d="M100.299,33.749c-0.28-0.869-1.016-1.49-1.919-1.622l-7.585-1.102l-3.391-6.872
		c-0.404-0.816-1.22-1.322-2.129-1.322c-0.002,0-0.004,0-0.006,0c-0.909,0.002-1.723,0.51-2.123,1.326l-3.386,6.868l-7.584,1.103
		c-0.908,0.132-1.645,0.757-1.923,1.63c-0.276,0.869-0.038,1.798,0.608,2.414l5.484,5.356l-1.301,7.59
		c-0.15,0.894,0.211,1.781,0.941,2.315c0.417,0.305,0.906,0.459,1.397,0.459c0.366,0,0.734-0.086,1.073-0.26l6.979-3.528
		l6.625,3.486c0.812,0.42,1.772,0.347,2.509-0.193c0.733-0.538,1.091-1.429,0.935-2.319l-1.296-7.549l5.482-5.351
		C100.346,35.544,100.578,34.615,100.299,33.749z M91.578,39.946c-0.35,0.341-0.509,0.833-0.426,1.313l1.226,7.139l-6.235-3.281
		c-0.426-0.224-0.932-0.228-1.361-0.011l-6.608,3.341l1.231-7.188c0.083-0.481-0.076-0.972-0.426-1.313l-5.178-5.056l7.16-1.04
		c0.483-0.07,0.901-0.375,1.117-0.813l3.198-6.488l3.202,6.488c0.216,0.438,0.634,0.742,1.117,0.812l7.163,1.041L91.578,39.946z"/>
	<path style="fill:#231F20;" d="M26.422,51.337c0.738-0.538,1.098-1.43,0.939-2.322l-1.292-7.549l5.482-5.35
		c0.652-0.635,0.884-1.567,0.603-2.434c-0.28-0.866-1.014-1.485-1.914-1.617l-7.586-1.102l-3.393-6.877
		c-0.407-0.812-1.222-1.317-2.129-1.317c-0.002,0-0.004,0-0.006,0c-0.907,0.002-1.721,0.509-2.123,1.323v0.001l-3.387,6.87
		l-7.581,1.102c-0.906,0.132-1.642,0.755-1.921,1.626c-0.277,0.868-0.042,1.799,0.606,2.421l5.485,5.352l-1.3,7.581
		c-0.154,0.89,0.201,1.776,0.929,2.313c0.419,0.31,0.912,0.467,1.409,0.467c0.365,0,0.733-0.085,1.073-0.258l6.979-3.532
		l6.616,3.481C24.724,51.946,25.685,51.876,26.422,51.337z M16.641,45.042l-6.607,3.344l1.231-7.188
		c0.083-0.481-0.077-0.973-0.426-1.313L5.657,34.83l7.16-1.041c0.483-0.07,0.901-0.375,1.117-0.813l3.2-6.491l3.203,6.491
		c0.216,0.438,0.634,0.742,1.117,0.812l7.163,1.041l-5.181,5.055c-0.349,0.341-0.509,0.832-0.426,1.313l1.221,7.133l-6.23-3.278
		C17.577,44.829,17.069,44.826,16.641,45.042z"/>
	<path style="fill:#231F20;" d="M47.274,66.162l-7.584-1.098l-3.392-6.879c-0.407-0.81-1.222-1.312-2.127-1.312
		c-0.002,0-0.004,0-0.006,0c-0.906,0.002-1.719,0.507-2.121,1.318c-0.001,0.001-0.002,0.002-0.002,0.004l-3.387,6.869l-7.59,1.1
		c-0.904,0.137-1.639,0.764-1.915,1.636c-0.274,0.865-0.039,1.792,0.606,2.412l5.487,5.352l-1.299,7.583
		c-0.153,0.89,0.2,1.775,0.925,2.312c0.418,0.31,0.911,0.468,1.409,0.468c0.365,0,0.732-0.085,1.074-0.257l6.979-3.535l6.62,3.481
		c0.81,0.424,1.768,0.357,2.507-0.18c0.736-0.535,1.099-1.425,0.944-2.321l-1.296-7.553l5.479-5.346
		c0.652-0.63,0.886-1.558,0.609-2.423C48.918,66.925,48.186,66.3,47.274,66.162z M40.476,73.982
		c-0.35,0.341-0.509,0.832-0.426,1.313l1.224,7.135l-6.238-3.28c-0.424-0.224-0.932-0.228-1.361-0.01l-6.604,3.344l1.231-7.189
		c0.083-0.481-0.077-0.972-0.427-1.313l-5.183-5.055l7.162-1.038c0.484-0.07,0.902-0.374,1.118-0.813l3.199-6.49l3.2,6.49
		c0.216,0.439,0.634,0.743,1.118,0.813l7.165,1.038L40.476,73.982z"/>
	<path style="fill:#231F20;" d="M81.346,66.223l-7.584-1.102l-3.393-6.881c-0.407-0.809-1.222-1.311-2.126-1.311
		c-0.002,0-0.004,0-0.006,0c-0.905,0.002-1.718,0.507-2.122,1.316c-0.001,0.002-0.001,0.004-0.002,0.006l-3.387,6.869l-7.582,1.102
		c-0.902,0.132-1.639,0.752-1.919,1.62c-0.28,0.866-0.049,1.799,0.604,2.432l5.483,5.345l-1.296,7.582
		c-0.153,0.888,0.199,1.773,0.922,2.311c0.418,0.312,0.913,0.471,1.414,0.471c0.363,0,0.729-0.084,1.072-0.254l6.979-3.535
		l6.619,3.477c0.808,0.427,1.771,0.358,2.509-0.181c0.737-0.537,1.097-1.428,0.939-2.318l-1.293-7.552l5.486-5.347
		c0.651-0.637,0.88-1.57,0.599-2.436C82.982,66.973,82.247,66.354,81.346,66.223z M74.548,74.039
		c-0.35,0.341-0.51,0.832-0.427,1.313l1.222,7.134l-6.235-3.275c-0.424-0.224-0.932-0.228-1.361-0.01l-6.605,3.345l1.229-7.194
		c0.083-0.481-0.077-0.972-0.427-1.313l-5.182-5.051l7.165-1.041c0.483-0.07,0.901-0.375,1.117-0.813l3.2-6.491l3.2,6.491
		c0.216,0.438,0.634,0.743,1.117,0.813l7.169,1.041L74.548,74.039z"/>
</g>
</svg>
