<?xml version="1.0" encoding="iso-8859-1"?>
<!-- Generator: Adobe Illustrator 22.0.0, SVG Export Plug-In . SVG Version: 6.00 Build 0)  -->
<svg version="1.1" id="Layer_1" xmlns="http://www.w3.org/2000/svg" xmlns:xlink="http://www.w3.org/1999/xlink" x="0px" y="0px"
	 viewBox="0 0 100.25 106.518" style="enable-background:new 0 0 100.25 106.518;" xml:space="preserve">
<g>
	<path d="M69.499,70.9h-3.982c-0.829,0-1.5,0.671-1.5,1.5s0.671,1.5,1.5,1.5h2.182c-0.208,0.614-0.537,1.295-1.033,1.802
		c-0.525,0.537-1.163,0.798-1.95,0.798c-2.077,0-3.601-2.091-3.705-5.085c-0.086-2.493,0.323-4.283,1.186-5.176
		c0.48-0.497,1.145-0.739,2.033-0.739c1.857,0,2.604,1.658,2.687,1.857c0.305,0.764,1.17,1.14,1.938,0.84
		c0.771-0.301,1.153-1.171,0.852-1.943c-0.06-0.153-1.511-3.754-5.477-3.754c-1.721,0-3.131,0.557-4.191,1.655
		c-1.461,1.513-2.143,3.991-2.025,7.364c0.161,4.625,2.98,7.981,6.703,7.981c1.604,0,3.03-0.598,4.122-1.729
		c1.713-1.774,2.195-4.42,2.16-5.424C70.97,71.54,70.307,70.9,69.499,70.9z"/>
	<path d="M34.066,69.535c-0.667-0.212-2.845-1.005-2.845-2.285c0-1.75,1.334-1.75,1.903-1.75c1.5,0,2.372,1.414,2.419,1.492
		c0.415,0.71,1.325,0.956,2.042,0.545c0.719-0.412,0.967-1.329,0.555-2.047c-0.07-0.122-1.751-2.989-5.016-2.989
		c-3.619,0-4.903,2.559-4.903,4.75c0,2.304,1.752,4.13,4.935,5.143C36,73.3,36,73.909,36,74.679c0,0.453-0.268,0.956-0.699,1.312
		c-0.303,0.25-0.953,0.642-1.895,0.464c-1.686-0.322-2.448-1.335-2.642-1.638c-0.447-0.699-1.375-0.902-2.072-0.457
		c-0.698,0.446-0.902,1.374-0.457,2.072c0.458,0.716,1.822,2.438,4.607,2.969c0.341,0.065,0.684,0.098,1.024,0.098
		c1.221,0,2.401-0.415,3.346-1.196c1.119-0.925,1.787-2.28,1.787-3.624C39,71.713,37.027,70.478,34.066,69.535z"/>
	<path d="M54.539,62.657c-0.774-0.3-1.641,0.088-1.939,0.861l-4,10.387l-4.208-10.464c-0.309-0.77-1.186-1.142-1.951-0.832
		c-0.769,0.309-1.141,1.183-0.832,1.951l5.63,14c0.229,0.568,0.78,0.94,1.392,0.94c0.003,0,0.007,0,0.011,0
		c0.616-0.004,1.167-0.386,1.389-0.961l5.37-13.943C55.698,63.823,55.312,62.955,54.539,62.657z"/>
	<path d="M79.567,29.925l-18.26-18.479C61.025,11.161,60.641,11,60.24,11H20.5c-0.829,0-1.5,0.671-1.5,1.5v75
		c0,0.829,0.671,1.5,1.5,1.5h58c0.829,0,1.5-0.671,1.5-1.5V30.979C80,30.584,79.844,30.206,79.567,29.925z M62,16.415L74.93,29.5H62
		V16.415z M22,86V14h37v17c0,0.829,0.671,1.5,1.5,1.5H77V86H22z"/>
</g>
</svg>
