<svg id="Layer_1" data-name="Layer 1" xmlns="http://www.w3.org/2000/svg" viewBox="0 0 101 101"><title>Artboard 2 copy 4</title><path d="M85.5,62A1.5,1.5,0,0,1,84,60.5V48H75.75a1.5,1.5,0,0,1,0-3H85.5A1.5,1.5,0,0,1,87,46.5v14A1.5,1.5,0,0,1,85.5,62Z"/><path d="M85.5,76H77a1.5,1.5,0,0,1,0-3h7V62H77.66a1.5,1.5,0,0,1,0-3H85.5A1.5,1.5,0,0,1,87,60.5v14A1.5,1.5,0,0,1,85.5,76Z"/><path d="M85.5,90H74.07a1.5,1.5,0,0,1,0-3H84V74.5a1.5,1.5,0,0,1,3,0v14A1.5,1.5,0,0,1,85.5,90Z"/><path d="M28.5,62a8.5,8.5,0,0,1,0-17h17a1.5,1.5,0,0,1,0,3h-17a5.5,5.5,0,0,0,0,11,1.5,1.5,0,0,1,0,3Z"/><path d="M85.5,48A1.5,1.5,0,0,1,84,46.5V26H77a1.5,1.5,0,0,1,0-3h8.5A1.5,1.5,0,0,1,87,24.5v22A1.5,1.5,0,0,1,85.5,48Z"/><path d="M31,26H28.5a1.5,1.5,0,0,1,0-3H31a1.5,1.5,0,0,1,0,3Z"/><path d="M28.5,76a8.5,8.5,0,0,1,0-17h19a1.5,1.5,0,0,1,0,3h-19a5.5,5.5,0,0,0,0,11,1.5,1.5,0,0,1,0,3Z"/><path d="M47.13,90H28.5a8.5,8.5,0,0,1,0-17H47.13a1.5,1.5,0,0,1,0,3H28.5a5.5,5.5,0,0,0,0,11H47.13a1.5,1.5,0,0,1,0,3Z"/><path d="M74.33,17H43.5A1.5,1.5,0,0,1,42,15.5V5.5A1.5,1.5,0,0,1,43.5,4H62.17c8.13,0,12.45,7.24,13.6,11.07A1.5,1.5,0,0,1,74.33,17ZM45,14H72.1c-1.29-2.63-4.29-7-9.94-7H45Z"/><path d="M65.5,26h-9A1.5,1.5,0,0,1,55,24.5v-9A1.5,1.5,0,0,1,56.5,14h9A1.5,1.5,0,0,1,67,15.5v9A1.5,1.5,0,0,1,65.5,26ZM58,23h6V17H58Z"/><path d="M43.5,17h-7A1.5,1.5,0,0,1,35,15.5v-7A1.5,1.5,0,0,1,36.5,7h7A1.5,1.5,0,0,1,45,8.5v7A1.5,1.5,0,0,1,43.5,17ZM38,14h4V10H38Z"/><path d="M36.92,39h0a1.5,1.5,0,0,1-1.08-.49l-1.67-1.85A1.5,1.5,0,0,1,34,34.84l8-12.4V15.5A1.5,1.5,0,0,1,43.5,14h6A1.5,1.5,0,0,1,51,15.5v9.23a1.5,1.5,0,0,1-.43,1.05L38,38.55A1.5,1.5,0,0,1,36.92,39ZM45,17v5.88a1.5,1.5,0,0,1-.24.81l-7,10.76L48,24.12V17Zm-1.5,5.88h0Z"/><path d="M72.5,96h-25A1.5,1.5,0,0,1,46,94.5V61.57A6.46,6.46,0,0,1,47.9,57L58.06,46.82A3.49,3.49,0,0,0,58.81,43l-5.43-12.9a1.5,1.5,0,0,1,0-1.16l2.07-5A1.5,1.5,0,0,1,56.83,23h8.33a1.5,1.5,0,0,1,1.17.57C66.73,24.06,76,35.9,79,59.31c1.23,9.52-4.77,34.49-5,35.54A1.5,1.5,0,0,1,72.5,96ZM49,93H71.31C72.48,87.94,77,67.57,76,59.69,73.46,39.9,66.22,28.58,64.41,26H57.83l-1.45,3.5,5.19,12.32a6.47,6.47,0,0,1-1.39,7.12L50,59.1a3.48,3.48,0,0,0-1,2.48Z"/><path d="M21.5,55A1.5,1.5,0,0,1,20,53.5v-22A8.51,8.51,0,0,1,28.5,23a1.5,1.5,0,0,1,0,3A5.51,5.51,0,0,0,23,31.5v22A1.5,1.5,0,0,1,21.5,55Z"/><path d="M62,78A10,10,0,1,1,72,68,10,10,0,0,1,62,78Zm0-17a7,7,0,1,0,7,7A7,7,0,0,0,62,61Z"/></svg>