<?xml version="1.0" encoding="iso-8859-1"?>
<!-- Generator: Adobe Illustrator 21.1.0, SVG Export Plug-In . SVG Version: 6.00 Build 0)  -->
<svg version="1.1" id="Layer_1" xmlns="http://www.w3.org/2000/svg" xmlns:xlink="http://www.w3.org/1999/xlink" x="0px" y="0px"
	 viewBox="0 0 100.176 100.178" style="enable-background:new 0 0 100.176 100.178;" xml:space="preserve">
<g>
	<path d="M55.707,34.464c0-0.829-0.672-1.5-1.5-1.5h-7.971v-8.128h13.691c0.828,0,1.5-0.671,1.5-1.5s-0.672-1.5-1.5-1.5H44.729
		c-0.829,0-1.5,0.671-1.5,1.5c0,0.023,0.006,0.045,0.007,0.068v10.992c-0.001,0.023-0.007,0.045-0.007,0.068
		s0.006,0.045,0.007,0.068v11.052c0,0.829,0.671,1.5,1.5,1.5s1.5-0.671,1.5-1.5v-9.62h7.971
		C55.035,35.964,55.707,35.293,55.707,34.464z"/>
	<path d="M60.802,66.338L73.935,45.98c0.056-0.087,0.102-0.178,0.137-0.273c2.679-4.227,4.093-9.045,4.093-13.956
		c0-14.769-12.435-26.784-27.719-26.784c-15.278,0-27.708,12.015-27.708,26.784c0,4.927,1.42,9.758,4.109,13.992
		c0.031,0.073,0.067,0.145,0.11,0.214l12.595,20.329c-13.912,1.922-23.098,7.429-23.098,14.023c0,8.258,14.736,14.726,33.549,14.726
		c18.811,0,33.546-6.468,33.546-14.726C83.548,73.79,74.506,68.307,60.802,66.338z M29.654,44.615
		c-0.037-0.092-0.083-0.181-0.137-0.266c-2.473-3.803-3.78-8.16-3.78-12.599c0-13.115,11.084-23.784,24.708-23.784
		c13.63,0,24.719,10.669,24.719,23.784c0,4.436-1.309,8.792-3.785,12.598c-0.058,0.088-0.104,0.18-0.14,0.275L57.078,66.576
		c-0.066,0.081-0.122,0.17-0.171,0.265l-6.879,10.663L29.654,44.615z M50.002,92.035c-18.273,0-30.549-6.062-30.549-11.726
		c0-4.971,9.322-9.726,21.833-11.22L48.728,81.1c0.271,0.438,0.747,0.705,1.261,0.71c0.004,0,0.009,0,0.014,0
		c0.509,0,0.984-0.259,1.261-0.687l7.736-11.992c12.536,1.546,21.548,6.181,21.548,11.177
		C80.548,85.972,68.273,92.035,50.002,92.035z"/>
</g>
</svg>
