<svg id="Слой_1" data-name="Слой 1" xmlns="http://www.w3.org/2000/svg" viewBox="0 0 100 100"><title>testМонтажная область 19</title><path d="M74.94,66.43a29.79,29.79,0,0,0,0-32.86L87.06,21.45a1.5,1.5,0,0,0,0-2.12l-6.39-6.39a1.5,1.5,0,0,0-2.12,0L66.43,25.06a29.79,29.79,0,0,0-32.86,0L21.45,12.94a1.5,1.5,0,0,0-2.12,0l-6.39,6.39a1.5,1.5,0,0,0,0,2.12L25.06,33.57a29.79,29.79,0,0,0,0,32.86L12.94,78.55a1.5,1.5,0,0,0,0,2.12l6.39,6.39a1.5,1.5,0,0,0,2.12,0L33.57,74.94a29.79,29.79,0,0,0,32.86,0L78.55,87.06a1.5,1.5,0,0,0,2.12,0l6.39-6.39a1.5,1.5,0,0,0,0-2.12Zm4.67,17.45L67.67,71.94a1.5,1.5,0,0,0-1.94-.15,26.79,26.79,0,0,1-31.45,0,1.5,1.5,0,0,0-1.94.15L20.39,83.88l-4.27-4.27L28.06,67.67a1.5,1.5,0,0,0,.15-1.94,26.79,26.79,0,0,1,0-31.45,1.5,1.5,0,0,0-.15-1.94L16.12,20.39l4.27-4.27L32.33,28.06a1.5,1.5,0,0,0,1.94.15,26.79,26.79,0,0,1,31.45,0,1.5,1.5,0,0,0,1.94-.15L79.61,16.12l4.27,4.27L71.94,32.33a1.5,1.5,0,0,0-.15,1.94,26.79,26.79,0,0,1,0,31.45,1.5,1.5,0,0,0,.15,1.94L83.88,79.61Z"/><path d="M50,29.16A20.84,20.84,0,1,0,70.84,50,20.87,20.87,0,0,0,50,29.16Zm0,38.69A17.84,17.84,0,1,1,67.84,50,17.86,17.86,0,0,1,50,67.84Z"/></svg>