<?xml version="1.0" encoding="iso-8859-1"?>
<!-- Generator: Adobe Illustrator 21.0.0, SVG Export Plug-In . SVG Version: 6.00 Build 0)  -->
<svg version="1.1" id="Layer_1" xmlns="http://www.w3.org/2000/svg" xmlns:xlink="http://www.w3.org/1999/xlink" x="0px" y="0px"
	 viewBox="0 0 99.313 99.313" style="enable-background:new 0 0 99.313 99.313;" xml:space="preserve">
<g>
	<path style="fill:#231F20;" d="M73.22,70.478C70.521,53.712,52.053,7.671,51.268,5.719c-0.228-0.565-0.773-0.937-1.382-0.94
		c-0.003,0-0.006,0-0.009,0c-0.605,0-1.151,0.364-1.385,0.923c-0.809,1.941-19.849,47.742-22.775,64.471
		c-0.933,5.323,0.605,10.714,4.329,15.179c4.589,5.502,11.973,8.951,19.272,9.002c0.052,0,0.104,0,0.156,0
		c7.242,0,14.596-3.344,19.225-8.751C72.483,81.182,74.089,75.81,73.22,70.478z M66.42,83.651
		c-4.074,4.76-10.556,7.703-16.944,7.703c-0.046,0-0.092-0.001-0.139-0.001c-6.439-0.045-12.949-3.081-16.988-7.924
		c-3.149-3.775-4.456-8.3-3.678-12.739c2.414-13.8,16.616-49.229,21.18-60.407c4.422,11.232,18.181,46.841,20.408,60.673
		C70.983,75.405,69.62,79.913,66.42,83.651z"/>
	<path style="fill:#231F20;" d="M43.828,81.965c-4.552-3.287-6.817-8.545-5.913-13.723c0.473-2.705,1.449-6.479,2.902-11.214
		c0.243-0.792-0.202-1.632-0.994-1.874c-0.794-0.25-1.631,0.202-1.874,0.993c-1.49,4.855-2.495,8.751-2.989,11.579
		c-1.104,6.318,1.621,12.706,7.112,16.67c0.266,0.192,0.572,0.284,0.876,0.284c0.466,0,0.924-0.216,1.218-0.622
		C44.651,83.387,44.5,82.449,43.828,81.965z"/>
</g>
</svg>
