<svg id="Layer_1" data-name="Layer 1" xmlns="http://www.w3.org/2000/svg" viewBox="0 0 101 101"><title>log_Artboard 2 copy 9</title><path d="M84.5,15h-68A1.5,1.5,0,0,0,15,16.5v68A1.5,1.5,0,0,0,16.5,86h68A1.5,1.5,0,0,0,86,84.5v-68A1.5,1.5,0,0,0,84.5,15ZM36,18H65V30H36ZM83,83H18V18H33V31.5A1.5,1.5,0,0,0,34.5,33h32A1.5,1.5,0,0,0,68,31.5V18H83Z"/><path d="M56.5,68H48.91a1.48,1.48,0,0,0,.09-.5V48l2.49,2.49a1.5,1.5,0,0,0,2.12-2.12L49,43.75a1.5,1.5,0,0,0-2.12,0L42.2,48.39a1.5,1.5,0,0,0,2.12,2.12L46,48.83V67.5a1.48,1.48,0,0,0,.09.5H32.91a1.48,1.48,0,0,0,.09-.5V48.08l2.43,2.43a1.5,1.5,0,0,0,2.12-2.12l-4.65-4.65a1.5,1.5,0,0,0-2.12,0l-4.65,4.65a1.5,1.5,0,0,0,2.12,2.12L30,48.77V67.5a1.48,1.48,0,0,0,.09.5H25.5a1.5,1.5,0,0,0,0,3h31a1.5,1.5,0,0,0,0-3Z"/></svg>