<?xml version="1.0" encoding="iso-8859-1"?>
<!-- Generator: Adobe Illustrator 21.1.0, SVG Export Plug-In . SVG Version: 6.00 Build 0)  -->
<svg version="1.1" id="Layer_1" xmlns="http://www.w3.org/2000/svg" xmlns:xlink="http://www.w3.org/1999/xlink" x="0px" y="0px"
	 viewBox="0 0 100.353 100.353" style="enable-background:new 0 0 100.353 100.353;" xml:space="preserve">
<path d="M81.165,29.855c-1.382-1.242-3.154-1.928-5.286-2.062l3.963-4.692c0.032-0.037,0.062-0.076,0.09-0.117l0.693-1.005
	c0.47-0.682,0.298-1.616-0.384-2.086c-0.682-0.47-1.616-0.3-2.087,0.384l-0.651,0.945l-4.121,4.879
	c-0.723-2.942-2.272-4.605-3.632-5.514c-3.351-2.24-7.901-1.707-10.144-0.802c-3.838,1.552-7.316,5.671-10.166,10.208
	c-1.497-2.652-4.356-6.757-8.844-9.424c-1.888-1.12-6.13-1.802-9.649,0.185c-1.641,0.926-3.522,2.698-4.333,6.024l-2.746-3.251
	c1.824-0.522,3.62-1.906,4.879-3.971c0.001-0.001,0.002-0.003,0.003-0.004c1.924-3.181,1.926-11.016,1.92-11.898
	c-0.003-0.521-0.278-1.004-0.724-1.273c-0.447-0.271-1.001-0.289-1.464-0.049c-0.784,0.405-7.715,4.047-9.638,7.22
	c-1.01,1.664-1.504,3.527-1.392,5.247c0.114,1.74,0.865,3.199,2.07,4.079l0.55,0.796c0.027,0.04,0.057,0.078,0.088,0.115
	l3.963,4.692c-2.134,0.133-3.905,0.82-5.288,2.063c-3.132,2.815-3.262,7.648-3.061,10.28c0.142,1.832,0.885,3.747,2.195,5.703
	c-0.009,0.065-0.02,0.129-0.02,0.196v10.436c0,12.445,8.208,23.008,19.496,26.567c-2.873,1.618-6.819,4.393-8.308,8.051
	c-0.188,0.462-0.134,0.988,0.145,1.402c0.279,0.415,0.745,0.663,1.245,0.663h37.59c0.499,0,0.966-0.248,1.244-0.662
	c0.279-0.415,0.333-0.94,0.146-1.403c-1.488-3.658-5.434-6.434-8.307-8.052c11.286-3.56,19.493-14.122,19.493-26.566v-9.929
	c1.512-1.984,3.35-4.715,3.534-7.093C84.427,37.503,84.296,32.67,81.165,29.855z M21.408,15.105
	c0.845-1.394,3.698-3.373,6.197-4.855c-0.151,2.901-0.578,6.348-1.422,7.746c-1.426,2.337-3.671,3.21-4.794,2.533
	c-0.74-0.449-0.909-1.401-0.943-1.929C20.374,17.506,20.724,16.232,21.408,15.105z M20.841,32.771
	c1.366-1.229,3.487-1.602,6.305-1.109c0.454,0.183,0.967,0.13,1.377-0.137c0.42-0.275,0.675-0.742,0.679-1.244
	c0.026-3.397,1.109-5.724,3.219-6.915c2.506-1.416,5.613-0.83,6.644-0.218c4.953,2.944,7.73,8.107,8.577,9.891
	c-2.814,5.08-4.789,10.083-5.572,12.181H20.709c-1.178-1.655-1.833-3.211-1.943-4.629C18.606,38.51,18.665,34.728,20.841,32.771z
	 M56.817,84.897c1.811,0.731,6.218,2.993,8.638,5.942h-32.28c2.909-3.579,8.587-5.915,8.655-5.942
	c0.097-0.039,0.188-0.088,0.271-0.144c1.213,0.162,2.448,0.254,3.705,0.254h7.029c1.258,0,2.495-0.092,3.709-0.254
	C56.629,84.808,56.72,84.857,56.817,84.897z M77.692,57.156c0,13.703-11.151,24.851-24.857,24.851h-7.029
	c-13.706,0-24.857-11.147-24.857-24.851V48.22h22.169c0.001,0,0.002,0,0.003,0c0.001,0,0.002,0,0.003,0h34.568V57.156z
	 M81.235,39.904c-0.092,1.188-1.037,2.979-2.79,5.316h-33.17c2.658-6.853,8.901-20.003,15.456-22.654
	c1.338-0.541,4.896-1.127,7.351,0.515c1.778,1.188,2.691,3.381,2.716,6.517c0.004,0.504,0.261,0.972,0.684,1.247
	c0.411,0.267,0.925,0.314,1.377,0.133c2.816-0.493,4.936-0.119,6.301,1.109C81.335,34.042,81.394,37.824,81.235,39.904z"/>
</svg>
