<?xml version="1.0" encoding="iso-8859-1"?>
<!-- Generator: Adobe Illustrator 22.0.0, SVG Export Plug-In . SVG Version: 6.00 Build 0)  -->
<svg version="1.1" id="Layer_1" xmlns="http://www.w3.org/2000/svg" xmlns:xlink="http://www.w3.org/1999/xlink" x="0px" y="0px"
	 viewBox="0 0 100.25 100.25" style="enable-background:new 0 0 100.25 100.25;" xml:space="preserve">
<path d="M11.547,43.227c-0.583-0.584-1.527-0.584-2.109,0c-0.583,0.583-0.583,1.531,0,2.114l15.12,15.154L14.335,70.739
	c-0.183,0.183-0.314,0.411-0.384,0.66L9.405,87.937c-0.143,0.519,0.004,1.075,0.384,1.454c0.283,0.284,0.664,0.438,1.055,0.438
	c0.132,0,0.266-0.018,0.396-0.054l16.503-4.557c0.249-0.069,0.476-0.201,0.658-0.385L38.623,74.59l17.933,17.972
	C56.847,92.854,57.229,93,57.611,93s0.764-0.146,1.055-0.438c0.583-0.583,0.583-1.531,0-2.114L11.547,43.227z M26.57,82.441
	L12.98,86.194l3.745-13.621l9.944-9.965l4.149,4.158l-6.135,6.149c-0.583,0.583-0.583,1.53,0,2.114
	c0.291,0.292,0.673,0.438,1.055,0.438c0.382,0,0.764-0.146,1.055-0.438l6.135-6.149l3.586,3.594L26.57,82.441z"/>
<path d="M92,13.977C92,10.13,88.876,7,85.038,7s-6.962,3.13-6.962,6.977c0,0.458,0.048,0.907,0.132,1.341
	c-3.605-1.431-7.911-0.664-10.858,2.29c-0.068,0.068-7.071,7.086-13.923,13.954l-7.487-7.431c-2.096-2.077-2.128-5.463-0.072-7.548
	c0.58-0.587,0.574-1.534-0.012-2.115s-1.532-0.575-2.109,0.012c-3.212,3.257-3.171,8.539,0.095,11.777l7.48,7.414
	c-4.911,4.922-9.348,9.368-10.59,10.613l-15.12-15.154c-0.583-0.584-1.527-0.584-2.109,0c-0.583,0.583-0.583,1.531,0,2.114
	l47.12,47.222c0.291,0.292,0.673,0.438,1.055,0.438c0.382,0,0.764-0.146,1.055-0.438c0.583-0.583,0.583-1.531,0-2.114L54.8,58.379
	c1.248-1.251,5.727-5.739,10.67-10.693l6.254,6.198l1.913,1.938c1.556,1.579,3.639,2.459,5.863,2.479c0.025,0,0.05,0,0.075,0
	c2.199,0,4.26-0.845,5.813-2.383c0.586-0.581,0.592-1.527,0.012-2.115c-0.579-0.587-1.525-0.592-2.109-0.012
	c-0.99,0.981-2.307,1.519-3.715,1.519c-0.017,0-0.033,0-0.049,0c-1.43-0.012-2.767-0.577-3.767-1.591l-8.193-8.132
	c6.821-6.836,13.767-13.797,13.852-13.883c2.949-2.955,3.716-7.27,2.287-10.884c0.434,0.085,0.879,0.133,1.338,0.133
	C88.876,20.955,92,17.824,92,13.977z M85.038,9.99c2.194,0,3.978,1.788,3.978,3.987s-1.784,3.987-3.978,3.987
	s-3.978-1.788-3.978-3.987S82.844,9.99,85.038,9.99z M52.688,56.266L49.1,52.67l7.998-8.015c0.583-0.583,0.583-1.53,0-2.114
	c-0.583-0.584-1.527-0.584-2.109,0l-7.998,8.015l-4.149-4.158c1.243-1.246,5.686-5.698,10.602-10.625l9.902,9.812
	C58.408,50.534,53.936,55.016,52.688,56.266z M79.305,29.589c-0.068,0.068-7.031,7.046-13.864,13.895l-9.894-9.82
	c6.84-6.855,13.825-13.856,13.911-13.942c2.773-2.781,7.238-2.828,9.955-0.109C82.127,22.336,82.077,26.81,79.305,29.589z"/>
</svg>
