<?xml version="1.0" encoding="iso-8859-1"?>
<!-- Generator: Adobe Illustrator 21.0.2, SVG Export Plug-In . SVG Version: 6.00 Build 0)  -->
<svg version="1.1" id="Layer_1" xmlns="http://www.w3.org/2000/svg" xmlns:xlink="http://www.w3.org/1999/xlink" x="0px" y="0px"
	 viewBox="0 0 100.355 100.352" style="enable-background:new 0 0 100.355 100.352;" xml:space="preserve">
<g>
	<path style="fill:none;stroke:#000000;stroke-width:3;stroke-linecap:round;stroke-linejoin:round;stroke-miterlimit:10;" d="
		M58.379,49.926c0,4.908-3.979,8.88-8.91,8.88c-4.917,0-8.9-3.972-8.9-8.88c0-4.912,3.983-8.88,8.9-8.88
		C54.401,41.046,58.379,45.015,58.379,49.926z"/>
	
		<line style="fill:none;stroke:#000000;stroke-width:3;stroke-linecap:round;stroke-linejoin:round;stroke-miterlimit:10;" x1="37.558" y1="37.009" x2="43.73" y2="43.178"/>
	
		<line style="fill:none;stroke:#000000;stroke-width:3;stroke-linecap:round;stroke-linejoin:round;stroke-miterlimit:10;" x1="55.223" y1="43.178" x2="62.166" y2="36.867"/>
	
		<line style="fill:none;stroke:#000000;stroke-width:3;stroke-linecap:round;stroke-linejoin:round;stroke-miterlimit:10;" x1="42.886" y1="56.449" x2="36.963" y2="62.439"/>
	
		<line style="fill:none;stroke:#000000;stroke-width:3;stroke-linecap:round;stroke-linejoin:round;stroke-miterlimit:10;" x1="55.909" y1="56.056" x2="62.903" y2="62.986"/>
</g>
<path style="fill:none;stroke:#000000;stroke-width:3;stroke-linecap:round;stroke-linejoin:round;stroke-miterlimit:10;" d="
	M42.519,25.309c0,8.818-7.139,15.938-15.984,15.938c-8.818,0-15.964-7.12-15.964-15.938c0-8.8,7.146-15.924,15.964-15.924
	C35.38,9.385,42.519,16.508,42.519,25.309z"/>
<path style="fill:none;stroke:#000000;stroke-width:3;stroke-linecap:round;stroke-linejoin:round;stroke-miterlimit:10;" d="
	M89.983,26.048c0,8.811-7.135,15.935-15.982,15.935c-8.82,0-15.964-7.124-15.964-15.935c0-8.808,7.144-15.928,15.964-15.928
	C82.848,10.121,89.983,17.241,89.983,26.048z"/>
<path style="fill:none;stroke:#000000;stroke-width:3;stroke-linecap:round;stroke-linejoin:round;stroke-miterlimit:10;" d="
	M90.166,74.68c0,8.811-7.141,15.935-15.983,15.935c-8.817,0-15.967-7.124-15.967-15.935c0-8.808,7.149-15.928,15.967-15.928
	C83.026,58.752,90.166,65.872,90.166,74.68z"/>
<g>
	
		<line style="fill:none;stroke:#000000;stroke-width:3;stroke-linecap:round;stroke-linejoin:round;stroke-miterlimit:10;" x1="68.823" y1="69.323" x2="79.588" y2="80.069"/>
	
		<line style="fill:none;stroke:#000000;stroke-width:3;stroke-linecap:round;stroke-linejoin:round;stroke-miterlimit:10;" x1="79.588" y1="69.294" x2="68.807" y2="80.058"/>
</g>
<path style="fill:none;stroke:#000000;stroke-width:3;stroke-linecap:round;stroke-linejoin:round;stroke-miterlimit:10;" d="
	M41.783,73.947c0,8.81-7.137,15.934-15.984,15.934c-8.817,0-15.962-7.124-15.962-15.934c0-8.811,7.145-15.931,15.962-15.931
	C34.646,58.016,41.783,65.136,41.783,73.947z"/>
<g>
	
		<line style="fill:none;stroke:#000000;stroke-width:3;stroke-linecap:round;stroke-linejoin:round;stroke-miterlimit:10;" x1="20.435" y1="69.337" x2="31.202" y2="80.084"/>
	
		<line style="fill:none;stroke:#000000;stroke-width:3;stroke-linecap:round;stroke-linejoin:round;stroke-miterlimit:10;" x1="31.202" y1="69.309" x2="20.42" y2="80.073"/>
</g>
<g>
	
		<line style="fill:none;stroke:#000000;stroke-width:3;stroke-linecap:round;stroke-linejoin:round;stroke-miterlimit:10;" x1="69.334" y1="20.695" x2="80.1" y2="31.441"/>
	
		<line style="fill:none;stroke:#000000;stroke-width:3;stroke-linecap:round;stroke-linejoin:round;stroke-miterlimit:10;" x1="80.1" y1="20.666" x2="69.319" y2="31.43"/>
</g>
<g>
	
		<line style="fill:none;stroke:#000000;stroke-width:3;stroke-linecap:round;stroke-linejoin:round;stroke-miterlimit:10;" x1="21.169" y1="19.959" x2="31.935" y2="30.705"/>
	
		<line style="fill:none;stroke:#000000;stroke-width:3;stroke-linecap:round;stroke-linejoin:round;stroke-miterlimit:10;" x1="31.935" y1="19.93" x2="21.155" y2="30.694"/>
</g>
</svg>
