<?xml version="1.0" encoding="iso-8859-1"?>
<!-- Generator: Adobe Illustrator 21.0.2, SVG Export Plug-In . SVG Version: 6.00 Build 0)  -->
<svg version="1.1" id="Layer_1" xmlns="http://www.w3.org/2000/svg" xmlns:xlink="http://www.w3.org/1999/xlink" x="0px" y="0px"
	 viewBox="0 0 100.5 100.5" style="enable-background:new 0 0 100.5 100.5;" xml:space="preserve">
<g>
	<path d="M91.129,42.712c-0.001-0.019-0.004-0.037-0.006-0.057c-0.013-0.18-0.053-0.352-0.123-0.509
		c-0.006-0.013-0.013-0.023-0.019-0.036c-0.081-0.167-0.19-0.317-0.324-0.443c-0.005-0.005-0.007-0.011-0.012-0.016L77.255,29.415
		V17.203c0-0.829-0.672-1.5-1.5-1.5H62.233L50.805,5.26c-0.572-0.523-1.449-0.524-2.023,0L37.346,15.703H24.657
		c-0.829,0-1.5,0.671-1.5,1.5V28.66L8.94,41.651c-0.005,0.005-0.007,0.011-0.012,0.016c-0.134,0.126-0.243,0.276-0.324,0.443
		c-0.006,0.013-0.014,0.024-0.02,0.037c-0.07,0.157-0.11,0.328-0.123,0.508c-0.001,0.02-0.005,0.039-0.006,0.059
		c0,0.016-0.005,0.03-0.005,0.046v50.875c0,0.164,0.033,0.32,0.082,0.468c0.007,0.02,0.011,0.039,0.018,0.059
		c0.065,0.172,0.161,0.327,0.28,0.462c0.007,0.008,0.009,0.018,0.016,0.026c0.006,0.007,0.014,0.011,0.021,0.018
		c0.049,0.051,0.103,0.096,0.159,0.14c0.025,0.019,0.047,0.042,0.073,0.06c0.066,0.046,0.137,0.083,0.21,0.117
		c0.018,0.008,0.034,0.021,0.052,0.028c0.181,0.077,0.38,0.121,0.589,0.121h79.682c0.828,0,1.5-0.672,1.5-1.5V42.759
		C91.134,42.743,91.13,42.728,91.129,42.712z M11.452,46.303l12.133,11.082c0.016,0.016,0.034,0.031,0.051,0.046L35.392,68.17
		l-23.94,22.043V46.303z M37.615,70.201l11.579,10.576c0.287,0.262,0.649,0.393,1.012,0.393c0.362,0,0.725-0.131,1.011-0.392
		L62.759,70.25l23.104,21.883H13.796L37.615,70.201z M64.981,68.224l23.153-21.118v43.047L64.981,68.224z M87.928,43.232
		l-10.674,9.735V33.479L87.928,43.232z M49.792,8.399l7.994,7.304H41.795L49.792,8.399z M74.255,18.703v11.392
		c0,0.023-0.001,0.044,0,0.066v25.543l-12.542,11.44c-0.009,0.009-0.021,0.012-0.03,0.021c-0.004,0.004-0.005,0.01-0.009,0.015
		L50.207,77.639L26.157,55.672V18.703H74.255z M23.157,52.932L12.098,42.83l11.059-10.106V52.932z"/>
	<path d="M50.206,61.105c3.451,0,6.766-1.059,9.585-3.062c0.676-0.479,0.835-1.416,0.354-2.091
		c-0.479-0.677-1.419-0.835-2.091-0.354c-2.31,1.64-5.023,2.507-7.849,2.507c-7.448,0-13.507-6.062-13.507-13.514
		c0-7.455,6.059-13.52,13.507-13.52c5.455,0,9.848,2.721,12.108,7.469v8.136c0,1.349-1.101,2.446-2.453,2.446
		c-1.286,0-2.491-1.203-2.594-2.522c0.176-0.641,0.278-1.313,0.278-2.01c0-4.2-3.421-7.618-7.625-7.618
		c-4.205,0-7.625,3.417-7.625,7.618c0,4.201,3.42,7.618,7.625,7.618c2.171,0,4.128-0.916,5.518-2.376
		c1.046,1.37,2.669,2.29,4.422,2.29c3.007,0,5.453-2.443,5.453-5.446v-8.486c0-0.007-0.002-0.014-0.002-0.021
		c-0.001-0.044-0.009-0.088-0.013-0.132c-0.006-0.056-0.009-0.113-0.021-0.167c-0.005-0.025-0.016-0.049-0.023-0.073
		c-0.02-0.073-0.041-0.145-0.071-0.213c-0.002-0.003-0.002-0.007-0.004-0.011c-2.688-5.95-8.285-9.502-14.975-9.502
		c-9.102,0-16.507,7.411-16.507,16.52C33.699,53.697,41.104,61.105,50.206,61.105z M49.921,49.209c-2.55,0-4.625-2.072-4.625-4.618
		s2.075-4.618,4.625-4.618c2.55,0,4.625,2.071,4.625,4.618S52.471,49.209,49.921,49.209z"/>
</g>
</svg>
