<?xml version="1.0" encoding="iso-8859-1"?>
<!-- Generator: Adobe Illustrator 21.1.0, SVG Export Plug-In . SVG Version: 6.00 Build 0)  -->
<svg version="1.1" id="Layer_1" xmlns="http://www.w3.org/2000/svg" xmlns:xlink="http://www.w3.org/1999/xlink" x="0px" y="0px"
	 viewBox="0 0 100.353 100.353" style="enable-background:new 0 0 100.353 100.353;" xml:space="preserve">
<path d="M83.293,51.934H50.244V41.847H67.58c0.33,0,0.65-0.109,0.912-0.31l15.713-12.04c0.372-0.285,0.59-0.728,0.588-1.197
	c-0.002-0.469-0.224-0.91-0.598-1.192L68.482,15.282c-0.261-0.196-0.577-0.302-0.902-0.302H50.244V8.104c0-0.829-0.671-1.5-1.5-1.5
	s-1.5,0.671-1.5,1.5v6.876H14.191c-0.829,0-1.5,0.671-1.5,1.5v23.867c0,0.829,0.671,1.5,1.5,1.5h33.053v10.087H29.909
	c-0.33,0-0.65,0.108-0.912,0.31L13.279,64.284c-0.373,0.285-0.59,0.728-0.588,1.197c0.002,0.469,0.223,0.91,0.598,1.191
	l15.718,11.826c0.26,0.196,0.577,0.302,0.902,0.302h17.335v13.208H26.548c-0.829,0-1.5,0.672-1.5,1.5s0.671,1.5,1.5,1.5H70.94
	c0.828,0,1.5-0.672,1.5-1.5s-0.672-1.5-1.5-1.5H50.244V78.801h33.049c0.828,0,1.5-0.672,1.5-1.5V53.434
	C84.793,52.606,84.121,51.934,83.293,51.934z M15.691,17.98h51.388l13.733,10.338L67.071,38.847h-51.38V17.98z M81.793,75.801
	H30.411L16.671,65.464l13.746-10.53h51.375V75.801z"/>
</svg>
