<?xml version="1.0" encoding="iso-8859-1"?>
<!-- Generator: Adobe Illustrator 21.1.0, SVG Export Plug-In . SVG Version: 6.00 Build 0)  -->
<svg version="1.1" id="Layer_1" xmlns="http://www.w3.org/2000/svg" xmlns:xlink="http://www.w3.org/1999/xlink" x="0px" y="0px"
	 viewBox="0 0 100.353 100.353" style="enable-background:new 0 0 100.353 100.353;" xml:space="preserve">
<path d="M91.914,35.724C80.11,24.917,69.183,18.51,59.437,16.678c-2.396-0.452-4.206,1.814-5.961,4.003
	c-1.294,1.614-2.905,3.623-4.183,3.623c-1.655,0-3.13-1.878-4.556-3.694c-1.657-2.111-3.37-4.29-5.855-3.791
	C26.07,19.42,8.803,35.532,8.074,36.216c-0.312,0.293-0.484,0.707-0.473,1.135c0.012,0.428,0.207,0.831,0.535,1.107
	c1.275,1.07,2.959,3.287,4.909,5.854c3.69,4.856,8.745,11.508,15.569,16.456c0,0,0,0,0,0c3.481,15.427,10.756,24.605,20.443,24.605
	c4.294,0,8.383-1.823,11.825-5.271c4.268-4.276,7.45-10.884,9.411-19.333c8.068-5.614,14.127-13.394,18.155-18.573
	c1.415-1.819,2.637-3.391,3.535-4.327c0.279-0.292,0.43-0.683,0.416-1.087C92.388,36.378,92.212,35.997,91.914,35.724z
	 M39.478,19.76c0.656-0.136,1.959,1.505,2.9,2.704c1.694,2.157,3.802,4.841,6.916,4.841c2.718,0,4.739-2.521,6.522-4.746
	c0.854-1.065,2.421-3.062,3.066-2.932c8.316,1.562,18.033,7.031,28.253,15.865H13.421C19.025,30.711,30.665,21.549,39.478,19.76z
	 M15.435,42.496c-1.162-1.529-2.19-2.88-3.133-4.005h14.042c0.025,6.475,0.506,12.423,1.391,17.757
	C22.56,51.857,18.506,46.538,15.435,42.496z M58.76,77.983c-2.908,2.913-6.172,4.391-9.702,4.391
	c-11.899,0-19.612-17.206-19.715-43.882h18.521l0.097,27.819c0.003,0.827,0.674,1.495,1.5,1.495c0.001,0,0.003,0,0.005,0
	c0.828-0.003,1.498-0.677,1.495-1.505l-0.097-27.81h18.719C69.545,57.001,65.711,71.018,58.76,77.983z M71.159,56.39
	c0.923-5.381,1.41-11.375,1.424-17.898h14.955c-0.451,0.57-0.935,1.192-1.457,1.863C82.614,44.812,77.602,51.255,71.159,56.39z"/>
</svg>
