<?xml version="1.0" encoding="iso-8859-1"?>
<!-- Generator: Adobe Illustrator 21.0.2, SVG Export Plug-In . SVG Version: 6.00 Build 0)  -->
<svg version="1.1" id="Layer_1" xmlns="http://www.w3.org/2000/svg" xmlns:xlink="http://www.w3.org/1999/xlink" x="0px" y="0px"
	 viewBox="0 0 100.353 100.352" style="enable-background:new 0 0 100.353 100.352;" xml:space="preserve">
<path d="M95.016,5.701c-0.281-0.296-0.67-0.465-1.079-0.468L77.792,5.128c-0.41-0.005-0.786,0.155-1.07,0.439L39.955,42.334
	l-1.661-1.661c-3.704-3.704-9.731-3.703-13.435,0L11.77,53.763c-0.039,0.032-0.087,0.045-0.123,0.082
	c-0.139,0.139-0.255,0.29-0.39,0.431l-0.303,0.303c-0.036,0.036-0.049,0.083-0.081,0.122c-8.583,9.44-8.367,24.065,0.719,33.151
	c4.67,4.671,10.808,7.004,16.953,7.004c5.721,0,11.433-2.05,15.987-6.095c0.127-0.068,0.256-0.134,0.363-0.241l13.906-13.907
	c1.788-1.788,2.773-4.173,2.773-6.717c0-2.543-0.985-4.929-2.773-6.717l-0.912-0.912l2.723-2.723
	c0.201-0.201,0.341-0.455,0.403-0.733l1.679-7.499l7.97-2.108c0.512-0.135,0.914-0.53,1.059-1.039l2.305-8.079l7.919-2.158
	c0.53-0.145,0.939-0.568,1.065-1.103l1.837-7.789l8.771-2.744c0.602-0.188,1.021-0.732,1.051-1.361l0.755-16.13
	C95.445,6.396,95.297,5.998,95.016,5.701z M56.68,72.493L43.516,85.657c-0.01,0.01-0.024,0.012-0.033,0.022
	c-8.224,8.224-21.58,8.249-29.773,0.056c-8.032-8.032-8.145-21.014-0.399-29.27l13.671-13.671c2.534-2.534,6.658-2.535,9.193,0
	L56.681,63.3c1.221,1.222,1.894,2.854,1.894,4.596C58.574,69.64,57.901,71.272,56.68,72.493z M91.724,21.745l-8.585,2.686
	c-0.506,0.158-0.891,0.572-1.012,1.087l-1.829,7.752l-7.875,2.146c-0.506,0.138-0.904,0.531-1.048,1.036l-2.303,8.072l-8.026,2.123
	c-0.542,0.143-0.958,0.576-1.081,1.123l-1.783,7.963l-2.415,2.415L42.076,44.457L78.399,8.133l13.956,0.091L91.724,21.745z"/>
<path d="M30.583,55.404c-3.339,0-6.478,1.3-8.839,3.661c-4.874,4.874-4.874,12.804,0,17.678c2.437,2.437,5.638,3.655,8.839,3.655
	s6.402-1.218,8.838-3.655c4.874-4.874,4.874-12.804,0-17.678C37.061,56.704,33.922,55.404,30.583,55.404z M37.3,74.622
	c-3.704,3.703-9.731,3.703-13.435,0c-3.704-3.704-3.704-9.731,0-13.436c1.794-1.794,4.18-2.782,6.718-2.782s4.923,0.988,6.717,2.782
	C41.004,64.891,41.004,70.918,37.3,74.622z"/>
<path d="M74.284,19.381L52.951,40.714c-0.586,0.586-0.586,1.536,0,2.121c0.293,0.293,0.677,0.439,1.061,0.439
	s0.768-0.146,1.061-0.439l21.333-21.333c0.586-0.585,0.586-1.536,0-2.121C75.819,18.796,74.87,18.796,74.284,19.381z"/>
</svg>
