<?xml version="1.0" encoding="iso-8859-1"?>
<!-- Generator: Adobe Illustrator 21.0.2, SVG Export Plug-In . SVG Version: 6.00 Build 0)  -->
<svg version="1.1" id="Layer_1" xmlns="http://www.w3.org/2000/svg" xmlns:xlink="http://www.w3.org/1999/xlink" x="0px" y="0px"
	 viewBox="0 0 100.5 100.5" style="enable-background:new 0 0 100.5 100.5;" xml:space="preserve">
<g>
	<path d="M50.349,16.726c-18.504,0-33.558,15.059-33.558,33.569c0,18.509,15.054,33.566,33.558,33.566
		c18.509,0,33.567-15.058,33.567-33.566c0-0.829-0.672-1.5-1.5-1.5H51.849V18.226C51.849,17.397,51.178,16.726,50.349,16.726z
		 M80.88,51.795c-0.785,16.16-14.179,29.066-30.531,29.066c-16.85,0-30.558-13.712-30.558-30.566
		c0-16.353,12.902-29.748,29.058-30.533v30.533c0,0.828,0.671,1.5,1.5,1.5H80.88z"/>
	<path d="M78.89,79.078c-0.822,0.81-1.695,1.583-2.589,2.322c-1.574,1.295-3.25,2.485-4.992,3.53
		C52.046,96.497,26.965,90.239,15.4,70.981c-5.604-9.331-7.239-20.285-4.603-30.846c2.636-10.559,9.226-19.46,18.557-25.063
		c9.331-5.605,20.286-7.24,30.844-4.605c10.245,2.556,18.92,8.842,24.546,17.735l-3.487-1.121c-0.79-0.253-1.634,0.182-1.887,0.969
		c-0.254,0.789,0.18,1.633,0.969,1.887l6.967,2.239c0.152,0.049,0.308,0.072,0.459,0.072c0.632,0,1.219-0.401,1.426-1.033
		l2.32-7.081c0.258-0.788-0.172-1.635-0.959-1.893c-0.79-0.259-1.635,0.171-1.893,0.958l-1.204,3.676
		c-6.035-9.696-15.424-16.549-26.53-19.32C49.587,4.729,37.827,6.484,27.809,12.5C17.792,18.516,10.716,28.073,7.886,39.409
		c-2.83,11.338-1.075,23.099,4.941,33.117c8.195,13.645,22.706,21.21,37.572,21.21c7.662,0,15.42-2.011,22.454-6.234
		c0.761-0.457,1.507-0.946,2.243-1.451c0.033-0.019,0.069-0.027,0.1-0.048c0.894-0.614,1.754-1.255,2.553-1.901
		c0.143-0.115,0.281-0.24,0.423-0.357c0.098-0.08,0.199-0.157,0.296-0.238c0.026-0.022,0.045-0.048,0.07-0.071
		c0.844-0.711,1.673-1.448,2.458-2.221c0.59-0.581,0.598-1.531,0.016-2.121C80.431,78.504,79.479,78.496,78.89,79.078z"/>
	<path d="M88.716,67.704c-0.741-0.373-1.643-0.077-2.016,0.662c-1.078,2.135-2.337,4.171-3.74,6.052
		c-0.495,0.664-0.358,1.604,0.305,2.1c0.27,0.201,0.584,0.298,0.896,0.298c0.457,0,0.909-0.208,1.203-0.603
		c1.507-2.021,2.857-4.205,4.014-6.493C89.751,68.979,89.455,68.077,88.716,67.704z"/>
	<path d="M92.189,55.965c-0.81-0.14-1.595,0.395-1.743,1.21c-0.399,2.216-0.984,4.413-1.737,6.528
		c-0.278,0.78,0.13,1.639,0.91,1.916c0.166,0.06,0.336,0.087,0.503,0.087c0.616,0,1.194-0.383,1.413-0.997
		c0.808-2.27,1.435-4.625,1.864-7.001C93.546,56.893,93.005,56.112,92.189,55.965z"/>
</g>
</svg>
