<?xml version="1.0" encoding="iso-8859-1"?>
<!-- Generator: Adobe Illustrator 21.1.0, SVG Export Plug-In . SVG Version: 6.00 Build 0)  -->
<svg version="1.1" id="Layer_1" xmlns="http://www.w3.org/2000/svg" xmlns:xlink="http://www.w3.org/1999/xlink" x="0px" y="0px"
	 viewBox="0 0 100.353 100.353" style="enable-background:new 0 0 100.353 100.353;" xml:space="preserve">
<path d="M92.654,42.283c0.828,0,1.5-0.671,1.5-1.5s-0.672-1.5-1.5-1.5h-9.184V22.217c0-6.435-5.233-11.67-11.667-11.67
	c-6.437,0-11.674,5.235-11.674,11.67v17.066H46.162V22.216c0-6.435-5.237-11.67-11.674-11.67c-6.433,0-11.667,5.235-11.667,11.67
	v17.067H7.347c-0.829,0-1.5,0.671-1.5,1.5s0.671,1.5,1.5,1.5h35.815v38.385c-1.258-1.534-3.345-2.451-5.629-2.451
	c-2.344,0-4.487,0.96-5.733,2.567l-3.305,4.265c-0.682,0.879-1.94,1.404-3.366,1.404c0,0-0.001,0-0.001,0
	c-1.425-0.001-2.682-0.525-3.363-1.403l-3.306-4.266c-1.246-1.607-3.389-2.567-5.732-2.567c-2.344,0-4.487,0.96-5.733,2.567
	c-0.507,0.655-0.388,1.598,0.267,2.104c0.656,0.508,1.598,0.387,2.104-0.267c0.682-0.88,1.938-1.405,3.362-1.405
	c1.423,0,2.679,0.525,3.361,1.405l3.307,4.266c1.245,1.605,3.389,2.564,5.733,2.565c0.001,0,0.001,0,0.001,0
	c2.346,0,4.49-0.959,5.737-2.565l3.306-4.266c0.682-0.88,1.938-1.405,3.362-1.405c1.423,0,2.679,0.525,3.361,1.405l2.268,2.925
	v0.222c0,0.782,0.601,1.418,1.366,1.487c1.274,1.379,3.249,2.196,5.404,2.197c0,0,0,0,0.001,0c2.343,0,4.487-0.959,5.733-2.565
	l3.306-4.266c0.682-0.88,1.939-1.405,3.364-1.405c1.426,0,2.684,0.525,3.365,1.405l3.307,4.266c1.246,1.606,3.389,2.565,5.732,2.565
	s4.486-0.959,5.732-2.565l2.351-3.034c0.248-0.172,0.439-0.419,0.547-0.706l0.408-0.526c0.682-0.88,1.938-1.405,3.361-1.405
	c1.424,0,2.681,0.525,3.362,1.405c0.508,0.656,1.45,0.775,2.104,0.267c0.654-0.508,0.774-1.449,0.267-2.104
	c-1.246-1.607-3.389-2.567-5.733-2.567c-1.333,0-2.594,0.32-3.669,0.883V42.283H92.654z M63.13,22.217
	c0-4.781,3.891-8.67,8.674-8.67c4.779,0,8.667,3.889,8.667,8.67v17.066H63.13V22.217z M25.821,39.283V22.216
	c0-4.781,3.888-8.67,8.667-8.67c4.783,0,8.674,3.889,8.674,8.67v17.067H25.821z M80.471,68.155H46.162V55.613h34.309V68.155z
	 M78.102,85.05c-0.682,0.879-1.938,1.403-3.361,1.403s-2.68-0.524-3.361-1.403l-3.307-4.266c-1.245-1.607-3.39-2.567-5.736-2.567
	c-2.346,0-4.49,0.96-5.735,2.567l-3.306,4.265c-0.682,0.879-1.938,1.404-3.362,1.404c0,0,0,0-0.001,0
	c-1.423,0-2.679-0.525-3.36-1.403l-0.41-0.529V71.155h34.309v10.838L78.102,85.05z M80.471,52.613H46.162v-10.33h34.309V52.613z"/>
</svg>
