<?xml version="1.0" encoding="iso-8859-1"?>
<!-- Generator: Adobe Illustrator 21.0.2, SVG Export Plug-In . SVG Version: 6.00 Build 0)  -->
<svg version="1.1" id="Layer_1" xmlns="http://www.w3.org/2000/svg" xmlns:xlink="http://www.w3.org/1999/xlink" x="0px" y="0px"
	 viewBox="0 0 100.75 100.75" style="enable-background:new 0 0 100.75 100.75;" xml:space="preserve">
<path d="M86.549,81.743H48.396c-0.02-0.001-0.038-0.006-0.058-0.006c-14.229,0-25.807-11.577-25.807-25.807
	c0-6.878,2.763-13.477,7.621-18.307c1.636,1.503,3.734,2.346,5.972,2.372c0.034,0,0.069,0,0.104,0c1.87,0,3.651-0.577,5.153-1.634
	l7.495,7.675c0.294,0.301,0.684,0.452,1.073,0.452c0.378,0,0.756-0.142,1.048-0.427l1.547-1.51l4.214,4.327
	c0.277,0.285,0.657,0.448,1.055,0.453c0.007,0,0.013,0,0.02,0c0.392,0,0.768-0.153,1.048-0.426l5.383-5.252
	c0.284-0.278,0.447-0.658,0.452-1.056s-0.148-0.781-0.427-1.066l-4.22-4.323l1.257-1.226c0.284-0.278,0.447-0.657,0.452-1.055
	c0.005-0.397-0.148-0.781-0.427-1.066L37.824,9.755c-0.046-0.047-0.098-0.085-0.149-0.125c-0.04-0.054-0.06-0.117-0.109-0.167
	c-3.307-3.352-8.77-3.373-12.184-0.042c-3.363,3.299-3.5,8.673-0.339,12.051c0.071,0.17,0.168,0.331,0.305,0.471l3.635,3.722
	c-1.117,1.509-1.741,3.318-1.762,5.228c-0.018,1.547,0.358,3.036,1.074,4.36c-5.577,5.412-8.761,12.882-8.761,20.677
	c0,11.301,6.544,21.097,16.038,25.813H15.916c-0.828,0-1.5,0.671-1.5,1.5v8.322c0,0.829,0.672,1.5,1.5,1.5h70.635
	c0.828,0,1.5-0.671,1.5-1.5v-8.322C88.049,82.415,87.377,81.743,86.549,81.743z M61.094,42.553l-3.234,3.156l-3.169-3.253
	l3.23-3.153L61.094,42.553z M27.479,11.565c1.952-1.903,4.923-2.142,7.076-0.715l-7.95,7.768
	C25.227,16.439,25.533,13.474,27.479,11.565z M36.724,12.924l21.432,21.958l-8.182,7.985L28.541,20.92L36.724,12.924z
	 M39.246,36.176c-0.92,0.543-1.97,0.833-3.089,0.819c-1.604-0.018-3.104-0.66-4.228-1.81c-1.122-1.145-1.729-2.657-1.711-4.257
	c0.013-1.105,0.33-2.158,0.898-3.076L39.246,36.176z M85.049,90.065H17.414v-5.322h67.635V90.065z"/>
<path d="M61.811,70.137c0.296,0.315,0.695,0.475,1.096,0.475c0.367,0,0.735-0.134,1.024-0.404l22.25-20.812
	c0.605-0.566,0.637-1.516,0.071-2.121c-0.567-0.605-1.516-0.636-2.12-0.071l-22.25,20.812
	C61.277,68.583,61.246,69.532,61.811,70.137z"/>
</svg>
