<svg id="Layer_1" data-name="Layer 1" xmlns="http://www.w3.org/2000/svg" viewBox="0 0 101 101"><title>Artboard 2 copy 17</title><path d="M93,42.22a1.5,1.5,0,0,0-1-.6,71.16,71.16,0,0,0-18.18.31,51.44,51.44,0,0,0-3.88-10.75,1.5,1.5,0,0,0-2-.64,73.79,73.79,0,0,0-9.54,5.91,73.38,73.38,0,0,0-8.27-10.76,1.5,1.5,0,0,0-2.17,0A73.37,73.37,0,0,0,40,35.85a73.37,73.37,0,0,0-9.67-6,1.5,1.5,0,0,0-2,.74,73.14,73.14,0,0,0-3.64,10.9,71.42,71.42,0,0,0-17.76-.25H6.86l-.12,0-.15,0-.15.07-.12.06-.14.1-.1.08L6,41.77l-.07.08h0a1.51,1.51,0,0,0-.11.18l0,.07a1.49,1.49,0,0,0-.09.27h0a1.49,1.49,0,0,0,0,.6c0,.23.34,2,1,4.49,1.64,6.46,5.51,18.17,12.92,23.66,5.7,4.22,12.15,6.49,17.67,6.49a15.35,15.35,0,0,0,6.72-1.4,10.68,10.68,0,0,0,10.21,0,14.85,14.85,0,0,0,7.58,1.87c5.46,0,11.83-2.26,17.61-6.54C89.63,63.88,93.1,44.2,93.24,43.37A1.5,1.5,0,0,0,93,42.22ZM67.88,34a53.07,53.07,0,0,1,2.93,8.57,29.34,29.34,0,0,0-8,3,43.25,43.25,0,0,0-3-6.47A75.12,75.12,0,0,1,67.88,34ZM30.46,33.3a74.54,74.54,0,0,1,8,5.12A45.36,45.36,0,0,0,35.4,44.8,30.64,30.64,0,0,0,27.64,42,74.5,74.5,0,0,1,30.46,33.3ZM21.33,68.73a16.43,16.43,0,0,1-1.27-1.06l-.23-.21q-.59-.55-1.14-1.16l-.21-.24c-.37-.42-.73-.86-1.08-1.32l0,0c-.35-.47-.69-1-1-1.45L16.19,63q-.47-.72-.91-1.48l-.16-.28c-.29-.51-.57-1-.83-1.54l0-.06c-.27-.53-.53-1.08-.78-1.62l-.15-.32q-.36-.79-.68-1.57l-.12-.3c-.21-.51-.41-1-.6-1.53l0-.11c-.2-.53-.39-1.05-.56-1.57l-.11-.32c-.17-.5-.33-1-.48-1.46l-.09-.29c-.14-.45-.28-.9-.4-1.33l0-.14c-.13-.46-.25-.89-.37-1.32l-.08-.28c-.11-.4-.21-.79-.3-1.16l-.05-.22-.23-1,0-.11c-.07-.32-.14-.62-.2-.88l0-.08c4.52-.37,17.52-.93,25.53,3.64a22.43,22.43,0,0,0-.86,5.91c0,8.83,2.95,16.4,7.43,20.53C35.7,75.72,28,73.68,21.33,68.73ZM44.88,73.3l0,0C40,70.39,36.58,62.68,36.58,53.62a20.32,20.32,0,0,1,1-6v0C40.13,39.64,46.45,31.87,49,29a72.94,72.94,0,0,1,7.51,10.26,1.48,1.48,0,0,0,.19.35l0,0c2.56,4.38,4.69,9.39,4.69,14C61.42,65.14,55.85,74.5,49,74.5A8,8,0,0,1,44.88,73.3ZM77.55,69.1c-7.11,5.27-15.34,7.21-20.62,5.1,4.52-4.12,7.49-11.71,7.49-20.58a21.76,21.76,0,0,0-.66-5.12c7.94-5,21.56-4.43,26.21-4.05C88.93,49.2,85.3,63.36,77.55,69.1Z"/></svg>