<?xml version="1.0" encoding="iso-8859-1"?>
<!-- Generator: Adobe Illustrator 22.0.0, SVG Export Plug-In . SVG Version: 6.00 Build 0)  -->
<svg version="1.1" id="Layer_1" xmlns="http://www.w3.org/2000/svg" xmlns:xlink="http://www.w3.org/1999/xlink" x="0px" y="0px"
	 viewBox="0 0 100.25 100.25" style="enable-background:new 0 0 100.25 100.25;" xml:space="preserve">
<g>
	<path d="M79.567,29.924l-18.26-18.479C61.025,11.16,60.641,11,60.24,11H20.5c-0.829,0-1.5,0.672-1.5,1.5v75
		c0,0.828,0.671,1.5,1.5,1.5h58c0.829,0,1.5-0.672,1.5-1.5V30.979C80,30.585,79.844,30.206,79.567,29.924z M62,16.415L74.929,29.5
		H62V16.415z M22,86V14h37v17c0,0.828,0.671,1.5,1.5,1.5H77V86H22z"/>
	<path d="M44,62.5c-0.829,0-1.5,0.672-1.5,1.5v10.344c0,0.416-0.159,1.381-0.528,1.728c-0.821,0.772-1.58,0.323-1.944,0
		c-0.604-0.567-1.552-0.539-2.121,0.065c-0.567,0.604-0.538,1.553,0.065,2.12c0.692,0.651,1.838,1.237,3.105,1.237
		c0.961,0,1.992-0.337,2.95-1.237c1.431-1.346,1.472-3.654,1.472-3.913V64C45.5,63.171,44.829,62.5,44,62.5z"/>
	<path d="M56.065,69.534c-0.667-0.212-2.844-1.004-2.844-2.284c0-1.75,1.334-1.75,1.903-1.75c1.5,0,2.372,1.414,2.419,1.491
		c0.415,0.712,1.325,0.958,2.042,0.545c0.719-0.411,0.967-1.328,0.555-2.047c-0.07-0.122-1.751-2.989-5.016-2.989
		c-3.619,0-4.903,2.559-4.903,4.75c0,2.305,1.752,4.131,4.935,5.144C58,73.299,58,73.908,58,74.678c0,0.453-0.268,0.956-0.7,1.313
		c-0.303,0.25-0.948,0.646-1.895,0.463c-1.686-0.321-2.448-1.335-2.642-1.638c-0.447-0.699-1.375-0.903-2.072-0.456
		c-0.698,0.446-0.902,1.373-0.457,2.071c0.458,0.716,1.822,2.438,4.607,2.97c0.342,0.065,0.685,0.098,1.025,0.098
		c1.22,0,2.4-0.415,3.344-1.196c1.12-0.926,1.788-2.28,1.788-3.625C61,71.712,59.027,70.477,56.065,69.534z"/>
</g>
</svg>
