<?xml version="1.0" encoding="iso-8859-1"?>
<!-- Generator: Adobe Illustrator 21.0.0, SVG Export Plug-In . SVG Version: 6.00 Build 0)  -->
<svg version="1.1" id="Layer_1" xmlns="http://www.w3.org/2000/svg" xmlns:xlink="http://www.w3.org/1999/xlink" x="0px" y="0px"
	 viewBox="0 0 100.354 100.352" style="enable-background:new 0 0 100.354 100.352;" xml:space="preserve">
<g>
	<path d="M42.142,47.302c-0.994,0.654-2.121,1.396-3.363,2.372c-0.373,0.271-3.687,2.718-5.11,5.096
		c-1.457,2.43-1.928,6.391-1.948,6.559c-0.049,0.425,0.086,0.851,0.37,1.17c0.285,0.319,0.692,0.502,1.12,0.502h15.227
		c0.829,0,1.5-0.671,1.5-1.5s-0.671-1.5-1.5-1.5H34.984c0.254-1.212,0.669-2.708,1.258-3.69c0.939-1.57,3.423-3.572,4.344-4.244
		c1.188-0.933,2.259-1.637,3.204-2.259c2.559-1.684,4.581-3.014,4.581-6.479c0-4.513-3.669-8.185-8.18-8.185
		c-4.516,0-8.189,3.672-8.189,8.185c0,0.829,0.671,1.5,1.5,1.5s1.5-0.671,1.5-1.5c0-2.859,2.328-5.185,5.189-5.185
		c2.856,0,5.18,2.326,5.18,5.185C45.371,45.098,44.648,45.653,42.142,47.302z"/>
	<path d="M63.356,63.143c0.829,0,1.5-0.671,1.5-1.5v-5.476h3.295c0.829,0,1.5-0.671,1.5-1.5s-0.671-1.5-1.5-1.5h-3.295V36.786
		c0-0.665-0.438-1.25-1.076-1.438c-0.636-0.189-1.323,0.066-1.684,0.624l-11.56,17.881c-0.298,0.461-0.32,1.049-0.058,1.532
		c0.263,0.482,0.768,0.783,1.317,0.783h10.06v5.476C61.856,62.472,62.528,63.143,63.356,63.143z M54.552,53.167l7.304-11.298v11.298
		H54.552z"/>
	<path d="M92.401,43.125c-0.624-0.543-1.572-0.479-2.116,0.146l-2.875,3.302c-1.711-19.391-18.033-34.65-37.861-34.65
		c-20.968,0-38.027,17.055-38.027,38.018c0,20.965,17.059,38.022,38.027,38.022c13.429,0,25.601-6.87,32.558-18.376
		c0.429-0.708,0.201-1.631-0.508-2.06c-0.709-0.427-1.632-0.201-2.06,0.508c-6.409,10.6-17.62,16.928-29.99,16.928
		c-19.314,0-35.027-15.711-35.027-35.022c0-19.309,15.713-35.018,35.027-35.018c18.291,0,33.342,14.099,34.879,31.998l-3.654-3.173
		c-0.624-0.543-1.572-0.476-2.116,0.149c-0.543,0.625-0.476,1.573,0.149,2.116l6.311,5.479c0.284,0.247,0.634,0.367,0.983,0.367
		c0.418,0,0.835-0.174,1.132-0.515l5.314-6.104C93.092,44.616,93.026,43.669,92.401,43.125z"/>
</g>
</svg>
