<?xml version="1.0" encoding="iso-8859-1"?>
<!-- Generator: Adobe Illustrator 21.0.2, SVG Export Plug-In . SVG Version: 6.00 Build 0)  -->
<svg version="1.1" id="Layer_1" xmlns="http://www.w3.org/2000/svg" xmlns:xlink="http://www.w3.org/1999/xlink" x="0px" y="0px"
	 viewBox="0 0 100.5 100.5" style="enable-background:new 0 0 100.5 100.5;" xml:space="preserve">
<g>
	<path d="M53.32,38.12c-3.254,0-5.271,1.375-6.459,3.079c-1.189-1.704-3.206-3.079-6.46-3.079c-6.145,0-7.913,5.328-7.985,8.069
		c-0.033,0.418-0.694,10.303,9.011,16.524l0.784,0.454c0.464,0.267,1.652,0.892,1.862,0.991c1.329,0.633,2.258,0.957,2.297,0.97
		c0.159,0.056,0.325,0.083,0.491,0.083c0.174,0,0.349-0.03,0.514-0.091c14.295-5.215,13.986-17.838,13.936-18.867
		C61.229,43.432,59.456,38.12,53.32,38.12z M46.863,62.107c-0.354-0.142-0.877-0.361-1.5-0.658c-0.145-0.069-1.241-0.644-1.65-0.879
		l-0.726-0.419c-8.095-5.19-7.605-13.386-7.577-13.797c0.02-0.536,0.324-5.234,4.991-5.234c4.67,0,4.951,4.061,4.96,4.867
		c0,0.001,0,0.002,0,0.003c0,0.001,0,0.002,0,0.004v0.001c0,0,0,0.001,0,0.002s0,0.002,0,0.002V46
		c0.008,0.822,0.677,1.485,1.5,1.485c0.826,0,1.496-0.668,1.5-1.493c0.009-0.817,0.293-4.874,4.959-4.874
		c4.664,0,4.972,4.689,4.992,5.232c0,0.024,0.002,0.049,0.004,0.073C58.325,46.536,59.039,57.359,46.863,62.107z"/>
	<path d="M76.069,42.202h-3.058V28.517c0-2.573-2.094-4.667-4.667-4.667h-6.145L58.92,8.281c-0.146-0.694-0.759-1.191-1.468-1.191
		H36.27c-0.709,0-1.321,0.497-1.468,1.191L31.523,23.85h-6.145c-2.573,0-4.667,2.093-4.667,4.667v42.967
		c0,2.573,2.094,4.667,4.667,4.667h6.145l3.28,15.569c0.146,0.693,0.759,1.19,1.468,1.19h21.182c0.709,0,1.321-0.497,1.468-1.19
		l3.28-15.569h6.145c2.573,0,4.667-2.094,4.667-4.667V57.799h3.058c1.806,0,3.221-1.728,3.221-3.934v-7.73
		C79.289,43.93,77.874,42.202,76.069,42.202z M37.487,10.091h18.748l2.898,13.76H34.589L37.487,10.091z M56.235,89.911H37.487
		l-2.898-13.76h24.544L56.235,89.911z M70.011,71.484c0,0.919-0.748,1.667-1.667,1.667H25.377c-0.919,0-1.667-0.748-1.667-1.667
		V28.517c0-0.919,0.748-1.667,1.667-1.667h42.967c0.919,0,1.667,0.748,1.667,1.667V71.484z M76.289,53.866
		c0,0.52-0.196,0.841-0.294,0.934h-2.984v-9.597h2.984c0.098,0.093,0.294,0.414,0.294,0.934V53.866z"/>
</g>
</svg>
