<?xml version="1.0" encoding="iso-8859-1"?>
<!-- Generator: Adobe Illustrator 22.0.0, SVG Export Plug-In . SVG Version: 6.00 Build 0)  -->
<svg version="1.1" id="Layer_1" xmlns="http://www.w3.org/2000/svg" xmlns:xlink="http://www.w3.org/1999/xlink" x="0px" y="0px"
	 viewBox="0 0 100.303 100.25" style="enable-background:new 0 0 100.303 100.25;" xml:space="preserve">
<g>
	<path d="M17.289,30.906c0.003,0,0.006,0,0.009,0c0.818-0.005,1.475-0.672,1.47-1.488c-0.023-3.709,1.45-7.097,4.149-9.544
		c2.679-2.429,6.354-3.78,10.347-3.803c8.017-0.05,14.626,6.288,14.676,14.208c0,0.001,0,0.002,0,0.003
		c0.005,0.814,0.666,1.43,1.478,1.43c0.003,0,0.007,0,0.01,0c0.79-0.005,1.432-0.666,1.468-1.449h0.002
		c-0.024-3.792,1.465-7.367,4.195-10.067c2.738-2.71,6.396-4.215,10.299-4.238c0.036,0,0.073,0,0.109,0
		c8.265,0,14.519,5.646,14.566,13.172c0.005,0.814,0.667,1.47,1.479,1.47c0.003,0,0.006,0,0.009,0
		c0.818-0.005,1.475-0.672,1.47-1.488C82.968,19.906,75.445,13,65.504,13c-0.042,0-0.087,0-0.129,0
		c-4.681,0.029-9.072,1.837-12.363,5.094c-1.55,1.534-2.77,3.302-3.624,5.223c-2.737-6.011-8.9-10.205-16.032-10.205
		c-0.036,0-0.074,0-0.109,0c-4.722,0.029-9.097,1.652-12.317,4.571c-3.33,3.018-5.148,7.193-5.12,11.753
		C15.814,30.249,16.476,30.906,17.289,30.906z"/>
	<path d="M97.411,72.099c-0.001,0-0.002,0-0.003,0l-19.581,0.046l11.297-7.136c0.188-0.119,0.337-0.275,0.45-0.452
		c0.177-0.243,0.285-0.539,0.286-0.863l0.054-15.223l7.471-0.008c0.817-0.001,1.479-0.664,1.478-1.48
		c-0.001-0.817-0.663-1.478-1.479-1.478h-0.001l-7.457,0.008l0.03-8.375c0.001-0.393-0.154-0.772-0.432-1.05
		c-0.277-0.278-0.654-0.434-1.047-0.434c-0.001,0-0.002,0-0.003,0l-76.988,0.151c-0.814,0.001-1.473,0.66-1.476,1.474l-0.03,8.439
		C9.801,45.642,9.606,45.6,9.4,45.6H9.399l-6.921,0.007C1.661,45.608,0.999,46.27,1,47.087c0.001,0.817,0.663,1.478,1.479,1.478
		H2.48l6.921-0.007c0.202,0,0.393-0.041,0.569-0.114L9.915,63.836c-0.001,0.393,0.154,0.772,0.432,1.05
		c0.202,0.203,0.458,0.339,0.734,0.398l11.008,6.921L2.509,72.2c-0.817,0-1.479,0.662-1.479,1.479s0.662,1.479,1.479,1.479
		l24.715,0.006c0.659,0,1.239-0.436,1.421-1.069s-0.076-1.312-0.634-1.663l-11.329-7.124l66.638-0.13l-11.409,7.207
		c-0.557,0.352-0.815,1.031-0.63,1.664c0.184,0.632,0.762,1.067,1.42,1.067c0.001,0,0.002,0,0.003,0l24.715-0.058
		c0.818-0.002,1.478-0.666,1.476-1.482C98.888,72.759,98.227,72.099,97.411,72.099z M58.566,62.268
		c-0.115-0.029-0.234-0.048-0.358-0.048c-0.001,0-0.002,0-0.003,0L40.74,62.252c-0.126,0-0.247,0.022-0.364,0.051l-27.499,0.053
		l0.084-23.597l74.029-0.145l-0.084,23.598L58.566,62.268z"/>
	<path d="M22.995,44.835l-1.111-1.629c-0.461-0.674-1.381-0.849-2.055-0.388c-0.674,0.461-0.848,1.381-0.388,2.055l1.111,1.629
		c0.287,0.419,0.75,0.645,1.223,0.645c0.287,0,0.577-0.083,0.832-0.257C23.282,46.43,23.456,45.51,22.995,44.835z"/>
	<path d="M29.666,54.61c-0.459-0.674-1.381-0.848-2.055-0.389c-0.675,0.461-0.849,1.381-0.389,2.055l1.111,1.629
		c0.287,0.42,0.75,0.646,1.224,0.646c0.287,0,0.577-0.083,0.832-0.257c0.673-0.46,0.848-1.381,0.388-2.055L29.666,54.61z"/>
	<path d="M26.885,50.537l-1.111-1.629c-0.461-0.674-1.381-0.848-2.055-0.388c-0.675,0.461-0.848,1.381-0.388,2.055l1.111,1.629
		c0.287,0.419,0.75,0.645,1.223,0.645c0.287,0,0.577-0.083,0.832-0.257C27.172,52.132,27.347,51.212,26.885,50.537z"/>
	<path d="M80.068,42.755c-0.675-0.46-1.597-0.284-2.054,0.392l-1.108,1.631c-0.459,0.675-0.284,1.595,0.393,2.054
		c0.254,0.173,0.543,0.255,0.829,0.255c0.473,0,0.939-0.227,1.225-0.648l1.108-1.631C80.919,44.134,80.744,43.213,80.068,42.755z"/>
	<path d="M72.31,54.175c-0.676-0.459-1.596-0.283-2.054,0.392l-1.108,1.631c-0.459,0.675-0.283,1.596,0.392,2.054
		c0.254,0.173,0.543,0.255,0.829,0.255c0.473,0,0.939-0.227,1.225-0.648l1.108-1.631C73.162,55.553,72.985,54.634,72.31,54.175z"/>
	<path d="M76.188,48.466c-0.677-0.459-1.597-0.284-2.054,0.393l-1.108,1.631c-0.459,0.674-0.283,1.595,0.392,2.054
		c0.254,0.173,0.543,0.255,0.829,0.255c0.473,0,0.939-0.227,1.225-0.648l1.108-1.631C77.039,49.844,76.865,48.924,76.188,48.466z"/>
	<path d="M59.695,68.754L49.262,81.195L39.241,68.798c-0.514-0.634-1.444-0.735-2.08-0.221c-0.636,0.514-0.735,1.445-0.221,2.08
		l11.15,13.794c0.278,0.344,0.695,0.545,1.137,0.549c0.005,0,0.009,0,0.014,0c0.437,0,0.852-0.193,1.133-0.529l11.588-13.817
		c0.525-0.626,0.443-1.559-0.183-2.084C61.152,68.047,60.221,68.129,59.695,68.754z"/>
</g>
</svg>
