<?xml version="1.0" encoding="iso-8859-1"?>
<!-- Generator: Adobe Illustrator 21.1.0, SVG Export Plug-In . SVG Version: 6.00 Build 0)  -->
<svg version="1.1" id="Layer_1" xmlns="http://www.w3.org/2000/svg" xmlns:xlink="http://www.w3.org/1999/xlink" x="0px" y="0px"
	 viewBox="0 0 100.176 100.178" style="enable-background:new 0 0 100.176 100.178;" xml:space="preserve">
<g>
	<path d="M83.654,11.693H16.346c-0.829,0-1.5,0.671-1.5,1.5v73.615c0,0.828,0.671,1.5,1.5,1.5h67.308c0.828,0,1.5-0.672,1.5-1.5
		V13.193C85.154,12.364,84.482,11.693,83.654,11.693z M49.997,24.515l8.11,7.255H41.889L49.997,24.515z M82.154,85.308H17.846
		V14.693h30.655v7.135L36.963,32.152c-0.464,0.415-0.623,1.072-0.401,1.653c0.222,0.581,0.779,0.965,1.401,0.965h24.071
		c0.622,0,1.18-0.384,1.401-0.965s0.062-1.238-0.401-1.653L51.501,21.835v-7.142h30.653V85.308z"/>
	<path d="M38.786,38.465c-0.829,0-1.5,0.671-1.5,1.5v6.688c0,0.829,0.671,1.5,1.5,1.5s1.5-0.671,1.5-1.5v-6.688
		C40.286,39.136,39.615,38.465,38.786,38.465z"/>
	<path d="M50.001,38.465c-0.829,0-1.5,0.671-1.5,1.5v6.688c0,0.829,0.671,1.5,1.5,1.5s1.5-0.671,1.5-1.5v-6.688
		C51.501,39.136,50.83,38.465,50.001,38.465z"/>
	<path d="M61.215,38.465c-0.828,0-1.5,0.671-1.5,1.5v6.688c0,0.829,0.672,1.5,1.5,1.5s1.5-0.671,1.5-1.5v-6.688
		C62.715,39.136,62.043,38.465,61.215,38.465z"/>
	<path d="M38.786,52.636c-0.829,0-1.5,0.672-1.5,1.5v6.688c0,0.828,0.671,1.5,1.5,1.5s1.5-0.672,1.5-1.5v-6.688
		C40.286,53.308,39.615,52.636,38.786,52.636z"/>
	<path d="M49.997,62.324c0.829,0,1.5-0.672,1.5-1.5v-6.688c0-0.828-0.671-1.5-1.5-1.5s-1.5,0.672-1.5,1.5v6.688
		C48.497,61.652,49.168,62.324,49.997,62.324z"/>
	<path d="M61.215,52.636c-0.828,0-1.5,0.672-1.5,1.5v6.688c0,0.828,0.672,1.5,1.5,1.5s1.5-0.672,1.5-1.5v-6.688
		C62.715,53.308,62.043,52.636,61.215,52.636z"/>
	<path d="M38.786,67.148c-0.829,0-1.5,0.672-1.5,1.5v6.688c0,0.828,0.671,1.5,1.5,1.5s1.5-0.672,1.5-1.5v-6.688
		C40.286,67.82,39.615,67.148,38.786,67.148z"/>
	<path d="M50.001,67.148c-0.829,0-1.5,0.672-1.5,1.5v6.688c0,0.828,0.671,1.5,1.5,1.5s1.5-0.672,1.5-1.5v-6.688
		C51.501,67.82,50.83,67.148,50.001,67.148z"/>
	<path d="M61.215,67.148c-0.828,0-1.5,0.672-1.5,1.5v6.688c0,0.828,0.672,1.5,1.5,1.5s1.5-0.672,1.5-1.5v-6.688
		C62.715,67.82,62.043,67.148,61.215,67.148z"/>
</g>
</svg>
