<?xml version="1.0" encoding="iso-8859-1"?>
<!-- Generator: Adobe Illustrator 21.1.0, SVG Export Plug-In . SVG Version: 6.00 Build 0)  -->
<svg version="1.1" id="Layer_1" xmlns="http://www.w3.org/2000/svg" xmlns:xlink="http://www.w3.org/1999/xlink" x="0px" y="0px"
	 viewBox="0 0 100.75 100.75" style="enable-background:new 0 0 100.75 100.75;" xml:space="preserve">
<g>
	<path d="M49.997,56.386c-20.044,0-36.352,16.31-36.352,36.357c0,0.829,0.672,1.5,1.5,1.5h69.71c0.828,0,1.5-0.671,1.5-1.5
		C86.355,72.696,70.044,56.386,49.997,56.386z M66.993,91.244l-5.19-19.058c-0.218-0.8-1.039-1.273-1.842-1.053
		c-0.799,0.218-1.271,1.042-1.053,1.841l4.975,18.27H52.006v-18.5c0-0.829-0.672-1.5-1.5-1.5s-1.5,0.671-1.5,1.5v18.5H36.2
		l4.773-18.285c0.209-0.802-0.271-1.621-1.072-1.83c-0.804-0.21-1.621,0.271-1.83,1.072L33.1,91.244H16.677
		c0.787-17.7,15.431-31.857,33.318-31.857c17.891,0,32.537,14.158,33.325,31.857L66.993,91.244L66.993,91.244z"/>
	<path d="M30.688,42.656c1.2,0,2.331-0.295,3.332-0.809c2.344,6.395,8.461,10.743,15.389,10.743c7.354,0,13.622-4.776,15.682-11.623
		c0.993,0.502,2.11,0.792,3.297,0.792c4.045,0,7.335-3.29,7.335-7.334c0-1.644-0.546-3.215-1.533-4.488
		c0.987-1.272,1.533-2.843,1.533-4.488c0-4.044-3.29-7.334-7.335-7.334c-0.179,0-0.357,0.006-0.535,0.02
		C65.221,10.786,57.967,5.759,49.76,5.759c-9.15,0-16.192,4.817-18.33,12.394c-0.246-0.025-0.493-0.037-0.741-0.037
		c-4.045,0-7.335,3.29-7.335,7.334c0,1.86,0.692,3.605,1.913,4.937c-1.221,1.332-1.913,3.077-1.913,4.937
		C23.353,39.366,26.643,42.656,30.688,42.656z M49.409,49.59c-6.029,0-11.305-4.028-12.906-9.816c0.949-1.236,1.52-2.777,1.52-4.453
		c0-1.749-0.612-3.395-1.698-4.692c0.381-0.356,0.699-0.76,0.953-1.187c1.161,0.494,2.239,0.291,3.636,0.025l0.195-0.037
		c1.665-0.314,2.936-1.011,4.057-1.625c1.399-0.767,2.608-1.429,4.527-1.429c2.205,0,3.918,0.897,5.574,1.766
		c0.99,0.519,1.926,1.009,2.908,1.266c1.452,0.38,2.934,0.346,4.254-0.075c0.081,0.156,0.168,0.315,0.262,0.472
		c-1.053,1.295-1.637,2.917-1.637,4.62c0,1.654,0.557,3.177,1.484,4.405C61.293,45.093,55.862,49.59,49.409,49.59z M28.387,29.115
		c-1.273-0.801-2.034-2.171-2.034-3.667c0-2.39,1.944-4.334,4.335-4.334c0.292,0,0.583,0.029,0.864,0.086
		c0.184,0.037,0.368,0.039,0.547,0.009c0.061,0.021,0.124,0.037,0.188,0.05c0.814,0.155,1.602-0.368,1.763-1.181
		c1.359-6.877,7.525-11.321,15.709-11.321c7.359,0,13.574,4.496,15.551,11.257c0.066,0.624,0.526,1.137,1.149,1.286
		c0.297,0.072,0.601,0.046,0.875-0.059c0.343-0.085,0.696-0.128,1.053-0.128c2.391,0,4.335,1.944,4.335,4.334
		c0,1.292-0.571,2.507-1.566,3.334c-0.344,0.285-0.542,0.708-0.542,1.154c0,0.446,0.198,0.869,0.541,1.154
		c0.996,0.827,1.567,2.043,1.567,3.334c0,2.39-1.944,4.334-4.335,4.334c-2.39,0-4.334-1.944-4.334-4.334
		c0-1.297,0.574-2.515,1.575-3.342c0.344-0.285,0.543-0.708,0.544-1.154s-0.198-0.87-0.541-1.156
		c-0.248-0.206-0.737-1.133-1.027-1.944c-0.153-0.433-0.498-0.771-0.933-0.918c-0.435-0.145-0.913-0.087-1.299,0.163
		c-0.914,0.596-2.198,0.757-3.44,0.433c-0.651-0.17-1.403-0.564-2.273-1.021c-1.793-0.939-4.023-2.108-6.967-2.108
		c-2.687,0-4.431,0.956-5.969,1.798c-1.016,0.556-1.976,1.082-3.172,1.308l-0.198,0.038c-1.905,0.362-1.905,0.36-2.787-0.526
		c-0.421-0.423-1.05-0.555-1.605-0.341c-0.555,0.215-0.931,0.738-0.957,1.333c-0.027,0.633-0.548,1.657-1.618,1.951
		c-0.573,0.157-1,0.639-1.087,1.228c-0.086,0.589,0.183,1.173,0.687,1.489c1.275,0.8,2.037,2.172,2.037,3.669
		c0,2.39-1.944,4.334-4.334,4.334c-2.391,0-4.335-1.944-4.335-4.334c0-1.495,0.761-2.866,2.034-3.667
		c0.437-0.274,0.701-0.754,0.701-1.27S28.824,29.39,28.387,29.115z"/>
</g>
</svg>
