<?xml version="1.0" encoding="iso-8859-1"?>
<!-- Generator: Adobe Illustrator 22.0.1, SVG Export Plug-In . SVG Version: 6.00 Build 0)  -->
<svg version="1.1" id="Layer_1" xmlns="http://www.w3.org/2000/svg" xmlns:xlink="http://www.w3.org/1999/xlink" x="0px" y="0px"
	 viewBox="0 0 100.25 100.25" style="enable-background:new 0 0 100.25 100.25;" xml:space="preserve">
<path d="M92.158,73.075l-8.019-34.408c-0.091-0.389-0.333-0.726-0.673-0.936c-0.341-0.209-0.751-0.276-1.139-0.182
	c-0.094,0.023-4.904,1.171-10.824,2.228l11.681-11.196c0.413-0.396,0.565-0.994,0.391-1.54c-0.174-0.545-0.644-0.944-1.211-1.027
	L60.773,22.84L51.15,3.255c-0.253-0.513-0.804-0.828-1.347-0.838c-0.57,0-1.091,0.323-1.344,0.834l-9.691,19.552l-21.601,3.102
	c-0.575,0.083-1.051,0.49-1.221,1.046s-0.004,1.16,0.426,1.55l9.064,8.222c-8.675,2.065-15.731,9.018-16.089,9.376
	C9,46.446,8.844,46.942,8.931,47.426l1.773,9.863c-0.081,0.378-0.016,0.764,0.198,1.102l4.214,23.441
	c0.101,0.562,0.513,1.017,1.061,1.175c0.137,0.04,0.277,0.06,0.416,0.06c0.415,0,0.82-0.174,1.108-0.489
	c0.088-0.097,8.931-9.639,18.657-8.995c4.59,0.312,8.457,1.423,12.552,2.599c4.04,1.16,8.219,2.359,13.07,2.689
	c9.596,0.662,28.276-3.804,29.066-3.995C91.85,74.682,92.345,73.878,92.158,73.075z M13.89,58.048
	c3.5-2.974,12.624-8.529,19.211-7.744c4.303,0.513,7.709,1.56,11.003,2.572c3.789,1.164,7.707,2.368,12.861,2.719
	c7.828,0.538,21.764-2.346,27.207-3.566l2.173,9.323c-5.849,1.225-17.15,3.338-23.594,2.907c-4.556-0.311-8.854-1.419-13.404-2.594
	c-4.506-1.162-9.166-2.364-14.052-2.697c-7.884-0.537-15.511,5.015-19.673,8.721L13.89,58.048z M20.751,28.421l19.225-2.761
	c0.488-0.07,0.911-0.376,1.13-0.819l8.691-17.536l8.631,17.564c0.218,0.443,0.64,0.75,1.129,0.822l19.338,2.843L66.282,40.625
	c-4.415,0.64-8.875,1.064-12.116,0.843c-4.494-0.306-7.655-1.397-11.001-2.554c-3.403-1.176-6.923-2.392-11.87-2.729
	c-0.672-0.046-1.341-0.049-2.006-0.019L20.751,28.421z M28.49,39.246c0.38-0.043,0.604-0.101,1.039-0.09
	c0.519-0.02,1.04-0.014,1.562,0.022c4.549,0.31,7.729,1.408,11.095,2.571c3.384,1.169,6.884,2.378,11.777,2.711
	c3.446,0.235,8.061-0.19,12.599-0.839c0.28-0.036,0.649-0.1,0.945-0.139c5.871-0.881,11.465-2.089,14.051-2.676l1.934,8.299
	c-4.664,1.039-18.81,3.999-26.323,3.497c-4.808-0.327-8.39-1.429-12.183-2.595c-3.421-1.051-6.958-2.139-11.53-2.683
	c-7.132-0.858-15.776,4.091-20.167,7.381l-1.261-7.012C14.012,45.887,20.978,40.02,28.49,39.246z M62.185,75.877
	c-4.533-0.31-8.377-1.413-12.446-2.581c-4.065-1.167-8.268-2.374-13.176-2.707c-8.215-0.559-15.539,4.861-18.991,7.94l-1.319-7.336
	c2.773-2.669,10.934-9.745,18.839-9.232c4.609,0.314,9.132,1.481,13.506,2.61c4.482,1.156,9.117,2.353,13.95,2.681
	c6.658,0.458,17.66-1.54,24.479-2.976l1.868,8.016C84.286,73.33,69.855,76.399,62.185,75.877z"/>
</svg>
