<?xml version="1.0" encoding="iso-8859-1"?>
<!-- Generator: Adobe Illustrator 22.0.0, SVG Export Plug-In . SVG Version: 6.00 Build 0)  -->
<svg version="1.1" id="Layer_1" xmlns="http://www.w3.org/2000/svg" xmlns:xlink="http://www.w3.org/1999/xlink" x="0px" y="0px"
	 viewBox="0 0 100.25 100.25" style="enable-background:new 0 0 100.25 100.25;" xml:space="preserve">
<g>
	<path d="M79.567,29.924l-18.26-18.479C61.025,11.16,60.641,11,60.24,11H20.5c-0.829,0-1.5,0.672-1.5,1.5v75
		c0,0.828,0.671,1.5,1.5,1.5h58c0.829,0,1.5-0.672,1.5-1.5V30.979C80,30.585,79.844,30.206,79.567,29.924z M62,16.415L74.929,29.5
		H62V16.415z M22,86V14h37v17c0,0.828,0.671,1.5,1.5,1.5H77V86H22z"/>
	<path d="M58.539,62.657c-0.773-0.298-1.641,0.087-1.939,0.86l-4,10.387L48.392,63.44c-0.309-0.769-1.186-1.144-1.951-0.832
		c-0.769,0.309-1.141,1.183-0.832,1.951l5.63,14c0.229,0.568,0.78,0.94,1.392,0.94c0.003,0,0.007,0,0.011,0
		c0.616-0.005,1.167-0.386,1.389-0.961l5.37-13.943C59.698,63.822,59.312,62.954,58.539,62.657z"/>
	<path d="M38.761,63.44c-0.229-0.568-0.78-0.94-1.392-0.94c-0.003,0-0.007,0-0.011,0c-0.616,0.005-1.167,0.386-1.389,0.961
		l-5.37,13.943c-0.298,0.773,0.088,1.642,0.861,1.938c0.772,0.298,1.641-0.088,1.939-0.86l0.763-1.982h6.617l0.828,2.06
		c0.235,0.585,0.798,0.94,1.392,0.94c0.187,0,0.376-0.034,0.559-0.108c0.769-0.309,1.141-1.183,0.832-1.951L38.761,63.44z
		 M35.319,73.5l2.081-5.404l2.174,5.404H35.319z"/>
	<path d="M65.5,62.5c-0.829,0-1.5,0.672-1.5,1.5v14c0,0.828,0.671,1.5,1.5,1.5S67,78.828,67,78V64C67,63.171,66.329,62.5,65.5,62.5z
		"/>
</g>
</svg>
