<?xml version="1.0" encoding="iso-8859-1"?>
<!-- Generator: Adobe Illustrator 21.0.2, SVG Export Plug-In . SVG Version: 6.00 Build 0)  -->
<svg version="1.1" id="Layer_1" xmlns="http://www.w3.org/2000/svg" xmlns:xlink="http://www.w3.org/1999/xlink" x="0px" y="0px"
	 viewBox="0 0 100.5 100.5" style="enable-background:new 0 0 100.5 100.5;" xml:space="preserve">
<path d="M49.841,50.82c-1.391-1.872-3.619-3.086-6.127-3.086c-4.203,0-7.623,3.418-7.623,7.621c0,1.636,0.525,3.202,1.55,4.566
	l11.03,13.78c0.284,0.355,0.716,0.562,1.171,0.562h0.001c0.456,0,0.887-0.208,1.172-0.564l11.272-14.127
	c0.032-0.04,0.062-0.082,0.09-0.125c0.796-1.241,1.217-2.656,1.217-4.091c0-4.202-3.423-7.621-7.63-7.621
	C53.458,47.734,51.232,48.948,49.841,50.82z M60.594,55.354c0,0.837-0.243,1.669-0.703,2.41L49.84,70.36l-9.828-12.278
	c-0.603-0.803-0.921-1.747-0.921-2.729c0-2.548,2.074-4.621,4.623-4.621c2.552,0,4.628,2.073,4.628,4.621c0,0.829,0.672,1.5,1.5,1.5
	s1.5-0.671,1.5-1.5c0-2.548,2.073-4.621,4.622-4.621C58.517,50.734,60.594,52.806,60.594,55.354z"/>
<path d="M49.842,25.195c6.072,0,11.012-4.943,11.012-11.019c0-6.071-4.939-11.01-11.012-11.01c-6.075,0-11.019,4.939-11.019,11.01
	C38.824,20.252,43.767,25.195,49.842,25.195z M49.842,6.166c4.418,0,8.012,3.593,8.012,8.01c0,4.422-3.594,8.019-8.012,8.019
	c-4.422,0-8.019-3.597-8.019-8.019C41.824,9.759,45.42,6.166,49.842,6.166z"/>
<path d="M81.194,75.216L60.937,30.397c-0.243-0.537-0.777-0.882-1.367-0.882H38.819c-0.603,0-1.146,0.36-1.382,0.916L18.47,75.25
	c-0.195,0.464-0.146,0.994,0.132,1.413c0.277,0.42,0.747,0.672,1.25,0.672h15.617l7.043,18.534c0.222,0.582,0.779,0.967,1.402,0.967
	h12.847c0.647,0,1.222-0.416,1.425-1.031l6.082-18.47h15.559c0.51,0,0.984-0.259,1.261-0.687
	C81.363,76.22,81.404,75.681,81.194,75.216z M63.183,74.334c-0.647,0-1.222,0.416-1.425,1.031l-6.082,18.47H44.948l-7.043-18.534
	c-0.222-0.582-0.779-0.967-1.402-0.967H22.115l17.697-41.82h18.789l18.9,41.82H63.183z"/>
</svg>
