<?xml version="1.0" encoding="iso-8859-1"?>
<!-- Generator: Adobe Illustrator 21.0.2, SVG Export Plug-In . SVG Version: 6.00 Build 0)  -->
<svg version="1.1" id="Layer_1" xmlns="http://www.w3.org/2000/svg" xmlns:xlink="http://www.w3.org/1999/xlink" x="0px" y="0px"
	 viewBox="0 0 100.75 100.749" style="enable-background:new 0 0 100.75 100.749;" xml:space="preserve">
<path d="M88.806,78.707v-7.833c0-0.829-0.671-1.5-1.5-1.5H34.028c-5.092-8.457-14.009-9.968-17.597-10.227v-6.665
	c0-0.829-0.671-1.5-1.5-1.5s-1.5,0.671-1.5,1.5v25.039v1.278V90.71c0,0.829,0.671,1.5,1.5,1.5s1.5-0.671,1.5-1.5V80.299h69.385
	V90.71c0,0.829,0.671,1.5,1.5,1.5s1.5-0.671,1.5-1.5V78.799C88.815,78.767,88.808,78.738,88.806,78.707z M30.411,69.374h-13.98
	v-7.223C19.36,62.386,26.019,63.579,30.411,69.374z M85.807,72.374v4.925H16.432v-4.925h-0.001"/>
<path d="M51.845,37.904v-8.202h8.213c0.829,0,1.5-0.671,1.5-1.5s-0.671-1.5-1.5-1.5h-8.213v-8.204c0-0.829-0.671-1.5-1.5-1.5
	s-1.5,0.671-1.5,1.5v8.204h-8.196c-0.829,0-1.5,0.671-1.5,1.5s0.671,1.5,1.5,1.5h8.196v8.202c0,0.829,0.671,1.5,1.5,1.5
	S51.845,38.733,51.845,37.904z"/>
<path d="M50.345,61.114c0.482,0,0.934-0.231,1.216-0.622c0.711-0.985,17.415-24.241,17.415-34.078
	c0-10.27-8.358-18.625-18.631-18.625c-10.27,0-18.625,8.355-18.625,18.625c0,9.837,16.698,33.093,17.409,34.078
	C49.411,60.883,49.863,61.114,50.345,61.114z M50.345,10.79c8.619,0,15.631,7.009,15.631,15.625
	c0,6.793-10.348,23.031-15.631,30.606c-5.281-7.574-15.625-23.81-15.625-30.606C34.72,17.799,41.73,10.79,50.345,10.79z"/>
</svg>
