<?xml version="1.0" encoding="iso-8859-1"?>
<!-- Generator: Adobe Illustrator 22.0.1, SVG Export Plug-In . SVG Version: 6.00 Build 0)  -->
<svg version="1.1" id="Layer_1" xmlns="http://www.w3.org/2000/svg" xmlns:xlink="http://www.w3.org/1999/xlink" x="0px" y="0px"
	 viewBox="0 0 100.25 101.125" style="enable-background:new 0 0 100.25 101.125;" xml:space="preserve">
<g>
	<path style="fill:none;" d="M17.938,47.597l-2.921-0.424c-0.489-0.071-0.911-0.378-1.13-0.82l-1.306-2.647l-1.306,2.647
		c-0.219,0.443-0.641,0.75-1.13,0.821l-2.921,0.424l2.113,2.06c0.354,0.345,0.515,0.841,0.432,1.328l-0.5,2.909l2.613-1.374
		c0.219-0.114,0.458-0.172,0.698-0.172s0.479,0.058,0.698,0.172l2.613,1.374l-0.499-2.91c-0.083-0.486,0.078-0.982,0.432-1.327
		L17.938,47.597z"/>
	<path style="fill:none;" d="M52.149,83.793l-1.307-2.647l-1.307,2.647c-0.219,0.442-0.641,0.749-1.129,0.82l-2.921,0.425
		l2.114,2.061c0.353,0.345,0.515,0.841,0.431,1.327l-0.499,2.909l2.613-1.374c0.438-0.229,0.959-0.229,1.396,0l2.612,1.374
		l-0.499-2.908c-0.083-0.486,0.078-0.983,0.432-1.328l2.114-2.061l-2.922-0.425C52.79,84.542,52.367,84.236,52.149,83.793z"/>
	<path style="fill:none;" d="M48.063,20.979l-0.499,2.909l2.612-1.374c0.438-0.23,0.959-0.23,1.396,0l2.612,1.374l-0.499-2.909
		c-0.083-0.486,0.078-0.983,0.432-1.328l2.113-2.06l-2.921-0.424c-0.488-0.071-0.911-0.378-1.129-0.821L50.875,13.7l-1.307,2.647
		c-0.219,0.442-0.641,0.75-1.13,0.82l-2.92,0.424l2.114,2.06C47.985,19.997,48.147,20.493,48.063,20.979z"/>
	<circle style="fill:none;" cx="50.5" cy="51.393" r="6.5"/>
	<path style="fill:none;" d="M89.727,45.206l-1.307-2.647l-1.308,2.647c-0.218,0.442-0.641,0.75-1.129,0.82l-2.922,0.425
		l2.114,2.061c0.354,0.345,0.515,0.841,0.432,1.328l-0.499,2.909l2.613-1.374c0.438-0.229,0.959-0.229,1.396,0l2.612,1.374
		l-0.499-2.909c-0.083-0.486,0.078-0.983,0.432-1.328l2.114-2.061l-2.922-0.425C90.367,45.956,89.944,45.648,89.727,45.206z"/>
	<path d="M58.558,56.4C59.466,54.944,60,53.232,60,51.393c0-1.988-0.616-3.834-1.664-5.361l16.087-16.088
		c0.586-0.586,0.586-1.536,0-2.121c-0.586-0.586-1.535-0.586-2.121,0L56.266,43.86c-1.601-1.228-3.596-1.967-5.766-1.967
		c-1.838,0-3.551,0.534-5.006,1.441L29.907,27.748c-0.586-0.586-1.535-0.586-2.121,0c-0.586,0.585-0.586,1.536,0,2.121
		l15.433,15.433C41.836,46.953,41,49.076,41,51.393c0,2.169,0.739,4.164,1.967,5.765L26.272,73.853
		c-0.586,0.586-0.586,1.535,0,2.121c0.293,0.293,0.677,0.439,1.061,0.439s0.768-0.146,1.061-0.439l16.745-16.746
		c1.527,1.048,3.373,1.665,5.361,1.665c2.317,0,4.44-0.836,6.091-2.219L73.745,75.83c0.293,0.293,0.677,0.439,1.061,0.439
		s0.768-0.146,1.061-0.439c0.586-0.586,0.586-1.535,0-2.121L58.558,56.4z M50.5,57.893c-3.584,0-6.5-2.916-6.5-6.5
		s2.916-6.5,6.5-6.5s6.5,2.916,6.5,6.5S54.084,57.893,50.5,57.893z"/>
	<path d="M52,72.625v-7c0-0.828-0.672-1.5-1.5-1.5c-0.829,0-1.5,0.672-1.5,1.5v7c0,0.828,0.671,1.5,1.5,1.5
		C51.328,74.125,52,73.453,52,72.625z"/>
	<path d="M67.5,49.125c-0.828,0-1.5,0.671-1.5,1.5c0,0.828,0.672,1.5,1.5,1.5h7c0.828,0,1.5-0.672,1.5-1.5
		c0-0.829-0.672-1.5-1.5-1.5H67.5z"/>
	<path d="M59.639,82.506l-5.148-0.748l-2.303-4.665c-0.252-0.512-0.773-0.836-1.345-0.836c-0.571,0-1.092,0.324-1.345,0.836
		l-2.303,4.665l-5.148,0.748c-0.565,0.082-1.034,0.478-1.211,1.021c-0.176,0.543-0.029,1.14,0.379,1.538l3.725,3.632l-0.878,5.128
		c-0.096,0.562,0.135,1.131,0.597,1.467c0.261,0.189,0.57,0.286,0.881,0.286c0.239,0,0.479-0.057,0.698-0.172l4.604-2.422
		l4.605,2.422c0.505,0.266,1.117,0.222,1.58-0.114c0.462-0.336,0.693-0.905,0.597-1.468l-0.88-5.127l3.725-3.632
		c0.409-0.398,0.556-0.995,0.38-1.538C60.673,82.984,60.203,82.588,59.639,82.506z M54.086,87.099
		c-0.354,0.345-0.515,0.842-0.432,1.328l0.499,2.908l-2.612-1.374c-0.438-0.229-0.959-0.229-1.396,0l-2.613,1.374l0.499-2.909
		c0.083-0.486-0.078-0.982-0.431-1.327l-2.114-2.061l2.921-0.425c0.488-0.071,0.911-0.378,1.129-0.82l1.307-2.647l1.307,2.647
		c0.218,0.442,0.641,0.749,1.129,0.82l2.922,0.425L54.086,87.099z"/>
	<path d="M44.973,21.25l-0.879,5.127c-0.096,0.562,0.135,1.131,0.597,1.467c0.463,0.336,1.075,0.38,1.58,0.114l4.604-2.421
		l4.604,2.421c0.22,0.115,0.459,0.172,0.698,0.172c0.311,0,0.62-0.097,0.882-0.287c0.462-0.335,0.693-0.904,0.597-1.467l-0.88-5.128
		l3.726-3.631c0.409-0.399,0.557-0.995,0.38-1.538c-0.177-0.543-0.646-0.938-1.211-1.021l-5.148-0.748L52.22,9.646
		c-0.252-0.512-0.773-0.836-1.345-0.836c-0.571,0-1.092,0.324-1.345,0.836l-2.303,4.666l-5.148,0.748
		c-0.565,0.082-1.035,0.478-1.211,1.021c-0.176,0.543-0.029,1.139,0.38,1.538L44.973,21.25z M48.438,17.167
		c0.489-0.071,0.911-0.378,1.13-0.82l1.307-2.647l1.307,2.647c0.218,0.443,0.641,0.75,1.129,0.821l2.921,0.424l-2.113,2.06
		c-0.354,0.345-0.515,0.841-0.432,1.328l0.499,2.909l-2.612-1.374c-0.438-0.23-0.959-0.23-1.396,0l-2.612,1.374l0.499-2.909
		c0.083-0.486-0.078-0.983-0.432-1.328l-2.114-2.06L48.438,17.167z"/>
	<path d="M98.427,44.94c-0.177-0.543-0.646-0.939-1.211-1.021l-5.148-0.749l-2.303-4.665c-0.252-0.512-0.773-0.836-1.345-0.836
		s-1.092,0.324-1.345,0.836l-2.304,4.665l-5.148,0.749c-0.565,0.082-1.034,0.478-1.211,1.021c-0.176,0.543-0.029,1.139,0.38,1.538
		l3.726,3.632l-0.879,5.128c-0.097,0.562,0.135,1.131,0.597,1.467c0.262,0.189,0.571,0.286,0.882,0.286
		c0.239,0,0.479-0.057,0.698-0.172l4.604-2.422l4.604,2.422c0.505,0.265,1.117,0.222,1.58-0.114
		c0.462-0.336,0.693-0.904,0.597-1.468l-0.88-5.127l3.726-3.631C98.456,46.08,98.603,45.483,98.427,44.94z M91.663,48.512
		c-0.354,0.345-0.515,0.841-0.432,1.328l0.499,2.909l-2.612-1.374c-0.438-0.229-0.959-0.229-1.396,0l-2.613,1.374l0.499-2.909
		c0.083-0.487-0.078-0.983-0.432-1.328l-2.114-2.061l2.922-0.425c0.488-0.071,0.911-0.378,1.129-0.82l1.308-2.647l1.307,2.647
		c0.218,0.442,0.641,0.75,1.129,0.82l2.922,0.425L91.663,48.512z"/>
	<path d="M18.764,57.85c0.462-0.336,0.693-0.904,0.597-1.467l-0.878-5.129l3.725-3.631c0.409-0.399,0.556-0.995,0.38-1.538
		c-0.177-0.543-0.646-0.938-1.211-1.021l-5.148-0.748l-2.303-4.666c-0.253-0.512-0.774-0.836-1.345-0.836
		c-0.571,0-1.093,0.324-1.345,0.836l-2.302,4.666l-5.148,0.748c-0.565,0.082-1.035,0.478-1.211,1.021
		c-0.176,0.543-0.029,1.139,0.38,1.538l3.725,3.631l-0.88,5.128c-0.096,0.563,0.135,1.132,0.597,1.468
		c0.463,0.335,1.074,0.379,1.58,0.114l4.605-2.422l4.604,2.422c0.22,0.115,0.459,0.172,0.698,0.172
		C18.193,58.136,18.503,58.04,18.764,57.85z M15.393,50.984l0.499,2.91l-2.613-1.374c-0.219-0.114-0.458-0.172-0.698-0.172
		s-0.479,0.058-0.698,0.172l-2.613,1.374l0.5-2.909c0.083-0.487-0.078-0.983-0.432-1.328l-2.113-2.06l2.921-0.424
		c0.489-0.071,0.911-0.378,1.13-0.821l1.306-2.647l1.306,2.647c0.219,0.442,0.641,0.75,1.13,0.82l2.921,0.424l-2.113,2.06
		C15.471,50.001,15.309,50.498,15.393,50.984z"/>
	<circle cx="81.5" cy="20.393" r="3"/>
	<circle cx="20.5" cy="20.393" r="3"/>
	<circle cx="82.5" cy="82.393" r="3"/>
	<circle cx="20.5" cy="82.393" r="3"/>
	<path d="M34.5,52.125c0.829,0,1.5-0.672,1.5-1.5c0-0.829-0.671-1.5-1.5-1.5h-8c-0.829,0-1.5,0.671-1.5,1.5
		c0,0.828,0.671,1.5,1.5,1.5H34.5z"/>
	<path d="M49,31.625v6c0,0.829,0.671,1.5,1.5,1.5c0.828,0,1.5-0.671,1.5-1.5v-6c0-0.829-0.672-1.5-1.5-1.5
		C49.671,30.125,49,30.796,49,31.625z"/>
</g>
</svg>
