<svg id="Layer_1" data-name="Layer 1" xmlns="http://www.w3.org/2000/svg" viewBox="0 0 101 101"><title>Artboard 2 copy 14</title><path d="M92.41,21.6a1.5,1.5,0,0,0-1.31-.25L51,32.41l-7-1.93V29h5.5a1.5,1.5,0,0,0,0-3h-7A1.5,1.5,0,0,0,41,27.5v2.15l-30.1-8.3A1.5,1.5,0,0,0,9,22.79V76.18a1.5,1.5,0,0,0,1,1.41L50.23,91.91a1.49,1.49,0,0,0,.72.2h.1a1.49,1.49,0,0,0,.71-.2L92,77.59a1.5,1.5,0,0,0,1-1.41V22.79A1.5,1.5,0,0,0,92.41,21.6ZM90,75.12,51,89,12,75.12V24.76l29,8V38.5A1.5,1.5,0,0,0,42.5,40h7a1.5,1.5,0,0,0,0-3H44V33.59l6.32,1.74a1.5,1.5,0,0,0,.6.14h.14a1.49,1.49,0,0,0,.61-.14L90,24.76Z"/><path d="M49.5,50a1.5,1.5,0,0,0,0-3h-7A1.5,1.5,0,0,0,41,48.5v11A1.5,1.5,0,0,0,42.5,61h7a1.5,1.5,0,0,0,0-3H44V50Z"/><path d="M49.5,70a1.5,1.5,0,0,0,0-3h-7A1.5,1.5,0,0,0,41,68.5v11A1.5,1.5,0,0,0,42.5,81h7a1.5,1.5,0,0,0,0-3H44V70Z"/></svg>