<?xml version="1.0" encoding="iso-8859-1"?>
<!-- Generator: Adobe Illustrator 21.0.0, SVG Export Plug-In . SVG Version: 6.00 Build 0)  -->
<svg version="1.1" id="Layer_1" xmlns="http://www.w3.org/2000/svg" xmlns:xlink="http://www.w3.org/1999/xlink" x="0px" y="0px"
	 viewBox="0 0 100.353 100.353" style="enable-background:new 0 0 100.353 100.353;" xml:space="preserve">
<g>
	<path style="fill:#231F20;" d="M49.996,8.726C27.242,8.726,8.73,27.24,8.73,49.997c0,22.761,18.512,41.277,41.266,41.277
		c22.759,0,41.274-18.517,41.274-41.277C91.271,27.24,72.755,8.726,49.996,8.726z M49.996,88.274
		c-21.1,0-38.266-17.171-38.266-38.277c0-21.103,17.166-38.271,38.266-38.271c21.104,0,38.274,17.168,38.274,38.271
		C88.271,71.103,71.101,88.274,49.996,88.274z"/>
	<path style="fill:#231F20;" d="M57.655,28.842h-23.77c-0.828,0-1.5,0.671-1.5,1.5v41.604c0,0.828,0.672,1.5,1.5,1.5H45.77
		c0.828,0,1.5-0.672,1.5-1.5V57.013h10.385c7.767,0,14.086-6.319,14.086-14.086S65.422,28.842,57.655,28.842z M57.655,54.014H45.77
		c-0.828,0-1.5,0.672-1.5,1.5v14.933h-8.885V31.843h22.27c6.113,0,11.086,4.973,11.086,11.086S63.769,54.014,57.655,54.014z"/>
	<path style="fill:#231F20;" d="M57.655,36.733H45.778c-0.828,0-1.5,0.672-1.5,1.5v8.057c0,0.828,0.672,1.5,1.5,1.5h11.877
		c0.828,0,1.5-0.672,1.5-1.5v-8.057C59.155,37.405,58.484,36.733,57.655,36.733z M56.155,44.789h-8.877v-5.057h8.877V44.789z"/>
</g>
</svg>
