<?xml version="1.0" encoding="iso-8859-1"?>
<!-- Generator: Adobe Illustrator 21.0.0, SVG Export Plug-In . SVG Version: 6.00 Build 0)  -->
<svg version="1.1" id="Layer_1" xmlns="http://www.w3.org/2000/svg" xmlns:xlink="http://www.w3.org/1999/xlink" x="0px" y="0px"
	 viewBox="0 0 100.353 100.353" style="enable-background:new 0 0 100.353 100.353;" xml:space="preserve">
<g>
	<path style="fill:#231F20;" d="M40.406,21.769l-1.421,8.303c-0.164,0.925,0.204,1.848,0.958,2.409
		c0.436,0.324,0.951,0.489,1.469,0.489c0.379,0,0.76-0.088,1.114-0.267l7.652-3.873l7.254,3.813
		c0.831,0.442,1.824,0.375,2.592-0.173c0.771-0.551,1.156-1.476,1.002-2.429l-1.428-8.272l6.017-5.867
		c0.679-0.662,0.917-1.632,0.623-2.534c-0.294-0.901-1.062-1.543-1.998-1.675l-8.303-1.208l-3.724-7.542
		c-0.429-0.849-1.291-1.371-2.229-1.366c-0.94,0.006-1.781,0.534-2.196,1.378l-3.714,7.529l-8.313,1.208
		c-0.938,0.133-1.701,0.775-1.994,1.676c-0.293,0.903-0.051,1.876,0.628,2.533L40.406,21.769z M45.286,13.34
		c0.488-0.071,0.911-0.378,1.129-0.82l3.589-7.275l3.593,7.275c0.218,0.443,0.641,0.75,1.129,0.82l8.023,1.167l-5.81,5.665
		c-0.354,0.345-0.515,0.842-0.431,1.329l1.38,7.992l-6.998-3.679c-0.431-0.226-0.943-0.23-1.375-0.011l-7.396,3.744l1.377-8.048
		c0.083-0.486-0.078-0.982-0.431-1.326l-5.805-5.667L45.286,13.34z"/>
	<path style="fill:#231F20;" d="M76.212,42.991H61.236c-0.398,0-0.779,0.158-1.061,0.439c-0.281,0.281-0.439,0.663-0.439,1.061
		l0.006,17.225H40.274L40.268,44.49c0-0.828-0.672-1.5-1.5-1.5h-14.98c-0.829,0-1.5,0.671-1.5,1.5v52.431c0,0.828,0.671,1.5,1.5,1.5
		h14.98c0.828,0,1.5-0.671,1.5-1.5l0.006-17.226h19.468L59.736,96.92c0,0.398,0.158,0.78,0.439,1.061
		c0.282,0.282,0.663,0.44,1.061,0.44h14.976c0.829,0,1.5-0.672,1.5-1.5V44.49C77.712,43.663,77.041,42.991,76.212,42.991z
		 M74.712,95.422H62.737l0.006-17.225c0-0.398-0.158-0.78-0.439-1.061c-0.282-0.281-0.663-0.439-1.061-0.439H38.775
		c-0.828,0-1.5,0.671-1.5,1.5l-0.006,17.226h-11.98V45.992h11.98l0.006,17.226c0,0.828,0.672,1.5,1.5,1.5h22.468
		c0.398,0,0.779-0.158,1.061-0.439c0.281-0.282,0.439-0.663,0.439-1.061l-0.006-17.225h11.975V95.422z"/>
</g>
</svg>
