<?xml version="1.0" encoding="iso-8859-1"?>
<!-- Generator: Adobe Illustrator 21.0.2, SVG Export Plug-In . SVG Version: 6.00 Build 0)  -->
<svg version="1.1" id="Layer_1" xmlns="http://www.w3.org/2000/svg" xmlns:xlink="http://www.w3.org/1999/xlink" x="0px" y="0px"
	 viewBox="0 0 100.75 100.75" style="enable-background:new 0 0 100.75 100.75;" xml:space="preserve">
<path d="M97.716,18.139H40.487c-0.829,0-1.5,0.671-1.5,1.5v14.022H21.799c-0.411,0-0.803,0.168-1.086,0.466L2.032,53.757
	c-0.266,0.279-0.414,0.649-0.414,1.034v17.262c0,0.829,0.671,1.5,1.5,1.5h10.409c0.51,4.112,4.021,7.308,8.272,7.308
	c4.254,0,7.769-3.195,8.279-7.308h10.409H67.74c0.509,4.112,4.013,7.308,8.255,7.308c4.255,0,7.77-3.195,8.281-7.308h13.44
	c0.829,0,1.5-0.671,1.5-1.5V19.638C99.216,18.811,98.544,18.139,97.716,18.139z M21.798,77.861c-2.946,0-5.342-2.395-5.342-5.338
	c0-2.946,2.396-5.342,5.342-5.342c2.95,0,5.35,2.396,5.35,5.342C27.148,75.467,24.748,77.861,21.798,77.861z M21.798,64.181
	c-3.921,0-7.209,2.722-8.098,6.373H4.616V55.391l17.824-18.73h16.545v33.893h-9.083C29.014,66.903,25.722,64.181,21.798,64.181z
	 M75.994,77.861c-2.937,0-5.325-2.395-5.325-5.338c0-2.946,2.389-5.342,5.325-5.342c2.951,0,5.352,2.396,5.352,5.342
	C81.346,75.467,78.945,77.861,75.994,77.861z M96.216,70.554H84.101c-0.89-3.651-4.182-6.373-8.107-6.373
	c-3.912,0-7.194,2.722-8.081,6.373H41.986V21.139h54.229L96.216,70.554L96.216,70.554z"/>
<path d="M59.09,44.912h8.079v8.08c0,0.829,0.671,1.5,1.5,1.5s1.5-0.671,1.5-1.5v-8.08h8.078c0.829,0,1.5-0.671,1.5-1.5
	s-0.671-1.5-1.5-1.5h-8.078v-8.074c0-0.829-0.671-1.5-1.5-1.5s-1.5,0.671-1.5,1.5v8.074H59.09c-0.829,0-1.5,0.671-1.5,1.5
	S58.261,44.912,59.09,44.912z"/>
</svg>
