<?xml version="1.0" encoding="iso-8859-1"?>
<!-- Generator: Adobe Illustrator 21.0.0, SVG Export Plug-In . SVG Version: 6.00 Build 0)  -->
<svg version="1.1" id="Layer_1" xmlns="http://www.w3.org/2000/svg" xmlns:xlink="http://www.w3.org/1999/xlink" x="0px" y="0px"
	 viewBox="0 0 100.353 100.353" style="enable-background:new 0 0 100.353 100.353;" xml:space="preserve">
<g>
	<path style="fill:#231F20;" d="M49.999,67.248c7.798,0,14.143-6.344,14.143-14.142V20.942c0-7.799-6.345-14.144-14.143-14.144
		s-14.143,6.345-14.143,14.144v32.163C35.856,60.904,42.201,67.248,49.999,67.248z M38.856,20.943
		c0-6.145,4.999-11.144,11.143-11.144s11.143,4.999,11.143,11.144v32.163c0,6.144-4.999,11.142-11.143,11.142
		S38.856,59.25,38.856,53.106V20.943z"/>
	<path style="fill:#231F20;" d="M72.083,53.45v-7.221c0-0.829-0.672-1.5-1.5-1.5s-1.5,0.671-1.5,1.5v7.221
		c0,10.523-8.562,19.084-19.084,19.084c-10.521,0-19.081-8.561-19.081-19.084v-7.221c0-0.829-0.672-1.5-1.5-1.5s-1.5,0.671-1.5,1.5
		v7.221c0,11.673,9.103,21.253,20.581,22.027V90.2H30.445c-0.828,0-1.5,0.671-1.5,1.5c0,0.828,0.672,1.5,1.5,1.5h39.106
		c0.828,0,1.5-0.672,1.5-1.5c0-0.829-0.672-1.5-1.5-1.5H51.498V75.477C62.978,74.703,72.083,65.123,72.083,53.45z"/>
</g>
</svg>
