<?xml version="1.0" encoding="iso-8859-1"?>
<!-- Generator: Adobe Illustrator 21.0.0, SVG Export Plug-In . SVG Version: 6.00 Build 0)  -->
<svg version="1.1" id="Layer_1" xmlns="http://www.w3.org/2000/svg" xmlns:xlink="http://www.w3.org/1999/xlink" x="0px" y="0px"
	 viewBox="0 0 100.353 100.353" style="enable-background:new 0 0 100.353 100.353;" xml:space="preserve">
<g>
	<path style="fill:#231F20;" d="M50.004,0C22.432,0,0,22.434,0,50.008c0,27.568,22.432,49.996,50.004,49.996
		c27.568,0,49.996-22.428,49.996-49.996C100,22.433,77.572,0,50.004,0z M50.004,97.091c-25.966,0-47.091-21.122-47.091-47.083
		c0-25.968,21.125-47.095,47.091-47.095c25.962,0,47.084,21.127,47.084,47.095C97.088,75.97,75.966,97.091,50.004,97.091z"/>
	<path style="fill:#231F20;" d="M66.254,28.777c-0.569-0.568-1.49-0.568-2.059,0L50.013,42.951L36.271,29.209
		c-0.569-0.569-1.49-0.569-2.059,0l-6.123,6.119c-0.273,0.273-0.427,0.644-0.427,1.03c0,0.387,0.154,0.757,0.427,1.03l13.745,13.746
		L27.627,65.34c-0.273,0.273-0.427,0.644-0.427,1.03s0.154,0.756,0.427,1.03l6.119,6.119c0.273,0.273,0.643,0.426,1.03,0.426
		s0.757-0.153,1.03-0.426l14.206-14.207l13.742,13.741c0.569,0.569,1.49,0.568,2.059,0l6.119-6.119
		c0.273-0.273,0.427-0.644,0.427-1.03c0-0.387-0.154-0.757-0.427-1.03L58.191,51.133l14.182-14.178
		c0.273-0.273,0.427-0.644,0.427-1.03s-0.154-0.757-0.427-1.03L66.254,28.777z M55.102,50.104c-0.273,0.273-0.427,0.644-0.427,1.03
		s0.154,0.757,0.427,1.03l13.741,13.741l-4.059,4.059L51.042,56.223c-0.546-0.546-1.513-0.546-2.059,0L34.777,70.43l-4.06-4.06
		l14.207-14.206c0.273-0.273,0.427-0.644,0.427-1.03s-0.154-0.757-0.427-1.03L31.179,36.359l4.063-4.061L48.984,46.04
		c0.569,0.569,1.49,0.568,2.059,0l14.182-14.174l4.06,4.059L55.102,50.104z"/>
</g>
</svg>
