<?xml version="1.0" encoding="iso-8859-1"?>
<!-- Generator: Adobe Illustrator 21.1.0, SVG Export Plug-In . SVG Version: 6.00 Build 0)  -->
<svg version="1.1" id="Layer_1" xmlns="http://www.w3.org/2000/svg" xmlns:xlink="http://www.w3.org/1999/xlink" x="0px" y="0px"
	 viewBox="0 0 100.5 100.5" style="enable-background:new 0 0 100.5 100.5;" xml:space="preserve">
<path d="M83.586,80.217c-0.483-0.674-1.419-0.827-2.093-0.347c-6.764,4.844-14.846,7.404-23.372,7.404
	c-18.992,0-34.812-12.96-38.002-29.961h43.53c0.828,0,1.5-0.672,1.5-1.5s-0.672-1.5-1.5-1.5H19.69
	c-0.106-1.092-0.168-2.195-0.168-3.312c0-1.46,0.103-2.897,0.282-4.313h43.845c0.828,0,1.5-0.671,1.5-1.5s-0.672-1.5-1.5-1.5H20.31
	c3.61-16.508,19.192-28.96,37.811-28.96c8.187,0,16.007,2.377,22.614,6.874c0.683,0.466,1.618,0.289,2.084-0.396
	c0.466-0.685,0.288-1.618-0.396-2.084c-7.107-4.837-15.511-7.394-24.302-7.394c-20.29,0-37.224,13.789-40.865,31.96H8.967
	c-0.829,0-1.5,0.671-1.5,1.5s0.671,1.5,1.5,1.5h7.811c-0.165,1.417-0.256,2.855-0.256,4.313c0,1.117,0.062,2.219,0.159,3.312H8.967
	c-0.829,0-1.5,0.672-1.5,1.5s0.671,1.5,1.5,1.5h8.1c3.209,18.664,20.393,32.961,41.055,32.961c9.157,0,17.843-2.754,25.118-7.965
	C83.913,81.827,84.068,80.89,83.586,80.217z"/>
</svg>
