<?xml version="1.0" encoding="iso-8859-1"?>
<!-- Generator: Adobe Illustrator 21.1.0, SVG Export Plug-In . SVG Version: 6.00 Build 0)  -->
<svg version="1.1" id="Layer_1" xmlns="http://www.w3.org/2000/svg" xmlns:xlink="http://www.w3.org/1999/xlink" x="0px" y="0px"
	 viewBox="0 0 100.355 100.352" style="enable-background:new 0 0 100.355 100.352;" xml:space="preserve">
<g>
	<path d="M92.996,33.541c0-0.003-0.001-0.006-0.001-0.01v-4.469c0-3.755-3.056-6.811-6.812-6.811h-73.08
		c-3.757,0-6.813,3.056-6.813,6.811V72.22c0,3.755,3.056,6.811,6.813,6.811h73.08c1.819,0,3.53-0.709,4.817-1.995
		c1.287-1.287,1.996-2.997,1.995-4.815V43.205c0-0.003,0.001-0.006,0.001-0.01V33.541z M89.995,41.695H9.291v-6.654h80.704V41.695z
		 M13.103,25.251h73.08c2.103,0,3.812,1.709,3.812,3.811v2.979H9.29v-2.979C9.29,26.96,11,25.251,13.103,25.251z M88.879,74.913
		c-0.721,0.721-1.678,1.117-2.696,1.117h-73.08c-2.103,0-3.813-1.709-3.813-3.811V44.695h80.705v27.526
		C89.995,73.238,89.599,74.194,88.879,74.913z"/>
	<path d="M19.853,60.84c-2.735,0-4.961,2.226-4.961,4.961s2.226,4.961,4.961,4.961s4.961-2.226,4.961-4.961
		S22.588,60.84,19.853,60.84z M19.853,67.762c-1.081,0-1.961-0.88-1.961-1.961s0.88-1.961,1.961-1.961s1.961,0.88,1.961,1.961
		S20.934,67.762,19.853,67.762z"/>
	<path d="M69.448,64.465H30.231c-0.829,0-1.5,0.672-1.5,1.5s0.671,1.5,1.5,1.5h39.217c0.828,0,1.5-0.672,1.5-1.5
		S70.276,64.465,69.448,64.465z"/>
</g>
</svg>
