<?xml version="1.0" encoding="iso-8859-1"?>
<!-- Generator: Adobe Illustrator 21.0.0, SVG Export Plug-In . SVG Version: 6.00 Build 0)  -->
<svg version="1.1" id="Layer_1" xmlns="http://www.w3.org/2000/svg" xmlns:xlink="http://www.w3.org/1999/xlink" x="0px" y="0px"
	 viewBox="0 0 100.353 100.353" style="enable-background:new 0 0 100.353 100.353;" xml:space="preserve">
<g>
	<path style="fill:#231F20;" d="M39.797,47.246c-1.073,0.706-2.289,1.505-3.632,2.561c-0.16,0.116-3.94,2.88-5.497,5.476
		c-1.563,2.605-2.069,6.865-2.09,7.046c-0.049,0.425,0.086,0.851,0.371,1.17C29.232,63.817,29.64,64,30.068,64h16.47
		c0.829,0,1.5-0.672,1.5-1.5s-0.671-1.5-1.5-1.5H31.834c0.273-1.344,0.735-3.057,1.406-4.175c1.031-1.718,3.734-3.897,4.733-4.626
		c1.288-1.011,2.448-1.773,3.472-2.447c2.739-1.801,4.902-3.224,4.902-6.907c0-4.814-3.916-8.73-8.73-8.73
		c-4.816,0-8.734,3.916-8.734,8.73c0,0.829,0.671,1.5,1.5,1.5s1.5-0.671,1.5-1.5c0-3.16,2.572-5.73,5.734-5.73
		c3.16,0,5.73,2.57,5.73,5.73C43.347,44.823,42.553,45.433,39.797,47.246z"/>
	<path style="fill:#231F20;" d="M62.67,64.152c0.828,0,1.5-0.672,1.5-1.5v-6.043h3.687c0.828,0,1.5-0.672,1.5-1.5
		s-0.672-1.5-1.5-1.5H64.17V35.771c0-0.665-0.438-1.25-1.075-1.438c-0.637-0.189-1.323,0.066-1.685,0.624L48.911,54.295
		c-0.298,0.462-0.32,1.049-0.058,1.531s0.768,0.783,1.317,0.783H61.17v6.043C61.17,63.48,61.842,64.152,62.67,64.152z
		 M52.927,53.609l8.243-12.754v12.754H52.927z"/>
	<path style="fill:#231F20;" d="M92.729,43.98c-0.633-0.534-1.58-0.453-2.113,0.18l-2.033,2.412
		C86.834,25.566,69.19,9.003,47.738,9.003c-22.606,0-40.998,18.39-40.998,40.995c0,22.606,18.392,40.998,40.998,40.998
		c14.48,0,27.604-7.408,35.107-19.816c0.429-0.709,0.202-1.631-0.507-2.06c-0.708-0.43-1.632-0.202-2.06,0.507
		c-6.955,11.502-19.12,18.369-32.541,18.369C26.786,87.996,9.74,70.95,9.74,49.998c0-20.951,17.045-37.995,37.998-37.995
		c19.981,0,36.398,15.504,37.878,35.112l-2.636-2.2c-0.636-0.531-1.581-0.445-2.112,0.19c-0.531,0.636-0.446,1.582,0.19,2.113
		l5.255,4.386c0.28,0.234,0.621,0.349,0.96,0.349c0.427,0,0.852-0.182,1.147-0.533l4.488-5.325
		C93.442,45.46,93.362,44.514,92.729,43.98z"/>
</g>
</svg>
