<svg id="Слой_1" data-name="Слой 1" xmlns="http://www.w3.org/2000/svg" viewBox="0 0 100 100"><title>testМонтажная область 11</title><circle cx="27" cy="72" r="2"/><path d="M96.39,53.43A1.5,1.5,0,0,0,95,52.5H52a1.5,1.5,0,0,0-1.3,2.24l3.85,6.75V77.32a1.5,1.5,0,0,0,2.25,1.3l6.51-3.73,3.41,6.78a1.5,1.5,0,0,0,1.1.81l.24,0a1.5,1.5,0,0,0,1.06-.44l26.95-27A1.5,1.5,0,0,0,96.39,53.43Zm-27.93,25-5.12-10.2,16.55-6.8a1.5,1.5,0,0,0-1.14-2.78l-18,7.42a1.5,1.5,0,0,0-.77,2.06l2,4-4.41,2.53V61.1a1.5,1.5,0,0,0-.2-.74L54.58,55.5h36.8Z"/><path d="M90.38,33.5l-5.44,5.44a1.5,1.5,0,1,0,2.12,2.12l8-8a1.5,1.5,0,0,0,0-2.12l-8-8a1.5,1.5,0,0,0-2.12,2.12l5.44,5.44H44.5V22A1.5,1.5,0,0,0,43,20.5H11A1.5,1.5,0,0,0,9.5,22V78A1.5,1.5,0,0,0,11,79.5H43A1.5,1.5,0,0,0,44.5,78V33.5ZM41.5,23.5v7.06c-9.48.65-17,8.21-17,17.44a1.5,1.5,0,0,0,3,0c0-7.58,6.17-13.8,14-14.44V64.5h-29v-41Zm-29,53v-9h29v9Z"/></svg>