<?xml version="1.0" encoding="iso-8859-1"?>
<!-- Generator: Adobe Illustrator 22.0.1, SVG Export Plug-In . SVG Version: 6.00 Build 0)  -->
<svg version="1.1" id="Layer_1" xmlns="http://www.w3.org/2000/svg" xmlns:xlink="http://www.w3.org/1999/xlink" x="0px" y="0px"
	 viewBox="0 0 100.25 100.25" style="enable-background:new 0 0 100.25 100.25;" xml:space="preserve">
<g>
	<path d="M96.07,36.088c-0.371-0.849-1.358-1.24-2.213-0.865l-26.85,13.22c-5.485,2.401-7.997,8.819-5.596,14.306
		c0.016,0.037,0.315,0.763,0.52,1.165c1.677,3.831-0.521,8.609-4.311,10.269c-0.85,0.372-1.236,1.363-0.865,2.213
		c0.276,0.631,0.893,1.006,1.54,1.006c0.224,0,0.452-0.045,0.673-0.141c5.485-2.402,8.565-8.937,6.146-14.466
		c-0.017-0.038-0.426-0.934-0.625-1.391c-1.656-3.79,0.076-8.223,3.866-9.881l25.142-12.474c0.278,1.418,0.144,2.884-0.401,4.255
		c-0.757,1.901-2.22,3.405-4.12,4.236l-10.783,4.718c-0.85,0.372-1.236,1.362-0.865,2.212c0.371,0.85,1.358,1.24,2.213,0.866
		l9.725-4.256c0.712,3.401-1.028,6.96-4.335,8.408L74.456,64.07c-0.85,0.372-1.236,1.362-0.865,2.213
		c0.276,0.629,0.893,1.006,1.54,1.006c0.224,0,0.452-0.045,0.673-0.141l8.471-3.706c0.69,3.416-1.035,6.965-4.321,8.402
		l-6.162,2.696c-0.85,0.372-1.236,1.363-0.865,2.213c0.276,0.629,0.893,1.006,1.54,1.006c0.224,0,0.452-0.045,0.673-0.141
		l6.162-2.696c5.008-2.192,7.511-7.757,6.071-12.917c4.339-2.515,6.39-7.722,4.945-12.516c1.744-1.231,3.098-2.929,3.9-4.942
		C97.31,41.804,97.257,38.802,96.07,36.088z"/>
	<path d="M30.459,51.521c3.789,1.659,5.524,6.091,3.866,9.881c-0.199,0.457-0.555,1.286-0.571,1.323
		c-2.419,5.529,0.608,12.133,6.094,14.534c0.22,0.096,0.448,0.141,0.673,0.141c0.647,0,1.263-0.375,1.54-1.006
		c0.368-0.849-0.02-1.84-0.87-2.212c-3.79-1.659-5.894-6.524-4.218-10.355c0.2-0.459,0.41-1.042,0.426-1.078
		c2.401-5.487-0.11-11.904-5.596-14.306L4.951,35.224c-0.408-0.178-0.87-0.189-1.285-0.026c-0.415,0.162-0.748,0.483-0.927,0.891
		c-1.187,2.712-1.239,5.716-0.147,8.457c0.802,2.014,2.156,3.711,3.9,4.942c-1.445,4.794,0.606,10.001,4.945,12.515
		c-1.44,5.16,1.063,10.724,6.072,12.917l6.162,2.696c0.218,0.096,0.447,0.141,0.672,0.141c0.647,0,1.264-0.376,1.54-1.006
		c0.372-0.85-0.016-1.841-0.866-2.213l-6.161-2.696c-3.286-1.439-5.012-4.987-4.321-8.402l8.47,3.706
		c0.218,0.096,0.447,0.141,0.672,0.141c0.647,0,1.264-0.376,1.54-1.006c0.372-0.85-0.016-1.841-0.866-2.213l-10.472-4.583
		c-3.306-1.448-5.046-5.007-4.335-8.408l9.724,4.256c0.851,0.373,1.841-0.017,2.213-0.865c0.372-0.85-0.016-1.841-0.865-2.213
		L9.835,47.539c-1.899-0.831-3.362-2.335-4.12-4.237c-0.545-1.371-0.679-2.837-0.401-4.254L30.459,51.521z"/>
	<path d="M49.3,75.719c-3.033,0-5.5,2.468-5.5,5.5s2.467,5.5,5.5,5.5c3.032,0,5.5-2.468,5.5-5.5S52.332,75.719,49.3,75.719z
		 M49.3,83.719c-1.378,0-2.5-1.121-2.5-2.5c0-1.379,1.122-2.5,2.5-2.5c1.379,0,2.5,1.121,2.5,2.5
		C51.8,82.598,50.679,83.719,49.3,83.719z"/>
	<path d="M66.948,93.62l-7.699-6.182c-0.648-0.518-1.591-0.416-2.109,0.23s-0.415,1.591,0.23,2.109l7.699,6.182
		c0.277,0.222,0.609,0.33,0.938,0.33c0.439,0,0.874-0.191,1.171-0.561C67.697,95.083,67.594,94.138,66.948,93.62z"/>
	<path d="M39.861,87.438l-7.699,6.182c-0.646,0.519-0.75,1.463-0.23,2.109c0.296,0.369,0.731,0.561,1.17,0.561
		c0.33,0,0.661-0.108,0.938-0.33l7.699-6.182c0.646-0.519,0.75-1.463,0.23-2.109C41.452,87.023,40.507,86.921,39.861,87.438z"/>
	<path d="M49.5,70.25c0.829,0,1.5-0.672,1.5-1.5v-30c0-0.829-0.671-1.5-1.5-1.5s-1.5,0.671-1.5,1.5v30
		C48,69.578,48.671,70.25,49.5,70.25z"/>
</g>
</svg>
