<?xml version="1.0" encoding="iso-8859-1"?>
<!-- Generator: Adobe Illustrator 22.0.1, SVG Export Plug-In . SVG Version: 6.00 Build 0)  -->
<svg version="1.1" id="Layer_1" xmlns="http://www.w3.org/2000/svg" xmlns:xlink="http://www.w3.org/1999/xlink" x="0px" y="0px"
	 viewBox="0 0 100.25 100.25" style="enable-background:new 0 0 100.25 100.25;" xml:space="preserve">
<g>
	<path d="M79.311,38.811c0.18-0.291,0.243-0.619,0.212-0.935c0.004-0.042,0.013-0.082,0.013-0.125
		c0-16.44-13.376-29.816-29.816-29.816S19.903,21.31,19.903,37.75c0,0.042,0.009,0.081,0.012,0.121
		c-0.031,0.309,0.028,0.63,0.199,0.917l24.839,41.729c0.013,0.022,0.033,0.038,0.047,0.06v6.173c0,0.828,0.671,1.5,1.5,1.5h6
		c0.828,0,1.5-0.672,1.5-1.5v-7c0-0.016-0.004-0.03-0.005-0.046L79.311,38.811z M49.719,10.934
		c14.283,0,25.994,11.225,26.775,25.316h-53.55C23.726,22.159,35.436,10.934,49.719,10.934z M23.88,39.25h9.541l7.435,20.791
		c0.219,0.613,0.797,0.995,1.413,0.995c0.167,0,0.338-0.028,0.505-0.088c0.78-0.278,1.187-1.137,0.908-1.917L36.607,39.25h11.034
		L48,69.767c0.01,0.822,0.679,1.482,1.5,1.482c0.006,0,0.012,0,0.018,0c0.829-0.01,1.492-0.689,1.482-1.518L50.642,39.25h11.54
		l-7.41,19.759c-0.291,0.775,0.102,1.64,0.878,1.931c0.173,0.065,0.352,0.096,0.526,0.096c0.607,0,1.179-0.371,1.404-0.974
		l7.805-20.812H75.51l-24.143,39h-4.272L23.88,39.25z M51,85.25h-3v-4h3V85.25z"/>
	<path d="M91.5,55.25h-11c-0.828,0-1.5,0.672-1.5,1.5s0.672,1.5,1.5,1.5h11c0.828,0,1.5-0.672,1.5-1.5S92.328,55.25,91.5,55.25z"/>
	<path d="M82.5,62.25h-12c-0.828,0-1.5,0.672-1.5,1.5s0.672,1.5,1.5,1.5h12c0.828,0,1.5-0.672,1.5-1.5S83.328,62.25,82.5,62.25z"/>
	<path d="M19,56.75c0-0.828-0.671-1.5-1.5-1.5h-11c-0.829,0-1.5,0.672-1.5,1.5s0.671,1.5,1.5,1.5h11
		C18.329,58.25,19,57.578,19,56.75z"/>
	<path d="M27.5,62.25h-11c-0.829,0-1.5,0.672-1.5,1.5s0.671,1.5,1.5,1.5h11c0.829,0,1.5-0.672,1.5-1.5S28.329,62.25,27.5,62.25z"/>
</g>
</svg>
