<svg id="Layer_1" data-name="Layer 1" xmlns="http://www.w3.org/2000/svg" viewBox="0 0 101 101"><title>Artboard 2 copy 4</title><path d="M57,89a54.19,54.19,0,0,1-7.54.53,1.5,1.5,0,0,0,0,3,56.76,56.76,0,0,0,8-.57A1.5,1.5,0,1,0,57,89Z"/><path d="M70.5,84.26l-1.08.68a16.87,16.87,0,0,1-5.15,2.44,1.5,1.5,0,1,0,.91,2.86A19.74,19.74,0,0,0,71,87.47l1.06-.67a1.5,1.5,0,1,0-1.59-2.54Z"/><path d="M81.09,74.92a35.68,35.68,0,0,1-5.41,5.16,1.5,1.5,0,1,0,1.85,2.36,38.84,38.84,0,0,0,5.82-5.56,1.5,1.5,0,1,0-2.27-2Z"/><path d="M89.29,62.28a1.5,1.5,0,0,0-1.91.93c-.23.68-1.26,2.61-2,4-.53,1-1,1.85-1.21,2.34a1.5,1.5,0,1,0,2.72,1.25c.19-.42.65-1.27,1.13-2.19a42.79,42.79,0,0,0,2.2-4.45A1.5,1.5,0,0,0,89.29,62.28Z"/><path d="M91,46.81a1.5,1.5,0,0,0-1.5,1.5,73.41,73.41,0,0,1-.45,8.1,1.5,1.5,0,0,0,1.26,1.71l.23,0A1.5,1.5,0,0,0,92,56.87a76.7,76.7,0,0,0,.48-8.55A1.5,1.5,0,0,0,91,46.81Z"/><path d="M90.62,40.74l0,0a1.5,1.5,0,0,0,.21-.28v0a1.5,1.5,0,0,0,.12-.3l0-.1a1.48,1.48,0,0,0,0-.27s0-.06,0-.09a1.49,1.49,0,0,0,0-.35,42,42,0,1,0-50.62,52h0a1.51,1.51,0,0,0,.36,0h0a1.49,1.49,0,0,0,.43-.07l.08,0a1.49,1.49,0,0,0,.37-.2l.06-.05.12-.1Zm-49,46.06A45.38,45.38,0,0,1,41.05,79a39,39,0,0,1,39-39,34,34,0,0,1,6.54.61ZM11.5,50.5A39,39,0,0,1,87.33,37.65,36.86,36.86,0,0,0,80.05,37a42,42,0,0,0-42,42,46.72,46.72,0,0,0,.64,8.71A38.91,38.91,0,0,1,11.5,50.5Z"/></svg>