<svg id="Layer_1" data-name="Layer 1" xmlns="http://www.w3.org/2000/svg" viewBox="0 0 101 101"><title>Artboard 2 copy 11</title><path d="M85.5,73H81V14.5A1.5,1.5,0,0,0,79.5,13H36V10.5a1.5,1.5,0,0,0-3,0V13H20.5A1.5,1.5,0,0,0,19,14.5V29H15.5a1.5,1.5,0,0,0,0,3H19V87.5A1.5,1.5,0,0,0,20.5,89H65v5.5a1.5,1.5,0,0,0,3,0V89H79.5A1.5,1.5,0,0,0,81,87.5V76h4.5a1.5,1.5,0,0,0,0-3ZM22,16H33V29H22Zm0,70V32H34.5A1.5,1.5,0,0,0,36,30.5V16H78V73H66.5A1.5,1.5,0,0,0,65,74.5V86Zm56,0H68V76H78Z"/><path d="M73,27.5A5.5,5.5,0,1,0,67.5,33,5.51,5.51,0,0,0,73,27.5Zm-8,0A2.5,2.5,0,1,1,67.5,30,2.5,2.5,0,0,1,65,27.5Z"/><path d="M31.5,70A5.5,5.5,0,1,0,37,75.5,5.51,5.51,0,0,0,31.5,70Zm0,8A2.5,2.5,0,1,1,34,75.5,2.5,2.5,0,0,1,31.5,78Z"/></svg>