<?xml version="1.0" encoding="iso-8859-1"?>
<!-- Generator: Adobe Illustrator 21.0.0, SVG Export Plug-In . SVG Version: 6.00 Build 0)  -->
<svg version="1.1" id="Layer_1" xmlns="http://www.w3.org/2000/svg" xmlns:xlink="http://www.w3.org/1999/xlink" x="0px" y="0px"
	 viewBox="0 0 100.353 100.353" style="enable-background:new 0 0 100.353 100.353;" xml:space="preserve">
<path style="fill:#231F20;" d="M98.544,48.543c-25.998,0-47.15-20.904-47.15-46.599c0-0.804-0.652-1.456-1.456-1.456
	s-1.456,0.652-1.456,1.456c0,25.698-21.096,46.605-47.025,46.605c-0.804,0-1.456,0.652-1.456,1.456c0,0.805,0.652,1.457,1.456,1.457
	c25.929,0,47.025,20.901,47.025,46.592c0,0.804,0.652,1.457,1.456,1.457s1.456-0.652,1.456-1.457
	c0-25.694,21.152-46.599,47.15-46.599c0.804,0,1.456-0.652,1.456-1.456C100,49.195,99.348,48.543,98.544,48.543z M49.94,86.169
	c-4.428-17.748-18.541-31.752-36.436-36.163c17.895-4.412,32.008-18.421,36.436-36.174C54.379,31.582,68.528,45.588,86.467,50
	C68.528,54.411,54.378,68.419,49.94,86.169z"/>
</svg>
