<?xml version="1.0" encoding="iso-8859-1"?>
<!-- Generator: Adobe Illustrator 21.0.0, SVG Export Plug-In . SVG Version: 6.00 Build 0)  -->
<svg version="1.1" id="Layer_1" xmlns="http://www.w3.org/2000/svg" xmlns:xlink="http://www.w3.org/1999/xlink" x="0px" y="0px"
	 viewBox="0 0 100.355 100.352" style="enable-background:new 0 0 100.355 100.352;" xml:space="preserve">
<g>
	<path d="M41.346,48.366c-7.64,0-13.855,6.214-13.855,13.852S33.706,76.07,41.346,76.07c7.636,0,13.849-6.214,13.849-13.852
		C55.194,54.58,48.982,48.366,41.346,48.366z M41.346,73.07c-5.986,0-10.855-4.868-10.855-10.852c0-5.983,4.87-10.852,10.855-10.852
		c5.982,0,10.849,4.868,10.849,10.852C52.194,68.202,47.328,73.07,41.346,73.07z"/>
	<path d="M12.21,48.366c-0.829,0-1.5,0.671-1.5,1.5V74.57c0,0.829,0.671,1.5,1.5,1.5s1.5-0.671,1.5-1.5V49.866
		C13.71,49.038,13.039,48.366,12.21,48.366z"/>
	<path d="M70.008,48.366c-0.829,0-1.5,0.671-1.5,1.5V74.57c0,0.829,0.671,1.5,1.5,1.5s1.5-0.671,1.5-1.5V49.866
		C71.508,49.038,70.836,48.366,70.008,48.366z"/>
	<path d="M94.459,22.328h-72.85c-0.829,0-1.5,0.671-1.5,1.5v7.348H13.45c-0.829,0-1.5,0.671-1.5,1.5v8.172H4.586
		c-0.829,0-1.5,0.671-1.5,1.5v39.738c0,0.829,0.671,1.5,1.5,1.5h72.85c0.829,0,1.5-0.671,1.5-1.5v-8.172H86.3
		c0.829,0,1.5-0.671,1.5-1.5v-7.352h6.659c0.829,0,1.5-0.671,1.5-1.5V23.827C95.959,23,95.287,22.328,94.459,22.328z M75.936,80.587
		H6.086V43.849h69.85V80.587z M78.936,70.915V42.349c0-0.829-0.671-1.5-1.5-1.5H14.95v-6.672H84.8v36.738H78.936z M92.959,62.063
		H87.8V32.676c0-0.829-0.671-1.5-1.5-1.5H23.109v-5.848h69.85L92.959,62.063L92.959,62.063z"/>
</g>
</svg>
