<?xml version="1.0" encoding="iso-8859-1"?>
<!-- Generator: Adobe Illustrator 21.0.0, SVG Export Plug-In . SVG Version: 6.00 Build 0)  -->
<svg version="1.1" id="Layer_1" xmlns="http://www.w3.org/2000/svg" xmlns:xlink="http://www.w3.org/1999/xlink" x="0px" y="0px"
	 viewBox="0 0 100.353 100.353" style="enable-background:new 0 0 100.353 100.353;" xml:space="preserve">
<g>
	<path d="M87.923,20.498c-0.363-0.285-0.835-0.388-1.284-0.276l-36.406,8.941L13.82,20.222c-0.448-0.11-0.92-0.009-1.284,0.276
		c-0.362,0.284-0.574,0.719-0.574,1.18v56.893c0,0.691,0.472,1.292,1.143,1.457l36.771,9.021c0.118,0.029,0.238,0.043,0.357,0.043
		s0.239-0.014,0.357-0.043l36.764-9.022c0.671-0.165,1.143-0.766,1.143-1.457V21.677C88.497,21.217,88.285,20.782,87.923,20.498z
		 M14.962,23.591l33.771,8.292V85.68l-33.771-8.286V23.591z M85.497,77.394L51.733,85.68V31.883l33.764-8.292V77.394z"/>
	<path d="M17.359,15.077l32.517,7.975c0.118,0.029,0.236,0.042,0.351,0.043c0.002,0,0.003,0.001,0.005,0.001h0.001h0.001
		c0.002,0,0.003-0.001,0.005-0.001c0.116-0.001,0.234-0.014,0.351-0.043l32.508-7.975c0.805-0.198,1.297-1.01,1.1-1.814
		s-1.01-1.296-1.814-1.1L50.233,20.05l-32.16-7.887c-0.806-0.196-1.617,0.295-1.814,1.1S16.554,14.879,17.359,15.077z"/>
</g>
</svg>
