<?xml version="1.0" encoding="iso-8859-1"?>
<!-- Generator: Adobe Illustrator 21.0.0, SVG Export Plug-In . SVG Version: 6.00 Build 0)  -->
<svg version="1.1" id="Layer_1" xmlns="http://www.w3.org/2000/svg" xmlns:xlink="http://www.w3.org/1999/xlink" x="0px" y="0px"
	 viewBox="0 0 100.353 100.353" style="enable-background:new 0 0 100.353 100.353;" xml:space="preserve">
<g>
	<path style="fill:#231F20;" d="M67.914,64.072c0.129-0.506,0.248-1.019,0.359-1.538c5.44-0.265,9.788-4.764,9.788-10.27v-4.76
		c0-5.163-3.827-9.438-8.792-10.168v-4.931c0-0.829-0.672-1.5-1.5-1.5H30.233c-0.829,0-1.5,0.671-1.5,1.5v20.566
		c0,3.896,0.475,7.652,1.355,11.102c-9.145,2.696-14.558,7.219-14.558,12.26c0,8.281,14.703,14.769,33.472,14.769
		c18.768,0,33.469-6.487,33.469-14.769C82.471,71.295,77.058,66.772,67.914,64.072z M75.062,47.504v4.76
		c0,3.668-2.722,6.704-6.249,7.212c0.295-2.104,0.457-4.281,0.457-6.505v-12.6C72.573,41.064,75.062,43.998,75.062,47.504z
		 M31.733,33.905H66.27v19.066c0,4.027-0.563,7.939-1.582,11.457c-0.046,0.091-0.083,0.188-0.11,0.291
		c-0.014,0.054-0.017,0.108-0.025,0.162c-1.217,4.004-3.033,7.471-5.312,9.952H38.76c-2.291-2.495-4.113-5.985-5.33-10.016
		c-0.006-0.031-0.007-0.063-0.015-0.094c-0.017-0.064-0.043-0.122-0.068-0.182c-1.04-3.547-1.615-7.5-1.615-11.57V33.905z
		 M49.002,88.102c-18.228,0-30.472-6.085-30.472-11.769c0-3.589,4.715-7.126,12.404-9.386c1.429,4.2,3.51,7.804,6.118,10.44
		c0.282,0.285,0.666,0.445,1.066,0.445h21.763c0.4,0,0.784-0.16,1.066-0.444c2.609-2.636,4.691-6.241,6.121-10.442
		c7.688,2.264,12.403,5.801,12.403,9.386C79.471,82.017,67.228,88.102,49.002,88.102z"/>
	<path style="fill:#231F20;" d="M36.349,18.161c1.282,0.688,2.023,1.467,2.023,3.358c0,2.27-1.519,3.13-1.984,3.339
		c-0.755,0.34-1.092,1.228-0.752,1.983c0.25,0.556,0.796,0.885,1.369,0.885c0.206,0,0.415-0.043,0.615-0.133
		c1.814-0.817,3.752-2.841,3.752-6.075c0-3.67-2.093-5.202-3.667-6.035c-0.035-0.019-0.071-0.036-0.107-0.051
		c-0.46-0.199-1.962-1.027-1.962-3.328c0-2.318,1.494-3.131,1.952-3.325c0.763-0.323,1.12-1.203,0.797-1.966
		s-1.202-1.119-1.966-0.797c-1.829,0.773-3.783,2.779-3.783,6.087C32.636,15.352,34.542,17.354,36.349,18.161z"/>
	<path style="fill:#231F20;" d="M47.702,18.16c1.283,0.689,2.024,1.47,2.024,3.359c0,2.27-1.518,3.13-1.983,3.339
		c-0.755,0.34-1.092,1.228-0.752,1.983c0.25,0.556,0.796,0.885,1.369,0.885c0.206,0,0.415-0.043,0.615-0.133
		c1.813-0.816,3.752-2.841,3.752-6.075c0-3.666-2.092-5.199-3.665-6.034c-0.036-0.019-0.072-0.036-0.108-0.052
		c-0.461-0.199-1.967-1.028-1.967-3.328c0-2.317,1.498-3.13,1.957-3.325c0.763-0.323,1.12-1.203,0.797-1.966
		c-0.323-0.763-1.202-1.119-1.966-0.797c-1.831,0.774-3.788,2.781-3.788,6.087C43.986,15.35,45.894,17.353,47.702,18.16z"/>
	<path style="fill:#231F20;" d="M59.054,18.16c1.285,0.689,2.027,1.469,2.027,3.359c0,2.268-1.521,3.129-1.988,3.339
		c-0.755,0.34-1.092,1.229-0.751,1.984c0.25,0.555,0.796,0.884,1.368,0.884c0.206,0,0.415-0.043,0.615-0.133
		c1.815-0.818,3.756-2.843,3.756-6.075c0-3.668-2.095-5.201-3.671-6.035c-0.034-0.019-0.069-0.035-0.105-0.051
		c-0.461-0.2-1.964-1.029-1.964-3.329c0-2.318,1.494-3.131,1.952-3.325c0.764-0.323,1.12-1.203,0.798-1.966
		c-0.322-0.762-1.203-1.121-1.966-0.797c-1.83,0.774-3.784,2.779-3.784,6.087C55.341,15.349,57.247,17.353,59.054,18.16z"/>
</g>
</svg>
