<svg id="Layer_1" data-name="Layer 1" xmlns="http://www.w3.org/2000/svg" viewBox="0 0 101 101"><title>Artboard 2 copy 9</title><path d="M83.5,15H51.15l-.21,0-.21,0H18.5A1.5,1.5,0,0,0,17,16.5v64A1.5,1.5,0,0,0,18.5,82h4.59a1.48,1.48,0,0,0-.09.5v4a1.5,1.5,0,0,0,3,0v-4a1.48,1.48,0,0,0-.09-.5H76.09a1.48,1.48,0,0,0-.09.5v4a1.5,1.5,0,0,0,3,0v-4a1.48,1.48,0,0,0-.09-.5H83.5A1.5,1.5,0,0,0,85,80.5v-64A1.5,1.5,0,0,0,83.5,15ZM20,68.5V64h5.24l2.46,9H20Zm8-5.83s0-.07,0-.1c1.43-1.69,5.31-6.4,9.57-12.57H65c4.46,6.19,8.59,11,10,12.63L73.84,67H29.16ZM53,47V37h3.68c1.76,3.19,3.85,6.55,6.21,10ZM47,34a62.81,62.81,0,0,0,4-10.26A60.4,60.4,0,0,0,55.1,34ZM45.5,37H50V47H39.57C41.62,43.88,43.66,40.5,45.5,37ZM77.76,64H82v9H75.31ZM82,18V61H77.6A165.26,165.26,0,0,1,67,47.63,123.6,123.6,0,0,1,59.17,35.3C55.55,28.69,53.41,22.88,52.8,18ZM49.09,18C47,35.2,27.57,58.44,25.39,61H20V18ZM20,79V76h9.65a1.5,1.5,0,0,0,1.45-1.89L30,70H73L71.9,74.11A1.5,1.5,0,0,0,73.35,76H82v3Z"/></svg>