<svg id="Layer_1" data-name="Layer 1" xmlns="http://www.w3.org/2000/svg" viewBox="0 0 101 101"><title>log_Artboard 2 copy 19</title><path d="M70.35,9H30.65A9.66,9.66,0,0,0,21,18.65v63.7A9.66,9.66,0,0,0,30.65,92h39.7A9.66,9.66,0,0,0,80,82.35V18.65A9.66,9.66,0,0,0,70.35,9ZM77,82.35A6.66,6.66,0,0,1,70.35,89H30.65A6.66,6.66,0,0,1,24,82.35V18.65A6.66,6.66,0,0,1,30.65,12h39.7A6.66,6.66,0,0,1,77,18.65Z"/><path d="M62.5,18h-25a1.5,1.5,0,0,0,0,3h25a1.5,1.5,0,0,0,0-3Z"/><path d="M50,74h0a5,5,0,0,0,0,10h0a5,5,0,0,0,0-10Zm0,7h0a2,2,0,0,1,0-4h0a2,2,0,0,1,0,4Z"/></svg>