<?xml version="1.0" encoding="iso-8859-1"?>
<!-- Generator: Adobe Illustrator 21.1.0, SVG Export Plug-In . SVG Version: 6.00 Build 0)  -->
<svg version="1.1" id="Layer_1" xmlns="http://www.w3.org/2000/svg" xmlns:xlink="http://www.w3.org/1999/xlink" x="0px" y="0px"
	 viewBox="0 0 100.75 100.75" style="enable-background:new 0 0 100.75 100.75;" xml:space="preserve">
<g>
	<path d="M15.974,33.909c-0.829,0-1.5,0.671-1.5,1.5v29.183c0,0.829,0.671,1.5,1.5,1.5s1.5-0.671,1.5-1.5V35.409
		C17.474,34.58,16.803,33.909,15.974,33.909z"/>
	<path d="M84.255,66.091c0.829,0,1.5-0.671,1.5-1.5V35.409c0-0.829-0.671-1.5-1.5-1.5s-1.5,0.671-1.5,1.5v29.183
		C82.755,65.42,83.427,66.091,84.255,66.091z"/>
	<path d="M45.394,50.902l4.822-15.429c0.097-0.309,0.091-0.641-0.017-0.946l-3-8.5c-0.212-0.6-0.779-1.001-1.415-1.001H6.967
		c-0.829,0-1.5,0.671-1.5,1.5v46.948c0,0.398,0.158,0.779,0.439,1.061c0.281,0.281,0.663,0.439,1.061,0.439l0,0l47.817-0.014
		c0.518,0,0.999-0.267,1.272-0.707s0.302-0.989,0.074-1.454L45.394,50.902z M42.437,51.686l5.472,11.161
		C41.813,61.674,37.3,56.287,37.3,50.001c0-5.817,3.743-10.784,9.13-12.473l-4.078,13.051
		C42.237,50.945,42.268,51.341,42.437,51.686z M8.467,71.974V28.026h36.256l2.213,6.27C39.564,35.901,34.301,42.354,34.301,50
		c0,8.036,5.998,14.895,14.009,15.96l1.18,0.11l2.888,5.89L8.467,71.974z"/>
	<path d="M93.033,25.026H54.39c-0.457,0-0.888,0.208-1.173,0.564c-0.284,0.357-0.391,0.824-0.29,1.269l2.302,10.097l-4.337,13.362
		c-0.12,0.37-0.092,0.772,0.079,1.122l11.095,22.693c0.252,0.515,0.775,0.841,1.348,0.841h29.619c0.828,0,1.5-0.671,1.5-1.5V26.526
		C94.533,25.697,93.861,25.026,93.033,25.026z M57.68,39.124c3.616,2.414,5.803,6.441,5.803,10.876
		c0,4.006-1.812,7.716-4.893,10.193l-4.658-9.526L57.68,39.124z M91.533,71.974H64.351l-4.41-9.018
		c4.115-3.032,6.542-7.802,6.542-12.955c0-5.961-3.217-11.318-8.427-14.141l-1.786-7.834h35.263
		C91.533,28.026,91.533,71.974,91.533,71.974z"/>
</g>
</svg>
