<svg id="Слой_1" data-name="Слой 1" xmlns="http://www.w3.org/2000/svg" viewBox="0 0 100 100"><title>testМонтажная область 6</title><path d="M20.24,49.27l29,17a1.5,1.5,0,0,0,1.52,0l29-17a1.5,1.5,0,0,0,.5-2.11l-29-45a1.56,1.56,0,0,0-2.52,0l-29,45a1.5,1.5,0,0,0,.5,2.11ZM51.5,62.38V42l18.17,5.35a1.5,1.5,0,1,0,.85-2.88l-19-5.6V8.09L76.89,47.47Zm-3-54.29V62.38L23.11,47.47Z"/><path d="M80.14,58a1.5,1.5,0,0,0-1.87-.33L50.09,73.51h-.18L21.73,57.69a1.5,1.5,0,0,0-1.92,2.23l29,37,.05.05.14.15.09.08.17.11.1.05.22.08.09,0a1.43,1.43,0,0,0,.65,0l.09,0,.22-.08.1-.05.17-.11.09-.08.14-.15.05-.05,29-37A1.5,1.5,0,0,0,80.14,58ZM48.5,76.16v15.5L26.81,64Zm3,15.5V76.16L73.19,64Z"/><path d="M44,41.16A1.5,1.5,0,0,0,42.16,40l-13,3A1.5,1.5,0,1,0,29.84,46l13-3A1.5,1.5,0,0,0,44,41.16Z"/></svg>