<?xml version="1.0" encoding="iso-8859-1"?>
<!-- Generator: Adobe Illustrator 21.0.2, SVG Export Plug-In . SVG Version: 6.00 Build 0)  -->
<svg version="1.1" id="Layer_1" xmlns="http://www.w3.org/2000/svg" xmlns:xlink="http://www.w3.org/1999/xlink" x="0px" y="0px"
	 viewBox="0 0 100.75 100.75" style="enable-background:new 0 0 100.75 100.75;" xml:space="preserve">
<g>
	<path d="M78.247,3.778c-0.282-0.382-0.73-0.608-1.206-0.608h-7.699c-0.658,0-1.24,0.43-1.434,1.059L44.221,81.245H18.078
		c-2.016,0-3.82,1.277-4.49,3.177l-2.644,7.497c-0.498,1.227-0.401,2.419,0.271,3.358c0.748,1.047,2.139,1.649,3.698,1.649
		c0.117,0,0.235-0.003,0.354-0.01h8.687c0.015,0,0.031,0.008,0.046,0.008c0.019,0,0.036-0.008,0.054-0.008H43.37
		c2.524,0,6.749,0,8.46-5.108L78.473,5.11C78.614,4.655,78.53,4.16,78.247,3.778z M15.183,93.918
		c-0.827,0.051-1.393-0.198-1.528-0.386c-0.06-0.084,0-0.314,0.094-0.551l2.669-7.561c0.247-0.703,0.915-1.175,1.661-1.175h8.473
		l-3.591,9.673L15.183,93.918z M48.976,90.89c-0.945,2.821-2.748,3.025-5.604,3.025l-17.211,0.001l3.591-9.672H45.33
		c0.658,0,1.24-0.43,1.434-1.059L70.451,6.169h4.561L48.976,90.89z"/>
	<path d="M77.04,81.501c-6.546,0-11.674,3.385-11.674,7.707s5.128,7.707,11.674,7.707c6.547,0,11.675-3.385,11.675-7.707
		S83.587,81.501,77.04,81.501z M77.04,93.915c-5.111,0-8.674-2.48-8.674-4.707s3.562-4.707,8.674-4.707s8.675,2.48,8.675,4.707
		S82.153,93.915,77.04,93.915z"/>
</g>
</svg>
