<?xml version="1.0" encoding="iso-8859-1"?>
<!-- Generator: Adobe Illustrator 21.1.0, SVG Export Plug-In . SVG Version: 6.00 Build 0)  -->
<svg version="1.1" id="Layer_1" xmlns="http://www.w3.org/2000/svg" xmlns:xlink="http://www.w3.org/1999/xlink" x="0px" y="0px"
	 viewBox="0 0 100.176 100.178" style="enable-background:new 0 0 100.176 100.178;" xml:space="preserve">
<g>
	<path d="M65.481,55.325c-0.213-0.163-0.47-0.267-0.751-0.297c-4.178-1.591-8.703-2.47-13.432-2.47
		c-4.728,0-9.253,0.879-13.43,2.469c-0.286,0.029-0.547,0.135-0.763,0.301c-13.866,5.629-23.673,19.236-23.673,35.1
		c0,0.828,0.671,1.5,1.5,1.5h72.733c0.828,0,1.5-0.672,1.5-1.5C89.165,74.561,79.352,60.951,65.481,55.325z M63.02,57.586
		c-0.545,5.992-5.591,10.704-11.722,10.704c-6.133,0-11.181-4.711-11.727-10.702c3.666-1.313,7.614-2.03,11.727-2.03
		C55.408,55.558,59.355,56.274,63.02,57.586z M16.464,88.928c0.569-13.38,8.714-24.829,20.243-30.164
		c1.09,7.081,7.208,12.526,14.591,12.526c7.381,0,13.497-5.447,14.587-12.529c11.532,5.334,19.68,16.784,20.248,30.166H16.464z"/>
	<path d="M50.663,48.443c11.997,0,21.757-9.76,21.757-21.757c0-0.283-0.011-0.564-0.021-0.844c0.011-0.073,0.022-0.146,0.022-0.223
		c0-0.132-0.022-0.258-0.054-0.38c-0.227-3.442-1.258-6.665-2.906-9.488c-0.044-0.104-0.102-0.199-0.167-0.29
		C65.48,9.154,58.556,4.928,50.663,4.928c-7.9,0-14.828,4.233-18.64,10.549c-0.033,0.048-0.059,0.1-0.087,0.151
		c-1.693,2.856-2.749,6.129-2.978,9.625c-0.03,0.117-0.05,0.238-0.05,0.365c0,0.067,0.011,0.131,0.02,0.195
		c-0.011,0.289-0.022,0.579-0.022,0.871C28.906,38.682,38.666,48.443,50.663,48.443z M34.134,17.834h33.059
		c1.032,1.919,1.722,4.041,2.031,6.285H32.103C32.412,21.875,33.102,19.752,34.134,17.834z M50.663,45.443
		c-10.197,0-18.502-8.183-18.735-18.324h37.47C69.165,37.26,60.86,45.443,50.663,45.443z M50.663,7.928
		c5.85,0,11.08,2.695,14.523,6.905H36.14C39.583,10.623,44.813,7.928,50.663,7.928z"/>
</g>
</svg>
