<?xml version="1.0" encoding="iso-8859-1"?>
<!-- Generator: Adobe Illustrator 21.1.0, SVG Export Plug-In . SVG Version: 6.00 Build 0)  -->
<svg version="1.1" id="Layer_1" xmlns="http://www.w3.org/2000/svg" xmlns:xlink="http://www.w3.org/1999/xlink" x="0px" y="0px"
	 viewBox="0 0 100.75 100.749" style="enable-background:new 0 0 100.75 100.749;" xml:space="preserve">
<g>
	<path d="M76.651,42.444c2.435-3.414,3.715-7.242,3.715-11.143c0-12.648-13.173-22.938-29.365-22.938
		c-16.193,0-29.367,10.29-29.367,22.938c0,3.901,1.28,7.729,3.716,11.143c-5.262,6.137-8.145,13.882-8.145,21.949
		c0,11.831,6.316,22.954,16.482,29.03c0.233,0.139,0.499,0.212,0.77,0.212c0.002,0,0.004,0,0.006,0l33.298-0.128
		c0.272-0.001,0.54-0.076,0.773-0.219c10.183-6.19,16.262-16.993,16.262-28.896C84.795,56.324,81.911,48.58,76.651,42.444z
		 M67.327,90.509l-32.453,0.124c-9.059-5.581-14.669-15.597-14.669-26.24c0-7.728,2.907-15.134,8.186-20.854
		c0.503-0.545,0.532-1.376,0.068-1.955c-2.502-3.124-3.825-6.679-3.825-10.282c0-10.994,11.828-19.938,26.367-19.938
		c14.538,0,26.365,8.944,26.365,19.938c0,3.604-1.322,7.16-3.824,10.282c-0.464,0.579-0.435,1.41,0.068,1.955
		c5.277,5.719,8.185,13.125,8.186,20.854C81.796,75.101,76.395,84.833,67.327,90.509z"/>
	<path d="M69.139,39.176c0.097,0,0.194-0.009,0.291-0.028c0.394-0.078,0.739-0.311,0.961-0.646c1.498-2.27,2.258-4.692,2.258-7.201
		c0-8.945-9.712-16.222-21.648-16.222c-11.936,0-21.649,7.277-21.651,16.222c0,2.508,0.759,4.931,2.255,7.201
		c0.221,0.335,0.567,0.568,0.961,0.646c0.394,0.079,0.803-0.005,1.135-0.231c5.116-3.479,11.097-5.318,17.297-5.318
		c6.2,0,12.182,1.839,17.297,5.318C68.546,39.086,68.84,39.176,69.139,39.176z M33.369,35.56c-0.677-1.379-1.02-2.807-1.02-4.259
		C32.351,24.01,40.718,18.079,51,18.079c10.283,0,18.648,5.931,18.648,13.222c0,1.453-0.343,2.88-1.021,4.26
		c-5.304-3.252-11.365-4.962-17.63-4.962C44.734,30.598,38.673,32.309,33.369,35.56z"/>
	<path d="M54.028,43.436c-0.828,0-1.5,0.671-1.5,1.5s0.672,1.5,1.5,1.5c9.066,0,16.442,7.459,16.442,16.628
		c0,0.828,0.672,1.5,1.5,1.5s1.5-0.672,1.5-1.5C73.471,52.241,64.749,43.436,54.028,43.436z"/>
</g>
</svg>
