<?xml version="1.0" encoding="iso-8859-1"?>
<!-- Generator: Adobe Illustrator 21.1.0, SVG Export Plug-In . SVG Version: 6.00 Build 0)  -->
<svg version="1.1" id="Layer_1" xmlns="http://www.w3.org/2000/svg" xmlns:xlink="http://www.w3.org/1999/xlink" x="0px" y="0px"
	 viewBox="0 0 100.176 100.178" style="enable-background:new 0 0 100.176 100.178;" xml:space="preserve">
<path d="M85.542,65.265h-5.195V15.73c0-0.224-0.049-0.437-0.138-0.628c-0.339-5.525-5.126-9.92-10.962-9.92
	c-6.052,0-10.975,4.732-10.975,10.548c0,0.104,0.011,0.205,0.031,0.303l0.023,17.865l-0.023,0.133
	c-0.015,0.084-0.021,0.169-0.021,0.255c0,4.268-3.729,7.74-8.311,7.74c-4.573,0-8.293-3.521-8.293-7.849
	c0-0.042-0.004-0.101-0.011-0.159l0.068-18.398c0-0.042-0.001-0.083-0.005-0.125l-0.019-0.242C41.676,9.6,36.858,5.18,30.713,5.18
	c-6.048,0-10.968,4.732-10.968,10.548v49.74h-5.287c-0.829,0-1.5,0.672-1.5,1.5v9.761c0,0.828,0.671,1.5,1.5,1.5h1.083v15.094
	c0,0.828,0.671,1.5,1.5,1.5h8.105c0.829,0,1.5-0.672,1.5-1.5V78.229h1.098c0.829,0,1.5-0.672,1.5-1.5v-9.761
	c0-0.828-0.671-1.5-1.5-1.5h-4.999v-49.74c0-4.162,3.574-7.548,7.968-7.548c4.56,0,7.999,3.068,7.999,7.137
	c0,0.04,0.001,0.08,0.005,0.12l0.019,0.236l-0.069,18.434c0,0.045,0.005,0.108,0.012,0.171c0.056,5.937,5.1,10.75,11.292,10.75
	c6.19,0,11.235-4.746,11.31-10.607l0.024-0.139c0.015-0.085,0.021-0.171,0.021-0.257l-0.024-18.409c0-0.085-0.007-0.168-0.021-0.25
	c0.202-3.994,3.697-7.184,7.966-7.184c4.401,0,7.981,3.386,7.981,7.548c0,0.208,0.042,0.405,0.118,0.584v48.951h-5.084
	c-0.828,0-1.5,0.672-1.5,1.5v9.76c0,0.828,0.672,1.5,1.5,1.5h1.086v14.733c0,0.828,0.672,1.5,1.5,1.5h8.104
	c0.828,0,1.5-0.672,1.5-1.5V78.025h1.09c0.828,0,1.5-0.672,1.5-1.5v-9.76C87.042,65.937,86.37,65.265,85.542,65.265z M23.646,91.823
	h-5.105V78.229h5.105V91.823z M26.244,75.229H15.958v-6.761h10.286V75.229z M73.763,68.265h10.279v6.76H73.763V68.265z
	 M81.452,91.258h-5.104V78.025h5.104V91.258z"/>
</svg>
