<svg id="Layer_1" data-name="Layer 1" xmlns="http://www.w3.org/2000/svg" viewBox="0 0 101 101"><title>log_Artboard 2 copy 14</title><path d="M84.5,50A1.5,1.5,0,0,0,83,51.5V83H40V38h6.5a1.5,1.5,0,0,0,0-3h-16a1.5,1.5,0,0,0,0,3H37V83H19V74.5a1.5,1.5,0,0,0-3,0v10A1.5,1.5,0,0,0,17.5,86h67A1.5,1.5,0,0,0,86,84.5v-33A1.5,1.5,0,0,0,84.5,50Z"/><path d="M84.5,15h-67A1.5,1.5,0,0,0,16,16.5v37a1.5,1.5,0,0,0,3,0V18H61V63H54.5a1.5,1.5,0,0,0,0,3h16a1.5,1.5,0,0,0,0-3H64V18H83V30.5a1.5,1.5,0,0,0,3,0v-14A1.5,1.5,0,0,0,84.5,15Z"/></svg>