<?xml version="1.0" encoding="iso-8859-1"?>
<!-- Generator: Adobe Illustrator 22.0.1, SVG Export Plug-In . SVG Version: 6.00 Build 0)  -->
<svg version="1.1" id="Layer_1" xmlns="http://www.w3.org/2000/svg" xmlns:xlink="http://www.w3.org/1999/xlink" x="0px" y="0px"
	 viewBox="0 0 100.25 100.25" style="enable-background:new 0 0 100.25 100.25;" xml:space="preserve">
<g>
	<path d="M63.561,44.938l4.824-11.613c0.008-0.019,0.009-0.039,0.016-0.057c0.029-0.078,0.051-0.158,0.066-0.24
		c0.006-0.033,0.013-0.064,0.018-0.097c0.012-0.096,0.014-0.192,0.007-0.289c-0.001-0.015,0.001-0.03-0.001-0.045
		c-0.011-0.111-0.036-0.221-0.073-0.329c-0.01-0.03-0.026-0.057-0.038-0.086c-0.023-0.056-0.043-0.113-0.073-0.167l-5.062-9
		c-0.266-0.472-0.766-0.765-1.308-0.765H38.319c-0.53,0-1.021,0.28-1.292,0.737l-5.319,9c-0.057,0.096-0.1,0.197-0.133,0.299
		c-0.007,0.021-0.009,0.043-0.015,0.064c-0.025,0.091-0.042,0.182-0.05,0.274c-0.003,0.034-0.003,0.068-0.004,0.103
		c-0.001,0.084,0.005,0.167,0.018,0.25c0.005,0.032,0.008,0.064,0.015,0.096c0.025,0.113,0.059,0.223,0.11,0.327
		c0,0.001,0,0.001,0.001,0.002l5.417,11.215C27.837,49.339,21.5,58.94,21.5,70c0,15.715,12.785,28.5,28.5,28.5S78.5,85.715,78.5,70
		C78.5,59.191,72.451,49.768,63.561,44.938z M60.848,43.651c-1.546-0.639-3.16-1.145-4.828-1.505l2.327-7.896h6.405L60.848,43.651z
		 M47.94,41.583c-0.001-0.002-0.001-0.004-0.001-0.006L45.78,34.25h9.441l-2.159,7.326c-0.009,0.029-0.01,0.059-0.017,0.088
		C52.044,41.558,51.029,41.5,50,41.5C49.307,41.5,48.621,41.534,47.94,41.583z M46.711,25.25h6.903l2.098,6H45.193l1.499-5.879
		C46.703,25.33,46.704,25.29,46.711,25.25z M64.435,31.25H58.89l-2.098-6h4.269L64.435,31.25z M39.175,25.25h4.453l-1.53,6h-6.468
		L39.175,25.25z M35.39,34.25h7.262l2.273,7.712c-1.768,0.319-3.48,0.8-5.119,1.431L35.39,34.25z M50,95.5
		c-14.061,0-25.5-11.439-25.5-25.5S35.939,44.5,50,44.5S75.5,55.939,75.5,70S64.061,95.5,50,95.5z"/>
	<path d="M50.002,49.499c-11.305,0-20.502,9.193-20.502,20.493c0,11.308,9.197,20.507,20.502,20.507
		c11.303,0,20.498-9.199,20.498-20.507C70.5,58.693,61.305,49.5,50.002,49.499z M50.002,87.499c-9.65,0-17.502-7.854-17.502-17.507
		c0-9.646,7.852-17.493,17.502-17.493C59.65,52.5,67.5,60.348,67.5,69.992C67.5,79.646,59.65,87.499,50.002,87.499z"/>
	<path d="M50.5,14.25c0.828,0,1.5-0.671,1.5-1.5v-10c0-0.829-0.672-1.5-1.5-1.5c-0.829,0-1.5,0.671-1.5,1.5v10
		C49,13.579,49.671,14.25,50.5,14.25z"/>
	<path d="M66.5,18c0.384,0,0.768-0.146,1.061-0.439l7-7c0.586-0.585,0.586-1.536,0-2.121c-0.586-0.586-1.535-0.586-2.121,0l-7,7
		c-0.586,0.585-0.586,1.536,0,2.121C65.732,17.854,66.116,18,66.5,18z"/>
	<path d="M32.439,17.561C32.732,17.854,33.116,18,33.5,18s0.768-0.146,1.061-0.439c0.586-0.585,0.586-1.536,0-2.121l-7-7
		c-0.586-0.586-1.535-0.586-2.121,0c-0.586,0.585-0.586,1.536,0,2.121L32.439,17.561z"/>
</g>
</svg>
