<?xml version="1.0" encoding="iso-8859-1"?>
<!-- Generator: Adobe Illustrator 21.0.0, SVG Export Plug-In . SVG Version: 6.00 Build 0)  -->
<svg version="1.1" id="Layer_1" xmlns="http://www.w3.org/2000/svg" xmlns:xlink="http://www.w3.org/1999/xlink" x="0px" y="0px"
	 viewBox="0 0 100.353 100.353" style="enable-background:new 0 0 100.353 100.353;" xml:space="preserve">
<path d="M92.406,69.516c-0.191-5.429-1.882-11.971-4.762-18.42c-6.33-14.179-15.785-22.786-21.989-20.012l-3.606,1.609v-8.554
	c0-6.795-11.709-11.92-27.236-11.92S7.577,17.344,7.577,24.139v15.316c0,0.081,0.011,0.159,0.024,0.237
	c-0.012,0.078-0.024,0.156-0.024,0.237c0,0.138,0.013,0.275,0.022,0.411c-0.011,0.072-0.022,0.145-0.022,0.22v15.316
	c0,0.081,0.011,0.159,0.024,0.237c-0.012,0.078-0.024,0.156-0.024,0.237c0,0.173,0.013,0.344,0.028,0.514
	c-0.017,0.089-0.028,0.181-0.028,0.275v15.314c0,0.081,0.011,0.159,0.024,0.237c-0.012,0.078-0.024,0.156-0.024,0.237
	c0,6.796,11.709,11.921,27.236,11.921c9.841,0,18.813-2.241,23.554-5.788c4.231,5.485,8.783,8.716,12.594,8.716
	c0.871,0,1.704-0.168,2.484-0.517l14.417-6.437C91,79.426,92.614,75.409,92.406,69.516z M34.813,15.22
	c14.283,0,24.236,4.701,24.236,8.92c0,4.22-9.954,8.922-24.236,8.922S10.577,28.36,10.577,24.14
	C10.577,19.921,20.53,15.22,34.813,15.22z M10.577,39.456V29.75c4.437,3.816,13.405,6.312,24.236,6.312
	c10.832,0,19.8-2.496,24.236-6.312v4.283l-7.816,3.488c-3.005,1.344-4.527,5.041-4.583,10.105
	c-3.618,0.789-7.667,1.225-11.838,1.225c-14.283,0-24.236-4.701-24.236-8.92c0-0.081-0.011-0.159-0.024-0.237
	C10.565,39.615,10.577,39.537,10.577,39.456z M10.577,55.878V45.54c4.437,3.815,13.405,6.311,24.236,6.311
	c4.18,0,8.277-0.401,11.969-1.163c0.34,3.71,1.335,7.945,2.985,12.418c-4.432,1.433-9.45,2.166-14.954,2.166
	c-14.283,0-24.236-4.701-24.236-8.92c0-0.081-0.011-0.159-0.024-0.237C10.565,56.037,10.577,55.959,10.577,55.878z M34.813,81.851
	c-14.283,0-24.236-4.702-24.236-8.921c0-0.081-0.011-0.159-0.024-0.237c0.012-0.078,0.024-0.156,0.024-0.237V61.961
	c4.437,3.815,13.405,6.311,24.236,6.311c5.892,0,11.28-0.804,16.056-2.373c0.189,0.45,0.385,0.901,0.587,1.353
	c1.563,3.501,3.32,6.646,5.168,9.38C52.488,79.783,43.971,81.851,34.813,81.851z M72.223,84.523
	c-3.854,1.72-12.204-5.452-18.027-18.494s-5.589-24.048-1.741-25.768l9.319-4.159c-0.516,1.743-0.747,3.854-0.661,6.292
	c0.191,5.43,1.882,11.972,4.762,18.422c4.419,9.897,10.357,17.062,15.653,19.554L72.223,84.523z M86.64,78.087
	c-3.851,1.716-12.203-5.452-18.026-18.494c-2.726-6.106-4.325-12.252-4.503-17.305c-0.159-4.523,0.85-7.608,2.768-8.465
	c0.379-0.169,0.801-0.252,1.261-0.252c4.211,0,11.517,6.988,16.767,18.748c2.726,6.105,4.325,12.25,4.503,17.303
	C89.567,74.145,88.558,77.23,86.64,78.087z"/>
</svg>
