<?xml version="1.0" encoding="iso-8859-1"?>
<!-- Generator: Adobe Illustrator 21.0.2, SVG Export Plug-In . SVG Version: 6.00 Build 0)  -->
<svg version="1.1" id="Layer_1" xmlns="http://www.w3.org/2000/svg" xmlns:xlink="http://www.w3.org/1999/xlink" x="0px" y="0px"
	 viewBox="0 0 100.75 100.75" style="enable-background:new 0 0 100.75 100.75;" xml:space="preserve">
<g>
	<path d="M45.452,20.326c5.289,0,9.593-4.304,9.593-9.593S50.741,1.14,45.452,1.14s-9.593,4.303-9.593,9.593
		S40.163,20.326,45.452,20.326z M45.452,4.14c3.636,0,6.593,2.958,6.593,6.593c0,3.636-2.957,6.593-6.593,6.593
		s-6.593-2.958-6.593-6.593C38.859,7.098,41.816,4.14,45.452,4.14z"/>
	<path d="M96.535,61.135c0-4.375-1.972-7.549-6.721-10.093c3.958-2.175,6.721-5.062,6.721-8.815c0-2.017-0.775-3.798-2.305-5.294
		c-4.694-4.594-15.681-5.224-19.744-5.296v-4.228c0-0.829-0.672-1.5-1.5-1.5H48.133c-0.081-0.014-0.164-0.021-0.249-0.021h-6.141
		L17.851,13.123c-0.73-0.389-1.639-0.115-2.03,0.616l-2.697,5.048c-0.188,0.351-0.228,0.762-0.112,1.143s0.378,0.7,0.729,0.888
		L33.22,31.225v16.667L8.332,34.595c-0.729-0.389-1.639-0.115-2.03,0.616l-3.723,6.966c-0.188,0.351-0.228,0.762-0.112,1.143
		s0.378,0.7,0.729,0.888l35.29,18.854V96.08c0,0.829,0.672,1.5,1.5,1.5h7.898c0.828,0,1.5-0.671,1.5-1.5V34.633h23.602
		c0.006,0,0.011-0.002,0.017-0.002c0.005,0,0.01,0.001,0.015,0.001c3.968-0.083,15.137,0.551,19.115,4.446
		c0.943,0.923,1.401,1.953,1.401,3.149c0,3.258-3.65,5.657-7.247,7.229c-2.812-1.075-6.274-2.039-10.467-2.951
		c-17.323-3.766-20.478,1.601-21.027,4.085c-0.254,1.143,0.03,2.3,0.801,3.26c1.528,1.905,4.738,2.912,9.283,2.912
		c4.563,0,14.007-1.132,21.398-4.072c5.819,2.46,7.259,5.184,7.259,8.444c0,2.967-1.835,5.066-4.56,6.548
		c-10.171-4.114-23.107-4.541-28.167-2.079c-2.053,0.999-2.515,2.329-2.54,3.269c-0.033,1.189,0.385,2.251,1.208,3.071
		c2.31,2.3,7.395,2.338,12.404,2.177c7.96-0.254,13.463-1.442,17.214-3.128c1.833,0.821,3.544,1.783,5.048,2.896
		c0.269,0.199,0.581,0.294,0.892,0.294c0.459,0,0.912-0.21,1.207-0.608c0.492-0.666,0.353-1.605-0.313-2.098
		c-1.132-0.837-2.368-1.599-3.682-2.288C95.545,66.77,96.535,63.813,96.535,61.135z M71.486,31.632H47.884
		c-0.828,0-1.5,0.671-1.5,1.5v61.447h-4.898V62.162c0-0.554-0.305-1.062-0.793-1.323L5.933,42.268l2.309-4.32l25.771,13.77
		c0.465,0.249,1.025,0.235,1.479-0.037c0.452-0.271,0.729-0.76,0.729-1.287V30.326c0-0.554-0.305-1.062-0.793-1.323L16.479,18.879
		l1.283-2.402l22.899,12.235c0.218,0.116,0.461,0.177,0.707,0.177h6.268c0.081,0.014,0.164,0.021,0.249,0.021h23.602L71.486,31.632
		L71.486,31.632z M64.878,53.763c-4.062,0-6.25-0.924-6.943-1.79c-0.261-0.324-0.25-0.562-0.213-0.732
		c0.304-1.363,2.367-3.023,7.796-3.023c2.473,0,5.646,0.345,9.667,1.219c2.502,0.544,4.678,1.096,6.564,1.66
		C75.224,53.049,68.14,53.763,64.878,53.763z M71.785,71.123c-2.575,0.083-8.605,0.275-10.191-1.305
		c-0.239-0.238-0.337-0.496-0.327-0.861c0.002-0.04,0.154-0.314,0.854-0.655c1.573-0.766,4.399-1.188,7.828-1.188
		c4.396,0,9.782,0.694,14.788,2.248C80.509,70.584,75.555,71.003,71.785,71.123z"/>
</g>
</svg>
