<?xml version="1.0" encoding="iso-8859-1"?>
<!-- Generator: Adobe Illustrator 21.1.0, SVG Export Plug-In . SVG Version: 6.00 Build 0)  -->
<svg version="1.1" id="Layer_1" xmlns="http://www.w3.org/2000/svg" xmlns:xlink="http://www.w3.org/1999/xlink" x="0px" y="0px"
	 viewBox="0 0 99.313 99.313" style="enable-background:new 0 0 99.313 99.313;" xml:space="preserve">
<g>
	<path d="M26.713,62.956h16.722v16.735c0,0.828,0.671,1.5,1.5,1.5h9.093c0.828,0,1.5-0.672,1.5-1.5V62.956H72.25
		c0.828,0,1.5-0.672,1.5-1.5v-9.087c0-0.828-0.672-1.5-1.5-1.5H55.528V34.14c0-0.829-0.672-1.5-1.5-1.5h-9.093
		c-0.829,0-1.5,0.671-1.5,1.5v16.729H26.713c-0.829,0-1.5,0.672-1.5,1.5v9.087C25.213,62.284,25.884,62.956,26.713,62.956z
		 M28.213,53.869h16.722c0.829,0,1.5-0.672,1.5-1.5V35.64h6.093v16.729c0,0.828,0.672,1.5,1.5,1.5H70.75v6.087H54.028
		c-0.828,0-1.5,0.672-1.5,1.5v16.735h-6.093V61.456c0-0.828-0.671-1.5-1.5-1.5H28.213V53.869z"/>
	<path d="M88.708,22.484h-14.11c-0.571-7.393-5.601-13.195-11.704-13.195H36.068c-6.103,0-11.133,5.802-11.703,13.195H10.255
		c-0.829,0-1.5,0.671-1.5,1.5v64.192c0,0.828,0.671,1.5,1.5,1.5h78.453c0.828,0,1.5-0.672,1.5-1.5V23.984
		C90.208,23.156,89.536,22.484,88.708,22.484z M36.068,12.289h26.826c4.472,0,8.165,4.461,8.691,10.195H27.378
		C27.903,16.749,31.597,12.289,36.068,12.289z M87.208,86.676H11.755V25.484h75.453V86.676z"/>
</g>
</svg>
