<svg id="Layer_1" data-name="Layer 1" xmlns="http://www.w3.org/2000/svg" viewBox="0 0 101 101"><title>log_Artboard 2 copy 16</title><path d="M58.39,71,73.12,47.29a1.42,1.42,0,0,0,.12-.24A26.77,26.77,0,0,0,48.79,6.34a27,27,0,0,0-25,23.91,26.57,26.57,0,0,0,3.81,16.81,1.48,1.48,0,0,0,.11.22L41.87,71c-11.05,1.58-18.32,6.21-18.32,11.86,0,6.93,11.78,12.37,26.83,12.37S77.2,89.79,77.2,82.85C77.2,77.1,69.74,72.46,58.39,71ZM30.27,45.7a23.6,23.6,0,0,1-3.52-15.15A24,24,0,0,1,49,9.33,23.76,23.76,0,0,1,70.55,45.7a1.44,1.44,0,0,0-.12.25L50,78.78l-4.35-7.29h0L30.41,46A1.47,1.47,0,0,0,30.27,45.7Zm20.1,46.51c-14,0-23.83-4.94-23.83-9.37,0-4.07,7.25-7.88,17-9l5.15,8.62a1.5,1.5,0,0,0,1.27.73h0a1.5,1.5,0,0,0,1.27-.71l5.38-8.65c10.07,1.07,17.56,4.89,17.56,9.05C74.2,87.28,64.42,92.22,50.37,92.22Z"/><path d="M50.37,42.41a9.74,9.74,0,1,0-9.74-9.74A9.75,9.75,0,0,0,50.37,42.41Zm0-16.48a6.74,6.74,0,1,1-6.74,6.74A6.75,6.75,0,0,1,50.37,25.93Z"/></svg>