<svg id="Layer_1" data-name="Layer 1" xmlns="http://www.w3.org/2000/svg" viewBox="0 0 101 101"><title>Artboard 2 copy 13</title><path d="M80.5,87H38V15H80.5a1.5,1.5,0,0,0,0-3h-57A1.5,1.5,0,0,0,22,13.5v5a9,9,0,0,0,0,18v5a9,9,0,0,0,0,18v5a9,9,0,0,0,0,18v6A1.5,1.5,0,0,0,23.5,90h57a1.5,1.5,0,0,0,0-3ZM16,27.5a6,6,0,0,1,6-6v12A6,6,0,0,1,16,27.5Zm0,23a6,6,0,0,1,6-6v12A6,6,0,0,1,16,50.51Zm0,23a6,6,0,0,1,6-6v12A6,6,0,0,1,16,73.53Zm9-5.19a6,6,0,0,1,3,5.19,1.5,1.5,0,0,0,3,0,9,9,0,0,0-6-8.47V45.32a6,6,0,0,1,3,5.19,1.5,1.5,0,0,0,3,0A9,9,0,0,0,25,42V22.31a6,6,0,0,1,3,5.19,1.5,1.5,0,0,0,3,0A9,9,0,0,0,25,19V15H35V87H25Z"/></svg>