<?xml version="1.0" encoding="iso-8859-1"?>
<!-- Generator: Adobe Illustrator 21.0.2, SVG Export Plug-In . SVG Version: 6.00 Build 0)  -->
<svg version="1.1" id="Layer_1" xmlns="http://www.w3.org/2000/svg" xmlns:xlink="http://www.w3.org/1999/xlink" x="0px" y="0px"
	 viewBox="0 0 100.5 100.5" style="enable-background:new 0 0 100.5 100.5;" xml:space="preserve">
<path d="M50.923,74.959h-31.52V28.364L46.161,5.088L72.277,27.41v29.255c0,0.828,0.671,1.5,1.5,1.5s1.5-0.672,1.5-1.5V29.974
	l9.761,8.343c0.283,0.241,0.629,0.359,0.974,0.359c0.423,0,0.844-0.179,1.141-0.525c0.539-0.63,0.464-1.576-0.166-2.115
	L47.127,1.968c-0.566-0.484-1.399-0.479-1.959,0.008L6.141,35.924c-0.625,0.544-0.691,1.491-0.147,2.116s1.49,0.69,2.116,0.147
	l8.293-7.214v45.485c0,0.828,0.671,1.5,1.5,1.5h33.02c0.829,0,1.5-0.672,1.5-1.5S51.752,74.959,50.923,74.959z"/>
<path d="M92.467,90.794L58.178,51.861c0.419-4.089-0.666-7.397-3.196-9.577c-3.077-2.651-5.906-2.147-10.186-1.387
	c-0.561,0.1-1.155,0.206-1.789,0.312c-1.615,0.271-2.977-1.321-4.457-3.271c-1.048-1.381-1.954-2.572-3.369-2.2
	c-1.378,0.364-1.699,1.936-1.892,3.38c-0.853,6.396-0.445,15.282,3.508,19.277c3.234,3.28,7.7,3.74,9.95,3.74
	c0.277,0,0.505-0.008,0.708-0.017l39.301,34.388c1.217,1.201,2.726,1.889,4.144,1.888c0.011,0,0.023,0,0.034,0
	c0.977-0.007,1.858-0.361,2.483-0.997C94.996,95.787,94.576,92.895,92.467,90.794z M36.221,39.832
	c1.428,1.88,3.794,4.922,7.279,4.336c0.645-0.107,1.25-0.215,1.82-0.316c4.239-0.755,5.803-0.933,7.703,0.706
	c1.796,1.548,2.515,3.941,2.166,7.101l-7.858,7.46c-1.385,0.06-5.614-0.007-8.4-2.831C36.014,53.337,35.484,45.761,36.221,39.832z
	 M56.526,54.525l3.118,3.54l-5.725,5.723l-3.721-3.256L56.526,54.525z M91.276,95.295c-0.062,0.062-0.207,0.093-0.375,0.098
	c-0.464,0-1.272-0.268-2.104-1.084L56.182,65.768l5.449-5.447L90.25,92.815c0.024,0.027,0.049,0.054,0.075,0.079
	C91.353,93.904,91.527,95.04,91.276,95.295z"/>
</svg>
