<?xml version="1.0" encoding="iso-8859-1"?>
<!-- Generator: Adobe Illustrator 22.0.0, SVG Export Plug-In . SVG Version: 6.00 Build 0)  -->
<svg version="1.1" id="Layer_1" xmlns="http://www.w3.org/2000/svg" xmlns:xlink="http://www.w3.org/1999/xlink" x="0px" y="0px"
	 viewBox="0 0 100.25 100.25" style="enable-background:new 0 0 100.25 100.25;" xml:space="preserve">
<path d="M65.827,41.985c0.405-0.268,0.674-0.728,0.674-1.251V26.795c0-0.829-0.672-1.5-1.5-1.5h-7.309L54.88,9.77
	C54.689,7.377,53.187,3,48.778,3c-4.133,0-5.671,4.377-5.917,6.751l-2.816,15.544H32c-0.828,0-1.5,0.671-1.5,1.5v13.939
	c0,0.795,0.62,1.438,1.401,1.49C30.109,44.55,29,47.542,29,50.402V94.5c0,0.829,0.672,1.5,1.5,1.5h37c0.828,0,1.5-0.671,1.5-1.5
	V50.402C69.001,47.433,67.787,44.365,65.827,41.985z M45.824,10.228c0.008-0.039,0.014-0.082,0.018-0.121
	C45.846,10.066,46.287,6,48.78,6c2.776,0,3.103,3.901,3.115,4.062c0.003,0.056,0.01,0.111,0.021,0.166l2.729,15.068h-11.55
	L45.824,10.228z M33.501,28.295h30v10.939h-30V28.295z M66.001,93h-34V50.402c0-3.009,1.656-6.347,4.028-8.116
	c0.021-0.016,0.037-0.035,0.057-0.052h25.701c2.529,1.874,4.214,5.094,4.214,8.168V93z"/>
<path d="M49.887,50.264c-0.23-0.564-0.779-0.933-1.389-0.933s-1.158,0.369-1.389,0.933c-0.285,0.698-6.988,17.165-8.008,23.241
	c-0.368,2.189,0.271,4.39,1.799,6.196c1.823,2.156,4.734,3.495,7.598,3.495s5.776-1.339,7.601-3.496
	c1.528-1.806,2.167-4.006,1.8-6.194C56.88,67.43,50.172,50.961,49.887,50.264z M53.809,77.762c-1.271,1.501-3.305,2.434-5.311,2.434
	c-2.005,0-4.038-0.932-5.308-2.432c-0.671-0.793-1.411-2.089-1.13-3.761c0,0,0,0,0-0.001c0.691-4.123,4.381-13.871,6.438-19.118
	c2.059,5.247,5.75,14.995,6.441,19.119C55.221,75.673,54.48,76.969,53.809,77.762z"/>
</svg>
