<svg id="Layer_1" data-name="Layer 1" xmlns="http://www.w3.org/2000/svg" viewBox="0 0 101 101"><title>log_Artboard 32 copy 3</title><path d="M91.43,54a5.13,5.13,0,0,0-6-1.84,5.05,5.05,0,0,0-.88-2.41,5.12,5.12,0,0,0-7.09-1.28l-.84.55a5.07,5.07,0,0,0-.86-2.28,5.14,5.14,0,0,0-7.13-1.25l-.07.06,0,0C61.8,51.23,53.6,57,51.5,57c-1.55,0-6.29-2.65-10.09-4.78-4.84-2.71-9.42-5.27-12-5.48-4.94-.38-20,8.37-21.68,9.37a1.45,1.45,0,1,0,1.47,2.51c6.13-3.6,17-9.17,20-9,2,.15,6.69,2.79,10.84,5.12,5.48,3.07,9,5,11.21,5.12a1.46,1.46,0,0,0,.29,0h10a3.3,3.3,0,0,1,0,6.6h-.1c-.1,0-9.85.68-13.86,0-3.77-.63-8.58-4.9-8.63-4.94a1.45,1.45,0,0,0-1.94,2.16c.22.2,5.49,4.88,10.09,5.65a39.33,39.33,0,0,0,5.84.33c4.15,0,8.43-.3,8.7-.32h0A6.2,6.2,0,0,0,61.47,57h-3.4A131.52,131.52,0,0,0,70.31,47.9a2.21,2.21,0,0,1,3.43,2.21,2.2,2.2,0,0,1-.91,1.43l-.1.08-.11.09-.09.11-.09.12-.06.12-.07.13s0,.08,0,.13a1.46,1.46,0,0,0,0,.14s0,.09,0,.13a1.44,1.44,0,0,0,0,.15s0,.09,0,.14a1.41,1.41,0,0,0,0,.14,1.47,1.47,0,0,0,0,.14s0,.09,0,.13a1.46,1.46,0,0,0,.07.14l.05.1v0l.05.06a1.45,1.45,0,0,0,.16.18l.09.07.18.12L73,54l.22.08.08,0a1.45,1.45,0,0,0,.31,0h0a1.44,1.44,0,0,0,.35-.05l.09,0a1.44,1.44,0,0,0,.33-.16l4.63-3a2.22,2.22,0,0,1,3.09.54,2.21,2.21,0,0,1-.54,3.08l-1.49,1A1.45,1.45,0,1,0,81.81,58l1.47-1L86,55.17A2.21,2.21,0,1,1,88.5,58.8h0C72.73,69.87,54.84,81.35,52.2,81.38c-2,0-6.28-2.58-10.1-4.85-4.31-2.57-8.37-5-11.24-5.37C25.14,70.4,16.3,77,15.31,77.8a1.45,1.45,0,0,0,1.77,2.3c2.42-1.86,9.54-6.58,13.4-6.07,2.28.3,6.45,2.79,10.14,5,4.54,2.71,8.83,5.26,11.58,5.26,4.81,0,32.47-19.25,38-23.11l.13-.11A5.12,5.12,0,0,0,91.43,54Z"/><path d="M40.09,27.35A10.57,10.57,0,1,0,29.53,16.79,10.58,10.58,0,0,0,40.09,27.35Zm0-18.23a7.66,7.66,0,1,1-7.66,7.66A7.67,7.67,0,0,1,40.09,9.12Z"/><path d="M66.22,24.91a8.12,8.12,0,1,0-8.12-8.12A8.13,8.13,0,0,0,66.22,24.91Zm0-13.33A5.21,5.21,0,1,1,61,16.79,5.22,5.22,0,0,1,66.22,11.57Z"/><path d="M42.2,39.4A10.57,10.57,0,1,0,52.77,28.83,10.58,10.58,0,0,0,42.2,39.4Zm10.57-7.66a7.66,7.66,0,1,1-7.66,7.66A7.67,7.67,0,0,1,52.77,31.74Z"/></svg>