<?xml version="1.0" encoding="iso-8859-1"?>
<!-- Generator: Adobe Illustrator 22.0.0, SVG Export Plug-In . SVG Version: 6.00 Build 0)  -->
<svg version="1.1" id="Layer_1" xmlns="http://www.w3.org/2000/svg" xmlns:xlink="http://www.w3.org/1999/xlink" x="0px" y="0px"
	 viewBox="0 0 100.25 100.25" style="enable-background:new 0 0 100.25 100.25;" xml:space="preserve">
<g>
	<path d="M36,65.5c-0.828,0-1.5,0.671-1.5,1.5v10.343c0,0.416-0.159,1.382-0.527,1.728c-0.822,0.772-1.581,0.323-1.945,0
		c-0.602-0.567-1.552-0.538-2.12,0.065c-0.567,0.604-0.538,1.553,0.065,2.121c0.692,0.651,1.838,1.237,3.105,1.237
		c0.961,0,1.992-0.337,2.949-1.237c1.432-1.345,1.473-3.655,1.473-3.914V67C37.5,66.171,36.828,65.5,36,65.5z"/>
	<path d="M47.377,65.522c-0.854-0.047-3.146-0.007-3.404-0.002c-0.817,0.015-1.473,0.682-1.473,1.5V81c0,0.829,0.672,1.5,1.5,1.5
		s1.5-0.671,1.5-1.5v-5.49h2.206c1.927,0,4.794-1.275,4.794-4.79C52.5,68.885,51.834,65.77,47.377,65.522z M47.706,72.51H45.5
		v-4.008c0.68-0.006,1.374-0.003,1.711,0.016c1.519,0.084,2.289,0.448,2.289,2.203C49.5,72.242,48.366,72.495,47.706,72.51z"/>
	<path d="M67.5,73.899h-4c-0.828,0-1.5,0.671-1.5,1.5s0.672,1.5,1.5,1.5h2.125c-0.434,1.171-1.33,2.6-3.125,2.6
		c-2.404,0-3.5-2.609-3.5-5.033c0-5.967,2.635-5.967,3.5-5.967c1.839,0,2.518,1.624,2.592,1.817
		c0.284,0.772,1.139,1.171,1.913,0.895c0.78-0.279,1.187-1.137,0.908-1.917c-0.504-1.41-2.211-3.795-5.413-3.795
		c-2.428,0-6.5,1.165-6.5,8.967c0,4.655,2.733,8.033,6.5,8.033c4.899,0,6.5-5.28,6.5-7.1C69,74.571,68.328,73.899,67.5,73.899z"/>
	<path d="M79.567,31.924l-18.26-18.479c-0.282-0.285-0.666-0.446-1.067-0.446H20.5c-0.828,0-1.5,0.671-1.5,1.5v75
		c0,0.829,0.672,1.5,1.5,1.5h58c0.828,0,1.5-0.671,1.5-1.5V32.978C80,32.584,79.845,32.205,79.567,31.924z M62,18.415L74.93,31.5H62
		V18.415z M22,88V16h37v17c0,0.829,0.672,1.5,1.5,1.5H77V88H22z"/>
</g>
</svg>
