<?xml version="1.0" encoding="iso-8859-1"?>
<!-- Generator: Adobe Illustrator 22.0.0, SVG Export Plug-In . SVG Version: 6.00 Build 0)  -->
<svg version="1.1" id="Layer_1" xmlns="http://www.w3.org/2000/svg" xmlns:xlink="http://www.w3.org/1999/xlink" x="0px" y="0px"
	 viewBox="0 0 100.25 100.25" style="enable-background:new 0 0 100.25 100.25;" xml:space="preserve">
<g>
	<path d="M79.567,29.924l-18.26-18.479C61.025,11.16,60.641,11,60.24,11H20.5c-0.829,0-1.5,0.672-1.5,1.5v75
		c0,0.828,0.671,1.5,1.5,1.5h58c0.829,0,1.5-0.672,1.5-1.5V30.979C80,30.585,79.844,30.206,79.567,29.924z M62,16.415L74.929,29.5
		H62V16.415z M22,86V14h37v17c0,0.828,0.671,1.5,1.5,1.5H77V86H22z"/>
	<path d="M71.5,57.892c-0.829,0-1.5,0.672-1.5,1.5V75.23c0,0.828,0.671,1.5,1.5,1.5s1.5-0.672,1.5-1.5V59.392
		C73,58.564,72.329,57.892,71.5,57.892z"/>
	<path d="M31.607,66.438c-0.732,0-1.446,0.163-2.107,0.451V60c0-0.828-0.671-1.5-1.5-1.5s-1.5,0.672-1.5,1.5v16
		c0,0.828,0.671,1.5,1.5,1.5s1.5-0.672,1.5-1.5v-5.353c0.076-0.068,0.146-0.144,0.208-0.229c0.458-0.622,1.15-0.979,1.899-0.979
		c1.319,0,2.393,1.121,2.393,2.5c0,0.015,0.004,0.029,0.004,0.044S34,72.012,34,72.027v4c0,0.828,0.671,1.5,1.5,1.5
		s1.5-0.672,1.5-1.5v-4c0-0.015-0.004-0.029-0.004-0.044S37,71.954,37,71.939C37,68.906,34.581,66.438,31.607,66.438z"/>
	<path d="M61.483,65.5c-1.351,0-2.617,0.457-3.61,1.269c-0.968-0.788-2.227-1.269-3.606-1.269c-0.783,0-1.535,0.159-2.225,0.444
		c-0.264-0.233-0.608-0.379-0.988-0.379c-0.829,0-1.5,0.672-1.5,1.5v8.419c0,0.828,0.671,1.5,1.5,1.5s1.5-0.672,1.5-1.5V69.1
		c0.463-0.377,1.071-0.599,1.713-0.599c1.367,0,2.477,0.95,2.507,2.126c0,0.016-0.005,0.031-0.005,0.047v4.811
		c0,0.828,0.671,1.5,1.5,1.5s1.5-0.672,1.5-1.5v-4.709c0.002-0.034,0.01-0.067,0.01-0.102c0-0.481-0.076-0.944-0.207-1.386
		c0.476-0.49,1.17-0.787,1.91-0.787c1.368,0,2.479,0.951,2.507,2.128c0,0.015-0.005,0.029-0.005,0.045v4.811
		c0,0.828,0.671,1.5,1.5,1.5s1.5-0.672,1.5-1.5v-4.714c0.002-0.033,0.01-0.064,0.01-0.097C66.996,67.82,64.523,65.5,61.483,65.5z"/>
	<path d="M45.243,62.513h-1.108v-2.514c0-0.828-0.671-1.5-1.5-1.5s-1.5,0.672-1.5,1.5v2.514h-1.108c-0.829,0-1.5,0.672-1.5,1.5
		s0.671,1.5,1.5,1.5h1.108v10.324c0,0.828,0.671,1.5,1.5,1.5s1.5-0.672,1.5-1.5V65.513h1.108c0.829,0,1.5-0.672,1.5-1.5
		S46.072,62.513,45.243,62.513z"/>
</g>
</svg>
