<?xml version="1.0" encoding="iso-8859-1"?>
<!-- Generator: Adobe Illustrator 21.1.0, SVG Export Plug-In . SVG Version: 6.00 Build 0)  -->
<svg version="1.1" id="Layer_1" xmlns="http://www.w3.org/2000/svg" xmlns:xlink="http://www.w3.org/1999/xlink" x="0px" y="0px"
	 viewBox="0 0 100.176 100.178" style="enable-background:new 0 0 100.176 100.178;" xml:space="preserve">
<path d="M73.819,48.543c0-9.059-7.37-16.428-16.429-16.428c-0.001,0-0.002,0-0.003,0c-3.529,0-6.904,1.141-9.689,3.181V24.484
	c0.79,0.531,1.712,0.948,2.756,1.225c0.969,0.257,1.998,0.385,3.058,0.385c1.645,0,3.361-0.308,5.03-0.917
	c5.415-1.974,13.521-12.129,13.864-12.561c0.324-0.409,0.413-0.957,0.234-1.447c-0.179-0.49-0.6-0.852-1.11-0.956
	c-0.54-0.109-13.278-2.659-18.695-0.686c-5.315,1.937-8.658,6.445-8.044,10.49c-0.057,0.158-0.093,0.326-0.093,0.504v15.062
	c-2.857-2.229-6.392-3.47-10.088-3.47c-9.058,0-16.428,7.37-16.429,16.518c-0.004,0.167-0.003,0.365,0.008,0.49
	c0.785,8.166,4.623,23.939,7.531,32.588c1.86,5.516,7.261,9.519,12.843,9.519c2.791,0,5.461-1.105,7.438-3.022
	c1.977,1.917,4.647,3.022,7.437,3.022c5.583,0,10.984-4.003,12.845-9.521c2.907-8.65,6.745-24.424,7.53-32.585
	C73.824,49.002,73.825,48.8,73.819,48.543z M53.862,12.347c1.14-0.416,2.804-0.575,4.672-0.575c3.251,0,7.118,0.482,9.899,0.933
	c-2.895,3.362-7.796,8.515-10.919,9.654c-2.172,0.791-4.406,0.951-6.29,0.45c-1.691-0.449-2.872-1.379-3.323-2.62
	C46.913,17.477,49.643,13.885,53.862,12.347z M63.439,80.752c-1.462,4.333-5.668,7.478-10.002,7.478
	c-2.446,0-4.765-1.184-6.208-3.166c-0.09-0.128-0.2-0.243-0.33-0.341c-0.593-0.444-1.423-0.389-1.951,0.13
	c-0.005,0.005-0.01,0.011-0.015,0.016c-0.068,0.068-0.128,0.143-0.181,0.221c-1.443,1.968-3.753,3.141-6.189,3.141
	c-4.333,0-8.54-3.145-10-7.476c-2.855-8.494-6.622-23.949-7.385-31.883l0.004-0.327c0-7.404,6.023-13.428,13.428-13.428
	c3.956,0,7.688,1.731,10.242,4.749c0.285,0.337,0.704,0.531,1.145,0.531c0.04,0,0.078-0.01,0.117-0.013
	c0.028,0.002,0.055,0.008,0.084,0.008c0.662,0,1.217-0.432,1.416-1.027c2.531-2.699,6.046-4.249,9.773-4.249
	c0.001,0,0.002,0,0.003,0c7.404,0,13.429,6.024,13.429,13.428l0.007,0.292C70.061,56.801,66.294,72.256,63.439,80.752z"/>
</svg>
