<svg id="Layer_1" data-name="Layer 1" xmlns="http://www.w3.org/2000/svg" viewBox="0 0 100 100"><title>Artboard 16 copy 3</title><path d="M80.5,11h-60A1.5,1.5,0,0,0,19,12.5v75A1.5,1.5,0,0,0,20.5,89h60A1.5,1.5,0,0,0,82,87.5v-75A1.5,1.5,0,0,0,80.5,11ZM79,86H22V14H79Z"/><path d="M32,53.49a1.49,1.49,0,0,0,0,.38S32,54,32,54a18,18,0,0,0,36,0s0-.1,0-.15a1.49,1.49,0,0,0,0-.37,18,18,0,0,0-35.95,0ZM50,69A15,15,0,0,1,35,54.64l.39-.2a13.24,13.24,0,0,1,12.88.5l1.07.67A16,16,0,0,0,57.85,58a16.23,16.23,0,0,0,6.93-1.55A15,15,0,0,1,50,69Zm0-30A15,15,0,0,1,64.95,52.93l-.33.2A13.23,13.23,0,0,1,51,53.06L49.9,52.4a16.31,16.31,0,0,0-14.63-1.18A15,15,0,0,1,50,39Z"/><path d="M28.5,23h17a1.5,1.5,0,0,0,0-3h-17a1.5,1.5,0,0,0,0,3Z"/><circle cx="71.5" cy="21.5" r="2.5"/><circle cx="61.5" cy="21.5" r="2.5"/></svg>