<svg id="Layer_1" data-name="Layer 1" xmlns="http://www.w3.org/2000/svg" viewBox="0 0 100 100"><title>Artboard 3</title><path d="M57,59a1.5,1.5,0,0,0,2.12,0L79,38.91a1.5,1.5,0,0,0-2.13-2.11L57,56.89A1.5,1.5,0,0,0,57,59Z"/><path d="M56.42,46.51a1.5,1.5,0,0,0,2.12,0l9-9a1.5,1.5,0,0,0-2.13-2.11l-9,9A1.5,1.5,0,0,0,56.42,46.51Z"/><path d="M83.5,14h-67A1.5,1.5,0,0,0,15,15.5V30.9C13.37,33.36,4.47,47,4.5,53.3c0,6.47,4.61,11.8,10.5,12.59V83.5A1.5,1.5,0,0,0,16.5,85h67A1.5,1.5,0,0,0,85,83.5v-68A1.5,1.5,0,0,0,83.5,14ZM7.5,53.29c0-4.14,5.62-13.87,8.92-19.06,3.34,5.16,9.07,14.84,9.08,19,0,5.38-4,9.77-9,9.79h0C11.56,63,7.52,58.65,7.5,53.29ZM18,65.89c5.93-.79,10.53-6.19,10.5-12.7,0-6-8.43-18.93-10.5-22V17H48V82H18ZM82,82H51V17H82Z"/></svg>