<?xml version="1.0" encoding="iso-8859-1"?>
<!-- Generator: Adobe Illustrator 21.0.0, SVG Export Plug-In . SVG Version: 6.00 Build 0)  -->
<svg version="1.1" id="Layer_1" xmlns="http://www.w3.org/2000/svg" xmlns:xlink="http://www.w3.org/1999/xlink" x="0px" y="0px"
	 viewBox="0 0 100.353 100.353" style="enable-background:new 0 0 100.353 100.353;" xml:space="preserve">
<g>
	<path style="fill:#231F20;" d="M40.442,43.437c6.708,0,12.43-4.236,14.675-10.168c2.246,5.932,7.971,10.168,14.681,10.168
		c8.654,0,15.695-7.044,15.695-15.703c0-8.658-7.041-15.702-15.695-15.702c-6.711,0-12.436,4.236-14.681,10.167
		c-2.245-5.931-7.967-10.167-14.675-10.167c-8.656,0-15.699,7.044-15.699,15.702C24.743,36.393,31.786,43.437,40.442,43.437z
		 M69.799,15.032c7,0,12.695,5.698,12.695,12.702s-5.695,12.703-12.695,12.703c-7.007,0-12.708-5.699-12.708-12.703
		C57.091,20.73,62.792,15.032,69.799,15.032z M40.442,15.032c7.004,0,12.701,5.698,12.701,12.702s-5.697,12.703-12.701,12.703
		c-7.002,0-12.699-5.699-12.699-12.703S33.44,15.032,40.442,15.032z"/>
	<path style="fill:#231F20;" d="M92.416,57.869h-7.328v-8.014c0-0.828-0.672-1.5-1.5-1.5H27.814c-0.828,0-1.5,0.672-1.5,1.5v12.584
		L8.186,54.523c-0.462-0.203-0.999-0.157-1.421,0.12c-0.423,0.277-0.679,0.749-0.679,1.255v24.523c0,0.506,0.255,0.978,0.678,1.255
		c0.248,0.163,0.534,0.245,0.822,0.245c0.204,0,0.408-0.042,0.6-0.125l18.128-7.912v12.581c0,0.829,0.672,1.5,1.5,1.5h55.774
		c0.828,0,1.5-0.671,1.5-1.5v-8.023h7.328c0.828,0,1.5-0.671,1.5-1.5V59.368C93.916,58.54,93.244,57.869,92.416,57.869z
		 M26.261,70.635L9.086,78.131v-19.94l17.166,7.495c0.021,0.009,0.042,0.012,0.062,0.021v4.912
		C26.296,70.625,26.278,70.628,26.261,70.635z M82.088,84.967H29.314V51.356h52.774v8.014v17.574V84.967z M90.916,75.443h-5.828
		V60.869h5.828V75.443z"/>
	<path style="fill:#231F20;" d="M40.442,34.275c3.608,0,6.544-2.935,6.544-6.541c0-3.607-2.936-6.541-6.544-6.541
		c-3.605,0-6.538,2.934-6.538,6.541C33.904,31.341,36.837,34.275,40.442,34.275z M40.442,24.193c1.954,0,3.544,1.588,3.544,3.541
		s-1.59,3.541-3.544,3.541c-1.951,0-3.538-1.588-3.538-3.541S38.491,24.193,40.442,24.193z"/>
	<path style="fill:#231F20;" d="M69.79,34.275c3.61,0,6.547-2.935,6.547-6.541c0-3.607-2.937-6.541-6.547-6.541
		c-3.606,0-6.541,2.934-6.541,6.541S66.183,34.275,69.79,34.275z M69.79,24.193c1.956,0,3.547,1.588,3.547,3.541
		s-1.591,3.541-3.547,3.541c-1.952,0-3.541-1.588-3.541-3.541S67.838,24.193,69.79,24.193z"/>
</g>
</svg>
