<svg id="Layer_1" data-name="Layer 1" xmlns="http://www.w3.org/2000/svg" viewBox="0 0 101 101"><title>Artboard 2 copy 23</title><path d="M88.26,56.61a6.75,6.75,0,0,0-4.9-2.08h0a9.12,9.12,0,0,1-8.09-6,15.34,15.34,0,0,1-1.07-4.45,9.93,9.93,0,0,0,2.26-8.56,9.47,9.47,0,0,0-5.53-7,11.25,11.25,0,0,0-2.9-.79V18.5A1.5,1.5,0,0,0,66.5,17h-50A1.5,1.5,0,0,0,15,18.5v64A1.5,1.5,0,0,0,16.5,84h50A1.5,1.5,0,0,0,68,82.5V73H85.5A1.5,1.5,0,0,0,87,71.5V68h1.5A1.5,1.5,0,0,0,90,66.5v-5A6.47,6.47,0,0,0,88.26,56.61ZM65,81H18V20H65v7.78a9.94,9.94,0,0,0-8.43,9.8A10.09,10.09,0,0,0,59,44.07a18.39,18.39,0,0,1-1.14,4.77c-2.69,6.08-7.7,5.81-7.91,5.79h-.13A6.81,6.81,0,0,0,43,61.4v5.1A1.5,1.5,0,0,0,44.5,68H45v3.5A1.5,1.5,0,0,0,46.5,73H65ZM84,70H48V68H84Zm3-5H46V61.4a3.8,3.8,0,0,1,3.78-3.77c.86,0,7.4.15,10.82-7.57a22.67,22.67,0,0,0,1.46-6.39,1.5,1.5,0,0,0-.41-1.15,7.2,7.2,0,0,1-2.07-4.94,6.91,6.91,0,0,1,3.13-5.77,7.32,7.32,0,0,1,7-.5,6.44,6.44,0,0,1,3.75,4.78,6.89,6.89,0,0,1-1.87,6.38,1.5,1.5,0,0,0-.47,1.14,18.72,18.72,0,0,0,1.36,6.17,12,12,0,0,0,10.88,7.77,3.74,3.74,0,0,1,2.71,1.13A3.57,3.57,0,0,1,87,61.4Z"/><path d="M39.5,30h-16a1.5,1.5,0,0,0,0,3h16a1.5,1.5,0,0,0,0-3Z"/><path d="M39.5,37h-16a1.5,1.5,0,0,0,0,3h16a1.5,1.5,0,0,0,0-3Z"/><path d="M39.5,44h-16a1.5,1.5,0,0,0,0,3h16a1.5,1.5,0,0,0,0-3Z"/></svg>