<?xml version="1.0" encoding="iso-8859-1"?>
<!-- Generator: Adobe Illustrator 22.0.1, SVG Export Plug-In . SVG Version: 6.00 Build 0)  -->
<svg version="1.1" id="Layer_1" xmlns="http://www.w3.org/2000/svg" xmlns:xlink="http://www.w3.org/1999/xlink" x="0px" y="0px"
	 viewBox="0 0 100.25 100.25" style="enable-background:new 0 0 100.25 100.25;" xml:space="preserve">
<path d="M82.212,71.101l-4.888-4.887c-0.586-0.586-1.535-0.586-2.121,0l-4.888,4.887c-0.586,0.586-0.586,1.535,0,2.121
	s1.535,0.586,2.121,0l2.174-2.173c-0.535,6.675-3.863,12.57-8.814,16.517c1.562-3.685,2.263-8.728-1.199-14.15
	c-1.95-3.054-5.646-4.783-9.558-6.614c-1.034-0.484-2.057-0.963-3.039-1.462V46.09c0.04-0.023,0.08-0.047,0.12-0.07
	c4.396-2.561,9.336-5.443,10.037-11.77H63.5c0.828,0,1.5-0.671,1.5-1.5s-0.672-1.5-1.5-1.5h-1.32
	c-0.335-4.416-2.259-7.858-5.534-9.776C55.233,20.647,53.634,20.19,52,20.06v-5.196c0,0,0.018-0.079-0.254,0.05
	c3.051-0.533,5.379-3.195,5.379-6.396c0-3.584-2.916-6.5-6.5-6.5s-6.5,2.916-6.5,6.5c0,3.124,2.216,5.739,5.159,6.359
	C49.071,14.721,49,14.81,49,14.81v5.403c-1.262,0.23-2.497,0.647-3.627,1.296c-3.445,1.975-5.439,5.518-5.523,9.741H37.5
	c-0.829,0-1.5,0.671-1.5,1.5c0,0.829,0.671,1.5,1.5,1.5H49v10.127c-3.968,2.393-7.874,5.359-7.875,11.141
	c-0.001,5.926,3.612,9.194,7.875,11.611v25.469C37.443,91.55,28.271,82.122,27.632,70.453l2.769,2.769
	c0.293,0.293,0.677,0.439,1.061,0.439s0.768-0.146,1.061-0.439c0.586-0.586,0.586-1.535,0-2.121l-4.888-4.887
	c-0.586-0.586-1.535-0.586-2.121,0l-4.887,4.887c-0.586,0.586-0.586,1.535,0,2.121s1.535,0.586,2.121,0l1.94-1.94
	C25.778,84.927,37.223,95.7,51.144,95.7c3.325,0,6.506-0.62,9.442-1.741c0.146-0.046,1.261-0.517,1.444-0.603
	c8.758-3.954,15.001-12.519,15.61-22.585l2.452,2.451c0.293,0.293,0.677,0.439,1.061,0.439s0.768-0.146,1.061-0.439
	C82.798,72.636,82.798,71.687,82.212,71.101z M55.129,24.062c2.337,1.368,3.743,3.891,4.049,7.188H52v-8.198
	C53.104,23.172,54.176,23.504,55.129,24.062z M47.125,8.518c0-1.93,1.57-3.5,3.5-3.5s3.5,1.57,3.5,3.5s-1.57,3.5-3.5,3.5
	S47.125,10.448,47.125,8.518z M42.844,31.25c0.103-4.248,2.547-6.294,4.021-7.139c0.673-0.386,1.395-0.665,2.135-0.851v7.989
	L42.844,31.25L42.844,31.25z M59.12,34.25c-0.617,4.075-3.652,6.29-7.12,8.36v-8.36H59.12z M44.125,55.518
	c0.001-3.605,2.056-5.721,4.875-7.599v15.704C46.141,61.725,44.124,59.323,44.125,55.518z M53.768,69.519
	c3.507,1.642,6.818,3.191,8.3,5.513c4.766,7.463-0.145,13.968-1.809,15.832c-2.556,1.077-5.341,1.71-8.258,1.815V68.682
	C52.592,68.967,53.184,69.246,53.768,69.519z"/>
</svg>
