<?xml version="1.0" encoding="iso-8859-1"?>
<!-- Generator: Adobe Illustrator 21.0.0, SVG Export Plug-In . SVG Version: 6.00 Build 0)  -->
<svg version="1.1" id="Layer_1" xmlns="http://www.w3.org/2000/svg" xmlns:xlink="http://www.w3.org/1999/xlink" x="0px" y="0px"
	 viewBox="0 0 99.313 99.313" style="enable-background:new 0 0 99.313 99.313;" xml:space="preserve">
<path style="fill:#231F20;" d="M85.111,19.647c0-0.749-0.553-1.383-1.295-1.486c-0.741-0.106-1.446,0.357-1.648,1.079
	c-1.817,6.451-14.753,10.785-32.189,10.785c-17.775,0-30.997-4.379-32.151-10.649c-0.141-0.763-0.848-1.3-1.611-1.222
	c-0.772,0.07-1.364,0.718-1.364,1.494v48.859c0,0.059,0.024,0.111,0.03,0.168c-0.075,0.401,0.009,0.83,0.274,1.18
	c4.129,5.447,17.366,10.962,34.675,10.962c17.942,0,32.747-5.422,35.202-12.891c0.08-0.242,0.087-0.488,0.047-0.723
	c0.008-0.063,0.03-0.122,0.03-0.186V19.647z M17.853,25.019c5.277,4.989,16.919,8.006,32.126,8.006
	c15.224,0,26.782-3.066,32.132-8.259v38.721c-5.82-4.463-17.47-8.338-31.981-8.338c-14.317,0-26.636,3.45-32.277,8.639V25.019z
	 M49.833,77.816c-15.623,0-27.835-4.709-31.874-9.304c2.301-5.172,14.667-10.363,32.171-10.363c15.622,0,27.834,4.707,31.874,9.302
	C79.7,72.626,67.334,77.816,49.833,77.816z"/>
</svg>
