<?xml version="1.0" encoding="iso-8859-1"?>
<!-- Generator: Adobe Illustrator 22.0.1, SVG Export Plug-In . SVG Version: 6.00 Build 0)  -->
<svg version="1.1" id="Layer_1" xmlns="http://www.w3.org/2000/svg" xmlns:xlink="http://www.w3.org/1999/xlink" x="0px" y="0px"
	 viewBox="0 0 100.25 100.25" style="enable-background:new 0 0 100.25 100.25;" xml:space="preserve">
<g>
	<path d="M71.993,56.135c-0.242-0.539-0.777-0.886-1.368-0.886H56.581L50.519,43c-0.253-0.511-0.774-0.834-1.344-0.834
		s-1.091,0.324-1.344,0.835l-6.06,12.249H28.226c-0.584,0-1.116,0.34-1.361,0.87s-0.161,1.154,0.217,1.601l9.991,11.776
		l-3.092,13.687c-0.128,0.565,0.081,1.152,0.536,1.51c0.455,0.36,1.076,0.422,1.594,0.165l13.064-6.478l13.066,6.478
		c0.211,0.104,0.438,0.156,0.666,0.156c0.33,0,0.657-0.108,0.927-0.321c0.455-0.357,0.664-0.944,0.536-1.509l-3.087-13.666
		l10.463-11.772C72.139,57.304,72.235,56.673,71.993,56.135z M58.529,68.101c-0.321,0.361-0.448,0.855-0.342,1.326L60.75,80.77
		l-10.909-5.407c-0.209-0.104-0.438-0.156-0.666-0.156s-0.457,0.052-0.667,0.156L37.602,80.77l2.562-11.342
		c0.104-0.46-0.014-0.942-0.319-1.302l-8.379-9.877h11.236c0.57,0,1.091-0.323,1.344-0.835l5.128-10.366l5.13,10.366
		c0.253,0.512,0.774,0.835,1.345,0.835h11.636L58.529,68.101z"/>
	<path d="M51,31.053V24.25h16.5c0.828,0,1.5-0.671,1.5-1.5v-16c0-0.829-0.672-1.5-1.5-1.5h-35c-0.829,0-1.5,0.671-1.5,1.5v16
		c0,0.829,0.671,1.5,1.5,1.5H48v6.809C30.28,31.91,16.125,46.591,16.125,64.518c0,18.472,15.028,33.5,33.5,33.5
		s33.5-15.028,33.5-33.5C83.125,46.507,68.836,31.778,51,31.053z M34,8.25h32v13H34V8.25z M49.625,95.018
		c-16.818,0-30.5-13.683-30.5-30.5c0-16.523,13.21-30.01,29.622-30.478c0.391-0.01,1.103-0.01,1.517-0.006
		c16.522,0.343,29.861,13.88,29.861,30.484C80.125,81.335,66.442,95.018,49.625,95.018z"/>
</g>
</svg>
