<svg id="Layer_1" data-name="Layer 1" xmlns="http://www.w3.org/2000/svg" viewBox="0 0 101 101"><title>Artboard 2 copy 12</title><path d="M68.56,46.44a1.5,1.5,0,0,0-2.12,2.12L71.88,54H54.5a1.5,1.5,0,0,0,0,3H71.88l-5.44,5.44a1.5,1.5,0,1,0,2.12,2.12l8-8a1.5,1.5,0,0,0,0-2.12Z"/><path d="M84.5,16H72.93A8,8,0,0,0,58,13.14a8,8,0,0,0-14,0A8,8,0,0,0,29.07,16H17.5A1.5,1.5,0,0,0,16,17.5v67A1.5,1.5,0,0,0,17.5,86h67A1.5,1.5,0,0,0,86,84.5v-67A1.5,1.5,0,0,0,84.5,16ZM65,12a5,5,0,0,1,4.9,4H60.1A5,5,0,0,1,65,12ZM51,12a5,5,0,0,1,4.9,4H46.1A5,5,0,0,1,51,12ZM37,12a5,5,0,0,1,4.9,4H32.1A5,5,0,0,1,37,12Zm-7.74,7A8,8,0,0,0,37,25h.3a1.5,1.5,0,0,0-.05-3H37a5,5,0,0,1-4.58-3H43.26A8,8,0,0,0,51,25h.3a1.5,1.5,0,0,0-.05-3H51a5,5,0,0,1-4.58-3H57.26A8,8,0,0,0,65,25h.3a1.5,1.5,0,0,0-.05-3H65a5,5,0,0,1-4.58-3H83V29H19V19ZM19,83V32H83V83Z"/><path d="M47.5,44h-20A1.5,1.5,0,0,0,26,45.5v20A1.5,1.5,0,0,0,27.5,67h20A1.5,1.5,0,0,0,49,65.5v-20A1.5,1.5,0,0,0,47.5,44ZM46,64H29V47H46Z"/></svg>