<?xml version="1.0" encoding="iso-8859-1"?>
<!-- Generator: Adobe Illustrator 21.1.0, SVG Export Plug-In . SVG Version: 6.00 Build 0)  -->
<svg version="1.1" id="Layer_1" xmlns="http://www.w3.org/2000/svg" xmlns:xlink="http://www.w3.org/1999/xlink" x="0px" y="0px"
	 viewBox="0 0 100.354 100.352" style="enable-background:new 0 0 100.354 100.352;" xml:space="preserve">
<path d="M95.381,41.436L72.885,18.942c-0.281-0.281-0.663-0.439-1.061-0.439H28.178c-0.398,0-0.779,0.158-1.061,0.439L4.622,41.436
	c-0.567,0.567-0.588,1.48-0.047,2.072l12.597,13.787c0.277,0.304,0.667,0.48,1.079,0.488c0.419,0.008,0.808-0.153,1.097-0.446
	l7.331-7.431v30.091c0,0.828,0.671,1.5,1.5,1.5h43.646c0.828,0,1.5-0.672,1.5-1.5v-30.09l7.327,7.43
	c0.289,0.294,0.696,0.463,1.097,0.446c0.411-0.008,0.802-0.185,1.079-0.488l12.601-13.787
	C95.969,42.917,95.948,42.003,95.381,41.436z M81.679,54.106l-8.786-8.908c-0.429-0.433-1.073-0.565-1.638-0.334
	c-0.562,0.231-0.931,0.779-0.931,1.388v32.247H49.328h-19.65V46.251c0-0.608-0.368-1.157-0.931-1.388
	c-0.564-0.232-1.21-0.099-1.637,0.334l-8.789,8.909L7.757,42.544l21.042-21.042h42.404l21.042,21.042L81.679,54.106z"/>
</svg>
