<svg id="Слой_1" data-name="Слой 1" xmlns="http://www.w3.org/2000/svg" viewBox="0 0 100 100"><title>testМонтажная область 23</title><path d="M90,21.5H10A1.5,1.5,0,0,0,8.5,23V71A1.5,1.5,0,0,0,10,72.5H38.5V82a1.49,1.49,0,0,0,.09.5H30a1.5,1.5,0,0,0,0,3H70a1.5,1.5,0,0,0,0-3H60.41a1.48,1.48,0,0,0,.09-.5V72.5H90A1.5,1.5,0,0,0,91.5,71V23A1.5,1.5,0,0,0,90,21.5Zm-32.41,61H41.41a1.49,1.49,0,0,0,.09-.5V72.5h16V82A1.48,1.48,0,0,0,57.59,82.5Zm30.91-13h-77v-45h77Z"/><path d="M43.5,54.15a1.5,1.5,0,0,0-3,0c0,3.79,3.25,6.93,7.5,7.54V64a1.5,1.5,0,0,0,3,0V61.69c4.25-.61,7.5-3.76,7.5-7.54s-3.25-6.93-7.5-7.54V37.35c2.58.52,4.5,2.34,4.5,4.5a1.5,1.5,0,0,0,3,0c0-3.79-3.25-6.93-7.5-7.54V32a1.5,1.5,0,0,0-3,0v2.31c-4.25.61-7.5,3.76-7.5,7.54s3.25,6.92,7.5,7.53v9.27C45.42,58.14,43.5,56.32,43.5,54.15Zm12,0c0,2.17-1.92,4-4.5,4.5v-9C53.58,50.17,55.5,52,55.5,54.15Zm-12-12.3c0-2.16,1.92-4,4.5-4.5v9C45.42,45.83,43.5,44,43.5,41.85Z"/></svg>