<?xml version="1.0" encoding="iso-8859-1"?>
<!-- Generator: Adobe Illustrator 22.0.0, SVG Export Plug-In . SVG Version: 6.00 Build 0)  -->
<svg version="1.1" id="Layer_1" xmlns="http://www.w3.org/2000/svg" xmlns:xlink="http://www.w3.org/1999/xlink" x="0px" y="0px"
	 viewBox="0 0 100.25 100.25" style="enable-background:new 0 0 100.25 100.25;" xml:space="preserve">
<path d="M28.59,84.258l-15.28-0.109L16.976,64.9c0.009-0.047,0.008-0.094,0.012-0.141c0.004-0.043,0.014-0.084,0.014-0.128v-0.032
	c0-0.001,0-0.001,0-0.002l0.004-0.466c0.008-0.967,0.139-1.941,0.276-2.972c0.338-2.521,0.688-5.128-0.782-7.72l-3.019-5.32
	c-0.139-0.665-0.207-1.343-0.202-2.016l0.174-20.051c0.004-0.468,0.605-0.983,1.462-0.983c0.006,0,0.012,0,0.018,0l0.888,0.009
	c0.434,0.004,0.847,0.146,1.132,0.389c0.124,0.106,0.331,0.326,0.329,0.614v0.003c0,0.003,0.001,0.007,0.001,0.01l-0.085,9.882
	c-0.007,0.828,0.659,1.505,1.487,1.513c0.004,0,0.009,0,0.013,0c0.822,0,1.493-0.663,1.5-1.487l0.085-9.89
	c0-0.003-0.001-0.006-0.001-0.01l0.101-11.454c0.002-0.29,0.214-0.507,0.34-0.611c0.29-0.239,0.734-0.374,1.141-0.37l0.883,0.008
	c0.436,0.004,0.85,0.146,1.135,0.39c0.124,0.106,0.33,0.326,0.33,0.615l-0.153,16.707c-0.008,0.828,0.658,1.506,1.486,1.514
	c0.005,0,0.009,0,0.014,0c0.822,0,1.492-0.663,1.5-1.486l0.153-16.699c0-0.001,0-0.002,0-0.004c0-0.001,0-0.003,0-0.004l0.052-5.73
	c0.002-0.29,0.214-0.507,0.339-0.611c0.29-0.239,0.658-0.389,1.146-0.37l0.875,0.006c0.869,0.009,1.471,0.541,1.467,1.011
	l-0.038,4.507c0,0.005-0.002,0.01-0.002,0.015l-0.163,17.91c-0.008,0.829,0.658,1.506,1.486,1.514c0.005,0,0.01,0,0.014,0
	c0.822,0,1.492-0.663,1.5-1.486l0.152-16.679c0-0.008,0.002-0.015,0.002-0.022v-0.001c0.002-0.238,0.144-0.426,0.262-0.542
	c0.285-0.28,0.725-0.437,1.223-0.438l0.878,0.006c0.436,0.004,0.849,0.146,1.134,0.39c0.125,0.106,0.333,0.328,0.33,0.621
	L37.725,31.34v0.001l-0.048,4.326c-0.009,0.829,0.655,1.507,1.483,1.517c0.006,0,0.012,0,0.017,0c0.821,0,1.491-0.661,1.5-1.483
	l0.03-2.712c0-0.014,0.004-0.026,0.004-0.04l0.025-2.912l3.423,0.025c0.5,0.003,0.92,0.438,0.916,0.947l-0.034,4.877
	c-0.006,0.829,0.661,1.505,1.489,1.511c0.004,0,0.008,0,0.011,0c0.823,0,1.494-0.665,1.5-1.489l0.034-4.877
	c0.016-2.172-1.731-3.953-3.895-3.969l-3.418-0.025l0.107-12.201c0.01-1.102-0.493-2.169-1.38-2.928
	c-0.825-0.706-1.911-1.1-3.062-1.109l-0.874-0.006c-0.481,0.004-1.006,0.066-1.479,0.208l0.017-1.959
	c0.018-2.2-1.974-4.011-4.442-4.036L28.772,5c-1.137-0.012-2.24,0.365-3.076,1.056c-0.9,0.742-1.422,1.8-1.431,2.9l-0.018,1.956
	c-0.467-0.149-0.964-0.229-1.473-0.233l-0.883-0.008c-1.113-0.004-2.237,0.365-3.074,1.055c-0.902,0.743-1.424,1.801-1.433,2.901
	l-0.067,7.687c-0.466-0.148-0.961-0.228-1.467-0.232l-0.888-0.009c-2.483-0.036-4.486,1.754-4.507,3.957l-0.174,20.055
	c-0.007,0.98,0.103,1.963,0.325,2.921c0.032,0.141,0.085,0.276,0.156,0.402l3.13,5.516c0.972,1.714,0.715,3.627,0.419,5.842
	c-0.145,1.077-0.294,2.191-0.304,3.346l-0.003,0.366l-3.978,20.884c-0.083,0.438,0.032,0.889,0.314,1.233s0.703,0.544,1.148,0.548
	l17.08,0.123c0.004,0,0.007,0,0.011,0c0.823,0,1.494-0.665,1.5-1.489C30.085,84.94,29.418,84.264,28.59,84.258z"/>
<path d="M92.584,35.54l-0.623-0.628c-0.362-0.366-0.773-0.67-1.213-0.902l1.382-1.391c1.547-1.553,1.394-4.243-0.34-5.993
	l-0.624-0.634c-0.906-0.912-2.113-1.436-3.311-1.436c-0.001,0-0.002,0-0.003,0c-1.028,0-1.976,0.383-2.669,1.079l-1.364,1.371
	c-0.224-0.428-0.518-0.834-0.881-1.199l-0.623-0.632c-0.905-0.914-2.112-1.438-3.312-1.439c0,0-0.001,0-0.002,0
	c-1.029,0-1.978,0.384-2.67,1.081L66.262,34.936c-0.224-0.431-0.518-0.84-0.882-1.209l-0.622-0.624
	c-0.904-0.913-2.11-1.438-3.31-1.439c-0.001,0-0.003,0-0.004,0c-1.029,0-1.977,0.383-2.669,1.08l-9.221,9.268
	c-0.841,0.846-1.555,1.811-2.121,2.868c-0.066,0.124-0.115,0.256-0.145,0.394l-1.221,5.689c-0.494,2.311-2.198,3.745-4.171,5.407
	c-0.731,0.616-1.483,1.258-2.201,1.965l-17.901,11.5c-0.381,0.245-0.631,0.647-0.681,1.097c-0.05,0.449,0.106,0.897,0.424,1.219
	l24.088,24.398c0.283,0.287,0.668,0.446,1.067,0.446c0.044,0,0.088-0.002,0.132-0.006c0.446-0.04,0.851-0.276,1.104-0.644
	l12.014-17.472l0.258-0.258c0.811-0.815,1.497-1.703,2.16-2.562c1.364-1.765,2.542-3.29,4.43-3.789l6.103-1.61
	c0.142-0.037,0.276-0.095,0.401-0.171c0.838-0.514,1.612-1.125,2.304-1.816l14.096-14.164c1.543-1.554,1.389-4.243-0.345-5.996
	l-0.626-0.631c-0.361-0.365-0.771-0.667-1.209-0.899l5.411-5.438C94.473,39.985,94.32,37.295,92.584,35.54z M90.8,39.421
	l-8.049,8.09c-0.003,0.003-0.006,0.003-0.009,0.006l-6.952,6.985c-0.584,0.587-0.582,1.537,0.005,2.121
	c0.293,0.292,0.676,0.437,1.059,0.437c0.385,0,0.771-0.147,1.063-0.442l6.946-6.979c0.003-0.003,0.006-0.003,0.009-0.006
	l0.003-0.003c0.158-0.159,0.379-0.192,0.536-0.192c0.001,0,0.001,0,0.001,0c0.399,0,0.84,0.206,1.181,0.549l0.625,0.63
	c0.619,0.626,0.681,1.435,0.349,1.769L73.474,66.547c-0.473,0.473-0.999,0.897-1.567,1.263l-5.882,1.552
	c-2.872,0.76-4.554,2.936-6.037,4.855c-0.635,0.821-1.234,1.597-1.911,2.277l-0.354,0.354c-0.005,0.005-0.007,0.012-0.012,0.018
	c-0.058,0.06-0.114,0.121-0.163,0.192L46.486,93.147L24.973,71.356l16.453-10.57c0.092-0.059,0.174-0.128,0.249-0.202
	c0.001-0.001,0.003-0.002,0.004-0.003c0.666-0.67,1.421-1.305,2.15-1.92c2.194-1.848,4.463-3.758,5.172-7.072l1.175-5.474
	c0.411-0.73,0.917-1.399,1.505-1.99l9.221-9.268c0.161-0.162,0.383-0.195,0.542-0.195h0.001c0.398,0,0.84,0.206,1.185,0.554
	l0.621,0.623c0.619,0.627,0.68,1.437,0.348,1.771c0,0-0.001,0.001-0.001,0.002l-6.301,6.331c-0.584,0.587-0.582,1.537,0.006,2.122
	c0.292,0.291,0.675,0.437,1.058,0.437c0.385,0,0.771-0.147,1.063-0.442l7.412-7.448c0,0,0.001-0.001,0.001-0.002l11.622-11.679
	c0.16-0.162,0.384-0.196,0.542-0.196h0.001c0.399,0,0.841,0.206,1.18,0.547l0.625,0.635c0.62,0.623,0.68,1.43,0.347,1.765v0.001
	c-0.001,0.001-0.001,0.003-0.003,0.004L66.149,44.763c-0.584,0.587-0.582,1.537,0.006,2.122c0.292,0.291,0.675,0.437,1.058,0.437
	c0.385,0,0.771-0.147,1.063-0.442l15.855-15.934c0.002-0.002,0.002-0.005,0.004-0.007l3.173-3.187
	c0.161-0.162,0.385-0.196,0.544-0.196h0.001c0.399,0,0.842,0.206,1.18,0.546l0.622,0.632c0.62,0.626,0.682,1.435,0.349,1.769
	l-3.174,3.193c0,0-0.001,0-0.001,0.001L70.971,49.634c-0.584,0.587-0.582,1.537,0.006,2.122c0.292,0.291,0.675,0.437,1.058,0.437
	c0.385,0,0.771-0.147,1.063-0.442l15.006-15.081l0,0l0.003-0.002c0.16-0.16,0.382-0.194,0.54-0.194c0,0,0,0,0.001,0
	c0.398,0,0.841,0.206,1.183,0.551l0.622,0.627C91.072,38.278,91.133,39.087,90.8,39.421z"/>
</svg>
