<?xml version="1.0" encoding="iso-8859-1"?>
<!-- Generator: Adobe Illustrator 21.1.0, SVG Export Plug-In . SVG Version: 6.00 Build 0)  -->
<svg version="1.1" id="Layer_1" xmlns="http://www.w3.org/2000/svg" xmlns:xlink="http://www.w3.org/1999/xlink" x="0px" y="0px"
	 viewBox="0 0 100.75 100.748" style="enable-background:new 0 0 100.75 100.748;" xml:space="preserve">
<g>
	<path d="M75.671,22.495c0-0.167-0.034-0.324-0.084-0.474c0.018-0.254,0.038-0.51,0.045-0.754
		c0.115-4.445,0.006-17.407,0.001-17.957c-0.007-0.828-0.663-1.5-1.513-1.487c-0.828,0.007-1.494,0.685-1.487,1.513
		c0,0.068,0.029,3.51,0.043,7.463H65.01V3.323c0-0.829-0.672-1.5-1.5-1.5s-1.5,0.671-1.5,1.5v7.476h-6.33V3.323
		c0-0.829-0.672-1.5-1.5-1.5s-1.5,0.671-1.5,1.5v7.476h-6.331V3.323c0-0.829-0.671-1.5-1.5-1.5s-1.5,0.671-1.5,1.5v7.476h-6.33
		V3.323c0-0.829-0.671-1.5-1.5-1.5s-1.5,0.671-1.5,1.5v7.476h-6.696c0.013-3.954,0.042-7.396,0.042-7.464
		c0.007-0.828-0.659-1.505-1.488-1.512c-0.004,0-0.008,0-0.013,0c-0.822,0-1.493,0.664-1.5,1.488c-0.004,0.549-0.11,13.511,0,17.957
		c0.007,0.252,0.028,0.518,0.046,0.781c-0.045,0.142-0.075,0.29-0.075,0.447c0,0.263,0.074,0.507,0.193,0.721
		c0.721,5.641,3.725,13.151,6.572,18.802v36.468c0,10.856,8.478,19.689,18.898,19.689c10.425,0,18.905-8.833,18.905-19.689V42.018
		c2.839-5.643,5.836-13.14,6.561-18.778C75.593,23.02,75.671,22.768,75.671,22.495z M72.683,13.799
		c0.003,2.828-0.007,5.552-0.045,7.196H27.36c-0.037-1.645-0.046-4.369-0.044-7.196H72.683z M67.033,39.02
		c-4.407-4.724-9.609-8.744-17.03-8.744c-7.421,0-12.623,4.021-17.032,8.746c-2.689-5.604-4.584-10.996-5.296-15.026h44.643
		C71.593,28.024,69.68,33.483,67.033,39.02z M49.999,95.176c-8.766,0-15.898-7.487-15.898-16.689v-36.25
		c4.183-4.707,9.024-8.96,15.902-8.96c6.878,0,11.72,4.253,15.901,8.959v36.251C65.904,87.688,58.77,95.176,49.999,95.176z"/>
	<path d="M50.004,46.999c-3.189,0-5.784,2.594-5.784,5.783v7.343c0,3.191,2.595,5.788,5.784,5.788c3.191,0,5.787-2.597,5.787-5.788
		v-7.343C55.791,49.593,53.195,46.999,50.004,46.999z M52.791,60.125c0,1.537-1.25,2.788-2.787,2.788
		c-1.535,0-2.784-1.251-2.784-2.788v-7.343c0-1.534,1.249-2.783,2.784-2.783c1.537,0,2.787,1.249,2.787,2.783V60.125z"/>
</g>
</svg>
