<?xml version="1.0" encoding="iso-8859-1"?>
<!-- Generator: Adobe Illustrator 21.1.0, SVG Export Plug-In . SVG Version: 6.00 Build 0)  -->
<svg version="1.1" id="Layer_1" xmlns="http://www.w3.org/2000/svg" xmlns:xlink="http://www.w3.org/1999/xlink" x="0px" y="0px"
	 viewBox="0 0 100.353 100.352" style="enable-background:new 0 0 100.353 100.352;" xml:space="preserve">
<g>
	<path d="M87.444,50.72c0-20.379-16.422-37-36.789-37.477c-0.071-0.01-0.141-0.022-0.215-0.022c-0.071,0-0.14,0.01-0.212,0.011
		c-0.157-0.002-0.312-0.012-0.47-0.012c-20.779,0-37.685,16.822-37.685,37.5s16.905,37.5,37.685,37.5c0,0,0.001,0,0.001,0
		c0,0,0,0,0,0c0,0,0.001,0,0.001,0C70.54,88.219,87.444,71.397,87.444,50.72z M15.074,50.72c0-14.618,9.192-27.133,22.126-32.15
		c-3.774,3.597-6.148,8.693-6.148,14.353c0,10.602,8.637,19.234,19.277,19.295c0.037,0.003,0.075,0.004,0.113,0.004
		c9.038,0,16.391,7.311,16.391,16.296c0,8.896-7.978,16.701-17.072,16.701c-0.001,0-0.001,0-0.002,0
		C30.634,85.22,15.074,69.743,15.074,50.72z M63.89,82.215c3.631-3.605,5.943-8.49,5.943-13.696
		c0-10.603-8.637-19.234-19.277-19.295c-0.037-0.003-0.075-0.004-0.113-0.004c-9.038,0-16.391-7.31-16.391-16.295
		c0-8.983,7.39-16.573,16.182-16.692c18.907,0.255,34.21,15.623,34.21,34.488C84.444,64.739,75.99,76.822,63.89,82.215z"/>
	<path d="M55.93,73.131c0-3.01-2.462-5.459-5.488-5.46c-3.026,0-5.489,2.449-5.489,5.46c0,3.018,2.462,5.472,5.489,5.472
		S55.93,76.149,55.93,73.131z M47.953,73.131c0-1.356,1.117-2.46,2.488-2.46c1.373,0.001,2.489,1.104,2.489,2.46
		c0,1.363-1.116,2.472-2.488,2.472S47.953,74.494,47.953,73.131z"/>
	<path d="M50.441,22.714c-3.026,0-5.489,2.453-5.489,5.467c0,3.018,2.462,5.472,5.489,5.472s5.488-2.455,5.488-5.472
		C55.93,25.166,53.468,22.714,50.441,22.714z M50.441,30.653c-1.372,0-2.489-1.109-2.489-2.472c0-1.36,1.117-2.467,2.489-2.467
		s2.488,1.106,2.488,2.467C52.93,29.544,51.813,30.653,50.441,30.653z"/>
</g>
</svg>
