<?xml version="1.0" encoding="iso-8859-1"?>
<!-- Generator: Adobe Illustrator 22.0.0, SVG Export Plug-In . SVG Version: 6.00 Build 0)  -->
<svg version="1.1" id="Layer_1" xmlns="http://www.w3.org/2000/svg" xmlns:xlink="http://www.w3.org/1999/xlink" x="0px" y="0px"
	 viewBox="0 0 100.25 100.25" style="enable-background:new 0 0 100.25 100.25;" xml:space="preserve">
<path d="M91.568,7.603c-0.586-0.586-1.535-0.586-2.121,0l-9.512,9.512l-22.641,1.927c-0.353,0.03-0.683,0.184-0.933,0.434
	L21.565,54.272c-0.586,0.585-0.586,1.536,0,2.121l1.061,1.061L7.593,72.487c-0.307,0.306-0.465,0.73-0.436,1.163
	c0.309,4.512,2.412,8.931,5.923,12.441c3.509,3.51,7.927,5.613,12.441,5.923c0.034,0.002,0.068,0.003,0.103,0.003
	c0.396,0,0.778-0.157,1.061-0.439l15.033-15.033l1.061,1.061c0.293,0.293,0.677,0.439,1.061,0.439s0.768-0.146,1.061-0.439
	L79.697,42.81c0.25-0.25,0.404-0.581,0.434-0.933l1.927-22.641l9.512-9.512C92.154,9.139,92.154,8.188,91.568,7.603z M25.06,88.96
	c-3.56-0.413-7.038-2.168-9.859-4.99c-2.822-2.823-4.578-6.301-4.99-9.859l14.536-14.536l14.85,14.85L25.06,88.96z M43.838,74.424
	L24.746,55.332l33.348-33.348l20.675-1.76c0.028,0.033,0.039,0.075,0.07,0.106s0.073,0.042,0.106,0.07l-1.76,20.675L43.838,74.424z"
	/>
<path d="M66.726,33.672c-0.073-0.17-0.174-0.332-0.313-0.471s-0.301-0.24-0.471-0.313l-0.064-0.064
	c-3.185-3.185-8.368-3.185-11.553,0L41.13,46.02c-3.185,3.185-3.185,8.368,0,11.553l1.175,1.175
	c1.593,1.593,3.684,2.389,5.776,2.389s4.184-0.797,5.776-2.389l13.196-13.195c3.186-3.185,3.186-8.368,0-11.553L66.726,33.672z
	 M43.251,48.141l13.195-13.196c1.008-1.008,2.332-1.511,3.656-1.511c1.052,0,2.096,0.332,2.989,0.968L42.705,54.788
	c-0.622-0.87-0.968-1.901-0.968-2.991C41.737,50.416,42.275,49.118,43.251,48.141z M64.932,43.431L51.736,56.626
	c-0.977,0.976-2.274,1.514-3.655,1.514c-1.217,0-2.356-0.439-3.281-1.206l20.44-20.44c0.767,0.925,1.206,2.064,1.206,3.281
	C66.446,41.157,65.908,42.455,64.932,43.431z"/>
</svg>
