<?xml version="1.0" encoding="iso-8859-1"?>
<!-- Generator: Adobe Illustrator 22.0.0, SVG Export Plug-In . SVG Version: 6.00 Build 0)  -->
<svg version="1.1" id="Layer_1" xmlns="http://www.w3.org/2000/svg" xmlns:xlink="http://www.w3.org/1999/xlink" x="0px" y="0px"
	 viewBox="0 0 100.757 100.757" style="enable-background:new 0 0 100.757 100.757;" xml:space="preserve">
<path d="M88.561,11.439c-0.585-0.585-1.534-0.585-2.119,0L71.253,26.628L57.477,12.853c-0.585-0.585-1.534-0.585-2.119,0
	L9.439,58.771c-0.585,0.584-0.585,1.535,0,2.119L16.15,67.6l-6.004,6.005c-0.585,0.585-0.585,1.535,0,2.119l14.129,14.129
	c0.293,0.293,0.676,0.439,1.06,0.439c0.384,0,0.767-0.146,1.06-0.439l6.005-6.004l6.711,6.711c0.293,0.293,0.676,0.439,1.06,0.439
	c0.384,0,0.767-0.146,1.06-0.439l45.917-45.918c0.585-0.584,0.585-1.535,0-2.119L73.372,28.747l15.189-15.189
	C89.146,12.974,89.146,12.024,88.561,11.439z M25.334,86.676l-12.01-12.01l4.945-4.945l12.01,12.01L25.334,86.676z M40.169,87.382
	L12.618,59.831l7.843-7.843c0.072,0.152,0.157,0.299,0.282,0.425l21.899,21.899c0.293,0.293,0.676,0.439,1.06,0.439
	c0.384,0,0.767-0.146,1.06-0.439c0.585-0.584,0.585-1.535,0-2.119L22.863,50.294c-0.125-0.125-0.273-0.21-0.425-0.282l7.207-7.207
	c0.072,0.152,0.157,0.299,0.282,0.425l21.899,21.899c0.293,0.293,0.676,0.439,1.06,0.439c0.384,0,0.767-0.146,1.06-0.439
	c0.585-0.584,0.585-1.535,0-2.119L32.047,41.11c-0.125-0.125-0.273-0.21-0.425-0.282l7.207-7.207
	c0.072,0.152,0.157,0.299,0.282,0.425l21.899,21.899c0.293,0.293,0.676,0.439,1.06,0.439c0.384,0,0.767-0.146,1.06-0.439
	c0.585-0.584,0.585-1.535,0-2.119L41.231,31.927c-0.125-0.125-0.273-0.21-0.425-0.282l7.207-7.207
	c0.072,0.152,0.157,0.299,0.282,0.425l21.899,21.899c0.293,0.293,0.676,0.439,1.06,0.439c0.384,0,0.767-0.146,1.06-0.439
	c0.585-0.584,0.585-1.535,0-2.119L50.416,22.743c-0.125-0.125-0.273-0.21-0.425-0.282l6.43-6.43l27.551,27.551L40.169,87.382z"/>
</svg>
