<svg id="Слой_1" data-name="Слой 1" xmlns="http://www.w3.org/2000/svg" viewBox="0 0 100 100"><title>testМонтажная область 7</title><path d="M63.81,43.78A10.32,10.32,0,0,1,68.72,43,13.62,13.62,0,0,0,74.91,41a17.77,17.77,0,0,0,8.84-10.65,17.41,17.41,0,0,0-1.42-13.49A18.36,18.36,0,0,0,57.76,9.62h0a17.77,17.77,0,0,0-8.84,10.65,17.41,17.41,0,0,0,1.42,13.49c0,.07.1.21.13.27a7.45,7.45,0,0,1-3.29,10A7.84,7.84,0,0,1,36.79,41.1l-.13-.21a18.36,18.36,0,0,0-24.57-7.27A17.77,17.77,0,0,0,3.25,44.28,17.41,17.41,0,0,0,4.67,57.77,18.36,18.36,0,0,0,29.24,65a13.42,13.42,0,0,0,5.07-4,10,10,0,0,1,3.4-3.56A7.86,7.86,0,0,1,48.23,60.6a7.25,7.25,0,0,1,.31,6.6,17.49,17.49,0,0,0,0,16.92,18.38,18.38,0,0,0,24.57,7.27,17.77,17.77,0,0,0,8.84-10.65,17.41,17.41,0,0,0-1.42-13.49c-2.81-5.13-7.89-8.35-14.7-9.31-.53-.17-3.71-1.28-5.16-3.92a7.36,7.36,0,0,1-.6-5.7A7.56,7.56,0,0,1,63.81,43.78Zm-6.63,3.66a10.34,10.34,0,0,0,.84,8c2.2,4,6.87,5.34,7.07,5.4l.19,0c4.1.56,9.62,2.36,12.59,7.79a14.44,14.44,0,0,1,1.18,11.19,14.79,14.79,0,0,1-7.36,8.86,15.35,15.35,0,0,1-20.55-6.06,14.51,14.51,0,0,1,0-14,10.25,10.25,0,0,0-.31-9.49,10.88,10.88,0,0,0-14.55-4.31,12.75,12.75,0,0,0-4.48,4.52,10.88,10.88,0,0,1-4,3A15.35,15.35,0,0,1,7.3,56.33,14.44,14.44,0,0,1,6.12,45.15a14.79,14.79,0,0,1,7.36-8.86A15.35,15.35,0,0,1,34,42.34c.07.13.21.35.22.36a10.83,10.83,0,0,0,14.33,3.95,10.42,10.42,0,0,0,4.6-13.9s-.13-.29-.21-.43a14.44,14.44,0,0,1-1.18-11.19,14.79,14.79,0,0,1,7.36-8.86A15.35,15.35,0,0,1,79.7,18.33a14.44,14.44,0,0,1,1.18,11.19,14.79,14.79,0,0,1-7.36,8.86A11.06,11.06,0,0,1,68.71,40a13.25,13.25,0,0,0-6.3,1.16A10.53,10.53,0,0,0,57.18,47.44Z"/></svg>