<?xml version="1.0" encoding="iso-8859-1"?>
<!-- Generator: Adobe Illustrator 22.0.0, SVG Export Plug-In . SVG Version: 6.00 Build 0)  -->
<svg version="1.1" id="Layer_1" xmlns="http://www.w3.org/2000/svg" xmlns:xlink="http://www.w3.org/1999/xlink" x="0px" y="0px"
	 viewBox="0 0 100.25 100.25" style="enable-background:new 0 0 100.25 100.25;" xml:space="preserve">
<path d="M50.203,19.762c9.25,0.128,13.245,11.978,13.284,12.097c0.258,0.787,1.105,1.217,1.892,0.959
	c0.787-0.257,1.217-1.102,0.96-1.889c-0.186-0.572-4.689-14.008-16.095-14.167c-4.595-0.067-10.968,1.837-15.261,11.237
	c-1.436,3.141-2.403,8.51-2.408,13.362c-0.003,3.201,0.429,7.421,2.503,9.354c0.746,0.696,1.654,1.058,2.641,1.058
	c0.097,0,0.195-0.003,0.293-0.011c0.826-0.059,1.448-0.777,1.389-1.603c-0.06-0.826-0.779-1.461-1.603-1.389
	c-0.265,0.023-0.464-0.053-0.675-0.25c-0.751-0.7-1.552-2.947-1.548-7.156c0.004-4.392,0.883-9.375,2.137-12.118
	C40.62,22.879,44.826,19.666,50.203,19.762z"/>
<path d="M70.715,61.46c-0.814-0.17-1.604,0.362-1.767,1.174c-1.581,7.84-2.614,12.847-3.071,14.881
	c-1.567,6.977-7.135,14.486-15.656,14.486c-11.573,0-16.398-7.831-17.067-15.258c-0.715-4.581-1.235-11.799-0.15-13.508
	c0.704-1.116,2.779-2.159,4.723-2.375c1.231-0.135,1.958,0.108,2.231,0.381c0.724,0.726,1.039,3.131,1.292,5.063
	c0.406,3.102,0.826,6.31,2.98,7.554c1.221,0.71,2.908,0.452,4.11,0.111c1.635-0.465,3.648-1.462,4.397-2.868
	c1.09-2.05-0.161-4.77-1.371-7.4c-0.675-1.467-1.439-3.129-1.4-3.966c0.039-0.828-0.6-1.53-1.428-1.569
	c-0.846-0.03-1.53,0.601-1.569,1.428c-0.074,1.568,0.774,3.41,1.671,5.361c0.688,1.496,1.84,4,1.449,4.736
	c-0.449,0.818-3.55,1.928-4.355,1.572c-0.876-0.506-1.242-3.304-1.51-5.348c-0.359-2.749-0.699-5.345-2.142-6.792
	c-1.022-1.024-2.687-1.467-4.686-1.244c-2.361,0.262-5.537,1.549-6.927,3.752c-2.071,3.261-0.596,13.547-0.292,15.478
	C31.36,90.316,41.713,95.002,50.22,95.002c8.715,0,16.356-6.92,18.583-16.828c0.462-2.055,1.5-7.083,3.085-14.946
	C72.052,62.414,71.527,61.623,70.715,61.46z"/>
<path d="M50.224,8.17c12.697,0,23.252,9.508,24.553,22.117c0.085,0.824,0.825,1.419,1.646,1.338
	c0.824-0.085,1.423-0.822,1.338-1.646C76.302,15.835,64.463,5.17,50.224,5.17c-6.435,0-12.359,2.214-17.065,5.911
	c-1.979-2.524-4.992-4.024-8.225-4.024c-5.771,0-10.467,4.696-10.467,10.467c0,4.951,3.516,9.263,8.359,10.255
	c0.063,0.013,0.126,0.014,0.188,0.019c-0.304,1.641-0.471,3.329-0.471,5.056c0,0.829,0.671,1.5,1.5,1.5s1.5-0.671,1.5-1.5
	C25.544,19.243,36.615,8.17,50.224,8.17z M23.706,24.927c-0.088-0.037-0.181-0.067-0.278-0.087c-3.454-0.707-5.96-3.784-5.96-7.315
	c0-4.118,3.35-7.467,7.467-7.467c2.36,0,4.558,1.121,5.967,3.001C27.581,16.301,25.071,20.368,23.706,24.927z"/>
<path d="M75.275,35.907c-3.862,0-7.275,1.953-9.309,4.922L45.308,28.822c-0.717-0.417-1.634-0.173-2.051,0.543
	s-0.173,1.634,0.543,2.051l20.82,12.102c-0.398,1.152-0.625,2.384-0.625,3.67c0,6.219,5.06,11.279,11.279,11.279
	c6.22,0,11.28-5.06,11.28-11.279C86.555,40.967,81.494,35.907,75.275,35.907z M75.275,55.466c-4.565,0-8.279-3.714-8.279-8.279
	s3.714-8.28,8.279-8.28s8.28,3.714,8.28,8.28S79.84,55.466,75.275,55.466z"/>
</svg>
