<svg id="Layer_1" data-name="Layer 1" xmlns="http://www.w3.org/2000/svg" viewBox="0 0 101 101"><title>log_Artboard 2 copy</title><path d="M84.5,15h-67A1.5,1.5,0,0,0,16,16.5v67A1.5,1.5,0,0,0,17.5,85h67A1.5,1.5,0,0,0,86,83.5v-67A1.5,1.5,0,0,0,84.5,15ZM83,82H19V18H83Z"/><path d="M40.5,48h20A1.5,1.5,0,0,0,62,46.5v-20A1.5,1.5,0,0,0,60.5,25h-20A1.5,1.5,0,0,0,39,26.5v20A1.5,1.5,0,0,0,40.5,48ZM42,28h7v3.5a1.5,1.5,0,0,0,3,0V28h7V45H42Z"/><path d="M53,53.5v20A1.5,1.5,0,0,0,54.5,75h20A1.5,1.5,0,0,0,76,73.5v-20A1.5,1.5,0,0,0,74.5,52h-20A1.5,1.5,0,0,0,53,53.5ZM56,55h7v3.5a1.5,1.5,0,0,0,3,0V55h7V72H56Z"/><path d="M26.5,75h20A1.5,1.5,0,0,0,48,73.5v-20A1.5,1.5,0,0,0,46.5,52h-20A1.5,1.5,0,0,0,25,53.5v20A1.5,1.5,0,0,0,26.5,75ZM28,55h7v3.5a1.5,1.5,0,0,0,3,0V55h7V72H28Z"/></svg>