<?xml version="1.0" encoding="iso-8859-1"?>
<!-- Generator: Adobe Illustrator 21.1.0, SVG Export Plug-In . SVG Version: 6.00 Build 0)  -->
<svg version="1.1" id="Layer_1" xmlns="http://www.w3.org/2000/svg" xmlns:xlink="http://www.w3.org/1999/xlink" x="0px" y="0px"
	 viewBox="0 0 100.354 100.352" style="enable-background:new 0 0 100.354 100.352;" xml:space="preserve">
<g>
	<path d="M78.384,49.001c-1.051,0-2.02,0.454-2.855,1.263v-4.939c0-10.147-5.95-18.928-14.542-23.042
		c0.432-1.23,0.66-2.522,0.66-3.864c0-6.423-5.225-11.648-11.646-11.648c-6.427,0-11.655,5.225-11.655,11.648
		c0,1.313,0.235,2.623,0.67,3.863c-8.596,4.114-14.549,12.896-14.549,23.043v4.935c-0.834-0.807-1.8-1.259-2.849-1.259
		c-3.334,0-5.849,4.565-5.849,10.62v8.484c0,6.052,2.515,10.616,5.849,10.616c1.654,0,3.106-1.126,4.149-2.997
		c3.374,10.154,12.959,17.501,24.234,17.501c11.272,0,20.854-7.348,24.227-17.503c1.045,1.872,2.498,2.999,4.155,2.999
		c3.335,0,5.85-4.564,5.85-10.616v-8.484C84.233,53.567,81.719,49.001,78.384,49.001z M41.346,18.42
		c0-4.769,3.883-8.648,8.655-8.648c4.768,0,8.646,3.879,8.646,8.648c0,0.949-0.158,1.862-0.448,2.733
		c-2.575-0.876-5.33-1.358-8.197-1.358c-2.869,0-5.626,0.483-8.202,1.359C41.506,20.276,41.346,19.363,41.346,18.42z M50.002,22.795
		c8.428,0,15.786,4.657,19.648,11.53c-1.057-0.811-2.228-1.458-3.481-1.715c-1.701-0.348-3.36,0.055-4.805,1.167
		c-1.549,1.19-2.968,2.396-4.219,3.458c-2.854,2.423-5.317,4.517-7.144,4.517c-1.829,0-4.296-2.096-7.152-4.523
		c-1.249-1.061-2.665-2.263-4.209-3.452c-1.445-1.111-3.108-1.516-4.805-1.166c-1.259,0.258-2.436,0.909-3.497,1.726
		C34.201,27.457,41.565,22.795,50.002,22.795z M24.467,68.106c0,4.578-1.714,7.616-2.849,7.616s-2.849-3.038-2.849-7.616v-8.484
		c0-4.581,1.715-7.62,2.849-7.62s2.849,3.039,2.849,7.62v8.076V68.106z M50.002,90.226c-12.426,0-22.535-10.106-22.535-22.528
		v-8.076V45.326c0-1.086,0.082-2.153,0.231-3.198c0.055-0.067,0.107-0.136,0.15-0.214c0.887-1.577,3.799-5.794,6.593-6.365
		c0.854-0.174,1.606,0.019,2.37,0.606c1.487,1.144,2.813,2.271,4.095,3.36c3.444,2.926,6.164,5.237,9.095,5.237
		c2.928,0,5.646-2.308,9.085-5.23c1.286-1.092,2.615-2.221,4.106-3.367c0.764-0.588,1.516-0.781,2.37-0.606
		c2.793,0.57,5.704,4.788,6.59,6.365c0.041,0.074,0.091,0.139,0.143,0.203c0.15,1.049,0.232,2.119,0.232,3.209v14.295v8.076
		C72.528,80.119,62.423,90.226,50.002,90.226z M81.233,68.106c0,4.578-1.715,7.616-2.85,7.616c-1.137,0-2.855-3.038-2.855-7.616
		v-0.408v-8.076c0-4.581,1.719-7.62,2.855-7.62c1.135,0,2.85,3.039,2.85,7.62V68.106z"/>
	<path d="M38.03,59.085c-3.626,0-6.807,2.314-7.913,5.76c-0.253,0.789,0.181,1.634,0.97,1.887c0.788,0.258,1.633-0.18,1.887-0.969
		c0.707-2.2,2.739-3.678,5.057-3.678c2.319,0,4.352,1.48,5.057,3.684c0.204,0.637,0.793,1.042,1.428,1.042
		c0.152,0,0.306-0.022,0.458-0.071c0.789-0.253,1.224-1.098,0.971-1.887C44.839,61.404,41.658,59.085,38.03,59.085z"/>
	<path d="M61.971,59.085c-3.628,0-6.808,2.315-7.912,5.761c-0.253,0.789,0.182,1.634,0.971,1.887
		c0.792,0.255,1.634-0.182,1.887-0.971c0.704-2.199,2.736-3.677,5.055-3.677c2.32,0,4.353,1.48,5.059,3.684
		c0.204,0.637,0.794,1.042,1.429,1.042c0.151,0,0.306-0.022,0.458-0.071c0.789-0.253,1.224-1.098,0.971-1.887
		C68.781,61.404,65.6,59.085,61.971,59.085z"/>
	<path d="M50.002,46.21c-2.46,0-4.462,2.002-4.462,4.463c0,2.463,2.001,4.467,4.462,4.467c2.459,0,4.459-2.004,4.459-4.467
		C54.461,48.213,52.461,46.21,50.002,46.21z M50.002,52.14c-0.806,0-1.462-0.658-1.462-1.467c0-0.807,0.656-1.463,1.461-1.463
		c0.805,0,1.459,0.657,1.459,1.463C51.461,51.482,50.807,52.14,50.002,52.14z"/>
</g>
</svg>
