<?xml version="1.0" encoding="iso-8859-1"?>
<!-- Generator: Adobe Illustrator 21.1.0, SVG Export Plug-In . SVG Version: 6.00 Build 0)  -->
<svg version="1.1" id="Layer_1" xmlns="http://www.w3.org/2000/svg" xmlns:xlink="http://www.w3.org/1999/xlink" x="0px" y="0px"
	 viewBox="0 0 100.75 100.75" style="enable-background:new 0 0 100.75 100.75;" xml:space="preserve">
<g>
	<path d="M91.72,42.953h-6.885v-9c0-0.829-0.672-1.5-1.5-1.5H74.74c-0.384-4.432-5.737-7.497-11.212-7.98V13.928
		c0-0.402-0.162-0.788-0.448-1.07c-0.288-0.282-0.691-0.445-1.078-0.43c-11.23,0.195-18.536,3.962-21.734,11.203
		c-6.986,0.334-14.604,4.037-15.113,8.823h-8.488c-0.829,0-1.5,0.671-1.5,1.5v9H8.281c-0.829,0-1.5,0.671-1.5,1.5v26.639
		c0,9.087,7.394,16.48,16.483,16.48h53.477c9.086,0,16.479-7.394,16.479-16.48V44.453C93.22,43.625,92.548,42.953,91.72,42.953z
		 M41.283,26.606c0.624,0,1.183-0.386,1.403-0.97c2.367-6.264,8.366-9.677,17.841-10.157v10.419c0,0,0,0,0,0s0,0,0,0
		c0,0.829,0.672,1.5,1.5,1.5c4.718,0,9.189,2.392,9.701,5.054H28.18C28.878,29.966,34.48,26.606,41.283,26.606z M18.165,35.453
		h63.67v7.5h-63.67V35.453z M90.22,71.092c0,7.434-6.047,13.48-13.479,13.48H23.264c-7.435,0-13.483-6.047-13.483-13.48V45.953
		h6.855c0.01,0,0.019,0.003,0.029,0.003s0.019-0.003,0.029-0.003h66.612c0.01,0,0.019,0.003,0.029,0.003s0.019-0.003,0.029-0.003
		h6.856V71.092z"/>
	<path d="M27.87,76.877c-5.352,0-9.705-4.354-9.705-9.704V51.265c0-0.829-0.671-1.5-1.5-1.5s-1.5,0.671-1.5,1.5v15.908
		c0,7.005,5.7,12.704,12.705,12.704c0.829,0,1.5-0.672,1.5-1.5S28.699,76.877,27.87,76.877z"/>
</g>
</svg>
