<?xml version="1.0" encoding="iso-8859-1"?>
<!-- Generator: Adobe Illustrator 21.0.0, SVG Export Plug-In . SVG Version: 6.00 Build 0)  -->
<svg version="1.1" id="Layer_1" xmlns="http://www.w3.org/2000/svg" xmlns:xlink="http://www.w3.org/1999/xlink" x="0px" y="0px"
	 viewBox="0 0 99.313 99.313" style="enable-background:new 0 0 99.313 99.313;" xml:space="preserve">
<path style="fill:#231F20;" d="M81.614,29.172c0-0.534-0.284-1.028-0.746-1.297L50.235,10.063c-0.002-0.001-0.004-0.002-0.006-0.003
	c0,0-0.001-0.001-0.001-0.001c-0.003-0.001-0.005-0.002-0.008-0.003c-0.104-0.058-0.211-0.1-0.321-0.132
	c-0.033-0.01-0.067-0.016-0.101-0.023c-0.086-0.019-0.172-0.03-0.259-0.033c-0.034-0.001-0.066-0.004-0.1-0.003
	c-0.117,0.003-0.233,0.016-0.345,0.046c-0.005,0.001-0.01,0.004-0.015,0.006c-0.109,0.03-0.212,0.075-0.312,0.129
	c-0.013,0.007-0.028,0.009-0.041,0.017L18.094,27.875c-0.462,0.269-0.746,0.763-0.746,1.297v40.846c0,0.014,0.005,0.026,0.005,0.04
	c0.003,0.12,0.016,0.24,0.048,0.355c0.002,0.006,0.005,0.011,0.006,0.017c0.031,0.108,0.077,0.211,0.131,0.31
	c0.016,0.029,0.034,0.057,0.052,0.085c0.049,0.077,0.105,0.148,0.169,0.216c0.021,0.022,0.039,0.045,0.061,0.066
	c0.084,0.079,0.176,0.153,0.28,0.213l30.633,17.586c0.231,0.133,0.489,0.199,0.747,0.199s0.516-0.066,0.747-0.199l30.634-17.586
	c0.105-0.06,0.197-0.134,0.281-0.213c0.021-0.02,0.039-0.042,0.059-0.064c0.064-0.068,0.121-0.14,0.17-0.217
	c0.018-0.029,0.036-0.056,0.053-0.086c0.053-0.097,0.098-0.197,0.128-0.303c0.002-0.008,0.007-0.016,0.009-0.024
	c0.031-0.114,0.044-0.233,0.047-0.352c0-0.014,0.006-0.027,0.006-0.042V29.172z M69.149,74.583l-7.504-4.663l7.735-4.806l7.81,4.853
	L69.149,74.583z M59.306,80.234l-7.13-4.429l6.626-4.117l7.391,4.593L59.306,80.234z M32.771,76.281l7.242-4.5l6.477,4.024
	l-6.987,4.342L32.771,76.281z M21.772,69.967l7.661-4.76l7.737,4.807l-7.355,4.57L21.772,69.967z M49.481,52.751l7.736,4.806
	l-7.734,4.806l-7.736-4.807L49.481,52.751z M66.537,63.348l-7.735,4.806l-6.477-4.025l7.735-4.806L66.537,63.348z M38.903,59.323
	l7.736,4.807l-6.627,4.118l-7.737-4.807L38.903,59.323z M42.856,70.014l6.627-4.118l6.477,4.025l-6.626,4.118L42.856,70.014z
	 M78.614,67.319L50.981,50.151V13.968l27.633,16.067V67.319z M20.348,30.035l27.633-16.067V50.15L20.348,67.319V30.035z
	 M49.481,85.874l-7.022-4.031l6.874-4.272l7.017,4.359L49.481,85.874z"/>
</svg>
