<svg id="Layer_1" data-name="Layer 1" xmlns="http://www.w3.org/2000/svg" viewBox="0 0 101 101"><title>Artboard 34</title><path d="M91.4,20.73a1.49,1.49,0,0,0-1.32-.24L50.5,32,10.92,20.49A1.5,1.5,0,0,0,9,21.93V75.71a1.5,1.5,0,0,0,1.07,1.44l40,12.1a1.5,1.5,0,0,0,.87,0l40-12.1A1.5,1.5,0,0,0,92,75.71V21.93A1.5,1.5,0,0,0,91.4,20.73ZM89,74.6,50.5,86.25,12,74.6V23.93L50.08,35a1.5,1.5,0,0,0,.84,0L89,23.93Z"/><path d="M47,40.61A5.21,5.21,0,0,0,47.6,48,5.33,5.33,0,0,0,55,47.39,5.21,5.21,0,0,0,54.4,40,5.32,5.32,0,0,0,47,40.61Zm5.51,1.68a2.21,2.21,0,0,1,.27,3.14,2.32,2.32,0,0,1-3.23.27,2.21,2.21,0,0,1-.27-3.14,2.31,2.31,0,0,1,3.23-.27Z"/><path d="M47,56.27a5.21,5.21,0,0,0,.63,7.4A5.33,5.33,0,0,0,55,63a5.21,5.21,0,0,0-.63-7.4A5.32,5.32,0,0,0,47,56.27Zm5.79,4.82a2.31,2.31,0,0,1-3.23.27,2.21,2.21,0,0,1-.27-3.14A2.31,2.31,0,0,1,52.48,58a2.21,2.21,0,0,1,.27,3.14Z"/><path d="M47,71.94a5.21,5.21,0,0,0,.63,7.4A5.33,5.33,0,0,0,55,78.71a5.21,5.21,0,0,0-.63-7.4A5.32,5.32,0,0,0,47,71.94Zm5.79,4.82h0a2.32,2.32,0,0,1-3.23.27,2.21,2.21,0,0,1-.27-3.14,2.31,2.31,0,0,1,3.23-.27,2.21,2.21,0,0,1,.27,3.14Z"/></svg>