<?xml version="1.0" encoding="iso-8859-1"?>
<!-- Generator: Adobe Illustrator 21.1.0, SVG Export Plug-In . SVG Version: 6.00 Build 0)  -->
<svg version="1.1" id="Layer_1" xmlns="http://www.w3.org/2000/svg" xmlns:xlink="http://www.w3.org/1999/xlink" x="0px" y="0px"
	 viewBox="0 0 100.353 100.353" style="enable-background:new 0 0 100.353 100.353;" xml:space="preserve">
<g>
	<path d="M89.125,55.665c-1.023-1.163-2.434-1.857-3.972-1.954c-1.521-0.092-2.994,0.409-4.144,1.424L68.262,66.512
		c-0.037-0.216-0.082-0.422-0.134-0.611c-0.565-2.043-2.052-3.459-3.277-3.957c-2.528-1.021-6.025-0.543-9.403-0.081
		c-2.236,0.306-4.551,0.62-5.998,0.364c-0.801-0.143-1.621-0.505-2.569-0.923c-2.57-1.135-6.09-2.687-12.641-1.266
		c-3.49,0.761-6.189,2.711-8.019,4.468v-3.002c0-0.828-0.671-1.5-1.5-1.5H10.926c-0.829,0-1.5,0.672-1.5,1.5v33.813
		c0,0.828,0.671,1.5,1.5,1.5h13.795c0.829,0,1.5-0.672,1.5-1.5v-6.91c3.318,0.738,10.396,2.153,15.85,2.153
		c6.821,0,15.179-1.548,20.324-3.764c9.468-4.073,25.059-21.647,26.322-23.084c1.106-1.01,1.762-2.387,1.849-3.888
		C90.654,58.297,90.142,56.819,89.125,55.665z M23.221,93.819H12.426V63.005h10.795V93.819z M86.657,61.533
		c-0.049,0.042-0.095,0.088-0.137,0.136c-0.162,0.185-16.27,18.483-25.312,22.374c-4.811,2.072-12.68,3.52-19.137,3.52
		c-5.486,0-13.02-1.587-15.85-2.231V69.058c0.826-1.154,3.919-5.055,8.656-6.087c5.596-1.215,8.356,0.004,10.792,1.079
		c1.079,0.476,2.098,0.925,3.252,1.131c1.913,0.341,4.35,0.008,6.932-0.345c2.854-0.391,6.088-0.831,7.871-0.111
		c0.451,0.184,1.219,0.918,1.512,1.977c0.29,1.047,0.032,2.118-0.755,3.185l-1.258,1.123c-0.012,0.011-0.017,0.027-0.028,0.038
		c-4.111,2.837-15.229,6.228-20.124,5.841c-0.829-0.065-1.547,0.556-1.61,1.382c-0.063,0.826,0.555,1.547,1.381,1.61
		c0.308,0.023,0.636,0.034,0.982,0.034c6.569,0,19.573-4.134,22.833-7.947l16.346-14.589c0.542-0.479,1.232-0.72,1.963-0.673
		c0.737,0.046,1.414,0.38,1.908,0.942c0.492,0.559,0.74,1.271,0.697,2.005C87.528,60.383,87.204,61.05,86.657,61.533z"/>
	<path d="M29.469,21.913h3.322V52.19c0,0.828,0.671,1.5,1.5,1.5h31.776c0.828,0,1.5-0.672,1.5-1.5V21.913h3.327
		c0.646,0,1.219-0.413,1.423-1.025c0.204-0.613-0.006-1.287-0.522-1.675L50.818,3.479c-0.539-0.403-1.281-0.398-1.814,0.011
		L28.554,19.224c-0.509,0.392-0.712,1.064-0.505,1.672C28.255,21.505,28.827,21.913,29.469,21.913z M49.93,6.563l16.465,12.35
		h-0.327c-0.828,0-1.5,0.671-1.5,1.5V50.69H35.791V20.413c0-0.829-0.671-1.5-1.5-1.5h-0.413L49.93,6.563z"/>
	<path d="M44.432,43.548h11.495c0.828,0,1.5-0.671,1.5-1.5V24.852c0-0.829-0.672-1.5-1.5-1.5H44.432c-0.829,0-1.5,0.671-1.5,1.5
		v17.196C42.932,42.877,43.604,43.548,44.432,43.548z M45.932,26.352h8.495v14.196h-8.495V26.352z"/>
</g>
</svg>
