<?xml version="1.0" encoding="iso-8859-1"?>
<!-- Generator: Adobe Illustrator 21.0.0, SVG Export Plug-In . SVG Version: 6.00 Build 0)  -->
<svg version="1.1" id="Layer_1" xmlns="http://www.w3.org/2000/svg" xmlns:xlink="http://www.w3.org/1999/xlink" x="0px" y="0px"
	 viewBox="0 0 100.353 100.353" style="enable-background:new 0 0 100.353 100.353;" xml:space="preserve">
<g>
	<path style="fill:#231F20;" d="M89.806,59.321L65.22,26.302l5.94-4.658c0.313-0.245,0.516-0.605,0.563-1s-0.063-0.792-0.309-1.106
		L60.082,5.087c-0.245-0.313-0.605-0.516-1-0.563c-0.394-0.048-0.793,0.063-1.106,0.309l-15.13,11.865l-4.191-5.345
		c-0.246-0.313-0.605-0.516-1-0.564c-0.395-0.047-0.792,0.063-1.106,0.309l-8.155,6.396c-0.313,0.245-0.516,0.605-0.563,1
		s0.063,0.793,0.309,1.106l5.184,6.61c-1.296,1.408-2.125,3.174-2.36,5.11c-0.295,2.442,0.378,4.854,1.897,6.789
		c1.515,1.935,3.694,3.163,6.136,3.458c0.377,0.046,0.753,0.068,1.127,0.068c1.55,0,3.057-0.39,4.408-1.134l5.179,6.604
		c0.246,0.313,0.605,0.516,1,0.563c0.06,0.007,0.12,0.011,0.18,0.011c0.334,0,0.661-0.112,0.926-0.32l8.151-6.396
		c0.652-0.511,0.766-1.454,0.254-2.106l-4.194-5.349l6.83-5.356l23.643,31.753L52.514,85.071c-0.034,0.025-0.061,0.057-0.093,0.084
		H34.874c-0.829,0-1.5,0.671-1.5,1.5v7.33c0,0.829,0.671,1.5,1.5,1.5h36.667c0.829,0,1.5-0.671,1.5-1.5v-7.33
		c0-0.829-0.671-1.5-1.5-1.5H57.442l32.054-23.734c0.32-0.237,0.533-0.592,0.591-0.986S90.044,59.641,89.806,59.321z M39.358,38.59
		c-1.646-0.2-3.115-1.027-4.136-2.331c-1.024-1.306-1.479-2.932-1.28-4.578c0.138-1.137,0.581-2.185,1.269-3.065l7.429,9.473
		C41.621,38.547,40.496,38.728,39.358,38.59z M52.743,34.181l4.195,5.35l-5.792,4.543l-14.61-18.629
		c-0.002-0.003-0.004-0.006-0.006-0.01s-0.005-0.005-0.008-0.008l-5.097-6.499l5.794-4.544l4.191,5.345
		c0.246,0.313,0.605,0.516,1,0.564c0.394,0.047,0.792-0.063,1.106-0.309l15.13-11.865l9.48,12.09L52.995,32.074
		C52.345,32.585,52.231,33.528,52.743,34.181z M70.042,92.486H36.375v-4.33h33.667V92.486z"/>
	<path style="fill:#231F20;" d="M20.645,32.854c-0.463-0.687-1.396-0.869-2.082-0.405l-8.004,5.396
		c-0.687,0.463-0.869,1.396-0.405,2.082c0.29,0.43,0.763,0.662,1.245,0.662c0.289,0,0.58-0.083,0.837-0.256l8.004-5.396
		C20.927,34.473,21.109,33.54,20.645,32.854z"/>
	<path style="fill:#231F20;" d="M26.671,41.106c-0.463-0.686-1.395-0.869-2.082-0.405l-8.004,5.396
		c-0.687,0.463-0.869,1.396-0.405,2.082c0.29,0.43,0.763,0.662,1.245,0.662c0.288,0,0.58-0.083,0.837-0.256l8.004-5.396
		C26.953,42.725,27.135,41.793,26.671,41.106z"/>
	<path style="fill:#231F20;" d="M30.448,49.061l-8.004,5.398c-0.687,0.463-0.868,1.396-0.405,2.083
		c0.29,0.43,0.763,0.661,1.245,0.661c0.289,0,0.58-0.083,0.837-0.256l8.004-5.398c0.687-0.463,0.868-1.396,0.405-2.083
		C32.066,48.779,31.134,48.599,30.448,49.061z"/>
</g>
</svg>
