<?xml version="1.0" encoding="iso-8859-1"?>
<!-- Generator: Adobe Illustrator 22.0.0, SVG Export Plug-In . SVG Version: 6.00 Build 0)  -->
<svg version="1.1" id="Layer_1" xmlns="http://www.w3.org/2000/svg" xmlns:xlink="http://www.w3.org/1999/xlink" x="0px" y="0px"
	 viewBox="0 0 100.25 100.25" style="enable-background:new 0 0 100.25 100.25;" xml:space="preserve">
<path d="M38.186,41.683v-10.73c0-0.828-0.671-1.5-1.5-1.5h-3.363c0.036-0.128,0.061-0.261,0.061-0.4V16.699
	c0-0.14-0.025-0.273-0.061-0.401h10.015c0.829,0,1.5-0.672,1.5-1.5s-0.671-1.5-1.5-1.5H23.38c-0.829,0-1.5,0.672-1.5,1.5v14.256
	c0,0.14,0.025,0.272,0.061,0.4h-3.313c-0.829,0-1.5,0.672-1.5,1.5v10.725C9.009,46.5,3.823,56.458,3.823,67.482
	c0,9.5,3.802,18.083,10.431,23.551c0.269,0.222,0.606,0.343,0.955,0.343c0,0,24.675,0,25.179,0.001c0.004,0,0.008,0,0.013,0
	c0.353,0,0.698-0.124,0.971-0.357c6.174-5.246,9.913-13.737,10.101-22.822c0.007-0.059,0.018-0.117,0.018-0.179
	c0-0.037-0.008-0.071-0.011-0.107c0.002-0.143,0.011-0.285,0.011-0.429C51.49,56.498,46.294,46.504,38.186,41.683z M24.881,29.053
	V16.297h5.565c-0.036,0.129-0.061,0.261-0.061,0.401v12.354c0,0.14,0.025,0.272,0.061,0.4h-5.625
	C24.855,29.325,24.881,29.193,24.881,29.053z M20.129,32.453h15.057v8.404H20.129V32.453z M39.808,88.403
	c-0.733-0.026-1.791-0.026-3.344-0.027H15.757c-5.221-4.509-8.379-11.275-8.861-18.857h41.521
	C47.934,77.036,44.805,83.954,39.808,88.403z M6.853,66.518c0.297-9.902,5.124-18.683,12.507-22.66h16.612
	c7.366,3.979,12.192,12.796,12.49,22.66H6.853z"/>
<path d="M95.743,12.811c-0.283-0.296-0.675-0.464-1.085-0.464H57.594c-0.406,0-0.794,0.164-1.076,0.455
	c-0.283,0.291-0.435,0.685-0.423,1.09l1.611,54.111c0.008,4.724,2.382,8.897,5.991,11.403v9.52c0,0.828,0.671,1.5,1.5,1.5h21.858
	c0.829,0,1.5-0.672,1.5-1.5V78.74c3.107-2.542,5.096-6.398,5.095-10.69l2.507-54.134C96.176,13.507,96.026,13.108,95.743,12.811z
	 M85.555,87.426H66.697v-6.453c1.515,0.572,3.147,0.9,4.859,0.9h8.246c2.054,0,3.999-0.463,5.754-1.27L85.555,87.426L85.555,87.426z
	 M90.651,67.981c0,6.006-4.867,10.892-10.85,10.892h-8.246c-5.983,0-10.85-4.886-10.85-10.892c0-0.015,0-0.029,0-0.045
	l-1.226-41.185h28.527c0.829,0,1.5-0.672,1.5-1.5s-0.671-1.5-1.5-1.5H59.39l-0.25-8.404h33.948L90.651,67.981z"/>
</svg>
