<?xml version="1.0" encoding="iso-8859-1"?>
<!-- Generator: Adobe Illustrator 22.0.0, SVG Export Plug-In . SVG Version: 6.00 Build 0)  -->
<svg version="1.1" id="Layer_1" xmlns="http://www.w3.org/2000/svg" xmlns:xlink="http://www.w3.org/1999/xlink" x="0px" y="0px"
	 viewBox="0 0 100.25 100.25" style="enable-background:new 0 0 100.25 100.25;" xml:space="preserve">
<g>
	<path d="M79.567,29.924l-18.26-18.479C61.025,11.16,60.641,11,60.24,11H20.5c-0.829,0-1.5,0.672-1.5,1.5v75
		c0,0.828,0.671,1.5,1.5,1.5h58c0.829,0,1.5-0.672,1.5-1.5V30.979C80,30.585,79.844,30.206,79.567,29.924z M62,16.415L74.929,29.5
		H62V16.415z M22,86V14h37v17c0,0.828,0.671,1.5,1.5,1.5H77V86H22z"/>
	<path d="M64.5,62.5h-6c-0.829,0-1.5,0.672-1.5,1.5v14c0,0.828,0.671,1.5,1.5,1.5S60,78.828,60,78v-5.5h4c0.829,0,1.5-0.672,1.5-1.5
		s-0.671-1.5-1.5-1.5h-4v-4h4.5c0.829,0,1.5-0.672,1.5-1.5S65.329,62.5,64.5,62.5z"/>
	<path d="M41.5,70.9h-4c-0.829,0-1.5,0.672-1.5,1.5s0.671,1.5,1.5,1.5h2.125c-0.433,1.171-1.33,2.6-3.125,2.6
		c-2.405,0-3.5-2.609-3.5-5.033c0-5.967,2.634-5.967,3.5-5.967c1.839,0,2.518,1.623,2.592,1.817
		c0.284,0.771,1.137,1.169,1.912,0.896c0.78-0.279,1.187-1.138,0.908-1.918c-0.503-1.409-2.21-3.795-5.413-3.795
		c-2.428,0-6.5,1.165-6.5,8.967c0,4.654,2.733,8.033,6.5,8.033c4.9,0,6.5-5.28,6.5-7.1C43,71.572,42.329,70.9,41.5,70.9z"/>
	<path d="M49.5,62.5c-0.829,0-1.5,0.672-1.5,1.5v14c0,0.828,0.671,1.5,1.5,1.5S51,78.828,51,78V64C51,63.171,50.329,62.5,49.5,62.5z
		"/>
</g>
</svg>
