<svg id="Layer_1" data-name="Layer 1" xmlns="http://www.w3.org/2000/svg" viewBox="0 0 101 101"><title>log_Artboard 2 copy 4</title><path d="M42,23H41a8,8,0,0,0-8,8v8a8,8,0,0,0,8,8h1a8,8,0,0,0,8-8V31A8,8,0,0,0,42,23Zm5,16a5,5,0,0,1-5,5H41a5,5,0,0,1-5-5V31a5,5,0,0,1,5-5h1a5,5,0,0,1,5,5Z"/><path d="M64,23H63a8,8,0,0,0-8,8v8a8,8,0,0,0,8,8h1a8,8,0,0,0,8-8V31A8,8,0,0,0,64,23Zm5,16a5,5,0,0,1-5,5H63a5,5,0,0,1-5-5V31a5,5,0,0,1,5-5h1a5,5,0,0,1,5,5Z"/><path d="M56.66,3.68A32.62,32.62,0,0,0,20,34.81a1.52,1.52,0,0,0,0,.26A42.74,42.74,0,0,1,7.47,65.44,1.5,1.5,0,0,0,8.5,68l8.5.15v9.39A1.5,1.5,0,0,0,18.82,79L26,77.43v9.21A1.5,1.5,0,0,0,28.06,88L36,84.85v8.84A1.5,1.5,0,0,0,38.15,95L49,89.82v8.1a1.5,1.5,0,0,0,1.88,1.45A45.79,45.79,0,0,0,85,55.09V36.55C85,19.85,72.82,5.72,56.66,3.68ZM82,55.09A42.8,42.8,0,0,1,52,95.93V87.43a1.5,1.5,0,0,0-2.15-1.35L39,91.3V82.64a1.5,1.5,0,0,0-2.06-1.39L29,84.42V75.57a1.5,1.5,0,0,0-1.82-1.47L20,75.68v-9a1.5,1.5,0,0,0-1.47-1.5l-6.62-.12A45.67,45.67,0,0,0,23,36.23,1.59,1.59,0,0,0,23,36,29.67,29.67,0,0,1,33.08,13.78a29.12,29.12,0,0,1,23.2-7.13C70.94,8.51,82,21.36,82,36.55Z"/></svg>