<?xml version="1.0" encoding="iso-8859-1"?>
<!-- Generator: Adobe Illustrator 21.1.0, SVG Export Plug-In . SVG Version: 6.00 Build 0)  -->
<svg version="1.1" id="Layer_1" xmlns="http://www.w3.org/2000/svg" xmlns:xlink="http://www.w3.org/1999/xlink" x="0px" y="0px"
	 viewBox="0 0 100.353 100.353" style="enable-background:new 0 0 100.353 100.353;" xml:space="preserve">
<g>
	<path d="M65.155,58.101c4.188,0,7.595-3.407,7.595-7.595s-3.407-7.595-7.595-7.595s-7.596,3.407-7.596,7.595
		C57.56,54.694,60.967,58.101,65.155,58.101z M65.155,45.911c2.533,0,4.595,2.062,4.595,4.595s-2.062,4.595-4.595,4.595
		c-2.534,0-4.596-2.062-4.596-4.595C60.56,47.972,62.621,45.911,65.155,45.911z"/>
	<path d="M65.155,40.331c0.828,0,1.5-0.671,1.5-1.5v-3.426c0-0.829-0.672-1.5-1.5-1.5s-1.5,0.671-1.5,1.5v3.426
		C63.655,39.659,64.327,40.331,65.155,40.331z"/>
	<path d="M73.532,43.362c0.403,0,0.807-0.162,1.103-0.482l3-3.25c0.562-0.609,0.523-1.558-0.085-2.12s-1.557-0.525-2.12,0.084
		l-3,3.25c-0.562,0.609-0.523,1.558,0.085,2.12C72.804,43.231,73.168,43.362,73.532,43.362z"/>
	<path d="M76.779,49.006c-0.825,0-1.496,0.667-1.5,1.493c-0.004,0.828,0.664,1.503,1.493,1.507l4.42,0.021c0.002,0,0.005,0,0.007,0
		c0.825,0,1.496-0.667,1.5-1.493c0.004-0.828-0.664-1.503-1.493-1.507l-4.42-0.021C76.784,49.006,76.781,49.006,76.779,49.006z"/>
	<path d="M65.155,61.063c-0.828,0-1.5,0.672-1.5,1.5v3.428c0,0.828,0.672,1.5,1.5,1.5s1.5-0.672,1.5-1.5v-3.428
		C66.655,61.735,65.983,61.063,65.155,61.063z"/>
	<path d="M74.834,57.546c-0.543-0.627-1.488-0.695-2.116-0.153c-0.626,0.542-0.695,1.489-0.153,2.116l2.667,3.084
		c0.297,0.343,0.715,0.519,1.136,0.519c0.348,0,0.696-0.12,0.98-0.365c0.626-0.542,0.695-1.489,0.153-2.116L74.834,57.546z"/>
	<path d="M56.113,42.813c0.295,0.31,0.69,0.465,1.086,0.465c0.372,0,0.744-0.137,1.034-0.414c0.601-0.571,0.623-1.521,0.052-2.121
		l-3.333-3.5c-0.572-0.6-1.521-0.623-2.12-0.052c-0.601,0.571-0.623,1.521-0.052,2.121L56.113,42.813z"/>
	<path d="M49.535,52.006h3.426c0.828,0,1.5-0.672,1.5-1.5c0-0.829-0.672-1.5-1.5-1.5h-3.426c-0.828,0-1.5,0.671-1.5,1.5
		C48.035,51.334,48.707,52.006,49.535,52.006z"/>
	<path d="M55.916,57.61L53,60.86c-0.554,0.617-0.502,1.565,0.114,2.118c0.287,0.257,0.645,0.384,1.001,0.384
		c0.412,0,0.821-0.168,1.117-0.498l2.916-3.25c0.554-0.617,0.502-1.565-0.114-2.118C57.415,56.942,56.468,56.993,55.916,57.61z"/>
	<path d="M90.032,8.597H9.838c-0.013,0-0.024,0.003-0.037,0.004C9.745,8.602,9.691,8.61,9.636,8.617
		c-0.044,0.006-0.089,0.01-0.132,0.02C9.456,8.648,9.41,8.665,9.363,8.681C9.318,8.696,9.272,8.709,9.229,8.729
		C9.184,8.748,9.143,8.774,9.1,8.798C9.059,8.822,9.017,8.843,8.979,8.87c-0.04,0.028-0.076,0.061-0.113,0.093
		C8.829,8.995,8.792,9.025,8.758,9.059C8.727,9.091,8.701,9.128,8.673,9.163C8.638,9.206,8.604,9.249,8.574,9.295
		c-0.007,0.011-0.016,0.019-0.022,0.03c-0.016,0.027-0.025,0.056-0.04,0.084C8.487,9.458,8.461,9.507,8.441,9.56
		c-0.017,0.045-0.03,0.091-0.043,0.137C8.386,9.744,8.372,9.791,8.364,9.84c-0.009,0.054-0.013,0.108-0.016,0.163
		c-0.002,0.032-0.01,0.062-0.01,0.094v80.199c0,0.032,0.008,0.063,0.01,0.094c0.003,0.054,0.007,0.108,0.016,0.162
		c0.009,0.049,0.022,0.096,0.035,0.144c0.013,0.046,0.025,0.091,0.042,0.136c0.021,0.053,0.046,0.103,0.072,0.153
		c0.014,0.027,0.023,0.055,0.039,0.082c0.005,0.009,0.013,0.015,0.018,0.023c0.063,0.101,0.136,0.195,0.221,0.278
		c0.016,0.016,0.034,0.027,0.051,0.042c0.07,0.063,0.146,0.119,0.228,0.168c0.031,0.018,0.061,0.034,0.093,0.05
		c0.077,0.039,0.157,0.07,0.24,0.096c0.03,0.009,0.058,0.02,0.088,0.027c0.112,0.027,0.227,0.044,0.347,0.044h80.194
		c0.828,0,1.5-0.672,1.5-1.5V10.097C91.532,9.268,90.86,8.597,90.032,8.597z M11.338,12.746l27.451,20.073v34.754L11.338,87.647
		V12.746z M88.532,88.796H15.253l25.808-19.087c0.452-0.271,0.728-0.759,0.728-1.286V31.97c0-0.527-0.276-1.015-0.728-1.286
		L15.253,11.597h73.279V88.796z"/>
</g>
</svg>
