<?xml version="1.0" encoding="iso-8859-1"?>
<!-- Generator: Adobe Illustrator 21.1.0, SVG Export Plug-In . SVG Version: 6.00 Build 0)  -->
<svg version="1.1" id="Layer_1" xmlns="http://www.w3.org/2000/svg" xmlns:xlink="http://www.w3.org/1999/xlink" x="0px" y="0px"
	 viewBox="0 0 100.354 100.352" style="enable-background:new 0 0 100.354 100.352;" xml:space="preserve">
<path d="M86.949,28.088c0.828,0,1.5-0.671,1.5-1.5V13.273c0-0.829-0.672-1.5-1.5-1.5H13.275c-0.829,0-1.5,0.671-1.5,1.5v13.315
	c0,0.829,0.671,1.5,1.5,1.5h5.379v9.657h-5.267c-0.829,0-1.5,0.671-1.5,1.5v5.77c0,0.829,0.671,1.5,1.5,1.5h5.267v25.396h-5.601
	c-0.829,0-1.5,0.672-1.5,1.5v13.314c0,0.828,0.671,1.5,1.5,1.5h73.674c0.828,0,1.5-0.672,1.5-1.5V73.411c0-0.828-0.672-1.5-1.5-1.5
	h-4.713V28.088H86.949z M14.775,14.773h70.674v10.315H60.32H39.904H14.775V14.773z M41.404,28.088H58.82v16.093H41.404V28.088z
	 M21.654,28.088h16.75v12.764h-6.281v-1.607c0-0.829-0.671-1.5-1.5-1.5h-8.969V28.088z M14.887,40.745h14.236v2.77H14.887V40.745z
	 M85.227,85.226H14.553V74.911h70.674V85.226z M42.977,64.436v-5.691h14.726v5.691c0,3.623-3.303,6.57-7.363,6.57
	C46.28,71.006,42.977,68.059,42.977,64.436z M79.014,71.911H56.793c2.379-1.755,3.91-4.451,3.91-7.476v-7.191
	c0-0.828-0.672-1.5-1.5-1.5H41.477c-0.829,0-1.5,0.672-1.5,1.5v7.191c0,3.024,1.531,5.721,3.91,7.476H21.654V46.515h8.969
	c0.829,0,1.5-0.671,1.5-1.5v-1.163h6.281v1.829c0,0.829,0.671,1.5,1.5,1.5H60.32c0.828,0,1.5-0.671,1.5-1.5V28.088h17.193V71.911z"
	/>
</svg>
