<?xml version="1.0" encoding="iso-8859-1"?>
<!-- Generator: Adobe Illustrator 22.0.1, SVG Export Plug-In . SVG Version: 6.00 Build 0)  -->
<svg version="1.1" id="Layer_1" xmlns="http://www.w3.org/2000/svg" xmlns:xlink="http://www.w3.org/1999/xlink" x="0px" y="0px"
	 viewBox="0 0 100.25 100.25" style="enable-background:new 0 0 100.25 100.25;" xml:space="preserve">
<g>
	<path d="M50.5,27.25c-0.829,0-1.5,0.671-1.5,1.5v64c0,0.828,0.671,1.5,1.5,1.5c0.828,0,1.5-0.672,1.5-1.5v-64
		C52,27.921,51.328,27.25,50.5,27.25z"/>
	<path d="M23.06,43.61c-0.829,0-1.5,0.671-1.5,1.5s0.671,1.5,1.5,1.5c10.819,0,19.96,21.154,19.96,46.193c0,0.828,0.671,1.5,1.5,1.5
		s1.5-0.672,1.5-1.5C46.02,65.218,35.935,43.61,23.06,43.61z"/>
	<path d="M44.295,16.896l-0.95,5.541C43.25,23,43.48,23.569,43.942,23.904c0.262,0.19,0.571,0.287,0.882,0.287
		c0.239,0,0.479-0.057,0.698-0.172l4.976-2.616l4.976,2.616c0.506,0.266,1.118,0.223,1.58-0.114
		c0.462-0.335,0.693-0.904,0.597-1.467L56.7,16.897l4.026-3.924c0.409-0.398,0.556-0.995,0.38-1.538
		c-0.177-0.543-0.646-0.939-1.211-1.021l-5.563-0.809l-2.488-5.041c-0.252-0.512-0.773-0.836-1.345-0.836
		c-0.571,0-1.092,0.324-1.345,0.836l-2.488,5.041l-5.564,0.809c-0.565,0.082-1.034,0.478-1.211,1.021
		c-0.176,0.543-0.029,1.139,0.38,1.538L44.295,16.896z M47.877,12.46c0.488-0.071,0.911-0.378,1.129-0.82l1.492-3.023l1.492,3.023
		c0.218,0.442,0.641,0.75,1.129,0.82l3.336,0.485l-2.414,2.354c-0.354,0.345-0.515,0.841-0.432,1.328l0.57,3.322l-2.983-1.568
		c-0.438-0.229-0.959-0.229-1.396,0l-2.984,1.569l0.57-3.323c0.083-0.486-0.078-0.983-0.432-1.328l-2.414-2.354L47.877,12.46z"/>
	<path d="M99.315,39.055c-0.177-0.543-0.646-0.939-1.211-1.021l-5.564-0.809l-2.488-5.042c-0.252-0.512-0.773-0.836-1.345-0.836
		s-1.093,0.324-1.345,0.836l-2.488,5.042l-5.563,0.809c-0.564,0.082-1.034,0.478-1.211,1.021c-0.176,0.543-0.029,1.139,0.38,1.538
		l4.025,3.924l-0.95,5.542c-0.097,0.563,0.135,1.131,0.597,1.467c0.464,0.336,1.076,0.379,1.58,0.114l4.976-2.616l4.976,2.616
		c0.22,0.115,0.459,0.172,0.698,0.172c0.311,0,0.62-0.097,0.882-0.286c0.462-0.336,0.693-0.904,0.597-1.467l-0.95-5.542l4.026-3.924
		C99.344,40.194,99.491,39.598,99.315,39.055z M92.251,42.918c-0.354,0.345-0.515,0.841-0.432,1.328l0.569,3.324L89.405,46
		c-0.219-0.115-0.458-0.172-0.698-0.172s-0.48,0.058-0.698,0.172l-2.983,1.569l0.569-3.324c0.083-0.486-0.078-0.983-0.432-1.328
		l-2.413-2.353l3.336-0.485c0.488-0.071,0.911-0.378,1.129-0.821l1.492-3.023l1.492,3.023c0.218,0.443,0.641,0.75,1.129,0.821
		l3.337,0.485L92.251,42.918z"/>
	<path d="M18.769,42.99l4.026-3.924c0.409-0.398,0.556-0.995,0.38-1.538c-0.177-0.543-0.646-0.939-1.211-1.021L16.4,35.698
		l-2.488-5.042c-0.253-0.512-0.774-0.836-1.345-0.836s-1.092,0.324-1.345,0.836l-2.488,5.042l-5.565,0.809
		c-0.565,0.082-1.034,0.478-1.211,1.021c-0.176,0.543-0.029,1.139,0.38,1.538l4.026,3.924l-0.951,5.541
		c-0.096,0.562,0.135,1.131,0.597,1.467c0.462,0.335,1.074,0.38,1.58,0.114l4.977-2.616l4.976,2.616
		c0.22,0.115,0.459,0.172,0.698,0.172c0.311,0,0.621-0.097,0.882-0.287c0.462-0.335,0.693-0.904,0.597-1.467L18.769,42.99z
		 M16.11,41.392c-0.354,0.345-0.515,0.841-0.432,1.328l0.57,3.323l-2.984-1.569c-0.438-0.229-0.959-0.229-1.396,0l-2.984,1.569
		l0.57-3.323c0.083-0.486-0.078-0.983-0.432-1.328l-2.415-2.353l3.337-0.485c0.488-0.071,0.911-0.378,1.129-0.821l1.492-3.023
		l1.492,3.023c0.219,0.443,0.641,0.75,1.129,0.821l3.337,0.485L16.11,41.392z"/>
	<path d="M77.96,43.61C65.085,43.61,55,65.218,55,92.803c0,0.828,0.672,1.5,1.5,1.5s1.5-0.672,1.5-1.5
		c0-25.039,9.141-46.193,19.96-46.193c0.828,0,1.5-0.671,1.5-1.5S78.788,43.61,77.96,43.61z"/>
</g>
</svg>
