<?xml version="1.0" encoding="iso-8859-1"?>
<!-- Generator: Adobe Illustrator 21.1.0, SVG Export Plug-In . SVG Version: 6.00 Build 0)  -->
<svg version="1.1" id="Layer_1" xmlns="http://www.w3.org/2000/svg" xmlns:xlink="http://www.w3.org/1999/xlink" x="0px" y="0px"
	 viewBox="0 0 100.354 100.352" style="enable-background:new 0 0 100.354 100.352;" xml:space="preserve">
<g>
	<path d="M50.177,54.321c-20.934,0-37.965,17.031-37.965,37.965v1.5h75.93v-1.5C88.142,71.352,71.111,54.321,50.177,54.321z
		 M64.002,60.181l-13.341,9.784L36.399,60.16c4.231-1.822,8.887-2.839,13.778-2.839C55.086,57.321,59.758,58.346,64.002,60.181z
		 M15.244,90.786c0.538-12.687,7.871-23.641,18.442-29.32l-0.219,0.318l17.249,11.859l16.208-11.885l-0.185-0.252
		c10.532,5.69,17.834,16.622,18.371,29.281L15.244,90.786L15.244,90.786z"/>
	<path d="M49.54,50.184c12.026,0,21.81-9.784,21.81-21.809S61.566,6.566,49.54,6.566c-12.025,0-21.809,9.784-21.809,21.809
		S37.515,50.184,49.54,50.184z M49.54,9.566c7.994,0,14.821,5.021,17.54,12.069c-0.931-0.505-2.02-1.15-3.042-1.757
		c-4.194-2.492-7.084-4.116-9.018-3.947c-3.76,0.321-6.039,1.763-8.453,3.288c-1.334,0.843-2.714,1.716-4.444,2.438l-0.475,0.198
		c-3.684,1.54-6.05,2.524-10.578,3.021C32.717,16.172,40.366,9.566,49.54,9.566z M30.754,27.924
		c5.383-0.518,8.081-1.642,12.052-3.302l0.473-0.198c1.964-0.819,3.52-1.803,4.892-2.67c2.187-1.382,4.075-2.576,7.105-2.834
		c1.148-0.089,4.943,2.179,7.229,3.537c2.279,1.354,4.253,2.522,5.58,2.901c0.16,0.985,0.265,1.988,0.265,3.018
		c0,10.372-8.438,18.809-18.81,18.809s-18.809-8.438-18.809-18.809C30.731,28.223,30.751,28.075,30.754,27.924z"/>
</g>
</svg>
