<svg id="Слой_1" data-name="Слой 1" xmlns="http://www.w3.org/2000/svg" viewBox="0 0 100 100"><title>testМонтажная область 13</title><path d="M63.74,45.85A16.4,16.4,0,0,0,71.5,32a16.67,16.67,0,0,0-15-16.39V4a1.5,1.5,0,0,0-3,0V15.5h-7V4a1.5,1.5,0,0,0-3,0V15.5H28a1.5,1.5,0,0,0,0,3h4.5v63H28a1.5,1.5,0,0,0,0,3H43.5V95a1.5,1.5,0,0,0,3,0V84.5h7V95a1.5,1.5,0,0,0,3,0V84.5h4a19.25,19.25,0,0,0,19-19.43A19.45,19.45,0,0,0,63.74,45.85ZM54.58,18.5A13.73,13.73,0,0,1,68.5,32,13.73,13.73,0,0,1,54.58,45.5H35.5v-27Zm5.9,63h-25v-33H54.58l.36,0,.17,0,5.26,0c8.74,0,16.13,7.58,16.13,16.54A16.24,16.24,0,0,1,60.48,81.5Z"/></svg>