<?xml version="1.0" encoding="iso-8859-1"?>
<!-- Generator: Adobe Illustrator 21.1.0, SVG Export Plug-In . SVG Version: 6.00 Build 0)  -->
<svg version="1.1" id="Layer_1" xmlns="http://www.w3.org/2000/svg" xmlns:xlink="http://www.w3.org/1999/xlink" x="0px" y="0px"
	 viewBox="0 0 100.75 100.748" style="enable-background:new 0 0 100.75 100.748;" xml:space="preserve">
<g>
	<path d="M75.969,63.991c-0.098-0.113-0.21-0.213-0.338-0.293C68.814,57.847,59.965,54.3,50.298,54.3
		c-5.317,0-10.387,1.074-15.009,3.011c-0.046,0.016-0.091,0.033-0.134,0.053c-3.539,1.499-6.811,3.51-9.726,5.934
		c-0.138,0.084-0.259,0.191-0.362,0.314c-8.386,7.15-13.719,17.78-13.719,29.638c0,0.828,0.671,1.5,1.5,1.5h74.906
		c0.828,0,1.5-0.672,1.5-1.5C89.253,81.599,84.104,71.134,75.969,63.991z M27.708,65.309c2.023-1.639,4.229-3.058,6.579-4.232
		v13.448c0,0.828,0.671,1.5,1.5,1.5h28.855c0.828,0,1.5-0.672,1.5-1.5V60.993c2.59,1.277,5.003,2.855,7.196,4.691V91.75H27.708
		V65.309z M63.143,59.681v13.343H37.287V59.746c4.038-1.573,8.423-2.446,13.011-2.446C54.823,57.3,59.151,58.149,63.143,59.681z
		 M24.708,68.036V91.75h-10.33C14.758,82.528,18.636,74.198,24.708,68.036z M76.339,91.75V68.488
		c5.818,6.114,9.512,14.266,9.883,23.262H76.339z"/>
	<path d="M49.64,49.972c12.331,0,22.363-10.034,22.363-22.367c0-0.42-0.014-0.836-0.037-1.25c0.023-0.104,0.037-0.212,0.037-0.323
		c0-0.189-0.039-0.367-0.102-0.533C70.835,14.155,61.26,5.248,49.64,5.248c-11.616,0-21.187,8.906-22.254,20.249
		c-0.064,0.166-0.102,0.345-0.102,0.534c0,0.111,0.014,0.219,0.037,0.323c-0.023,0.414-0.037,0.831-0.037,1.251
		C27.284,39.938,37.313,49.972,49.64,49.972z M49.64,46.972c-10.673,0-19.356-8.688-19.356-19.367c0-0.053,0.007-0.103,0.008-0.156
		c7.418-0.74,16.896-6.503,19.505-8.171c2.995,1.936,12.05,7.441,19.198,8.17c0,0.053,0.008,0.104,0.008,0.157
		C69.003,38.284,60.316,46.972,49.64,46.972z M68.714,24.395c-6.559-0.91-15.179-6.267-17.574-7.825V8.324
		C60.041,9.011,67.258,15.731,68.714,24.395z M48.14,8.324v8.45c-2.432,1.542-11.023,6.732-17.566,7.615
		C32.032,15.728,39.245,9.011,48.14,8.324z"/>
	<path d="M57.69,25.975c-3.328,0-6.036,2.708-6.036,6.036s2.708,6.036,6.036,6.036s6.035-2.708,6.035-6.036
		S61.019,25.975,57.69,25.975z M57.69,35.047c-1.674,0-3.036-1.362-3.036-3.036c0-1.674,1.362-3.036,3.036-3.036
		s3.035,1.362,3.035,3.036C60.726,33.685,59.364,35.047,57.69,35.047z"/>
	<path d="M46.045,30.51h-8.923c-0.829,0-1.5,0.671-1.5,1.5s0.671,1.5,1.5,1.5h8.923c0.829,0,1.5-0.671,1.5-1.5
		S46.874,30.51,46.045,30.51z"/>
</g>
</svg>
