<svg id="Layer_1" data-name="Layer 1" xmlns="http://www.w3.org/2000/svg" viewBox="0 0 101 101"><defs><style>.cls-1{fill:#fff;}</style></defs><title>Artboard 2 copy 3</title><path d="M82.12,88h-63a1.5,1.5,0,0,1-1.5-1.5A33.72,33.72,0,0,1,39.51,54.78a1.5,1.5,0,1,1,1,2.82A30.68,30.68,0,0,0,20.66,85H80.58A30.61,30.61,0,0,0,60.4,57.49a1.5,1.5,0,1,1,1-2.83A33.65,33.65,0,0,1,83.62,86.5,1.5,1.5,0,0,1,82.12,88Z"/><path d="M51,48A20,20,0,0,1,31,28a1.5,1.5,0,0,1,3,0,17,17,0,1,0,34,0,1.5,1.5,0,0,1,3,0A20,20,0,0,1,51,48Z"/><path d="M32.5,30A1.5,1.5,0,0,1,31,28.5V8.5a1.5,1.5,0,0,1,3,0v20A1.5,1.5,0,0,1,32.5,30Z"/><path d="M69.5,30A1.5,1.5,0,0,1,68,28.5V8.5a1.5,1.5,0,0,1,3,0v20A1.5,1.5,0,0,1,69.5,30Z"/><path d="M51,13c-7.47,0-20-.58-20-4.5S43.53,4,51,4s20,.58,20,4.5S58.47,13,51,13ZM35.16,8.5C37.55,9.2,42.89,10,51,10s13.45-.8,15.84-1.5C64.45,7.8,59.11,7,51,7S37.55,7.8,35.16,8.5Zm33,.58h0Z"/><path d="M51,23.46c-6,0-20-.46-20-4.67A1.5,1.5,0,0,1,34,18.36c1.12.78,6.9,2.1,17.06,2.1S67,19.14,68.09,18.36a1.5,1.5,0,0,1,2.94.43C71,23,57,23.46,51,23.46ZM34,18.79h0Z"/><path d="M46.25,87.13a1.5,1.5,0,0,1-1.5-1.5,8.5,8.5,0,0,0-17,0,1.5,1.5,0,0,1-3,0,11.5,11.5,0,0,1,23,0A1.5,1.5,0,0,1,46.25,87.13Z"/><path d="M38.48,72H34a1.5,1.5,0,0,1,0-3h4.43a1.5,1.5,0,0,1,0,3Z"/><path d="M60.5,65a1.5,1.5,0,0,1-.43-.06L50.5,62.07l-9.57,2.87A1.5,1.5,0,0,1,39,63.5v-13a1.5,1.5,0,0,1,1.93-1.44l9.57,2.87,9.57-2.87A1.5,1.5,0,0,1,62,50.5v13A1.5,1.5,0,0,1,60.5,65Zm-10-6a1.49,1.49,0,0,1,.43.06L59,61.48v-9l-8.07,2.42a1.49,1.49,0,0,1-.86,0L42,52.52v9l8.07-2.42A1.49,1.49,0,0,1,50.5,59Z"/><line class="cls-1" x1="60.1" y1="36" x2="54.9" y2="33"/><path d="M60.1,37.5a1.49,1.49,0,0,1-.75-.2l-5.2-3a1.5,1.5,0,1,1,1.5-2.6l5.2,3a1.5,1.5,0,0,1-.75,2.8Z"/><line class="cls-1" x1="41.9" y1="36" x2="47.1" y2="33"/><path d="M41.9,37.5a1.5,1.5,0,0,1-.75-2.8l5.2-3a1.5,1.5,0,1,1,1.5,2.6l-5.2,3A1.49,1.49,0,0,1,41.9,37.5Z"/></svg>