<svg id="Layer_1" data-name="Layer 1" xmlns="http://www.w3.org/2000/svg" viewBox="0 0 101 101"><title>Artboard 2 copy 12</title><path d="M84.5,17h-51A1.5,1.5,0,0,0,32,18.5V40.94L22.88,27.59a1.5,1.5,0,0,0-2.48,1.69L31.69,45.8l-9,13.35a7.74,7.74,0,0,0-7.35,3.35,7.73,7.73,0,0,0,6.41,12.06,7.75,7.75,0,0,0,6.44-3.41h0a7.73,7.73,0,0,0-2.1-10.74c-.15-.1-.3-.18-.45-.27L32,50.7V81.5A1.5,1.5,0,0,0,33.5,83h51A1.5,1.5,0,0,0,86,81.5v-63A1.5,1.5,0,0,0,84.5,17ZM26.41,65.92a4.7,4.7,0,0,1-.72,3.55,4.75,4.75,0,0,1-6.59,1.28,4.72,4.72,0,0,1,3.66-8.54,1.47,1.47,0,0,0,.46.12,4.7,4.7,0,0,1,3.19,3.59ZM83,80H35V50.66l6.45,9.44c-.15.09-.3.17-.45.27a7.73,7.73,0,0,0-2,10.75h0A7.75,7.75,0,0,0,53,68.2a7.67,7.67,0,0,0-1.21-5.79,7.76,7.76,0,0,0-7.37-3.31l-9.08-13.3L46.5,29.21A1.5,1.5,0,1,0,44,27.53L35,40.89V20H83ZM44.34,62.15a4.76,4.76,0,0,1,4.94,2A4.72,4.72,0,0,1,48,70.67a4.76,4.76,0,0,1-6.6-1.25A4.67,4.67,0,0,1,44,62.25,1.47,1.47,0,0,0,44.34,62.15Z"/></svg>