<?xml version="1.0" encoding="utf-8"?>
<!-- Generator: Adobe Illustrator 22.1.0, SVG Export Plug-In . SVG Version: 6.00 Build 0)  -->
<svg version="1.1" id="Layer_1" xmlns="http://www.w3.org/2000/svg" xmlns:xlink="http://www.w3.org/1999/xlink" x="0px" y="0px"
	 viewBox="0 0 101 101" style="enable-background:new 0 0 101 101;" xml:space="preserve">
<title>Artboard 2 copy 8</title>
<path d="M84,18.8c-4.2-7.5-6.7-7.8-12.3-7.8c-1.8,0-3.9,2.6-5.3,4.7c-0.3,0.5-0.3,1.2,0.1,1.7c0.7,0.9,2.4,3,3.6,3.5
	c1.1,0.4,2.2,0.6,3.3,0.5c0.3,0,0.8,0,1.1,0.1c7.6,15,9.6,25.4,5.4,29.4c-3.9,3.8-12.8,1.4-16.5-0.7c-2-1.1-3.7-2.1-5.1-3
	c-5.5-3.2-9.1-5.4-16.4-6.2c-11.6-1.3-22.3,2.3-28,9.4c-3.8,4.7-7.3,13.3-2.6,27.6c3.3,10,16.2,20,37.4,20
	C68,98,83.9,87.2,84.6,86.7c0.7-0.4,0.9-1.4,0.5-2.1c-0.3-0.5-0.9-0.8-1.5-0.7c-34.8,5.3-46.1,1.3-49.7-1.4
	c-0.2-0.2-0.5-0.4-0.7-0.6h42.6c0.8,0,1.5-0.7,1.5-1.5c0-0.4-0.2-0.8-0.4-1.1l-6.5-6.5c5.6-0.4,16.3-2.3,21.6-10.9
	C97.7,52.6,95,38,84,18.8z M89.2,60.5C83,70.7,67,70,66.8,70c-0.8,0-1.5,0.6-1.6,1.4c0,0.4,0.1,0.8,0.4,1.1l6.4,6.4h-6
	c-0.1-0.2-0.2-0.4-0.3-0.6l-8-8c-0.6-0.6-1.6-0.5-2.1,0.1c-0.5,0.6-0.5,1.5,0,2l6.5,6.4h-6c-0.1-0.2-0.2-0.4-0.3-0.6l-8-8
	c-0.6-0.6-1.6-0.5-2.1,0.1c-0.5,0.6-0.5,1.5,0,2l6.5,6.4h-5c-0.1-0.2-0.2-0.4-0.3-0.6L40,71.6c4.8-5.3,4.4-13.6-1-18.4
	c-5-4.4-12.5-4.4-17.4,0c-0.6,0.6-0.7,1.5-0.1,2.1s1.5,0.7,2.1,0.1c4.2-3.6,10.5-3.1,14.1,1.1c3.4,3.9,3.2,9.7-0.4,13.5l0,0
	c-0.3,0.3-0.3,0.3-0.4,0.5c-0.6,0.6-0.6,1.5,0,2.1l6.2,6.4H30.7c-0.8,0-1.5,0.7-1.5,1.5c0,0.3,0.1,2.2,2.4,4.1
	c4.3,3.7,15.5,7.1,44.5,3.4C69.8,91.2,59.8,95,48.7,95C35,95,18.3,89.4,14.1,77c-3.4-10.3-2.7-18.8,2.1-24.8
	c4.4-5.4,12.2-8.5,21-8.5c1.4,0,2.9,0.1,4.3,0.2c6.7,0.8,9.9,2.7,15.2,5.8c1.5,0.9,3.2,1.9,5.2,3c4.2,2.3,14.6,5.5,20.1,0.2
	s3.6-16.3-5-33.2c-0.7-1.3-2.1-1.3-3.4-1.4c-0.8,0-1.5-0.1-2.3-0.3c-0.6-0.5-1.2-1.1-1.7-1.7c0.6-0.9,1.4-1.7,2.3-2.4
	c4.7,0,6,0,9.6,6.2C91.8,38.5,94.5,52,89.2,60.5L89.2,60.5z"/>
<path d="M30.5,35h26c0.8,0,1.5-0.7,1.5-1.5v-25C58,7.7,57.3,7,56.5,7h-26C29.7,7,29,7.7,29,8.5v25C29,34.3,29.7,35,30.5,35z M32,22
	h10v10H32V22z M45,32V22h10v10H45z M55,19H45v-9h10V19z M42,10v9H32v-9H42z"/>
</svg>
