<?xml version="1.0" encoding="iso-8859-1"?>
<!-- Generator: Adobe Illustrator 21.0.2, SVG Export Plug-In . SVG Version: 6.00 Build 0)  -->
<svg version="1.1" id="Layer_1" xmlns="http://www.w3.org/2000/svg" xmlns:xlink="http://www.w3.org/1999/xlink" x="0px" y="0px"
	 viewBox="0 0 100.75 100.75" style="enable-background:new 0 0 100.75 100.75;" xml:space="preserve">
<g>
	<path d="M93.283,8.151l-2.189-2.19c-1.477-1.477-3.429-2.302-5.499-2.324c-2.087,0.019-4.032,0.769-5.491,2.229L50.02,35.95
		c-0.031,0.031-0.062,0.064-0.091,0.099L12.655,80.65l-0.912-0.912c-0.771-0.772-2.12-0.774-2.892,0L4.19,84.4
		c-0.387,0.387-0.6,0.9-0.599,1.447s0.213,1.06,0.599,1.444l7.765,7.765c0.386,0.386,0.899,0.599,1.446,0.599
		c0.546,0,1.06-0.213,1.445-0.599l4.665-4.664c0.793-0.796,0.792-2.092-0.003-2.889l-0.913-0.913l44.602-37.274
		c0.034-0.028,0.067-0.059,0.099-0.09l30.085-30.084C96.383,16.138,96.34,11.208,93.283,8.151z M13.4,92.259l-6.414-6.415
		l3.311-3.311l1.396,1.396l3.62,3.621l0.001,0.001l1.396,1.396L13.4,92.259z M49.156,41.652l8.437,8.437L16.465,84.46l-1.681-1.681
		L49.156,41.652z M91.259,17.02L61.221,47.057l-1.317,1.1l-8.817-8.817l1.101-1.317L82.224,7.986
		c1.835-1.833,4.861-1.792,6.748,0.096l2.189,2.19C93.049,12.159,93.092,15.186,91.259,17.02z"/>
	<path d="M81.043,66.299c-8.104,0-14.698,6.594-14.698,14.698c0,8.105,6.594,14.699,14.698,14.699s14.698-6.594,14.698-14.699
		C95.741,72.893,89.147,66.299,81.043,66.299z M69.345,80.997c0-2.986,1.134-5.706,2.983-7.776c1.288,2.362,4.073,8.898,0.026,15.58
		C70.49,86.729,69.345,83.998,69.345,80.997z M74.649,90.782c5.556-8.642,1.373-17.183-0.016-19.559
		c1.843-1.213,4.044-1.924,6.41-1.924c2.359,0,4.554,0.708,6.394,1.914c-5.555,8.642-1.372,17.182,0.017,19.558
		c-1.843,1.213-4.044,1.925-6.411,1.925C78.684,92.696,76.489,91.988,74.649,90.782z M89.759,88.772
		c-1.288-2.362-4.073-8.897-0.027-15.579c1.864,2.073,3.009,4.804,3.009,7.804C92.741,83.983,91.607,86.703,89.759,88.772z"/>
</g>
</svg>
