<?xml version="1.0" encoding="iso-8859-1"?>
<!-- Generator: Adobe Illustrator 21.1.0, SVG Export Plug-In . SVG Version: 6.00 Build 0)  -->
<svg version="1.1" id="Layer_1" xmlns="http://www.w3.org/2000/svg" xmlns:xlink="http://www.w3.org/1999/xlink" x="0px" y="0px"
	 viewBox="0 0 100.176 100.178" style="enable-background:new 0 0 100.176 100.178;" xml:space="preserve">
<g>
	<path d="M71.762,25.253v-12.1c0-0.829-0.672-1.5-1.5-1.5H30.145c-0.829,0-1.5,0.671-1.5,1.5v11.976
		c-8.076,2.503-13.269,9.018-13.269,17.548v44.172c0,0.828,0.671,1.5,1.5,1.5h66.247c0.828,0,1.5-0.672,1.5-1.5V42.677
		C84.623,34.292,79.607,27.848,71.762,25.253z M31.645,14.653h37.117v9.264H31.645V14.653z M81.623,85.349H18.376V42.677
		c0-10.83,9.009-15.678,17.938-15.678h27.364c8.933,0,17.945,4.848,17.945,15.678V85.349z"/>
	<path d="M50.202,38.505c-10.361,0-18.79,8.429-18.79,18.79c0,10.361,8.429,18.79,18.79,18.79c10.361,0,18.79-8.429,18.79-18.79
		C68.992,46.934,60.563,38.505,50.202,38.505z M50.202,73.085c-8.707,0-15.79-7.083-15.79-15.79c0-8.707,7.083-15.79,15.79-15.79
		c8.707,0,15.79,7.083,15.79,15.79C65.992,66.002,58.909,73.085,50.202,73.085z"/>
	<path d="M55.57,45.131c-0.586-0.585-1.537-0.585-2.121,0L42.861,55.725c-0.429,0.43-0.557,1.074-0.325,1.635
		s0.779,0.926,1.386,0.926h6.967l-8.028,8.029c-0.586,0.586-0.586,1.535,0,2.121c0.293,0.293,0.677,0.439,1.061,0.439
		s0.768-0.146,1.061-0.439l10.588-10.59c0.429-0.429,0.558-1.074,0.325-1.635s-0.779-0.926-1.386-0.926h-6.968l8.028-8.033
		C56.156,46.667,56.156,45.717,55.57,45.131z"/>
</g>
</svg>
