<svg id="Слой_1" data-name="Слой 1" xmlns="http://www.w3.org/2000/svg" viewBox="0 0 100 100"><title>testМонтажная область 9</title><path d="M50,4.5A45.5,45.5,0,1,0,95.5,50,45.55,45.55,0,0,0,50,4.5Zm0,88A42.5,42.5,0,1,1,92.5,50,42.55,42.55,0,0,1,50,92.5Z"/><path d="M73,60.75H51.54l1.88-7.55,8.26-3.28a1.5,1.5,0,0,0,.88-1l3.1-10.44a1.5,1.5,0,0,0-2-1.82l-6.82,2.71,3.74-15a1.5,1.5,0,0,0-1.46-1.86H44.5A1.5,1.5,0,0,0,43,23.62l-6.13,23.7-7.37,2.93a1.5,1.5,0,0,0-.88,1l-3.1,10.43a1.5,1.5,0,0,0,2,1.82l5.77-2.3-2.7,10.44a1.5,1.5,0,0,0,1.45,1.88H70.81a1.5,1.5,0,0,0,1.46-1.17l2.19-9.75A1.5,1.5,0,0,0,73,60.75ZM69.61,70.5H34l3-11.43a1.5,1.5,0,0,0-2-1.77l-5.65,2.25,2-6.77,7.4-2.94a1.5,1.5,0,0,0,.9-1l6-23.32H57.2l-4,16a1.5,1.5,0,0,0,2,1.76l6.67-2.65-2,6.77-8.3,3.3a1.5,1.5,0,0,0-.9,1L48.16,61.89a1.5,1.5,0,0,0,1.46,1.86H71.13Z"/></svg>