<?xml version="1.0" encoding="iso-8859-1"?>
<!-- Generator: Adobe Illustrator 22.0.0, SVG Export Plug-In . SVG Version: 6.00 Build 0)  -->
<svg version="1.1" id="Layer_1" xmlns="http://www.w3.org/2000/svg" xmlns:xlink="http://www.w3.org/1999/xlink" x="0px" y="0px"
	 viewBox="0 0 100.25 100.25" style="enable-background:new 0 0 100.25 100.25;" xml:space="preserve">
<path d="M84.323,5.565h-68c-0.829,0-1.5,0.672-1.5,1.5v86.35c0,0.828,0.671,1.5,1.5,1.5h68c0.829,0,1.5-0.672,1.5-1.5V7.065
	C85.823,6.237,85.152,5.565,84.323,5.565z M82.823,91.914h-65V8.564h65V91.914z"/>
<path d="M30.05,61.061l7.61-1.697l1.39,7.223c0.121,0.626,0.623,1.107,1.253,1.2c0.074,0.012,0.147,0.017,0.22,0.017
	c0.551,0,1.065-0.304,1.327-0.802l8.473-16.112l8.473,16.112c0.262,0.498,0.776,0.802,1.327,0.802c0.073,0,0.146-0.005,0.22-0.017
	c0.63-0.093,1.133-0.574,1.253-1.2l1.39-7.223l7.61,1.697c0.603,0.135,1.226-0.113,1.571-0.626s0.341-1.184-0.011-1.691
	l-9.87-14.264c-0.08-0.116-0.177-0.211-0.28-0.297c1.414-2.219,2.244-4.85,2.244-7.677c0-7.863-6.338-14.26-14.129-14.26
	c-7.79,0-14.128,6.396-14.128,14.26c0,2.935,0.885,5.664,2.399,7.934c-0.011,0.014-0.024,0.025-0.034,0.04l-9.87,14.264
	c-0.352,0.508-0.356,1.179-0.011,1.691C28.823,60.948,29.447,61.196,30.05,61.061z M67.51,57.298l-5.377-1.199
	c-0.398-0.09-0.811-0.014-1.149,0.21c-0.339,0.222-0.574,0.572-0.65,0.971l-0.873,4.537L53.43,50.348
	c2.563-0.623,4.862-1.939,6.67-3.76L67.51,57.298z M50.122,25.246c6.137,0,11.129,5.051,11.129,11.26
	c0,5.76-4.313,10.515-9.839,11.168c-0.168,0.015-0.27,0.031-0.415,0.041c-0.142,0.01-0.272,0.021-0.426,0.032
	c-0.146,0.006-0.291,0.01-0.438,0.01c-0.186,0.005-0.334-0.001-0.498-0.013c-0.189-0.014-0.359-0.024-0.543-0.039
	c-5.654-0.528-10.098-5.346-10.098-11.199C38.994,30.297,43.987,25.246,50.122,25.246z M40.392,46.813
	c1.855,1.783,4.182,3.067,6.778,3.627l-5.983,11.377l-0.873-4.537c-0.077-0.398-0.312-0.749-0.65-0.971
	c-0.339-0.224-0.755-0.3-1.149-0.21l-5.377,1.199L40.392,46.813z"/>
<path d="M58.095,79.159H42.552c-0.829,0-1.5,0.672-1.5,1.5s0.671,1.5,1.5,1.5h15.543c0.829,0,1.5-0.672,1.5-1.5
	S58.924,79.159,58.095,79.159z"/>
</svg>
