<?xml version="1.0" encoding="iso-8859-1"?>
<!-- Generator: Adobe Illustrator 21.0.2, SVG Export Plug-In . SVG Version: 6.00 Build 0)  -->
<svg version="1.1" id="Layer_1" xmlns="http://www.w3.org/2000/svg" xmlns:xlink="http://www.w3.org/1999/xlink" x="0px" y="0px"
	 viewBox="0 0 100.353 100.352" style="enable-background:new 0 0 100.353 100.352;" xml:space="preserve">
<g>
	<path d="M54.333,9.322c-0.463-0.292-1.047-0.308-1.524-0.044c-0.479,0.264-0.775,0.767-0.775,1.313v8.316h-5.784
		c-0.338,0-0.667,0.115-0.932,0.325L27.612,33.28c-0.359,0.285-0.568,0.717-0.568,1.175v7.187c0,0.399,0.159,0.782,0.443,1.064
		c0.283,0.281,0.649,0.421,1.066,0.436l18.498-0.116c-1.976,1.35-4.364,3.295-7.084,6.091c-5.312,5.461-8.082,13.464-9.47,19.217
		c-0.108,0.446-0.005,0.918,0.28,1.279c0.284,0.361,0.719,0.572,1.179,0.572l31.868-0.007c0.462,0,0.898-0.213,1.183-0.577
		s0.385-0.84,0.272-1.288c-1.019-4.058-1.509-7.435-1.419-9.765c0.063-1.634,1.094-2.922,2.52-4.706
		c2.618-3.275,6.204-7.76,6.166-17.736C72.482,20.939,55.074,9.789,54.333,9.322z M64.036,51.97
		c-1.58,1.977-3.073,3.843-3.175,6.463c-0.087,2.264,0.271,5.199,1.063,8.746l-28.034,0.007c1.416-5.152,3.921-11.551,8.227-15.977
		c7.174-7.375,11.616-8.236,11.642-8.241c0.777-0.118,1.331-0.816,1.27-1.601c-0.062-0.781-0.713-1.382-1.495-1.382
		c-0.003,0-0.006,0-0.01,0l-23.479,0.148V35.18l16.728-13.272h6.761c0.828,0,1.5-0.671,1.5-1.5v-6.912
		c4.595,3.491,14.469,12.203,14.512,22.623C69.579,45.036,66.506,48.88,64.036,51.97z"/>
	<path d="M66.04,74.648H30.585c-0.829,0-1.5,0.672-1.5,1.5c0,0.046,0.009,0.089,0.013,0.133c-0.004,0.045-0.013,0.088-0.013,0.133
		l-0.049,10.526c-0.002,0.398,0.155,0.782,0.437,1.065c0.281,0.282,0.664,0.441,1.063,0.441H66.04c0.828,0,1.5-0.672,1.5-1.5V76.202
		c0-0.009-0.003-0.018-0.003-0.027c0-0.009,0.003-0.018,0.003-0.027C67.54,75.32,66.868,74.648,66.04,74.648z M32.043,85.448
		l0.036-7.8H64.54v7.8H32.043z"/>
	<path d="M16.481,61.061c-0.585-0.586-1.535-0.586-2.121,0l-5.378,5.377l-5.378-5.377c-0.586-0.586-1.536-0.586-2.121,0
		c-0.586,0.586-0.586,1.535,0,2.121l5.378,5.376l-5.378,5.376c-0.586,0.586-0.586,1.535,0,2.121
		c0.292,0.293,0.677,0.439,1.061,0.439s0.768-0.146,1.061-0.439l5.378-5.377l5.378,5.377c0.293,0.293,0.677,0.439,1.061,0.439
		s0.768-0.146,1.061-0.439c0.586-0.586,0.586-1.535,0-2.121l-5.378-5.376l5.378-5.376C17.067,62.596,17.067,61.646,16.481,61.061z"
		/>
	<path d="M89.373,43.853c-5.284,0-9.584,4.299-9.584,9.583c0,5.285,4.3,9.585,9.584,9.585s9.584-4.3,9.584-9.585
		C98.957,48.152,94.657,43.853,89.373,43.853z M89.373,60.021c-3.631,0-6.584-2.954-6.584-6.585c0-3.63,2.953-6.583,6.584-6.583
		s6.584,2.953,6.584,6.583C95.957,57.067,93.004,60.021,89.373,60.021z"/>
</g>
</svg>
