<?xml version="1.0" encoding="iso-8859-1"?>
<!-- Generator: Adobe Illustrator 22.0.1, SVG Export Plug-In . SVG Version: 6.00 Build 0)  -->
<svg version="1.1" id="Layer_1" xmlns="http://www.w3.org/2000/svg" xmlns:xlink="http://www.w3.org/1999/xlink" x="0px" y="0px"
	 viewBox="0 0 100.25 100.25" style="enable-background:new 0 0 100.25 100.25;" xml:space="preserve">
<g>
	<path d="M73.284,50.666c-8.692-7.607-13.346-31.31-13.392-31.548c-0.017-0.09-0.043-0.177-0.076-0.26
		c-1.045-5.108-8.354-13.251-9.201-14.181c-0.287-0.315-0.704-0.486-1.122-0.49c-0.427,0.004-0.832,0.189-1.114,0.51
		c-0.832,0.947-8.16,9.397-9.228,14.414c-0.01,0.049-0.018,0.098-0.023,0.146c-0.458,2.139-5.57,25.236-13.913,32.537
		C12.988,62.49,12.064,82.831,12.031,83.692c-0.016,0.407,0.135,0.804,0.418,1.098s0.673,0.46,1.081,0.46H32v7.5
		c0,0.828,0.671,1.5,1.5,1.5h32c0.828,0,1.5-0.672,1.5-1.5v-7.593c0.157,0.056,0.324,0.092,0.5,0.092h17.137
		c0.666,0,1.252-0.438,1.439-1.077l0.331-1.127c0.046-0.156,0.065-0.318,0.06-0.48C86.434,81.703,85.509,61.362,73.284,50.666z
		 M64,91.25H35v-14h29V91.25z M67.5,82.249c-0.176,0-0.343,0.036-0.5,0.092V75.75c0-0.828-0.672-1.5-1.5-1.5H51v-18.5
		c0-0.828-0.671-1.5-1.5-1.5s-1.5,0.672-1.5,1.5v18.5H33.5c-0.829,0-1.5,0.672-1.5,1.5v6.5H15.147
		c0.465-4.871,2.637-19.97,12.044-28.199C36.65,45.773,41.882,20.764,42.1,19.703c0.008-0.037,0.014-0.074,0.019-0.111
		c0.752-3.111,4.909-8.596,7.407-11.612c2.6,3.043,6.921,8.628,7.387,11.669c0.018,0.118,0.05,0.23,0.094,0.336
		c0.599,2.978,5.291,25.052,14.303,32.938c10.314,9.024,11.932,26.369,12.135,29.325H67.5z"/>
	<path d="M93.5,34.25h-17c-0.828,0-1.5,0.671-1.5,1.5s0.672,1.5,1.5,1.5h17c0.828,0,1.5-0.671,1.5-1.5S94.328,34.25,93.5,34.25z"/>
	<path d="M74.5,23.25h19c0.828,0,1.5-0.671,1.5-1.5s-0.672-1.5-1.5-1.5h-19c-0.828,0-1.5,0.671-1.5,1.5S73.672,23.25,74.5,23.25z"/>
	<path d="M27,35.75c0-0.829-0.671-1.5-1.5-1.5h-17c-0.829,0-1.5,0.671-1.5,1.5s0.671,1.5,1.5,1.5h17
		C26.329,37.25,27,36.579,27,35.75z"/>
	<path d="M8.5,23.25h18c0.829,0,1.5-0.671,1.5-1.5s-0.671-1.5-1.5-1.5h-18c-0.829,0-1.5,0.671-1.5,1.5S7.671,23.25,8.5,23.25z"/>
</g>
</svg>
