<?xml version="1.0" encoding="iso-8859-1"?>
<!-- Generator: Adobe Illustrator 21.0.0, SVG Export Plug-In . SVG Version: 6.00 Build 0)  -->
<svg version="1.1" id="Layer_1" xmlns="http://www.w3.org/2000/svg" xmlns:xlink="http://www.w3.org/1999/xlink" x="0px" y="0px"
	 viewBox="0 0 100.353 100.352" style="enable-background:new 0 0 100.353 100.352;" xml:space="preserve">
<g>
	<path d="M9.981,39.299h78.147c0.829,0,1.5-0.671,1.5-1.5c0-13.463-11.848-24.416-26.411-24.416H34.894
		c-14.564,0-26.413,10.953-26.413,24.416C8.481,38.628,9.152,39.299,9.981,39.299z M34.894,16.384h28.323
		c12.357,0,22.509,8.805,23.354,19.916H11.537C12.382,25.188,22.535,16.384,34.894,16.384z"/>
	<path d="M88.128,61.296H9.981c-0.829,0-1.5,0.671-1.5,1.5c0,13.465,11.849,24.419,26.413,24.419h28.323
		c14.563,0,26.411-10.954,26.411-24.419C89.628,61.967,88.957,61.296,88.128,61.296z M63.217,84.215H34.894
		c-12.359,0-22.512-8.805-23.356-19.919h75.034C85.728,75.41,75.575,84.215,63.217,84.215z"/>
	<path d="M15.112,57.405h68.35c3.657,0,6.632-2.975,6.632-6.632c0-3.657-2.975-6.632-6.632-6.632h-68.35
		c-3.657,0-6.632,2.975-6.632,6.632C8.481,54.43,11.456,57.405,15.112,57.405z M15.112,47.141h68.35
		c2.002,0,3.632,1.629,3.632,3.632s-1.629,3.632-3.632,3.632h-68.35c-2.002,0-3.632-1.629-3.632-3.632
		C11.481,48.77,13.11,47.141,15.112,47.141z"/>
	<path d="M43.324,26.571c-0.829,0-1.5,0.671-1.5,1.5v1.816c0,0.829,0.671,1.5,1.5,1.5s1.5-0.671,1.5-1.5v-1.816
		C44.824,27.243,44.152,26.571,43.324,26.571z"/>
	<path d="M68.771,26.571c-0.829,0-1.5,0.671-1.5,1.5v1.816c0,0.829,0.671,1.5,1.5,1.5s1.5-0.671,1.5-1.5v-1.816
		C70.271,27.243,69.599,26.571,68.771,26.571z"/>
	<path d="M30.38,22.614c-0.829,0-1.5,0.671-1.5,1.5v1.816c0,0.829,0.671,1.5,1.5,1.5s1.5-0.671,1.5-1.5v-1.816
		C31.88,23.285,31.209,22.614,30.38,22.614z"/>
	<path d="M57.009,22.614c-0.829,0-1.5,0.671-1.5,1.5v1.816c0,0.829,0.671,1.5,1.5,1.5s1.5-0.671,1.5-1.5v-1.816
		C58.509,23.285,57.838,22.614,57.009,22.614z"/>
</g>
</svg>
