<?xml version="1.0" encoding="iso-8859-1"?>
<!-- Generator: Adobe Illustrator 21.0.0, SVG Export Plug-In . SVG Version: 6.00 Build 0)  -->
<svg version="1.1" id="Layer_1" xmlns="http://www.w3.org/2000/svg" xmlns:xlink="http://www.w3.org/1999/xlink" x="0px" y="0px"
	 viewBox="0 0 100.353 100.353" style="enable-background:new 0 0 100.353 100.353;" xml:space="preserve">
<path style="fill:#231F20;" d="M82.528,9.702H51.497V1.5c0-0.829-0.671-1.5-1.5-1.5s-1.5,0.671-1.5,1.5v8.202H17.473
	c-0.829,0-1.5,0.671-1.5,1.5v7.451v50.768c0,0.828,0.671,1.5,1.5,1.5h17.232L19.097,97.843c-0.416,0.717-0.171,1.634,0.545,2.05
	c0.237,0.137,0.496,0.202,0.751,0.202c0.518,0,1.021-0.268,1.299-0.748l16.48-28.426h10.324V92.91c0,0.828,0.671,1.5,1.5,1.5
	s1.5-0.672,1.5-1.5V70.921h10.335l16.484,28.427c0.278,0.479,0.782,0.747,1.299,0.747c0.256,0,0.515-0.065,0.752-0.202
	c0.716-0.416,0.96-1.334,0.545-2.051l-15.61-26.921h17.227c0.828,0,1.5-0.672,1.5-1.5V18.653v-7.451
	C84.028,10.373,83.356,9.702,82.528,9.702z M81.028,12.702v4.451H18.973v-4.451C18.973,12.702,81.028,12.702,81.028,12.702z
	 M81.028,67.921H18.973V20.153h62.055V67.921z"/>
</svg>
