<?xml version="1.0" encoding="iso-8859-1"?>
<!-- Generator: Adobe Illustrator 21.0.0, SVG Export Plug-In . SVG Version: 6.00 Build 0)  -->
<svg version="1.1" id="Layer_1" xmlns="http://www.w3.org/2000/svg" xmlns:xlink="http://www.w3.org/1999/xlink" x="0px" y="0px"
	 viewBox="0 0 100.354 100.352" style="enable-background:new 0 0 100.354 100.352;" xml:space="preserve">
<g>
	<path d="M86.496,48.656c-0.829,0-1.5,0.671-1.5,1.5v19.31H70.912c-0.161,0-0.312,0.032-0.457,0.079
		c-0.692,0.133-1.215,0.74-1.215,1.471v16.2c0,0.829,0.671,1.5,1.5,1.5s1.5-0.671,1.5-1.5v-14.75h12.756v14.75
		c0,0.829,0.671,1.5,1.5,1.5s1.5-0.671,1.5-1.5V50.157C87.996,49.327,87.324,48.656,86.496,48.656z"/>
	<path d="M66.579,60.639h-15.42V40.862l0.189,0.081c4.351,1.85,9.34,1.85,13.69,0l2.183-0.928l2.183,0.928
		c4.351,1.85,9.34,1.85,13.69,0l2.77-1.177c0.263-0.112,0.473-0.292,0.627-0.508c0.345-0.051,0.675-0.214,0.92-0.5
		c0.54-0.628,0.468-1.576-0.16-2.115L50.636,5.192c-0.562-0.483-1.393-0.483-1.955,0L12.066,36.643
		c-0.43,0.369-0.593,0.929-0.483,1.447c-0.138,0.684,0.217,1.393,0.884,1.676l2.77,1.177c4.35,1.85,9.34,1.849,13.69,0l2.183-0.928
		l2.183,0.928c2.175,0.925,4.51,1.387,6.845,1.387c2.334,0,4.67-0.462,6.845-1.387l1.176-0.5V60.64H33.151
		c-0.829,0-1.5,0.671-1.5,1.5s0.671,1.5,1.5,1.5h15.008v23.576c0,0.829,0.671,1.5,1.5,1.5s1.5-0.671,1.5-1.5V63.64h15.42
		c0.829,0,1.5-0.671,1.5-1.5S67.407,60.639,66.579,60.639z M45.808,38.181c-3.604,1.533-7.738,1.532-11.343,0l-2.77-1.177
		c-0.375-0.159-0.799-0.159-1.174,0l-2.77,1.177c-3.604,1.532-7.739,1.532-11.342,0l-1.025-0.436L49.658,8.306l33.947,29.159
		l-1.685,0.716c-3.604,1.532-7.739,1.531-11.343,0l-2.77-1.177c-0.375-0.159-0.799-0.159-1.174,0l-2.77,1.177
		c-3.604,1.533-7.738,1.532-11.343,0l-1.801-0.765c-0.272-0.273-0.647-0.442-1.063-0.442c-0.001,0-0.001,0-0.002,0
		c-0.351-0.122-0.734-0.116-1.078,0.03L45.808,38.181z"/>
	<path d="M28.688,69.612H14.432V50.045c0-0.829-0.671-1.5-1.5-1.5s-1.5,0.671-1.5,1.5v37.059c0,0.829,0.671,1.5,1.5,1.5
		s1.5-0.671,1.5-1.5V72.612h12.756v14.492c0,0.829,0.671,1.5,1.5,1.5s1.5-0.671,1.5-1.5V71.348c0-0.04-0.009-0.078-0.012-0.118
		c0.003-0.04,0.012-0.078,0.012-0.118C30.188,70.284,29.517,69.612,28.688,69.612z"/>
</g>
</svg>
