<?xml version="1.0" encoding="iso-8859-1"?>
<!-- Generator: Adobe Illustrator 22.0.0, SVG Export Plug-In . SVG Version: 6.00 Build 0)  -->
<svg version="1.1" id="Layer_1" xmlns="http://www.w3.org/2000/svg" xmlns:xlink="http://www.w3.org/1999/xlink" x="0px" y="0px"
	 viewBox="0 0 100.25 100.25" style="enable-background:new 0 0 100.25 100.25;" xml:space="preserve">
<g>
	<path d="M79.567,29.924l-18.26-18.479c-0.282-0.285-0.666-0.446-1.067-0.446H20.5c-0.829,0-1.5,0.671-1.5,1.5v75
		c0,0.829,0.671,1.5,1.5,1.5h58c0.829,0,1.5-0.671,1.5-1.5V30.978C80,30.584,79.844,30.205,79.567,29.924z M62,16.415L74.93,29.5H62
		V16.415z M22,86V14h37v17c0,0.829,0.671,1.5,1.5,1.5H77V86H22z"/>
	<path d="M61.376,62.522c-0.854-0.047-3.146-0.008-3.404-0.002c-0.818,0.015-1.473,0.682-1.473,1.5V78c0,0.829,0.671,1.5,1.5,1.5
		s1.5-0.671,1.5-1.5v-5.49h2.206c1.927,0,4.794-1.275,4.794-4.79C66.5,65.885,65.834,62.77,61.376,62.522z M61.706,69.51H59.5
		v-4.008c0.676-0.007,1.374-0.003,1.71,0.016c1.519,0.084,2.29,0.448,2.29,2.203C63.5,69.242,62.366,69.495,61.706,69.51z"/>
	<path d="M42,76.5h-6.252l7.514-11.689c0.297-0.461,0.318-1.048,0.055-1.53C43.054,62.8,42.549,62.5,42.001,62.5h-9
		c-0.829,0-1.5,0.671-1.5,1.5s0.671,1.5,1.5,1.5h6.252l-7.514,11.689c-0.297,0.461-0.318,1.048-0.055,1.53
		C31.947,79.2,32.452,79.5,33,79.5h9c0.829,0,1.5-0.671,1.5-1.5S42.829,76.5,42,76.5z"/>
	<path d="M49.5,62.5c-0.829,0-1.5,0.671-1.5,1.5v14c0,0.829,0.671,1.5,1.5,1.5S51,78.829,51,78V64C51,63.171,50.329,62.5,49.5,62.5z
		"/>
</g>
</svg>
