<?xml version="1.0" encoding="iso-8859-1"?>
<!-- Generator: Adobe Illustrator 22.0.0, SVG Export Plug-In . SVG Version: 6.00 Build 0)  -->
<svg version="1.1" id="Layer_1" xmlns="http://www.w3.org/2000/svg" xmlns:xlink="http://www.w3.org/1999/xlink" x="0px" y="0px"
	 viewBox="0 0 100.25 100.25" style="enable-background:new 0 0 100.25 100.25;" xml:space="preserve">
<path d="M94.571,67.079l-0.61-0.617c-3.975-4.009-6.853-9.164-8.323-14.906l-2.737-10.705c-0.036-0.139-0.092-0.273-0.166-0.397
	c-0.838-1.394-1.834-2.678-2.961-3.817L55.391,12.049c-0.983-0.989-2.34-1.535-3.818-1.535c-0.001,0-0.002,0-0.003,0
	c-1.798,0.001-3.623,0.8-5.007,2.196l-1.094,1.108c-0.971,0.98-1.621,2.149-1.936,3.346L32.994,6.537
	c-0.98-0.99-2.336-1.536-3.816-1.537h-0.001c-1.801,0-3.627,0.8-5.01,2.195l-1.092,1.103c-0.973,0.983-1.624,2.155-1.939,3.355
	l-3.572-3.6c-0.982-0.991-2.338-1.538-3.817-1.538c-0.001,0-0.001,0-0.002,0c-1.798,0-3.625,0.8-5.006,2.194L7.644,9.811
	C5.048,12.439,4.759,16.418,7,18.679l3.593,3.626c-1.225,0.328-2.39,1.009-3.34,1.972l-1.094,1.101
	c-2.605,2.628-2.894,6.608-0.646,8.87l18.653,18.809c-1.222,0.328-2.389,1.009-3.348,1.973l-1.09,1.106
	c-2.604,2.626-2.893,6.604-0.646,8.865l15.956,16.087c1.379,1.39,2.957,2.567,4.691,3.501c0.125,0.067,0.259,0.116,0.397,0.145
	l9.83,2.071c6.344,1.333,12.003,4.361,16.361,8.756C66.597,95.842,66.977,96,67.371,96c0,0,0,0,0.001,0
	c0.395,0,0.775-0.158,1.053-0.439l26.147-26.397C95.143,68.59,95.143,67.658,94.571,67.079z M21.186,62.914
	c-1.085-1.092-0.788-3.238,0.647-4.686c0.001-0.001,0.002-0.002,0.003-0.003l1.089-1.105c0.831-0.837,1.889-1.317,2.901-1.317
	c0.48,0,1.166,0.114,1.705,0.654l0.004,0.004c0.001,0,0.001,0,0.001,0c0.001,0.001,0.002,0.001,0.003,0.002l5.406,5.447
	c0.29,0.292,0.672,0.438,1.053,0.438c0.378,0,0.756-0.143,1.046-0.43c0.582-0.578,0.586-1.517,0.008-2.099l-6.294-6.341
	L7.617,32.159c-1.086-1.093-0.789-3.241,0.645-4.69l1.097-1.104c0.823-0.835,1.876-1.315,2.888-1.316c0.002,0,0.003,0,0.004,0
	c0.483,0,1.17,0.114,1.71,0.656l0.005,0.005c0.003,0.003,0.008,0.004,0.012,0.008l19.685,19.844
	c0.291,0.293,0.673,0.439,1.054,0.439c0.378,0,0.756-0.143,1.046-0.43c0.582-0.577,0.586-1.516,0.009-2.098L14.605,22.136
	c-0.003-0.003-0.007-0.004-0.01-0.007l-5.488-5.538c-1.101-1.112-0.81-3.218,0.644-4.691l1.094-1.101
	c0.83-0.837,1.887-1.318,2.9-1.318h0.001c0.482,0,1.17,0.115,1.71,0.66l5.499,5.54l0,0l21.166,21.337
	c0.291,0.293,0.673,0.439,1.054,0.439c0.378,0,0.756-0.143,1.046-0.43c0.582-0.577,0.586-1.516,0.009-2.098L24.537,15.078l0,0
	l-0.003-0.003c-1.083-1.094-0.785-3.239,0.651-4.69l1.092-1.103c0.829-0.836,1.886-1.316,2.901-1.316c0,0,0,0,0.001,0
	c0.482,0,1.169,0.114,1.707,0.658L44.819,22.67c0.003,0.003,0.004,0.007,0.007,0.01l6.512,6.566
	c0.291,0.293,0.673,0.439,1.054,0.439c0.378,0,0.756-0.143,1.046-0.43c0.582-0.577,0.586-1.516,0.009-2.098l-6.506-6.56
	c-0.003-0.003-0.004-0.007-0.007-0.01l-0.003-0.003c-1.08-1.092-0.783-3.234,0.652-4.681l1.094-1.108
	c0.828-0.836,1.885-1.316,2.898-1.316c0.001,0,0.001,0,0.002,0c0.483,0,1.172,0.115,1.71,0.658l23.383,23.58
	c-0.638-0.12-1.291-0.186-1.954-0.186c-2.814,0-5.457,1.103-7.441,3.107c-1.235,1.246-1.977,2.542-2.422,3.626
	c-3.158-2.336-7.045-3.403-10.992-2.98c-0.077-0.002-0.155-0.003-0.233,0.007l-10.913,1.407c-0.032,0.004-0.06,0.016-0.092,0.022
	c-0.057,0.011-0.115,0.022-0.17,0.04c-0.036,0.011-0.068,0.026-0.102,0.04c-0.057,0.023-0.114,0.047-0.168,0.077
	c-0.028,0.016-0.053,0.034-0.08,0.05c-0.054,0.036-0.108,0.072-0.157,0.114c-0.022,0.019-0.042,0.039-0.061,0.058
	c-0.048,0.045-0.094,0.093-0.136,0.145c-0.019,0.024-0.035,0.048-0.052,0.073c-0.037,0.051-0.071,0.104-0.101,0.16
	c-0.018,0.034-0.032,0.069-0.047,0.105c-0.022,0.05-0.044,0.1-0.059,0.153c-0.015,0.047-0.023,0.096-0.033,0.144
	c-0.007,0.036-0.019,0.068-0.024,0.104l-1.395,11.011c-0.01,0.077-0.008,0.152-0.006,0.228c-0.426,4.018,0.659,7.977,3.024,11.178
	c-1.149,0.474-2.53,1.226-3.671,2.377c-2.577,2.599-3.527,6.229-2.858,9.596L21.186,62.914z M67.344,92.435
	c-4.606-4.246-10.376-7.185-16.78-8.53l-8.838-1.863c-0.063-0.113-0.119-0.229-0.215-0.326c-2.971-2.997-2.983-7.862-0.024-10.846
	c1.727-1.743,4.391-2.262,4.414-2.266c0.541-0.099,0.983-0.49,1.149-1.015s0.026-1.098-0.361-1.49
	c-2.803-2.827-4.154-6.711-3.707-10.655c0.005-0.045,0.001-0.089,0.002-0.134l1.244-9.813l9.71-1.252
	c0.046-0.001,0.092,0.003,0.139-0.003c3.891-0.449,7.739,0.911,10.537,3.734c0.284,0.287,0.666,0.439,1.054,0.439
	c0.178,0,0.356-0.032,0.528-0.097c0.549-0.209,0.923-0.722,0.954-1.309c0.001-0.022,0.171-2.204,2.23-4.282
	c1.423-1.436,3.318-2.228,5.334-2.228c2.029,0,3.938,0.799,5.379,2.251c0.082,0.083,0.185,0.129,0.28,0.188l2.391,9.352
	c1.548,6.05,4.542,11.509,8.669,15.826L67.344,92.435z"/>
<path d="M73.124,47.093c-1.124,1.134-1.124,2.971,0,4.105c1.124,1.134,2.945,1.134,4.069,0s1.124-2.971,0-4.105
	S74.248,45.96,73.124,47.093z"/>
<path d="M79.604,69.673c0,1.603,1.288,2.903,2.877,2.903c1.589,0,2.877-1.3,2.877-2.903s-1.288-2.903-2.877-2.903
	C80.892,66.77,79.604,68.069,79.604,69.673z"/>
<path d="M75.158,74.16c-1.589,0-2.877,1.3-2.877,2.903c0,1.603,1.288,2.903,2.877,2.903c1.589,0,2.877-1.3,2.877-2.903
	C78.035,75.458,76.747,74.16,75.158,74.16z"/>
<path d="M67.834,81.549c-1.589,0-2.877,1.3-2.877,2.903s1.288,2.903,2.877,2.903s2.877-1.3,2.877-2.903S69.423,81.549,67.834,81.549
	z"/>
<path d="M45.457,75.009c-1.124,1.134-1.124,2.971,0,4.105c1.124,1.134,2.945,1.134,4.069,0c1.124-1.134,1.124-2.971,0-4.105
	C48.402,73.876,46.581,73.876,45.457,75.009z"/>
<path d="M56.576,54.508h-0.471V54.02c0-0.82-0.665-1.484-1.484-1.484c-0.819,0-1.484,0.664-1.484,1.484v0.488h-0.471
	c-0.819,0-1.484,0.664-1.484,1.484c0,0.82,0.665,1.484,1.484,1.484h0.471v0.489c0,0.82,0.665,1.484,1.484,1.484
	c0.819,0,1.484-0.664,1.484-1.484v-0.489h0.471c0.819,0,1.484-0.664,1.484-1.484C58.06,55.172,57.395,54.508,56.576,54.508z"/>
<path d="M65.869,67.816v-0.488h0.471c0.819,0,1.484-0.664,1.484-1.484c0-0.82-0.665-1.484-1.484-1.484h-0.471v-0.489
	c0-0.82-0.665-1.484-1.484-1.484c-0.819,0-1.484,0.664-1.484,1.484v0.489h-0.47c-0.819,0-1.484,0.664-1.484,1.484
	c0,0.82,0.665,1.484,1.484,1.484h0.47v0.488c0,0.82,0.665,1.484,1.484,1.484C65.205,69.3,65.869,68.636,65.869,67.816z"/>
</svg>
