<?xml version="1.0" encoding="iso-8859-1"?>
<!-- Generator: Adobe Illustrator 21.1.0, SVG Export Plug-In . SVG Version: 6.00 Build 0)  -->
<svg version="1.1" id="Layer_1" xmlns="http://www.w3.org/2000/svg" xmlns:xlink="http://www.w3.org/1999/xlink" x="0px" y="0px"
	 viewBox="0 0 100.75 100.75" style="enable-background:new 0 0 100.75 100.75;" xml:space="preserve">
<path d="M84.057,74.13c-3.133-4.594-8.608-6.654-13.753-5.688L59.036,51.911c6.034-5.336,14.141-40.16,15.06-44.18
	c0.161-0.705-0.202-1.424-0.865-1.711c-0.667-0.288-1.438-0.061-1.841,0.539L49.885,38.484L28.203,6.672
	c-0.407-0.598-1.182-0.819-1.843-0.528c-0.661,0.291-1.021,1.012-0.856,1.716c0.942,4.014,9.245,38.798,15.299,44.1L29.632,68.548
	c-1.657-0.305-3.372-0.308-5.074,0.025c-3.557,0.697-6.628,2.736-8.644,5.739c-2.035,3.007-2.775,6.624-2.083,10.184
	c0.692,3.563,2.734,6.642,5.749,8.669c2.322,1.564,4.958,2.313,7.569,2.313c4.369,0,8.664-2.1,11.284-5.987c0,0,0,0,0,0
	c3.043-4.519,2.984-10.222,0.34-14.61c1.19-1.972,2.327-4.534,3.522-7.226c2.125-4.786,4.527-10.186,7.613-13.057
	c2.837,3.143,5.405,8.496,7.581,13.041c1.29,2.696,2.519,5.261,3.703,7.182c-2.617,4.402-2.648,10.104,0.413,14.605
	c0,0.001,0.001,0.001,0.002,0.002c2.63,3.852,6.905,5.926,11.25,5.926c2.633,0,5.291-0.762,7.625-2.352
	c3-2.044,5.024-5.132,5.7-8.695C86.857,80.742,86.103,77.128,84.057,74.13z M69.222,15.149c-3.537,13.991-8.62,30.945-11.883,34.271
	l-5.635-8.267L69.222,15.149z M35.944,87.815c-3.261,4.838-9.851,6.121-14.69,2.86c-2.349-1.579-3.939-3.977-4.479-6.752
	c-0.539-2.771,0.038-5.588,1.626-7.935c1.572-2.341,3.963-3.93,6.733-4.472c0.686-0.135,1.373-0.2,2.056-0.2
	c0.75,0,1.493,0.083,2.22,0.241c0.001,0,0.001,0.001,0.002,0.002c0.257,0.173,0.548,0.256,0.836,0.256c0.03,0,0.06-0.009,0.09-0.011
	c0.959,0.303,1.881,0.742,2.738,1.319C37.915,76.388,39.201,82.978,35.944,87.815z M39.552,66.438
	c-0.954,2.15-1.869,4.207-2.773,5.877c-0.61-0.612-1.283-1.177-2.026-1.678c-0.68-0.458-1.394-0.84-2.128-1.164l11.165-16.58
	c0.665-0.071,1.278-0.261,1.774-0.423c0.375-0.122,1.004-0.326,1.178-0.27c0.293,0.112,0.583,0.262,0.871,0.434
	C44.206,55.961,41.74,61.509,39.552,66.438z M47.82,49.4c-1.147-0.445-2.275-0.078-3.182,0.217
	c-0.617,0.201-1.007,0.305-1.294,0.309c-0.093-0.022-0.187-0.035-0.281-0.038c-0.073-0.023-0.141-0.054-0.205-0.1
	c-3.246-2.325-8.683-20.026-12.437-34.535L67.313,69.38c-0.73,0.325-1.444,0.707-2.126,1.171c-0.744,0.508-1.417,1.08-2.026,1.699
	c-0.933-1.662-1.929-3.737-2.967-5.906C56.838,59.336,53.035,51.392,47.82,49.4z M83.233,83.748
	c-0.526,2.776-2.104,5.183-4.442,6.775c-4.819,3.281-11.417,2.033-14.708-2.785c-3.276-4.82-2.023-11.419,2.793-14.707
	c0.867-0.59,1.792-1.028,2.744-1.331c0.301,0.015,0.608-0.059,0.879-0.234c4.112-0.924,8.563,0.665,11.079,4.354
	C83.172,78.156,83.76,80.972,83.233,83.748z"/>
</svg>
