<?xml version="1.0" encoding="iso-8859-1"?>
<!-- Generator: Adobe Illustrator 21.0.2, SVG Export Plug-In . SVG Version: 6.00 Build 0)  -->
<svg version="1.1" id="Layer_1" xmlns="http://www.w3.org/2000/svg" xmlns:xlink="http://www.w3.org/1999/xlink" x="0px" y="0px"
	 viewBox="0 0 100.5 100.5" style="enable-background:new 0 0 100.5 100.5;" xml:space="preserve">
<g>
	<path d="M94.232,51.2H66.245V23.68c0-0.829-0.672-1.5-1.5-1.5H35.257c-0.828,0-1.5,0.671-1.5,1.5v16.225H5.77
		c-0.828,0-1.5,0.671-1.5,1.5v35.45c0,0.828,0.672,1.5,1.5,1.5h88.463c0.828,0,1.5-0.672,1.5-1.5V52.7
		C95.732,51.872,95.06,51.2,94.232,51.2z M92.732,75.355H7.269v-32.45h27.987c0.828,0,1.5-0.671,1.5-1.5V25.18h26.488V52.7
		c0,0.829,0.672,1.5,1.5,1.5h27.987v21.155H92.732z"/>
	<circle cx="20.002" cy="51.842" r="2.353"/>
	<circle cx="50" cy="33.967" r="2.353"/>
	<circle cx="80.5" cy="63.056" r="2.353"/>
</g>
</svg>
