<?xml version="1.0" encoding="iso-8859-1"?>
<!-- Generator: Adobe Illustrator 22.0.1, SVG Export Plug-In . SVG Version: 6.00 Build 0)  -->
<svg version="1.1" id="Layer_1" xmlns="http://www.w3.org/2000/svg" xmlns:xlink="http://www.w3.org/1999/xlink" x="0px" y="0px"
	 viewBox="0 0 100.25 100.25" style="enable-background:new 0 0 100.25 100.25;" xml:space="preserve">
<path d="M90.517,29.802c-0.178-0.615-0.726-1.049-1.365-1.081L75.61,28.039l-1.44-14.368c-0.061-0.61-0.487-1.122-1.077-1.292
	c-0.586-0.169-1.223,0.036-1.6,0.521L59.418,28.428l4.498-18.673c0.152-0.63-0.118-1.286-0.669-1.627
	c-0.551-0.342-1.259-0.289-1.755,0.128l-11.041,9.29L40.276,8.294c-0.472-0.428-1.162-0.514-1.722-0.21
	c-0.56,0.303-0.868,0.926-0.769,1.555l3.024,19.069L30.764,13.012c-0.344-0.538-0.989-0.797-1.612-0.65
	c-0.621,0.149-1.08,0.674-1.144,1.31L26.57,28.039l-13.542,0.682c-0.634,0.032-1.18,0.459-1.362,1.068
	c-0.182,0.608,0.039,1.265,0.551,1.64L41,52.51v7.976c0,5.59,3.474,10.227,8,11.082v12.861c-2.035-2.371-5.008-5.221-8.461-6.588
	c-7.549-2.987-15.162-0.251-15.482-0.132c-0.387,0.143-0.698,0.438-0.86,0.816c-0.162,0.379-0.162,0.809,0.002,1.187
	c0.129,0.299,3.258,7.35,11.412,10.578c2.264,0.896,4.817,1.188,7.184,1.188c3.574,0,6.711-0.665,7.781-0.919
	c1.07,0.254,4.207,0.919,7.781,0.919c2.365,0,4.919-0.292,7.183-1.188c8.155-3.229,11.283-10.279,11.413-10.578
	c0.163-0.379,0.164-0.808,0.002-1.187s-0.474-0.674-0.86-0.816c-0.32-0.119-7.936-2.857-15.482,0.132
	c-3.536,1.4-6.575,4.357-8.611,6.761V71.568c4.526-0.855,8-5.492,8-11.082v-7.958l29.939-21.082
	C90.463,31.077,90.695,30.417,90.517,29.802z M36.715,87.501c-4.811-1.905-7.623-5.438-8.91-7.458
	c2.433-0.562,7.1-1.207,11.629,0.587c3.69,1.461,6.905,5.148,8.598,7.38C45.275,88.479,40.416,88.965,36.715,87.501z M61.715,80.63
	c4.508-1.783,9.187-1.143,11.627-0.583c-1.288,2.022-4.1,5.551-8.906,7.454c-3.69,1.461-8.557,0.976-11.319,0.506
	C54.806,85.778,58.015,82.096,61.715,80.63z M57,60.486c0,4.542-2.916,8.236-6.5,8.236S44,65.028,44,60.486V53.25h13V60.486z
	 M58.025,50.25H42.99L17.397,31.504l10.612-0.534c0.741-0.037,1.343-0.61,1.417-1.349l1.137-11.358L42.153,36.37
	c0.383,0.598,1.132,0.848,1.796,0.593c0.664-0.252,1.06-0.936,0.948-1.637l-3.48-21.94l7.986,7.262
	c0.557,0.506,1.401,0.521,1.975,0.038l8.552-7.195l-5.059,21.001c-0.166,0.687,0.171,1.396,0.808,1.703
	c0.636,0.307,1.401,0.126,1.835-0.431L71.56,17.703l1.194,11.919c0.073,0.738,0.676,1.312,1.417,1.349l10.483,0.528L58.025,50.25z"
	/>
</svg>
