<?xml version="1.0" encoding="iso-8859-1"?>
<!-- Generator: Adobe Illustrator 21.1.0, SVG Export Plug-In . SVG Version: 6.00 Build 0)  -->
<svg version="1.1" id="Layer_1" xmlns="http://www.w3.org/2000/svg" xmlns:xlink="http://www.w3.org/1999/xlink" x="0px" y="0px"
	 viewBox="0 0 100.75 100.75" style="enable-background:new 0 0 100.75 100.75;" xml:space="preserve">
<g>
	<path d="M55.504,63.541c-0.184-0.807-0.982-1.316-1.796-1.13l-16.239,3.696l2.587-16.46c0.128-0.818-0.431-1.586-1.249-1.715
		c-0.822-0.131-1.586,0.431-1.715,1.249l-2.772,17.643l-13.903,3.17c-0.458-0.532-0.997-0.999-1.608-1.383
		c-1.604-1.01-3.505-1.331-5.344-0.912c-1.857,0.418-3.437,1.533-4.45,3.142c-1.011,1.606-1.333,3.511-0.909,5.356
		c0.419,1.852,1.535,3.428,3.142,4.438c1.147,0.722,2.446,1.094,3.769,1.094c0.529,0,1.062-0.06,1.59-0.18c0,0,0.001,0,0.001-0.001
		c3.812-0.87,6.208-4.686,5.342-8.505c-0.023-0.102-0.057-0.201-0.084-0.302l11.952-2.725l-1.903,12.107
		c-0.102-0.021-0.201-0.048-0.305-0.064c-3.871-0.599-7.512,2.046-8.123,5.909c0,0.002,0,0.003-0.001,0.005
		c-0.599,3.866,2.05,7.51,5.91,8.122c0.37,0.058,0.737,0.085,1.1,0.085c3.438,0,6.472-2.505,7.023-6.003
		c0.42-2.686-0.731-5.26-2.766-6.788l2.214-14.092l17.407-3.962C55.182,65.152,55.688,64.349,55.504,63.541z M15.941,78.624
		c-1.07,0.244-2.169,0.057-3.097-0.527c-0.927-0.583-1.571-1.493-1.814-2.565c-0.246-1.067-0.06-2.165,0.523-3.091
		c0.584-0.928,1.496-1.572,2.574-1.814c0.304-0.069,0.61-0.104,0.915-0.104c0.76,0,1.508,0.214,2.169,0.63
		c0.477,0.3,0.875,0.688,1.186,1.137c0.048,0.107,0.101,0.208,0.17,0.299c0.199,0.348,0.365,0.717,0.456,1.119
		C19.525,75.916,18.143,78.121,15.941,78.624z M34.555,89.714c-0.352,2.233-2.457,3.767-4.693,3.419
		c-2.226-0.353-3.756-2.459-3.411-4.695c0.354-2.231,2.459-3.756,4.694-3.413c0.39,0.061,0.748,0.193,1.089,0.353
		c0.132,0.096,0.28,0.171,0.442,0.22C34.025,86.443,34.817,88.042,34.555,89.714z"/>
	<path d="M91.062,9.741c-0.563-0.207-1.2-0.033-1.581,0.436c-0.065,0.08-6.616,8.038-13.812,4.641
		c-2.423-1.145-4.26-3.056-6.037-4.904c-2.17-2.257-4.414-4.591-7.665-5.426c-6.245-1.605-9.868,0.351-11.958,2.875
		c-2.093-2.524-5.722-4.481-11.965-2.875c-3.255,0.835-5.499,3.168-7.669,5.424c-1.778,1.848-3.616,3.76-6.042,4.905
		c-7.165,3.388-13.548-4.313-13.815-4.642c-0.38-0.469-1.015-0.646-1.581-0.436C8.37,9.95,8,10.496,8.016,11.098
		c0.011,0.419,0.361,10.345,8.023,17.172c0.656,0.585,1.346,1.126,2.066,1.628c0.07,19.028,2.562,23.309,4.975,27.441
		c0.301,0.515,0.601,1.029,0.896,1.575c0.254,0.471,0.739,0.738,1.239,0.738c0.226,0,0.455-0.055,0.667-0.17
		c0.684-0.369,0.938-1.223,0.569-1.906c-0.311-0.574-0.626-1.115-0.942-1.656c-2.156-3.692-4.38-7.515-4.578-24.358
		c4.769,2.377,10.655,3.275,17.586,2.66c0.663-0.06,1.318-0.181,1.968-0.332l0.645,3.839c0.114,0.678,0.701,1.174,1.388,1.174
		h14.718c0.663,0,1.236-0.463,1.376-1.111l0.843-3.919c0.672,0.159,1.349,0.288,2.035,0.35c1.419,0.126,2.794,0.189,4.124,0.189
		c5.167,0,9.648-0.972,13.437-2.86c-0.584,23.482-9.499,39.376-22.556,39.829c-0.776,0.027-1.385,0.679-1.357,1.455
		c0.026,0.76,0.65,1.358,1.405,1.358c0.017,0,0.033,0,0.05-0.001c14.98-0.519,25.088-18.288,25.295-44.304
		c0.721-0.502,1.418-1.033,2.074-1.618c7.66-6.828,8.007-16.754,8.018-17.173C91.998,10.495,91.628,9.949,91.062,9.741z
		 M56.101,36.089H43.709l-0.52-3.097c2.634-1.16,5.013-3.048,6.812-5.468c1.788,2.406,4.15,4.29,6.768,5.451L56.101,36.089z
		 M82.092,26.17c-0.643,0.573-1.327,1.097-2.044,1.58c-0.226,0.076-0.426,0.204-0.585,0.375c-4.545,2.826-10.486,3.936-17.721,3.295
		c-4.224-0.379-8.252-3.124-10.513-7.165c-0.248-0.444-0.718-0.72-1.227-0.72h0c-0.509,0-0.979,0.275-1.228,0.719
		c-2.264,4.041-6.29,6.786-10.506,7.166c-7.244,0.644-13.187-0.469-17.733-3.299c-0.157-0.169-0.356-0.295-0.579-0.371
		c-0.709-0.477-1.385-0.995-2.021-1.56c-3.941-3.5-5.702-8.047-6.484-11.247c3.139,2.466,8.321,5.141,14.083,2.418
		c2.895-1.366,5.006-3.562,6.869-5.499c2.071-2.153,3.859-4.013,6.34-4.649c4.849-1.247,8.13-0.156,10.03,3.332
		c0.247,0.453,0.721,0.734,1.236,0.734h0c0.516,0,0.99-0.282,1.236-0.735c1.895-3.486,5.17-4.578,10.021-3.331
		c2.477,0.636,4.266,2.497,6.337,4.65c1.862,1.937,3.973,4.132,6.862,5.498c5.773,2.729,10.956,0.042,14.093-2.426
		C87.783,18.124,86.033,22.657,82.092,26.17z"/>
</g>
</svg>
