<?xml version="1.0" encoding="iso-8859-1"?>
<!-- Generator: Adobe Illustrator 21.0.2, SVG Export Plug-In . SVG Version: 6.00 Build 0)  -->
<svg version="1.1" id="Layer_1" xmlns="http://www.w3.org/2000/svg" xmlns:xlink="http://www.w3.org/1999/xlink" x="0px" y="0px"
	 viewBox="0 0 100.75 100.75" style="enable-background:new 0 0 100.75 100.75;" xml:space="preserve">
<path d="M88.233,54.832l-10.695-12.57c0.693-2.946,2.611-13.354-2.405-21.907c-3.115-5.313-8.29-8.853-15.379-10.521
	c-26.303-6.185-39.245,5.89-42.413,13.138c-2.889,6.599-5.562,17.193-3.589,25.332c1.264,5.224,4.017,8.876,6.445,12.098
	c2.729,3.62,5.085,6.746,5.085,11.413v18.56c0,0.829,0.671,1.5,1.5,1.5H59.41c0.829,0,1.5-0.671,1.5-1.5v-8.523
	c4.682,1.465,14.596,3.89,16.968-0.945c0,0,0-0.001,0.001-0.001c1.357-2.774,2.821-16.67,3.275-21.271l6.462-2.424
	c0.458-0.171,0.803-0.555,0.925-1.028C88.665,55.707,88.549,55.204,88.233,54.832z M79.226,57.152
	c-0.537,0.201-0.912,0.691-0.966,1.261c-0.685,7.154-2.125,19.226-3.074,21.171c-1.16,2.365-9.611,0.805-15.267-1.229
	c-0.461-0.166-0.971-0.097-1.371,0.184c-0.4,0.281-0.638,0.739-0.638,1.227v9.107H28.282v-17.06c0-5.671-2.764-9.338-5.69-13.219
	c-2.363-3.135-4.807-6.377-5.925-10.998c-1.797-7.414,0.72-17.251,3.422-23.423c5.986-13.696,26.589-14.334,38.978-11.42
	c6.252,1.472,10.785,4.534,13.47,9.103c1.521,2.588,2.308,5.419,2.667,8.127c-0.495-0.481-1.274-0.572-1.874-0.175
	c-0.02,0.014-2.034,1.345-5.058,2.894c-0.737,0.377-1.029,1.282-0.651,2.019c0.266,0.518,0.791,0.816,1.336,0.816
	c0.23,0,0.464-0.053,0.683-0.166c3.172-1.625,5.262-3.006,5.349-3.064c0.165-0.109,0.298-0.247,0.404-0.4
	c0.36,5.61-0.921,10.25-0.942,10.323c-0.137,0.482-0.025,1.002,0.3,1.384l9.814,11.535L79.226,57.152z"/>
<path d="M43.957,47.104c-0.058-0.826-0.76-1.464-1.602-1.391c-0.826,0.058-1.449,0.775-1.391,1.602
	c0.227,3.23,1.321,6.909,3.252,10.935c0.258,0.538,0.794,0.852,1.354,0.852c0.218,0,0.438-0.048,0.647-0.148
	c0.747-0.358,1.062-1.254,0.704-2.001C45.155,53.269,44.158,49.955,43.957,47.104z"/>
<path d="M58.441,36.608c-2.401,0.637-4.96,0.938-7.219,1.203c-1.207,0.142-2.347,0.275-3.405,0.449
	c-0.817,0.134-1.371,0.906-1.236,1.724c0.121,0.735,0.757,1.256,1.478,1.256c0.081,0,0.163-0.006,0.246-0.02
	c0.989-0.163,2.095-0.292,3.267-0.43c2.358-0.277,5.031-0.59,7.655-1.287l0.009-0.002c0.795-0.221,1.258-1.041,1.042-1.837
	C60.061,36.867,59.235,36.396,58.441,36.608z"/>
<path d="M52.399,66.104c-0.479-0.676-1.416-0.836-2.091-0.357c-0.676,0.479-0.835,1.415-0.357,2.091
	c2.073,2.926,3.681,4.79,3.749,4.868c0.296,0.342,0.714,0.518,1.134,0.518c0.348,0,0.697-0.121,0.981-0.366
	c0.626-0.542,0.695-1.489,0.153-2.116C55.952,70.725,54.381,68.903,52.399,66.104z"/>
</svg>
