<svg id="Layer_1" data-name="Layer 1" xmlns="http://www.w3.org/2000/svg" viewBox="0 0 101 101"><defs><style>.cls-1{fill:none;}.cls-2{fill:#fff;}</style></defs><title>Artboard 2 copy 14</title><path class="cls-1" d="M15,37.5A11.46,11.46,0,0,1,18.74,29,8.51,8.51,0,0,0,11,37.5V38h4Z"/><path class="cls-1" d="M15.5,55c1.18,0,2.5-1.85,2.5-4.5S16.68,46,15.5,46H13.92a9.92,9.92,0,0,1,0,9Z"/><path class="cls-1" d="M39,17.5v-2a1.49,1.49,0,0,1,0-.25A1.49,1.49,0,0,1,39,15a2,2,0,0,0-4,0,1.49,1.49,0,0,1,0,.25,1.49,1.49,0,0,1,0,.25v2A11.46,11.46,0,0,1,31.26,26,8.51,8.51,0,0,0,39,17.5Z"/><path class="cls-1" d="M92.5,46H68.92a9.92,9.92,0,0,1,0,9H92.5c1.18,0,2.5-1.85,2.5-4.5S93.68,46,92.5,46Z"/><path d="M38,56.5A1.5,1.5,0,0,0,36.5,55H19.92a9.92,9.92,0,0,0,0-9H48.5a1.5,1.5,0,0,0,0-3H9.5C6.42,43,4,46.29,4,50.5S6.42,58,9.5,58h27A1.5,1.5,0,0,0,38,56.5ZM9.5,46A2,2,0,0,1,11,47a6.67,6.67,0,0,1,0,7,2,2,0,0,1-1.5,1A2,2,0,0,1,8,54a6.67,6.67,0,0,1,0-7A2,2,0,0,1,9.5,46Zm4.42,0H15.5c1.18,0,2.5,1.85,2.5,4.5S16.68,55,15.5,55H13.92a9.92,9.92,0,0,0,0-9Z"/><path d="M92.5,43h-29a1.5,1.5,0,0,0,0,3h1c1.18,0,2.5,1.85,2.5,4.5S65.68,55,64.5,55h-13a1.5,1.5,0,0,0,0,3h41c3.08,0,5.5-3.29,5.5-7.5S95.58,43,92.5,43Zm0,12H68.92a9.92,9.92,0,0,0,0-9H92.5c1.18,0,2.5,1.85,2.5,4.5S93.68,55,92.5,55Z"/><path class="cls-2" d="M7,50.5A6,6,0,0,0,8,54a2,2,0,0,0,1.5,1A2,2,0,0,0,11,54a6.67,6.67,0,0,0,0-7,2,2,0,0,0-1.5-1A2,2,0,0,0,8,47,6,6,0,0,0,7,50.5Z"/><path d="M85.56,15.44a1.5,1.5,0,0,0-2.12,0l-67,67a1.5,1.5,0,1,0,2.12,2.12l67-67A1.5,1.5,0,0,0,85.56,15.44Z"/><path d="M9.5,41h7A1.5,1.5,0,0,0,18,39.5v-2A8.51,8.51,0,0,1,26.5,29h4A11.51,11.51,0,0,0,42,17.5v-2a1.49,1.49,0,0,0,0-.25A1.49,1.49,0,0,0,42,15a5,5,0,0,0-10,0,1.49,1.49,0,0,0,0,.25,1.49,1.49,0,0,0,0,.25v2A8.51,8.51,0,0,1,23.5,26h-4A11.51,11.51,0,0,0,8,37.5v2A1.5,1.5,0,0,0,9.5,41ZM35,17.5v-2a1.49,1.49,0,0,0,0-.25A1.49,1.49,0,0,0,35,15a2,2,0,0,1,4,0,1.49,1.49,0,0,0,0,.25,1.49,1.49,0,0,0,0,.25v2A8.51,8.51,0,0,1,31.26,26,11.46,11.46,0,0,0,35,17.5Zm-24,20A8.51,8.51,0,0,1,18.74,29,11.46,11.46,0,0,0,15,37.5V38H11Z"/></svg>