<?xml version="1.0" encoding="iso-8859-1"?>
<!-- Generator: Adobe Illustrator 22.0.0, SVG Export Plug-In . SVG Version: 6.00 Build 0)  -->
<svg version="1.1" id="Layer_1" xmlns="http://www.w3.org/2000/svg" xmlns:xlink="http://www.w3.org/1999/xlink" x="0px" y="0px"
	 viewBox="0 0 100.25 100.25" style="enable-background:new 0 0 100.25 100.25;" xml:space="preserve">
<g>
	<path d="M79.567,29.924l-18.26-18.479C61.025,11.16,60.641,11,60.24,11H20.5c-0.828,0-1.5,0.672-1.5,1.5v75
		c0,0.828,0.672,1.5,1.5,1.5h58c0.828,0,1.5-0.672,1.5-1.5V30.979C80,30.585,79.845,30.206,79.567,29.924z M62,16.415L74.929,29.5
		H62V16.415z M22,86V14h37v17c0,0.828,0.672,1.5,1.5,1.5H77V86H22z"/>
	<path d="M34.378,62.522c-0.854-0.045-3.146-0.006-3.406-0.002c-0.817,0.016-1.472,0.683-1.472,1.5v13.979
		c0,0.828,0.672,1.5,1.5,1.5s1.5-0.672,1.5-1.5v-5.49h2.206c1.927,0,4.794-1.275,4.794-4.789
		C39.5,65.884,38.834,62.768,34.378,62.522z M34.706,69.509H32.5v-4.008c0.677-0.003,1.374-0.002,1.711,0.017
		c1.519,0.084,2.289,0.447,2.289,2.202C36.5,69.242,35.366,69.495,34.706,69.509z"/>
	<path d="M65.378,62.522c-0.854-0.045-3.146-0.006-3.406-0.002c-0.817,0.016-1.472,0.683-1.472,1.5v13.979
		c0,0.828,0.672,1.5,1.5,1.5s1.5-0.672,1.5-1.5v-5.49h2.206c1.927,0,4.794-1.275,4.794-4.789
		C70.5,65.884,69.834,62.768,65.378,62.522z M65.706,69.509H63.5v-4.008c0.677-0.003,1.375-0.002,1.711,0.017
		c1.519,0.084,2.289,0.447,2.289,2.202C67.5,69.242,66.366,69.495,65.706,69.509z"/>
	<path d="M54,62.5c-0.828,0-1.5,0.672-1.5,1.5v5.5h-6V64c0-0.828-0.672-1.5-1.5-1.5s-1.5,0.672-1.5,1.5v14
		c0,0.828,0.672,1.5,1.5,1.5s1.5-0.672,1.5-1.5v-5.5h6V78c0,0.828,0.672,1.5,1.5,1.5s1.5-0.672,1.5-1.5V64
		C55.5,63.171,54.828,62.5,54,62.5z"/>
</g>
</svg>
