<svg id="Layer_1" data-name="Layer 1" xmlns="http://www.w3.org/2000/svg" viewBox="0 0 101 101"><title>Artboard 2 copy 15</title><path d="M89.34,42.25a16.15,16.15,0,0,0-8-10.72,27.34,27.34,0,0,0-11.25-2.77c-8-.35-30.11-7.92-33.21-9L31.41,9.68a1.5,1.5,0,0,0-1.32-.78h0a1.5,1.5,0,0,0-1.32.78L16.31,32.61a1.5,1.5,0,0,0,1.32,2.22h.12l11.89-.91c3.42,2.82,20.09,16.63,25.21,22.35,1.52,1.69,2.52,3,3.33,4l.26.33L46.36,82.78a1.5,1.5,0,0,0,.6,2l2.55,1.38-3.3,6.09a1.5,1.5,0,0,0,2.64,1.43l3.3-6.08L54.69,89a1.5,1.5,0,0,0,2-.6L68.59,66.58a15.9,15.9,0,0,0,2.19.16,17.24,17.24,0,0,0,5.84-1A20.47,20.47,0,0,0,89.34,42.25ZM30.09,13.53l4,7.41L28.68,31l-8.42.65ZM54.8,85.66l-2.53-1.38h0l-2.53-1.37,10.84-20a13.24,13.24,0,0,0,2.73,1.9,15.65,15.65,0,0,0,2.29,1ZM84.68,54.9a17,17,0,0,1-9.08,8,13.18,13.18,0,0,1-10.89-.67,11.48,11.48,0,0,1-4.19-3.83c-.83-1-1.86-2.35-3.44-4.11-5.26-5.87-21.59-19.41-25.39-22.54l4.84-8.91C41.32,24.46,61.85,31.4,70,31.76a24.21,24.21,0,0,1,10,2.41,13.19,13.19,0,0,1,6.49,8.77A17,17,0,0,1,84.68,54.9Z"/><path d="M72,37.5A10.5,10.5,0,1,0,82.5,48,10.51,10.51,0,0,0,72,37.5Zm0,18A7.5,7.5,0,1,1,79.5,48,7.51,7.51,0,0,1,72,55.5Z"/></svg>