<svg id="Layer_1" data-name="Layer 1" xmlns="http://www.w3.org/2000/svg" viewBox="0 0 101 101"><title>Artboard 35</title><path d="M88.5,81h-76a1.5,1.5,0,0,1,0-3h76a1.5,1.5,0,0,1,0,3Z"/><path d="M89.5,60h-14a1.5,1.5,0,0,1,0-3h14a1.5,1.5,0,0,1,0,3Z"/><path d="M67.5,60h-13a1.5,1.5,0,0,1,0-3h13a1.5,1.5,0,0,1,0,3Z"/><path d="M46.5,60h-13a1.5,1.5,0,0,1,0-3h13a1.5,1.5,0,0,1,0,3Z"/><path d="M25.5,60h-13a1.5,1.5,0,0,1,0-3h13a1.5,1.5,0,0,1,0,3Z"/><path d="M50.5,71.72A7.3,7.3,0,0,1,45,69.22a5.47,5.47,0,0,1-1.29-4.49c.69-4.07,5.17-15,5.36-15.47a1.5,1.5,0,0,1,2.78,0c.19.46,4.67,11.4,5.36,15.47A5.47,5.47,0,0,1,56,69.22,7.31,7.31,0,0,1,50.5,71.72Zm0-17.84c-1.39,3.58-3.38,8.94-3.79,11.34h0a2.52,2.52,0,0,0,.63,2.06,4.18,4.18,0,0,0,6.32,0,2.52,2.52,0,0,0,.63-2.06C53.88,62.83,51.89,57.46,50.5,53.89ZM45.23,65h0Z"/><path d="M29.22,71.72a7.3,7.3,0,0,1-5.45-2.5,5.47,5.47,0,0,1-1.29-4.49c.69-4.07,5.17-15,5.36-15.47a1.5,1.5,0,0,1,2.78,0c.19.46,4.67,11.4,5.36,15.47a5.47,5.47,0,0,1-1.3,4.49A7.31,7.31,0,0,1,29.22,71.72Zm0-17.84c-1.39,3.58-3.38,8.94-3.79,11.34h0a2.52,2.52,0,0,0,.63,2.06,4.18,4.18,0,0,0,6.32,0A2.52,2.52,0,0,0,33,65.23C32.6,62.83,30.61,57.46,29.22,53.89ZM24,65h0Z"/><path d="M71.76,71.72a7.31,7.31,0,0,1-5.27-2.27A5.48,5.48,0,0,1,65,65h0c.51-4.1,4.52-15.22,4.69-15.69a1.5,1.5,0,0,1,2.77-.12c.21.46,5.16,11.19,6,15.23A5.47,5.47,0,0,1,77.38,69,7.3,7.3,0,0,1,72,71.72Zm-.48-17.84C70,57.52,68.28,63,68,65.38h0a2.52,2.52,0,0,0,.72,2,4.36,4.36,0,0,0,3.22,1.3A4.29,4.29,0,0,0,75,67.14a2.52,2.52,0,0,0,.54-2.08C75,62.68,72.82,57.4,71.27,53.88ZM66.49,65.2h0Z"/><path d="M68.91,43H11.14a1.5,1.5,0,0,1-1-2.61l21-19a1.5,1.5,0,0,1,1-.39H89.86a1.5,1.5,0,0,1,1,2.61l-21,19A1.5,1.5,0,0,1,68.91,43ZM15,40h53.3L86,24H32.67Z"/></svg>