<?xml version="1.0" encoding="iso-8859-1"?>
<!-- Generator: Adobe Illustrator 21.0.2, SVG Export Plug-In . SVG Version: 6.00 Build 0)  -->
<svg version="1.1" id="Layer_1" xmlns="http://www.w3.org/2000/svg" xmlns:xlink="http://www.w3.org/1999/xlink" x="0px" y="0px"
	 viewBox="0 0 100.5 100.5" style="enable-background:new 0 0 100.5 100.5;" xml:space="preserve">
<path d="M19.096,67.272c-1.045-1.049-2.438-1.627-3.921-1.629c-0.001,0-0.003,0-0.005,0c-1.482,0-2.875,0.577-3.918,1.621
	c-1.05,1.047-1.629,2.44-1.63,3.924c-0.001,1.483,0.576,2.877,1.624,3.924l12.982,13c1.045,1.048,2.437,1.626,3.92,1.628
	c0.002,0,0.003,0,0.005,0c1.482,0,2.874-0.576,3.919-1.622c1.05-1.048,1.628-2.442,1.629-3.923c0.001-1.482-0.576-2.876-1.625-3.925
	L19.096,67.272z M29.952,85.996c-0.479,0.479-1.118,0.744-1.799,0.744c-0.001,0-0.002,0-0.002,0
	c-0.681-0.001-1.32-0.266-1.799-0.747L13.368,72.99c-0.481-0.48-0.746-1.12-0.746-1.8c0-0.681,0.266-1.32,0.75-1.803
	c0.479-0.479,1.118-0.744,1.799-0.744c0,0,0.001,0,0.002,0c0.681,0,1.32,0.266,1.799,0.748l12.983,13c0,0,0.001,0,0.001,0.001
	c0.482,0.481,0.747,1.121,0.747,1.801C30.701,84.873,30.435,85.514,29.952,85.996z"/>
<path d="M98.653,14.403c0.03-0.04,0.058-0.081,0.083-0.123c0.024-0.04,0.045-0.082,0.065-0.124c0.021-0.044,0.041-0.088,0.057-0.134
	c0.016-0.044,0.029-0.089,0.041-0.135c0.013-0.049,0.024-0.099,0.031-0.149c0.007-0.044,0.011-0.088,0.014-0.132
	c0.004-0.056,0.004-0.112,0.001-0.169c-0.001-0.022,0.003-0.043,0-0.065c-0.002-0.022-0.01-0.043-0.013-0.065
	c-0.007-0.053-0.018-0.106-0.031-0.159c-0.012-0.05-0.027-0.098-0.044-0.145c-0.008-0.023-0.011-0.046-0.021-0.068l-2.538-6.079
	c0,0,0-0.001-0.001-0.002l-0.005-0.013c-0.077-0.184-0.188-0.343-0.32-0.477C95.97,6.362,95.97,6.36,95.968,6.358
	c-0.001-0.001-0.003-0.002-0.004-0.003c-0.009-0.009-0.018-0.016-0.027-0.024C89.912,0.342,79.186,0.54,72.958,6.763l-44.197,44.13
	c-2.786-2.607-6.939-2.786-9.378-0.35l-16.6,16.585c-1.238,1.233-1.85,2.93-1.723,4.775c0.122,1.766,0.915,3.466,2.232,4.789
	l19.064,19.087c1.318,1.323,3.017,2.121,4.783,2.246c0.164,0.012,0.326,0.017,0.487,0.017c1.655,0,3.166-0.606,4.297-1.734
	l13.279-13.259c0.471-0.47,0.576-1.194,0.257-1.779l-2.406-4.42l3.633-0.342c0.003,0,0.006,0,0.009,0
	c0.825-0.078,1.431-0.809,1.354-1.634l-0.382-4.06l4.061-0.381c0.104-0.01,0.204-0.03,0.3-0.059c0.002,0,0.003-0.001,0.005-0.002
	c0.093-0.029,0.183-0.066,0.267-0.112c0.025-0.014,0.047-0.033,0.072-0.048c0.058-0.036,0.117-0.071,0.169-0.114
	c0.027-0.022,0.049-0.05,0.075-0.075c0.044-0.042,0.09-0.082,0.129-0.129c0.021-0.025,0.036-0.055,0.055-0.081
	c0.037-0.051,0.076-0.101,0.106-0.157c0.012-0.022,0.019-0.047,0.03-0.07c0.031-0.064,0.062-0.129,0.084-0.197
	c0.004-0.011,0.004-0.024,0.007-0.035c0.051-0.176,0.073-0.363,0.055-0.556c0-0.001,0-0.002-0.001-0.003l-0.386-4.059l4.059-0.38
	c0.207-0.019,0.4-0.08,0.572-0.173c0.007-0.004,0.013-0.009,0.02-0.013c0.078-0.044,0.152-0.092,0.221-0.148
	c0.027-0.022,0.049-0.05,0.075-0.074c0.044-0.042,0.09-0.082,0.129-0.129c0.026-0.031,0.045-0.067,0.068-0.1
	c0.032-0.046,0.067-0.089,0.094-0.138c0.018-0.032,0.028-0.068,0.044-0.102c0.025-0.054,0.052-0.107,0.07-0.164
	c0.009-0.029,0.012-0.06,0.019-0.09c0.016-0.066,0.034-0.131,0.042-0.199c0.001-0.009-0.001-0.018,0-0.026
	c0.008-0.09,0.011-0.182,0.002-0.276c0-0.001,0-0.002-0.001-0.003l-0.386-4.06l4.059-0.381c0.496-0.047,0.91-0.332,1.146-0.73
	c0.353-0.307,0.561-0.771,0.514-1.272l-0.381-4.062l4.054-0.381c0.412-0.039,0.769-0.241,1.014-0.536l0,0
	c0.012-0.014,0.02-0.031,0.031-0.046c0.223-0.29,0.344-0.659,0.307-1.051l0,0l0,0l0,0l-0.381-4.058l4.062-0.385h0.001
	c0.054-0.005,0.105-0.02,0.157-0.031c0.047-0.01,0.096-0.014,0.141-0.028c0.011-0.003,0.02-0.009,0.031-0.013
	c0.272-0.09,0.509-0.252,0.685-0.466c0.006-0.007,0.01-0.016,0.016-0.023c0.054-0.068,0.104-0.139,0.146-0.215
	c0.041-0.075,0.073-0.156,0.101-0.238c0.003-0.01,0.009-0.019,0.012-0.029c0.058-0.185,0.081-0.383,0.062-0.588
	c0-0.002,0-0.003,0-0.004l0,0l0,0l-0.387-4.061l4.061-0.385c0.102-0.01,0.2-0.03,0.294-0.058c0.001,0,0.002,0,0.004-0.001
	c0.091-0.028,0.177-0.065,0.26-0.108c0.004-0.002,0.008-0.003,0.012-0.005c0.171-0.092,0.321-0.216,0.444-0.364
	c0,0,0.001,0,0.001-0.001c0.116-0.14,0.205-0.303,0.264-0.478c0.003-0.009,0.008-0.018,0.011-0.027
	c0.028-0.089,0.047-0.181,0.058-0.275c0.001-0.005,0.002-0.009,0.003-0.014c0.01-0.096,0.011-0.194,0.002-0.294
	c0-0.003,0-0.006,0-0.01l0,0v-0.001v-0.001l-0.382-4.054l4.061-0.381c0.495-0.047,0.908-0.331,1.145-0.727
	c0.355-0.307,0.563-0.773,0.516-1.276l-0.387-4.061l4.06-0.381c0.825-0.078,1.431-0.809,1.354-1.634l-0.382-4.062l4.058-0.381
	c0.825-0.078,1.43-0.809,1.353-1.634c0-0.002-0.001-0.003-0.001-0.004l-0.383-4.056l4.054-0.382c0.023-0.002,0.044-0.01,0.066-0.013
	c0.053-0.008,0.106-0.018,0.159-0.031c0.049-0.012,0.096-0.027,0.143-0.044c0.023-0.008,0.046-0.012,0.069-0.021
	c0.022-0.009,0.04-0.023,0.062-0.033c0.048-0.023,0.094-0.048,0.139-0.075c0.041-0.025,0.08-0.051,0.118-0.079
	c0.039-0.029,0.075-0.06,0.111-0.093c0.037-0.034,0.072-0.068,0.105-0.105C98.597,14.476,98.625,14.44,98.653,14.403z
	 M29.808,94.183c-0.617,0.615-1.494,0.916-2.454,0.848c-1.043-0.074-2.062-0.561-2.87-1.372L5.419,74.572
	c-0.807-0.81-1.292-1.831-1.364-2.876c-0.066-0.965,0.234-1.833,0.849-2.445l16.601-16.586c0.577-0.576,1.356-0.856,2.185-0.856
	c1.019,0,2.113,0.423,3,1.242l0.269,0.493c0.041,0.317,0.158,0.626,0.401,0.869c0.033,0.033,0.077,0.045,0.112,0.075l14.82,27.23
	L29.808,94.183z M91.765,12.54c-0.396,0.037-0.761,0.23-1.015,0.537c-0.253,0.307-0.375,0.702-0.337,1.098l0.384,4.059l-4.057,0.382
	c-0.825,0.078-1.43,0.809-1.353,1.634l0.382,4.062l-4.061,0.382c-0.396,0.038-0.762,0.231-1.016,0.538s-0.375,0.702-0.337,1.098
	l0.419,4.396l-4.398,0.413c-0.396,0.038-0.761,0.23-1.015,0.537c-0.254,0.306-0.375,0.701-0.338,1.097l0.382,4.057l-4.063,0.385
	c-0.396,0.038-0.761,0.231-1.015,0.538s-0.375,0.702-0.337,1.098l0.387,4.06l-4.061,0.384c-0.824,0.078-1.429,0.809-1.352,1.633
	l0.381,4.057l-4.054,0.381c-0.825,0.078-1.43,0.809-1.353,1.634l0.413,4.398l-4.4,0.413c-0.396,0.038-0.762,0.231-1.016,0.538
	s-0.375,0.702-0.337,1.098l0.386,4.06l-4.058,0.381c-0.396,0.038-0.762,0.23-1.016,0.538c-0.254,0.307-0.375,0.702-0.337,1.098
	l0.386,4.06L45.9,67.965c-0.396,0.038-0.761,0.23-1.015,0.537c-0.254,0.306-0.375,0.701-0.338,1.097l0.382,4.061l-3.427,0.323
	L30.371,53.531L75.084,8.885c5.045-5.04,13.65-5.279,18.574-0.58l1.63,3.904L91.765,12.54z"/>
</svg>
