<?xml version="1.0" encoding="iso-8859-1"?>
<!-- Generator: Adobe Illustrator 21.1.0, SVG Export Plug-In . SVG Version: 6.00 Build 0)  -->
<svg version="1.1" id="Layer_1" xmlns="http://www.w3.org/2000/svg" xmlns:xlink="http://www.w3.org/1999/xlink" x="0px" y="0px"
	 viewBox="0 0 100.75 100.75" style="enable-background:new 0 0 100.75 100.75;" xml:space="preserve">
<g>
	<path d="M62.786,73.331c-0.764-0.319-1.643,0.035-1.966,0.798c-1.782,4.216-5.89,6.939-10.464,6.939
		c-4.361,0-8.39-2.55-10.264-6.495c-0.355-0.747-1.248-1.068-1.999-0.711c-0.749,0.354-1.067,1.25-0.711,1.998
		c2.368,4.986,7.461,8.208,12.974,8.208c5.783,0,10.975-3.443,13.228-8.771C63.906,74.534,63.55,73.654,62.786,73.331z"/>
	<path d="M42.975,59.134c0.553-0.617,0.501-1.565-0.116-2.118c-0.618-0.553-1.564-0.501-2.118,0.116
		c-1.841,2.055-3.683,3.058-5.493,2.966c-2.802-0.134-4.814-2.82-4.836-2.85c-0.487-0.668-1.422-0.815-2.091-0.33
		c-0.671,0.486-0.82,1.425-0.334,2.096c0.114,0.157,2.846,3.86,7.088,4.079c0.134,0.007,0.267,0.011,0.4,0.011
		C38.092,63.104,40.614,61.77,42.975,59.134z"/>
	<path d="M69.791,57.132c-1.84,2.054-3.689,3.062-5.493,2.966c-2.794-0.133-4.804-2.802-4.84-2.85
		c-0.487-0.668-1.425-0.814-2.092-0.329c-0.671,0.486-0.819,1.424-0.333,2.095c0.114,0.157,2.848,3.861,7.093,4.079
		c0.133,0.008,0.266,0.011,0.398,0.011c2.618,0,5.14-1.334,7.501-3.97c0.553-0.617,0.501-1.565-0.116-2.118
		C71.292,56.462,70.342,56.515,69.791,57.132z"/>
	<path d="M85.363,44.21c-0.236-4.092-1.508-15.014-8.357-21.437c-3.771-3.537-8.618-5.133-14.399-4.741
		c-3.367,0.228-6.438,0.497-9.148,0.733c-16.874,1.477-21.966,1.921-27.171-12.579c-0.23-0.644-0.898-1.048-1.583-0.984
		c-0.196,0.019-0.387,0.076-0.562,0.168c-0.439,0.232-10.786,5.819-13.811,17.029c-1.843,6.828-0.547,14.182,3.848,21.882
		C7.695,45.286,2.71,50.889,2.71,57.649c0,7.475,6.077,13.556,13.547,13.556h0.975c5.16,13.802,17.947,23.603,32.877,23.603
		c14.926,0,27.709-9.8,32.868-23.603h0.77c7.468,0,13.544-6.081,13.544-13.556C97.29,50.727,92.069,45.009,85.363,44.21z
		 M13.22,23.208c2.038-7.591,8.094-12.414,10.887-14.293C29.966,23.83,37.161,23.2,53.72,21.753c2.695-0.236,5.751-0.503,9.09-0.729
		c4.911-0.335,8.997,0.989,12.137,3.929c6.154,5.764,7.239,16.224,7.43,19.691c-13.143,2.937-17.678-11.105-17.868-11.719
		c-0.168-0.547-0.633-0.951-1.198-1.041c-0.57-0.09-1.133,0.15-1.463,0.619C53.49,44.391,39.844,46.892,34.365,47.416
		c-7.179,0.685-13.88-0.632-16.787-3.284C12.967,36.656,11.5,29.616,13.22,23.208z M5.71,57.649c0-5.315,3.957-9.711,9.077-10.43
		v10.43c0,3.666,0.515,7.207,1.46,10.555C10.436,68.199,5.71,63.466,5.71,57.649z M50.108,91.808
		c-17.822,0-32.321-15.323-32.321-34.158v-9.736c3.139,1.735,7.63,2.69,12.728,2.69c1.341,0,2.725-0.066,4.136-0.201
		c5.554-0.531,18.921-2.962,28.036-14.05c2.2,4.601,8.092,13.608,19.733,11.342v9.955C82.42,76.484,67.925,91.808,50.108,91.808z
		 M83.963,68.194c0.943-3.345,1.457-6.882,1.457-10.545v-10.4c5.019,0.803,8.87,5.154,8.87,10.4
		C94.29,63.396,89.676,68.077,83.963,68.194z"/>
</g>
</svg>
