<?xml version="1.0" encoding="iso-8859-1"?>
<!-- Generator: Adobe Illustrator 22.0.0, SVG Export Plug-In . SVG Version: 6.00 Build 0)  -->
<svg version="1.1" id="Layer_1" xmlns="http://www.w3.org/2000/svg" xmlns:xlink="http://www.w3.org/1999/xlink" x="0px" y="0px"
	 viewBox="0 0 100.25 100.25" style="enable-background:new 0 0 100.25 100.25;" xml:space="preserve">
<g>
	<path d="M53,61.5c-0.828,0-1.5,0.671-1.5,1.5v8.893l-6.238-9.704c-0.36-0.56-1.047-0.815-1.685-0.628
		C42.938,61.749,42.5,62.335,42.5,63v14c0,0.829,0.672,1.5,1.5,1.5s1.5-0.671,1.5-1.5v-8.893l6.238,9.704
		C52.019,78.249,52.499,78.5,53,78.5c0.141,0,0.283-0.02,0.423-0.061C54.062,78.251,54.5,77.665,54.5,77V63
		C54.5,62.171,53.828,61.5,53,61.5z"/>
	<path d="M79.567,29.924l-18.26-18.479c-0.282-0.285-0.666-0.446-1.067-0.446H20.5c-0.828,0-1.5,0.671-1.5,1.5v75
		c0,0.829,0.672,1.5,1.5,1.5h58c0.828,0,1.5-0.671,1.5-1.5V30.978C80,30.584,79.845,30.205,79.567,29.924z M62,16.415L74.93,29.5H62
		V16.415z M22,86V14h37v17c0,0.829,0.672,1.5,1.5,1.5H77V86H22z"/>
	<path d="M33.377,61.522c-0.854-0.046-3.146-0.007-3.404-0.002c-0.817,0.015-1.473,0.682-1.473,1.5V77c0,0.829,0.672,1.5,1.5,1.5
		s1.5-0.671,1.5-1.5v-5.49h2.206c1.927,0,4.794-1.275,4.794-4.79C38.5,64.885,37.834,61.77,33.377,61.522z M33.706,68.51H31.5
		v-4.008c0.679-0.006,1.374-0.003,1.711,0.016c1.519,0.084,2.289,0.448,2.289,2.203C35.5,68.242,34.366,68.495,33.706,68.51z"/>
	<path d="M69.5,69.899h-4c-0.828,0-1.5,0.671-1.5,1.5s0.672,1.5,1.5,1.5h2.125c-0.434,1.171-1.33,2.6-3.125,2.6
		c-2.404,0-3.5-2.609-3.5-5.033c0-5.967,2.635-5.967,3.5-5.967c1.839,0,2.518,1.624,2.592,1.817
		c0.284,0.773,1.138,1.171,1.913,0.895c0.78-0.279,1.187-1.137,0.908-1.917c-0.504-1.41-2.211-3.795-5.413-3.795
		c-2.428,0-6.5,1.165-6.5,8.967c0,4.655,2.733,8.033,6.5,8.033c4.899,0,6.5-5.28,6.5-7.1C71,70.571,70.328,69.899,69.5,69.899z"/>
</g>
</svg>
