<?xml version="1.0" encoding="iso-8859-1"?>
<!-- Generator: Adobe Illustrator 21.1.0, SVG Export Plug-In . SVG Version: 6.00 Build 0)  -->
<svg version="1.1" id="Layer_1" xmlns="http://www.w3.org/2000/svg" xmlns:xlink="http://www.w3.org/1999/xlink" x="0px" y="0px"
	 viewBox="0 0 100.353 100.352" style="enable-background:new 0 0 100.353 100.352;" xml:space="preserve">
<g>
	<path d="M78.438,42.732c0-15.594-12.687-28.28-28.28-28.28s-28.28,12.687-28.28,28.28c0,15.593,12.687,28.28,28.28,28.28
		S78.438,58.325,78.438,42.732z M24.877,42.732c0-13.939,11.341-25.28,25.28-25.28s25.28,11.341,25.28,25.28
		c0,13.939-11.341,25.28-25.28,25.28S24.877,56.671,24.877,42.732z"/>
	<path d="M93.504,43.38h-3.709C89.132,22.084,71.612,4.961,50.157,4.961c-21.454,0-38.971,17.123-39.633,38.419H6.582
		c-0.829,0-1.5,0.671-1.5,1.5v16.129c0,0.828,0.671,1.5,1.5,1.5h10.754c0.829,0,1.5-0.672,1.5-1.5V44.88c0-0.829-0.671-1.5-1.5-1.5
		h-3.812C14.185,23.738,30.358,7.961,50.157,7.961c19.802,0,35.976,15.778,36.637,35.419H82.75c-0.828,0-1.5,0.671-1.5,1.5v16.129
		c0,0.828,0.672,1.5,1.5,1.5h4.186C86.239,75.967,75.341,86.768,61.845,87.32v-4.114c0-0.828-0.672-1.5-1.5-1.5H44.218
		c-0.829,0-1.5,0.672-1.5,1.5V93.96c0,0.828,0.671,1.5,1.5,1.5h16.127c0.828,0,1.5-0.672,1.5-1.5v-3.64
		c15.15-0.557,27.39-12.699,28.092-27.811h3.567c0.828,0,1.5-0.672,1.5-1.5V44.88C95.004,44.052,94.332,43.38,93.504,43.38z
		 M15.836,59.509H8.082V46.38h7.754V59.509z M58.845,92.46H45.718v-7.754h13.127V92.46z M92.004,59.509H84.25V46.38h7.754V59.509z"
		/>
</g>
</svg>
