<?xml version="1.0" encoding="iso-8859-1"?>
<!-- Generator: Adobe Illustrator 21.1.0, SVG Export Plug-In . SVG Version: 6.00 Build 0)  -->
<svg version="1.1" id="Layer_1" xmlns="http://www.w3.org/2000/svg" xmlns:xlink="http://www.w3.org/1999/xlink" x="0px" y="0px"
	 viewBox="0 0 100.353 100.352" style="enable-background:new 0 0 100.353 100.352;" xml:space="preserve">
<g>
	<path d="M85.057,14.296c-0.368-0.284-0.851-0.38-1.3-0.26l-22.392,5.96c-0.657,0.175-1.114,0.77-1.114,1.45v45.317
		c-2.109-2.324-5.143-3.795-8.521-3.795c-6.353,0-11.521,5.17-11.521,11.524s5.168,11.523,11.521,11.523
		c6.351,0,11.518-5.167,11.52-11.52c0-0.001,0-0.001,0-0.002V34.12l21.278-5.685c0.656-0.175,1.113-0.77,1.113-1.449V15.485
		C85.643,15.019,85.426,14.58,85.057,14.296z M51.73,83.015c-4.699,0-8.521-3.823-8.521-8.523s3.823-8.524,8.521-8.524
		c4.698,0,8.521,3.824,8.521,8.524S56.429,83.015,51.73,83.015z M82.643,25.834l-19.392,5.18v-8.417l19.392-5.161V25.834z"/>
	<path d="M49.99,42.502c1.049-1.633,1.604-3.5,1.604-5.398c0-5.548-4.515-10.061-10.064-10.061c-3.611,0-6.784,1.914-8.558,4.78
		c-1.774-2.867-4.947-4.78-8.559-4.78c-5.545,0-10.056,4.513-10.056,10.061c0,2.142,0.689,4.205,2.028,6.011l15.416,19.254
		c0.285,0.355,0.715,0.562,1.171,0.562c0,0,0.001,0,0.001,0c0.456,0,0.887-0.208,1.171-0.564L49.9,42.627
		C49.933,42.587,49.962,42.545,49.99,42.502z M47.505,40.819L32.97,59.029L18.761,41.284c-0.919-1.241-1.404-2.686-1.404-4.181
		c0-3.894,3.166-7.061,7.056-7.061c3.892,0,7.059,3.167,7.059,7.061c0,0.829,0.671,1.5,1.5,1.5s1.5-0.671,1.5-1.5
		c0-3.893,3.167-7.061,7.058-7.061c3.895,0,7.064,3.167,7.064,7.061C48.594,38.402,48.218,39.685,47.505,40.819z"/>
</g>
</svg>
