<svg id="Layer_1" data-name="Layer 1" xmlns="http://www.w3.org/2000/svg" viewBox="0 0 101 101"><title>Artboard 2 copy 21</title><path d="M41.69,22.23l-1.27,7.36a2.36,2.36,0,0,0,1,2.26,2.32,2.32,0,0,0,1.36.44A2.35,2.35,0,0,0,43.78,32l6.81-3.45L57,31.94a2.41,2.41,0,0,0,2.49-.22,2.36,2.36,0,0,0,1-2.28l-1.26-7.32L64.56,17a2.39,2.39,0,0,0-1.34-4L55.9,11.83,52.65,5.14a1.5,1.5,0,0,0-.2-.3,2.64,2.64,0,0,0-2.39-1,2.36,2.36,0,0,0-1.82,1.38L45,11.93,37.69,13a2.4,2.4,0,0,0-1.33,4.06Zm4.53-7.44A1.5,1.5,0,0,0,47.35,14l3.13-6.42,3.08,6.32a1.5,1.5,0,0,0,1.13.83l6.87,1-5,4.82a1.5,1.5,0,0,0-.44,1.33l1.18,6.85-6-3.13a1.5,1.5,0,0,0-1.37,0l-6.32,3.2L44.78,22a1.5,1.5,0,0,0-.44-1.33l-5-4.82Z"/><path d="M73.5,41h-13A1.5,1.5,0,0,0,59,42.5V58H42V42.5A1.5,1.5,0,0,0,40.5,41h-13A1.5,1.5,0,0,0,26,42.5v47A1.5,1.5,0,0,0,27.5,91h13A1.5,1.5,0,0,0,42,89.5V74H59V89.5A1.5,1.5,0,0,0,60.5,91h13A1.5,1.5,0,0,0,75,89.5v-47A1.5,1.5,0,0,0,73.5,41ZM72,88H62V72.5A1.5,1.5,0,0,0,60.5,71h-20A1.5,1.5,0,0,0,39,72.5V88H29V44H39V59.5A1.5,1.5,0,0,0,40.5,61h20A1.5,1.5,0,0,0,62,59.5V44H72Z"/></svg>