<?xml version="1.0" encoding="iso-8859-1"?>
<!-- Generator: Adobe Illustrator 21.1.0, SVG Export Plug-In . SVG Version: 6.00 Build 0)  -->
<svg version="1.1" id="Layer_1" xmlns="http://www.w3.org/2000/svg" xmlns:xlink="http://www.w3.org/1999/xlink" x="0px" y="0px"
	 viewBox="0 0 100.176 100.178" style="enable-background:new 0 0 100.176 100.178;" xml:space="preserve">
<path d="M93.985,36.768h-9.511V19.121c0-6.611-5.378-11.99-11.988-11.99c-6.612,0-11.991,5.378-11.991,11.99v17.647H45.997V19.121
	c0-6.611-5.378-11.99-11.989-11.99c-6.612,0-11.992,5.379-11.992,11.99v17.647H6.015c-0.829,0-1.5,0.671-1.5,1.5s0.671,1.5,1.5,1.5
	h36.982V91.37c0,0.828,0.671,1.5,1.5,1.5s1.5-0.672,1.5-1.5v-9.047h35.478v9.047c0,0.828,0.672,1.5,1.5,1.5s1.5-0.672,1.5-1.5
	V39.768h9.511c0.828,0,1.5-0.671,1.5-1.5S94.813,36.768,93.985,36.768z M63.495,19.121c0-4.957,4.033-8.99,8.991-8.99
	c4.956,0,8.988,4.033,8.988,8.99v17.647H63.495V19.121z M25.016,36.768V19.121c0-4.957,4.034-8.99,8.992-8.99
	c4.957,0,8.989,4.033,8.989,8.99v17.647H25.016z M81.475,66.542H45.997v-9.78h35.478V66.542z M45.997,79.323v-9.781h35.478v9.781
	H45.997z M81.475,53.761H45.997V39.768h35.478V53.761z"/>
</svg>
