<?xml version="1.0" encoding="iso-8859-1"?>
<!-- Generator: Adobe Illustrator 21.0.0, SVG Export Plug-In . SVG Version: 6.00 Build 0)  -->
<svg version="1.1" id="Layer_1" xmlns="http://www.w3.org/2000/svg" xmlns:xlink="http://www.w3.org/1999/xlink" x="0px" y="0px"
	 viewBox="0 0 100.353 100.352" style="enable-background:new 0 0 100.353 100.352;" xml:space="preserve">
<g>
	<path d="M64.7,35.835L33.309,60.822c-0.648,0.516-0.755,1.46-0.24,2.108c0.296,0.372,0.733,0.566,1.175,0.566
		c0.327,0,0.657-0.106,0.933-0.326l31.391-24.987c0.648-0.516,0.755-1.46,0.24-2.108S65.349,35.319,64.7,35.835z"/>
	<path d="M37.131,45.307c1.35,0.986,2.942,1.503,4.583,1.503c0.402,0,0.808-0.031,1.213-0.094c4.246-0.661,7.164-4.653,6.505-8.899
		l0,0c-0.661-4.247-4.655-7.165-8.899-6.504c-4.247,0.66-7.165,4.652-6.504,8.898C34.348,42.268,35.449,44.079,37.131,45.307z
		 M40.993,34.277c0.248-0.039,0.495-0.058,0.739-0.058c2.321,0,4.367,1.695,4.735,4.059c0.406,2.612-1.389,5.068-4.001,5.474
		c-1.268,0.197-2.532-0.111-3.565-0.867c-1.034-0.755-1.712-1.869-1.908-3.134C36.587,37.139,38.381,34.683,40.993,34.277z"/>
	<path d="M58.221,52.136c-4.299,0-7.797,3.497-7.797,7.795s3.498,7.794,7.797,7.794s7.796-3.497,7.796-7.794
		C66.018,55.633,62.52,52.136,58.221,52.136z M58.221,64.725c-2.645,0-4.797-2.151-4.797-4.794c0-2.644,2.152-4.795,4.797-4.795
		s4.796,2.151,4.796,4.795C63.018,62.575,60.866,64.725,58.221,64.725z"/>
	<path d="M88.283,41.237c-2.973-1.481-6.046-3.013-6.884-4.993c-0.855-2.021,0.321-5.237,1.458-8.347
		c1.544-4.224,3.142-8.591,0.243-11.488c-2.852-2.853-7.082-1.872-11.174-0.922c-2.93,0.68-5.96,1.383-8.02,0.512
		c-2.006-0.85-3.646-3.437-5.232-5.939c-2.247-3.545-4.793-7.563-9.153-7.563c-4.368,0-6.865,4.107-9.068,7.731
		c-1.563,2.571-3.18,5.23-5.185,6.078c-2.057,0.87-5.122,0.098-8.087-0.647c-4.123-1.037-8.386-2.108-11.242,0.75
		c-2.884,2.882-1.464,7.274-0.09,11.522c1.005,3.106,2.043,6.318,1.182,8.354c-0.838,1.985-3.776,3.503-6.617,4.972
		c-3.932,2.033-8.388,4.337-8.388,8.733c0,4.382,4.283,6.778,8.062,8.892c2.707,1.514,5.506,3.08,6.35,5.074
		c0.865,2.045-0.041,5.188-0.916,8.227c-1.207,4.188-2.455,8.52,0.417,11.39c2.96,2.959,7.705,0.496,12.294-1.889
		c3.335-1.732,7.116-3.698,9.082-2.865c1.919,0.812,3.205,4.777,4.34,8.275c1.656,5.107,3.37,10.389,7.867,10.389
		c4.502,0,6.159-5.287,7.761-10.4c1.1-3.509,2.347-7.487,4.264-8.297c1.966-0.831,5.79,1.14,9.163,2.88
		c4.638,2.393,9.433,4.866,12.391,1.908c2.901-2.9,1.312-7.206-0.224-11.371c-1.129-3.062-2.297-6.228-1.444-8.247
		c0.839-1.983,3.902-3.559,6.864-5.083c4.285-2.205,8.716-4.484,8.716-8.883C97.01,45.586,92.573,43.375,88.283,41.237z
		 M86.922,56.206c-3.437,1.768-6.991,3.597-8.254,6.583c-1.315,3.112,0.062,6.844,1.393,10.453c1.265,3.43,2.46,6.669,0.917,8.211
		c-1.408,1.409-5.386-0.642-8.894-2.452c-4.152-2.142-8.445-4.356-11.707-2.977c-3.196,1.351-4.601,5.831-5.958,10.164
		c-1.278,4.079-2.6,8.297-4.898,8.297c-2.317,0-3.688-4.227-5.014-8.315c-1.398-4.31-2.843-8.767-6.024-10.112
		c-0.706-0.299-1.458-0.43-2.245-0.43c-2.854,0-6.164,1.72-9.389,3.395c-3.46,1.799-7.384,3.837-8.79,2.43
		c-1.62-1.619-0.666-4.931,0.345-8.438c1.02-3.541,2.075-7.202,0.796-10.227c-1.245-2.941-4.5-4.762-7.648-6.523
		c-3.356-1.877-6.526-3.651-6.526-6.273c0-2.57,3.286-4.27,6.766-6.068c3.314-1.714,6.742-3.486,8.002-6.469
		c1.296-3.064,0.083-6.816-1.091-10.445c-1.146-3.544-2.229-6.893-0.643-8.477c1.654-1.656,4.926-0.833,8.39,0.038
		c3.444,0.867,7.008,1.763,9.987,0.501c2.896-1.224,4.769-4.304,6.58-7.283C44.983,8.555,46.84,5.5,49.521,5.5
		c2.709,0,4.608,2.997,6.619,6.169c1.833,2.891,3.727,5.881,6.598,7.096c2.959,1.251,6.471,0.436,9.867-0.353
		c3.445-0.799,6.699-1.555,8.375,0.121c1.545,1.544,0.338,4.843-0.939,8.336c-1.336,3.656-2.719,7.436-1.403,10.546
		c1.27,3.001,4.848,4.785,8.309,6.509c3.633,1.811,7.065,3.521,7.065,6.068C94.01,52.558,90.567,54.33,86.922,56.206z"/>
</g>
</svg>
