<?xml version="1.0" encoding="iso-8859-1"?>
<!-- Generator: Adobe Illustrator 21.1.0, SVG Export Plug-In . SVG Version: 6.00 Build 0)  -->
<svg version="1.1" id="Layer_1" xmlns="http://www.w3.org/2000/svg" xmlns:xlink="http://www.w3.org/1999/xlink" x="0px" y="0px"
	 viewBox="0 0 100.75 100.75" style="enable-background:new 0 0 100.75 100.75;" xml:space="preserve">
<g>
	<path d="M49.997,53.971c-20.044,0-36.352,16.31-36.352,36.357c0,0.829,0.671,1.5,1.5,1.5h69.709c0.829,0,1.5-0.671,1.5-1.5
		C86.355,70.281,70.045,53.971,49.997,53.971z M51.784,67.829l3.03,21h-9.735l3.029-21H51.784z M53.823,57.198v7.631h-8v-7.587
		c1.368-0.172,2.759-0.27,4.173-0.27C51.292,56.971,52.567,57.054,53.823,57.198z M42.823,57.758v8.571c0,0.829,0.671,1.5,1.5,1.5
		h0.753l-3.029,21H16.678C17.358,73.566,28.343,60.946,42.823,57.758z M57.846,88.829l-3.03-21h0.508c0.829,0,1.5-0.671,1.5-1.5
		V57.68c14.656,3.061,25.813,15.764,26.498,31.149H57.846z"/>
	<path d="M49.387,49.993c11.533,0,20.917-9.38,20.917-20.91S60.921,8.172,49.387,8.172c-11.53,0-20.91,9.38-20.91,20.911
		C28.477,40.613,37.858,49.993,49.387,49.993z M49.387,11.172c9.879,0,17.917,8.035,17.917,17.911c0,9.875-8.037,17.91-17.917,17.91
		c-9.875,0-17.91-8.035-17.91-17.91C31.477,19.207,39.512,11.172,49.387,11.172z"/>
	<path d="M44.56,31.829c1.71,0,3.1-1.325,3.237-3h3.053c0.137,1.675,1.527,3,3.237,3h6.473c1.8,0,3.264-1.464,3.264-3.264v-3.473
		c0-1.8-1.464-3.264-3.264-3.264h-6.473c-1.8,0-3.264,1.464-3.264,3.264v0.736h-3v-0.736c0-1.8-1.464-3.264-3.264-3.264h-6.473
		c-1.8,0-3.264,1.464-3.264,3.264v3.473c0,1.8,1.464,3.264,3.264,3.264H44.56z M53.823,25.092c0-0.146,0.118-0.264,0.264-0.264
		h6.473c0.146,0,0.264,0.118,0.264,0.264v3.473c0,0.146-0.118,0.264-0.264,0.264h-6.473c-0.146,0-0.264-0.118-0.264-0.264V25.092z
		 M37.823,28.565v-3.473c0-0.146,0.118-0.264,0.264-0.264h6.473c0.146,0,0.264,0.118,0.264,0.264v3.473
		c0,0.146-0.118,0.264-0.264,0.264h-6.473C37.942,28.829,37.823,28.71,37.823,28.565z"/>
</g>
</svg>
