<svg id="Layer_1" data-name="Layer 1" xmlns="http://www.w3.org/2000/svg" viewBox="0 0 101 101"><title>log_Artboard 2 copy 6</title><path d="M89.6,23.48l-6.5-7a1.55,1.55,0,0,0-2.2,0l-6.5,7a1.5,1.5,0,0,0,2.2,2L81,20.78V78H71V28.5A1.5,1.5,0,0,0,69.5,27h-12A1.5,1.5,0,0,0,56,28.5V78H51V41.5A1.5,1.5,0,0,0,49.5,40h-12A1.5,1.5,0,0,0,36,41.5V78H32V53.5A1.5,1.5,0,0,0,30.5,52h-12A1.5,1.5,0,0,0,17,53.5V78H14.5a1.5,1.5,0,0,0,0,3h68A1.5,1.5,0,0,0,84,79.5V21.86l3.4,3.66a1.5,1.5,0,0,0,2.2-2ZM59,30h9V78H59ZM39,43h9V78H39ZM20,55h9V78H20Z"/></svg>