<svg id="Layer_1" data-name="Layer 1" xmlns="http://www.w3.org/2000/svg" viewBox="0 0 100 100"><title>Artboard 1</title><path d="M89.5,40.5A1.5,1.5,0,0,0,88,39H81.13l1.34-7.23A1.5,1.5,0,0,0,81,30H49.41a1.49,1.49,0,0,0,.09-.5,12.5,12.5,0,0,0-25,0,1.49,1.49,0,0,0,.09.5H19a1.5,1.5,0,0,0-1.48,1.76L18.79,39H12a1.5,1.5,0,0,0-1.5,1.5,38,38,0,0,0,13.61,29l4.22,24.22A1.5,1.5,0,0,0,29.81,95H69.47a1.5,1.5,0,0,0,1.47-1.23L75.37,70A38,38,0,0,0,89.5,40.5Zm-62-11a9.5,9.5,0,0,1,19,0,1.49,1.49,0,0,0,.09.5H27.41A1.49,1.49,0,0,0,27.5,29.5ZM79.2,33,72.62,68.34a37.21,37.21,0,0,1-45.74-.4L20.78,33ZM13.53,42h5.78l3.95,22.62A34.88,34.88,0,0,1,13.53,42ZM68.22,92H31.08L27.62,72.2a40.24,40.24,0,0,0,44.21.36Zm8.05-26.89L80.57,42h5.9A34.91,34.91,0,0,1,76.27,65.11Z"/><path d="M58,19.5A8.5,8.5,0,1,0,49.5,11,8.51,8.51,0,0,0,58,19.5Zm0-14A5.5,5.5,0,1,1,52.5,11,5.51,5.51,0,0,1,58,5.5Z"/><path d="M74,26.5A5.5,5.5,0,1,0,68.5,21,5.51,5.51,0,0,0,74,26.5Zm0-8A2.5,2.5,0,1,1,71.5,21,2.5,2.5,0,0,1,74,18.5Z"/></svg>