<svg id="Layer_1" data-name="Layer 1" xmlns="http://www.w3.org/2000/svg" viewBox="0 0 101 101"><title>Artboard 2 copy 9</title><path d="M85.87,19.05a1.49,1.49,0,0,0-.6-.13A5.12,5.12,0,0,1,80,13.5,1.5,1.5,0,0,0,78.5,12h-45A1.5,1.5,0,0,0,32,13.5V26H14.5A1.5,1.5,0,0,0,13,27.5v51A9.51,9.51,0,0,0,22.5,88h44A1.5,1.5,0,0,0,68,86.5V73H85.5A1.5,1.5,0,0,0,87,71.5v-51A1.5,1.5,0,0,0,85.87,19.05ZM84,21.83V68.36l-4-4.57V20.12A8.38,8.38,0,0,0,84,21.83ZM40.5,70a5.51,5.51,0,0,1-5.29-4H77.95l3.5,4ZM35,15H77V63H35ZM16,29H32V64.5A8.51,8.51,0,0,0,40.5,73H58v4H16Zm.18,51H58.71l4.38,5H22.5A6.51,6.51,0,0,1,16.18,80ZM65,82.63l-4-4.57V73h4Z"/><path d="M44.5,52h23A1.5,1.5,0,0,0,69,50.5v-23A1.5,1.5,0,0,0,67.5,26h-23A1.5,1.5,0,0,0,43,27.5v23A1.5,1.5,0,0,0,44.5,52ZM46,29H66V49H46Z"/></svg>