<svg id="Слой_1" data-name="Слой 1" xmlns="http://www.w3.org/2000/svg" viewBox="0 0 100 100"><title>testМонтажная область 10</title><path d="M88,20.5H10A1.5,1.5,0,0,0,8.5,22V78A1.5,1.5,0,0,0,10,79.5H88A1.5,1.5,0,0,0,89.5,78V22A1.5,1.5,0,0,0,88,20.5Zm-1.5,56h-75v-53h75Z"/><path d="M73.5,50.06A23,23,0,0,1,66.12,66.9a1.5,1.5,0,0,0,2,2.21A25.89,25.89,0,0,0,68,30.89a1.5,1.5,0,0,0-2,2.22A22.94,22.94,0,0,1,73.5,50.06Z"/><path d="M30.84,69.1a1.5,1.5,0,1,0,2-2.21A22.9,22.9,0,0,1,33,33.11a1.5,1.5,0,0,0-2-2.22,25.9,25.9,0,0,0-.15,38.21Z"/><path d="M36.33,42.29,37.7,42l4.6,18.41-.65.15a1.5,1.5,0,1,0,.69,2.92L56.4,60.14a7.67,7.67,0,0,0,5.9-9.06c-.92-3.16-3.64-4.63-6.63-4.92a6.26,6.26,0,0,0,.65-4.55c-.87-3.59-4.78-5.79-8.71-4.91L35.67,39.36a1.5,1.5,0,0,0,.65,2.93ZM59.4,51.83a4.65,4.65,0,0,1-3.69,5.39L45.22,59.7l-2.06-8.24,7.57-1.69a7.89,7.89,0,0,0,.8-.23l.69-.17C54.31,48.88,58.51,48.77,59.4,51.83ZM48.27,39.62c2.31-.52,4.67.72,5.15,2.69A3.33,3.33,0,0,1,53,44.87a4.48,4.48,0,0,1-2.51,1.85l-1.54.38-6.43,1.44,0,0-1.81-7.23Z"/></svg>