<svg id="Layer_1" data-name="Layer 1" xmlns="http://www.w3.org/2000/svg" viewBox="0 0 101 101"><title>log_Artboard 2 copy 8</title><path d="M85,35.79A34.54,34.54,0,0,0,53.15,4.34a34.14,34.14,0,0,0-25.89,9.17A34.53,34.53,0,0,0,16.33,38.66a34.94,34.94,0,0,0,.21,3.84c-2.49,2.74-9.77,11.42-6,15.58A24,24,0,0,0,17,62l0,5c0,9,6.2,18.59,17.63,18.59l6.39.21V94.5a1.5,1.5,0,0,0,3,0V84.29a1.5,1.5,0,0,0-1.45-1.5l-7.89-.26C25,82.53,20,74.69,20,66.94l0-6a1.5,1.5,0,0,0-1.32-1.49c-.92-.32-4.71-2.07-5.91-3.39-1-1.11.66-5.91,6.43-12a1.5,1.5,0,0,0,.4-1.23,31.84,31.84,0,0,1-.27-4.15,31.52,31.52,0,0,1,10-23A31.14,31.14,0,0,1,52.94,7.33,31.52,31.52,0,0,1,82,36,31.21,31.21,0,0,1,71.53,62.18,1.5,1.5,0,0,0,71,63.31L71,93.5A1.5,1.5,0,0,0,72.5,95h0A1.5,1.5,0,0,0,74,93.5L74,64A34.18,34.18,0,0,0,85,35.79Z"/><path d="M50.86,19A20.57,20.57,0,0,0,30.31,39.51a1.5,1.5,0,1,0,3,0,17.55,17.55,0,0,1,35.1,0,17,17,0,0,1-6,13.29,12.84,12.84,0,0,1-11.18,2.52c-8-1.78-8.63-9.84-8.63-12.27a9.15,9.15,0,0,1,8.9-9.24l.24,0a5,5,0,0,1,0,10.08,1.5,1.5,0,1,0,0,3,8,8,0,0,0,.14-16.08l-.25,0A12.15,12.15,0,0,0,39.6,43c0,6.16,2.88,13.39,11,15.19a17.18,17.18,0,0,0,3.74.42,15.77,15.77,0,0,0,10-3.52,20.05,20.05,0,0,0,7.13-15.63A20.57,20.57,0,0,0,50.86,19Z"/></svg>