<?xml version="1.0" encoding="iso-8859-1"?>
<!-- Generator: Adobe Illustrator 21.1.0, SVG Export Plug-In . SVG Version: 6.00 Build 0)  -->
<svg version="1.1" id="Layer_1" xmlns="http://www.w3.org/2000/svg" xmlns:xlink="http://www.w3.org/1999/xlink" x="0px" y="0px"
	 viewBox="0 0 100.5 100.5" style="enable-background:new 0 0 100.5 100.5;" xml:space="preserve">
<path d="M79.639,48.169H69.154l-4.059-16.867c-0.162-0.674-0.765-1.149-1.458-1.149H30.519L25.18,3.083
	c-0.159-0.807-0.94-1.333-1.747-1.184L13.418,3.77c-0.814,0.152-1.351,0.936-1.199,1.75l10.211,54.688
	c0.105,0.565,0.525,1.021,1.081,1.172c0.13,0.035,0.263,0.053,0.394,0.053c0.154,0,0.303-0.031,0.448-0.077h28.723V82.74H33.799
	c-0.829,0-1.5,0.672-1.5,1.5v9.969c0,0.828,0.671,1.5,1.5,1.5h41.546c0.828,0,1.5-0.672,1.5-1.5V84.24c0-0.828-0.672-1.5-1.5-1.5
	H56.076V61.355h23.562c0.828,0,1.5-0.672,1.5-1.5V49.669C81.139,48.84,80.467,48.169,79.639,48.169z M73.845,92.709H35.299V85.74
	h38.546V92.709z M62.456,33.153l3.613,15.016H34.073l-2.962-15.016H62.456z M15.444,6.443l7.08-1.322l8.702,44.117l-6.416,7.37
	L15.444,6.443z M78.139,58.355H27.267l6.256-7.187h44.616V58.355z"/>
</svg>
