<?xml version="1.0" encoding="iso-8859-1"?>
<!-- Generator: Adobe Illustrator 21.1.0, SVG Export Plug-In . SVG Version: 6.00 Build 0)  -->
<svg version="1.1" id="Layer_1" xmlns="http://www.w3.org/2000/svg" xmlns:xlink="http://www.w3.org/1999/xlink" x="0px" y="0px"
	 viewBox="0 0 100.353 100.353" style="enable-background:new 0 0 100.353 100.353;" xml:space="preserve">
<path d="M67.272,58.658c0-9.14-7.088-16.64-16.054-17.332v-8.32c6.198-0.744,11.019-6.038,11.019-12.438
	c0-6.9-5.616-12.514-12.519-12.514c-0.829,0-1.5,0.671-1.5,1.5v20.561c-11.979,0.775-21.49,10.761-21.49,22.933
	c0,12.176,9.511,22.167,21.49,22.942v6.948c0,3.311-2.895,6.004-6.453,6.004c-3.555,0-6.446-2.693-6.446-6.004
	c0-0.828-0.671-1.5-1.5-1.5s-1.5,0.672-1.5,1.5c0,4.965,4.238,9.004,9.446,9.004c5.212,0,9.453-4.039,9.453-9.004v-6.952
	C60.185,75.295,67.272,67.797,67.272,58.658z M51.219,11.173c4.538,0.721,8.019,4.66,8.019,9.396c0,4.742-3.48,8.687-8.019,9.409
	V11.173z M29.729,53.049c0-10.516,8.168-19.14,18.49-19.911v8.213c-4.724,0.444-9.038,2.764-12.017,6.545
	c-0.513,0.65-0.401,1.594,0.25,2.106s1.594,0.401,2.106-0.25c2.406-3.054,5.862-4.968,9.661-5.4v28.617
	C37.897,72.198,29.729,63.57,29.729,53.049z M51.219,72.987V44.326c7.311,0.682,13.054,6.846,13.054,14.332
	C64.272,66.142,58.529,72.305,51.219,72.987z"/>
</svg>
