<?xml version="1.0" encoding="iso-8859-1"?>
<!-- Generator: Adobe Illustrator 21.1.0, SVG Export Plug-In . SVG Version: 6.00 Build 0)  -->
<svg version="1.1" id="Layer_1" xmlns="http://www.w3.org/2000/svg" xmlns:xlink="http://www.w3.org/1999/xlink" x="0px" y="0px"
	 viewBox="0 0 100.5 100.5" style="enable-background:new 0 0 100.5 100.5;" xml:space="preserve">
<path style="fill:#231F20;" d="M86.996,88.43c-0.081-0.622-0.396-1.134-0.884-1.44c-0.905-0.567-1.849-1.008-2.761-1.433
	c-1.452-0.677-2.823-1.315-3.666-2.323c-1.058-1.277-2.799-4.806-3.66-6.653c0.027-0.034,0.051-0.067,0.079-0.102
	c1.585-1.981,1.3-3.986,0.882-4.859c-0.12-0.252-0.31-0.465-0.544-0.615c0,0-1.222-0.781-3.183-2.035L54.134,5.842
	c-0.118-0.389-0.389-0.714-0.751-0.899c-0.361-0.185-0.782-0.216-1.168-0.085c-1.305,0.444-5.659,2.017-6.938,3.601
	c-0.998,1.254-1.467,4.622-1.622,6.011c-0.023,0.208-0.002,0.419,0.061,0.619L55.31,51.741c0.242,0.766,1.047,1.202,1.818,0.997
	l3.034-0.813l3.823,11.116c-5.45-3.483-11.455-7.318-15.259-9.744c-3.714-2.368-8.63-6.56-13.384-10.613
	c-7.358-6.273-11.998-10.136-14.574-10.488c-2.346-0.312-4.387,2.15-5.388,3.652c-1.382,2.073-3.336,6.236-1.897,8.688
	c0.001,0.002,0.002,0.004,0.003,0.006c1.794,3.022,14.18,12.54,16.542,14.288c5.779,4.286,15.88,10.582,22.996,14.332l1.763,0.93
	c5.724,3.023,10.316,5.429,15.486,6.512c0.64,1.705,2.295,5.661,4.692,8.078c1.557,1.566,4.159,3.084,6.968,4.061
	c0.261,0.09,0.59,0.133,0.95,0.133c1.047,0,2.349-0.364,2.945-1.004C86.407,91.255,87.149,89.607,86.996,88.43z M62.543,49.626
	c-0.256-0.746-1.047-1.164-1.807-0.961l-3,0.804L46.673,14.491c0.23-1.855,0.662-3.755,0.945-4.157
	c0.384-0.476,2.237-1.37,4.105-2.102l17.649,58.251c-0.43-0.275-0.869-0.555-1.321-0.845L62.543,49.626z M54.423,70.507
	c-6.884-3.628-17.025-9.947-22.608-14.088C26.291,52.333,17.2,44.908,16.069,43.015c-0.338-0.585,0.192-3.048,1.765-5.439
	c1.261-1.917,2.295-2.435,2.529-2.408c1.835,0.25,8.044,5.544,13.033,9.798c4.832,4.12,9.828,8.38,13.718,10.859
	c4.647,2.963,12.575,8.028,18.765,11.985c0.086,0.068,0.178,0.129,0.277,0.177c1.858,1.188,3.547,2.267,4.932,3.153
	c0.018,0.014,0.038,0.024,0.057,0.037c1.453,0.929,2.569,1.642,3.172,2.028c0.008,0.31-0.081,0.806-0.557,1.4
	c-0.428,0.537-0.818,1.061-1.176,1.542c-0.417,0.561-0.964,1.296-1.29,1.619c-4.923-0.948-9.433-3.331-15.104-6.329L54.423,70.507z
	 M83.696,89.727c-0.241,0.086-0.656,0.147-0.857,0.154c-2.328-0.82-4.524-2.087-5.744-3.313c-1.795-1.809-3.165-4.871-3.827-6.544
	c0.236-0.219,0.47-0.481,0.709-0.769c0.926,1.902,2.323,4.594,3.403,5.897c1.275,1.525,3.019,2.338,4.704,3.123
	c0.643,0.3,1.259,0.587,1.839,0.906C83.856,89.38,83.768,89.592,83.696,89.727z"/>
</svg>
