<?xml version="1.0" encoding="iso-8859-1"?>
<!-- Generator: Adobe Illustrator 22.0.0, SVG Export Plug-In . SVG Version: 6.00 Build 0)  -->
<svg version="1.1" id="Layer_1" xmlns="http://www.w3.org/2000/svg" xmlns:xlink="http://www.w3.org/1999/xlink" x="0px" y="0px"
	 viewBox="0 0 100.25 100.25" style="enable-background:new 0 0 100.25 100.25;" xml:space="preserve">
<g>
	<path d="M79.567,29.924l-18.26-18.479c-0.282-0.285-0.666-0.446-1.067-0.446H20.5c-0.828,0-1.5,0.671-1.5,1.5v75
		c0,0.829,0.672,1.5,1.5,1.5h58c0.828,0,1.5-0.671,1.5-1.5V30.978C80,30.584,79.845,30.205,79.567,29.924z M62,16.415L74.93,29.5H62
		V16.415z M22,86V14h37v17c0,0.829,0.672,1.5,1.5,1.5H77V86H22z"/>
	<path d="M39.908,62.556c-0.649-0.185-1.336,0.086-1.687,0.659l-3.655,5.955l-3.801-5.975c-0.358-0.563-1.047-0.821-1.685-0.635
		c-0.641,0.187-1.081,0.773-1.081,1.44v14c0,0.829,0.672,1.5,1.5,1.5s1.5-0.671,1.5-1.5v-8.847l2.323,3.652
		c0.277,0.437,0.757,0.701,1.277,0.695c0.518-0.004,0.996-0.274,1.267-0.715l2.133-3.474V78c0,0.829,0.672,1.5,1.5,1.5
		s1.5-0.671,1.5-1.5V64C41,63.328,40.554,62.738,39.908,62.556z"/>
	<path d="M50.5,62.5c-3.645,0-6.5,3.733-6.5,8.5s2.855,8.5,6.5,8.5S57,75.767,57,71S54.145,62.5,50.5,62.5z M50.5,76.5
		c-1.897,0-3.5-2.519-3.5-5.5s1.603-5.5,3.5-5.5S54,68.019,54,71S52.397,76.5,50.5,76.5z"/>
	<path d="M71.539,62.656c-0.774-0.298-1.641,0.087-1.938,0.861l-4,10.387L61.392,63.44c-0.31-0.77-1.185-1.142-1.951-0.832
		c-0.769,0.309-1.142,1.183-0.832,1.951l5.631,14c0.229,0.568,0.779,0.94,1.392,0.94c0.004,0,0.008,0,0.011,0
		c0.617-0.004,1.168-0.386,1.389-0.961l5.369-13.943C72.697,63.822,72.313,62.954,71.539,62.656z"/>
</g>
</svg>
