<?xml version="1.0" encoding="iso-8859-1"?>
<!-- Generator: Adobe Illustrator 22.0.0, SVG Export Plug-In . SVG Version: 6.00 Build 0)  -->
<svg version="1.1" id="Layer_1" xmlns="http://www.w3.org/2000/svg" xmlns:xlink="http://www.w3.org/1999/xlink" x="0px" y="0px"
	 viewBox="0 0 100.25 100.25" style="enable-background:new 0 0 100.25 100.25;" xml:space="preserve">
<path d="M86.054,67.149L48.2,29.523l5.287-5.256l3.883,3.86c0.292,0.291,0.675,0.436,1.058,0.436s0.765-0.146,1.058-0.436
	l9.881-9.821c0.283-0.282,0.442-0.665,0.442-1.064s-0.159-0.782-0.442-1.064l-3.87-3.847l4.553-4.526
	c0.587-0.584,0.59-1.534,0.006-2.122c-0.585-0.588-1.535-0.59-2.122-0.006l-4.566,4.539l-3.883-3.86
	c-0.585-0.581-1.53-0.581-2.115,0l-9.881,9.822c-0.283,0.282-0.442,0.665-0.442,1.064s0.159,0.782,0.442,1.064l3.87,3.847
	l-5.287,5.255l-6.347-6.309c-0.588-0.583-1.537-0.581-2.122,0.006c-0.584,0.588-0.581,1.538,0.006,2.122l6.335,6.296l-6.673,6.633
	l0,0L11.946,61.329c-0.283,0.282-0.442,0.665-0.442,1.064s0.159,0.782,0.442,1.064l5.878,5.842l-5.107,5.076
	c-0.587,0.584-0.59,1.534-0.006,2.122c0.293,0.295,0.679,0.442,1.064,0.442c0.382,0,0.765-0.146,1.058-0.436l5.12-5.089l5.89,5.855
	l5.877,5.842l-5.107,5.076c-0.587,0.584-0.59,1.534-0.006,2.122c0.293,0.295,0.679,0.442,1.064,0.442
	c0.382,0,0.765-0.146,1.058-0.436l5.12-5.089l5.89,5.855c0.292,0.291,0.675,0.436,1.058,0.436s0.765-0.146,1.058-0.436L67.18,65.909
	c0.283-0.282,0.442-0.665,0.442-1.064s-0.159-0.782-0.442-1.064L53.284,49.969L40.458,37.22l5.616-5.582L82.87,68.213L59.265,91.677
	c-0.587,0.584-0.59,1.534-0.006,2.122c0.293,0.295,0.679,0.442,1.064,0.442c0.382,0,0.765-0.146,1.058-0.436l24.676-24.528
	c0.283-0.282,0.442-0.665,0.442-1.064S86.337,67.43,86.054,67.149z M58.428,9.534l7.753,7.707l-7.753,7.707l-3.648-3.626
	c-0.058-0.093-0.101-0.194-0.181-0.275c-0.086-0.086-0.192-0.133-0.291-0.194l-3.633-3.611L58.428,9.534z M40.795,87.903
	l-5.883-5.848v-0.001c0,0,0,0-0.001,0l-5.883-5.848l23.197-23.057l11.768,11.697L40.795,87.903z M50.096,51.033L26.899,74.091
	L15.131,62.394l23.194-23.056l0.001-0.001l0.001-0.001L50.096,51.033z"/>
</svg>
