<svg id="Слой_1" data-name="Слой 1" xmlns="http://www.w3.org/2000/svg" viewBox="0 0 100 100"><title>testМонтажная область 12</title><path d="M96.05,56.69,77.5,38.43V10a1.5,1.5,0,0,0-2.91-.51l-7.9,22.06a24,24,0,0,0-5.19-1V20.16a1.5,1.5,0,0,0-1.27-1.48C59.51,18.56,42.5,16.13,28,32.56Q26.92,33.79,25.86,35a1.5,1.5,0,1,0,2.27,2q1-1.21,2.12-2.43c11.18-12.67,24.2-13.19,28.25-13v9c-.56,0-1.12.06-1.67.13a1.48,1.48,0,0,0-.42.12L51.71,26a1.5,1.5,0,0,0-2.5.58,18.3,18.3,0,0,0-.71,5A27.94,27.94,0,0,0,34,44.36L18.64,71.52l-9.7-9.77c.8-1.15,2.24-3.22,4.18-5.87a1.5,1.5,0,1,0-2.42-1.77c-3.06,4.19-4.92,6.95-4.94,7A1.5,1.5,0,0,0,5.94,63l11,11.07a1.42,1.42,0,0,0,.2.13l-3.44,6.07a1.5,1.5,0,1,0,2.61,1.48L36.66,45.8a25.46,25.46,0,0,1,12.1-11.08A15.09,15.09,0,0,0,52,42,1.5,1.5,0,1,0,54.34,40a13.38,13.38,0,0,1-2.76-9.92l7.34,7.55a1.5,1.5,0,1,0,2.15-2.09l-2-2.06.54,0a20.79,20.79,0,0,1,14.68,6L92.86,57.76l-6.62,6.52-14-5a1.51,1.51,0,0,0-1.17.07,10.08,10.08,0,0,1-4.55,1.07,9.94,9.94,0,0,1-10-9.83,1.5,1.5,0,0,0-3,0,12.88,12.88,0,0,0,10,12.47V95a1.5,1.5,0,0,0,3,0V63.42h0a13,13,0,0,0,5.29-1.11l14.3,5.1a1.5,1.5,0,0,0,1.56-.34l8.38-8.24a1.5,1.5,0,0,0,0-2.14ZM69.5,32.62l5-14v17A23.67,23.67,0,0,0,69.5,32.62Z"/><path d="M17.14,49.23a1.5,1.5,0,0,0,2.09-.38c1.65-2.38,3.33-4.72,5-7a1.5,1.5,0,0,0-2.42-1.78c-1.66,2.27-3.35,4.63-5,7A1.5,1.5,0,0,0,17.14,49.23Z"/></svg>