<?xml version="1.0" encoding="iso-8859-1"?>
<!-- Generator: Adobe Illustrator 22.0.0, SVG Export Plug-In . SVG Version: 6.00 Build 0)  -->
<svg version="1.1" id="Layer_1" xmlns="http://www.w3.org/2000/svg" xmlns:xlink="http://www.w3.org/1999/xlink" x="0px" y="0px"
	 viewBox="0 0 100.25 100.25" style="enable-background:new 0 0 100.25 100.25;" xml:space="preserve">
<g>
	<path d="M79.567,29.924l-18.26-18.479C61.025,11.16,60.641,11,60.24,11H20.5c-0.828,0-1.5,0.672-1.5,1.5v75
		c0,0.828,0.672,1.5,1.5,1.5h58c0.828,0,1.5-0.672,1.5-1.5V30.979C80,30.585,79.845,30.206,79.567,29.924z M62,16.415L74.929,29.5
		H62V16.415z M22,86V14h37v17c0,0.828,0.672,1.5,1.5,1.5H77V86H22z"/>
	<path d="M46.761,63.44c-0.229-0.568-0.779-0.94-1.392-0.94c-0.004,0-0.008,0-0.011,0c-0.617,0.005-1.168,0.386-1.389,0.961
		L38.6,77.404c-0.298,0.773,0.087,1.642,0.86,1.938s1.641-0.087,1.938-0.86l0.763-1.982h6.617l0.828,2.06
		c0.235,0.585,0.798,0.94,1.392,0.94c0.187,0,0.376-0.034,0.56-0.108c0.769-0.309,1.142-1.183,0.832-1.951L46.761,63.44z
		 M43.318,73.5l2.081-5.404l2.174,5.404H43.318z"/>
	<path d="M58.5,62.5c-0.828,0-1.5,0.672-1.5,1.5v14c0,0.828,0.672,1.5,1.5,1.5S60,78.828,60,78V64C60,63.171,59.328,62.5,58.5,62.5z
		"/>
</g>
</svg>
