<?xml version="1.0" encoding="iso-8859-1"?>
<!-- Generator: Adobe Illustrator 21.1.0, SVG Export Plug-In . SVG Version: 6.00 Build 0)  -->
<svg version="1.1" id="Layer_1" xmlns="http://www.w3.org/2000/svg" xmlns:xlink="http://www.w3.org/1999/xlink" x="0px" y="0px"
	 viewBox="0 0 100.75 100.75" style="enable-background:new 0 0 100.75 100.75;" xml:space="preserve">
<g>
	<path d="M79.573,5.169H20.427c-0.829,0-1.5,0.671-1.5,1.5V29.61c0,0.829,0.671,1.5,1.5,1.5h11.827l9.42,10.832v47.17
		c0,4.346,3.735,7.882,8.325,7.882c4.591,0,8.326-3.536,8.326-7.882v-47.17l9.422-10.832h11.827c0.828,0,1.5-0.671,1.5-1.5V6.669
		C81.073,5.84,80.401,5.169,79.573,5.169z M55.693,40.396c-0.237,0.273-0.368,0.623-0.368,0.984v47.731
		c0,2.691-2.39,4.882-5.326,4.882s-5.325-2.19-5.325-4.882V41.381c0-0.362-0.131-0.711-0.368-0.984l-8.076-9.287h27.541
		L55.693,40.396z M78.073,28.11H21.927V8.169h56.146V28.11z"/>
	<path d="M26.85,18.807h46.3c0.828,0,1.5-0.671,1.5-1.5s-0.672-1.5-1.5-1.5h-46.3c-0.829,0-1.5,0.671-1.5,1.5
		S26.021,18.807,26.85,18.807z"/>
</g>
</svg>
