<?xml version="1.0" encoding="iso-8859-1"?>
<!-- Generator: Adobe Illustrator 21.1.0, SVG Export Plug-In . SVG Version: 6.00 Build 0)  -->
<svg version="1.1" id="Layer_1" xmlns="http://www.w3.org/2000/svg" xmlns:xlink="http://www.w3.org/1999/xlink" x="0px" y="0px"
	 viewBox="0 0 100.353 100.353" style="enable-background:new 0 0 100.353 100.353;" xml:space="preserve">
<path d="M87.351,45.955c0.489-0.669,0.343-1.607-0.326-2.096L71.531,32.533l-0.065-0.049c-0.809-1.39-1.059-2.635-0.632-3.217
	c0.396-0.541,1.564-0.702,3.022-0.424c0.152,0.068,0.319,0.111,0.495,0.124c1.995,0.15,3.59-0.443,4.494-1.672
	c1.071-1.463,0.986-3.521-0.238-5.795c-1.039-1.928-2.827-3.879-5.035-5.493c-3.269-2.39-6.905-3.62-9.495-3.219
	c-1.236,0.193-2.225,0.754-2.853,1.616c-0.769,1.044-0.942,2.447-0.508,3.997c-0.017,0.303,0.059,0.607,0.222,0.872
	c0.917,1.485,1.22,2.84,0.769,3.455c-0.396,0.542-1.56,0.7-3.006,0.424L42.954,11.642c-0.321-0.235-0.722-0.334-1.116-0.271
	c-0.393,0.061-0.746,0.276-0.98,0.597L29.162,27.973c-0.121,0.166-0.207,0.354-0.252,0.554c-0.651,2.875-0.099,5.202,1.52,6.386
	c1.622,1.18,3.988,1,6.526-0.483c0.002-0.001,0.004-0.001,0.006-0.002c0.8-0.304,1.475-0.341,1.809-0.093
	c0.452,0.33,0.591,1.358,0.354,2.619c-0.318,1.696-1.268,3.718-2.606,5.547c-2.167,2.967-4.627,4.527-6.104,4.757
	c-0.303,0.047-0.72,0.062-0.985-0.132c-0.322-0.236-0.49-0.818-0.469-1.613c0.638-2.886,0.095-5.128-1.535-6.321
	c-1.683-1.224-4.162-0.987-6.801,0.646c-0.165,0.102-0.309,0.234-0.423,0.391L8.646,56.044c-0.488,0.669-0.342,1.607,0.326,2.096
	l16.008,11.7c0.166,0.121,0.355,0.207,0.556,0.253c2.918,0.653,5.186,0.116,6.381-1.519c1.16-1.582,1.013-3.885-0.389-6.369
	c-0.015-0.065-0.034-0.131-0.057-0.195c-0.283-0.77-0.308-1.4-0.067-1.729c0.705-0.966,4.322-0.559,8.167,2.25
	c3.84,2.81,5.322,6.131,4.62,7.091c-0.223,0.303-0.746,0.469-1.462,0.472c-0.05-0.018-0.102-0.032-0.154-0.044
	c-2.87-0.644-5.199-0.09-6.383,1.527c-1.235,1.699-1.006,4.113,0.647,6.799c0.102,0.166,0.235,0.311,0.393,0.425l15.813,11.555
	c0.267,0.195,0.576,0.289,0.884,0.289c0.462,0,0.918-0.213,1.212-0.615l11.431-15.636c1.389-0.806,2.633-1.055,3.211-0.631
	c0.489,0.358,0.972,1.857,0.6,3.66c-0.036,0.119-0.059,0.243-0.063,0.37c-0.11,2.433,0.854,3.667,1.688,4.278
	c2.766,2.014,7.616-0.252,11.282-5.273c3.675-5.027,4.364-10.34,1.598-12.362c-0.806-0.582-2.223-1.12-4.394-0.373
	c-0.104,0.036-0.205,0.083-0.3,0.142c-1.648,1.019-3.285,0.862-3.868,0.438c-0.542-0.397-0.703-1.562-0.43-3.013L87.351,45.955z
	 M74.555,67.066c1.772,1.291,4.65,1.199,7.054-0.213c0.446-0.137,1.123-0.271,1.514,0.01c0.964,0.704,0.555,4.32-2.256,8.166
	c-2.805,3.838-6.122,5.326-7.091,4.62c-0.312-0.229-0.479-0.798-0.465-1.574c0.588-2.781-0.126-5.538-1.755-6.731
	c-1.677-1.228-4.158-0.994-6.807,0.646c-0.164,0.102-0.307,0.234-0.421,0.391l-10.725,14.67l-14.355-10.49
	c-0.803-1.393-1.051-2.638-0.633-3.213c0.39-0.534,1.522-0.699,2.937-0.442c0.181,0.096,0.384,0.155,0.6,0.17
	c1.975,0.135,3.562-0.459,4.459-1.677c2.018-2.76-0.247-7.612-5.27-11.288c-5.028-3.67-10.341-4.359-12.36-1.598
	c-0.776,1.062-0.943,2.487-0.485,4.053c0,0.274,0.077,0.547,0.224,0.785c0.918,1.487,1.224,2.843,0.776,3.453
	c-0.396,0.541-1.56,0.699-3.007,0.425L11.953,56.603l10.491-14.36c1.387-0.803,2.631-1.051,3.213-0.628
	c0.559,0.409,0.71,1.634,0.396,3.145c-0.045,0.13-0.073,0.267-0.081,0.407c-0.144,2.494,0.836,3.757,1.684,4.379
	c0.868,0.635,1.981,0.87,3.219,0.676c2.589-0.402,5.68-2.683,8.066-5.951c1.616-2.209,2.729-4.61,3.133-6.763
	c0.477-2.538-0.068-4.525-1.525-5.589c-1.114-0.825-2.64-0.967-4.326-0.411c-0.2,0.029-0.396,0.098-0.575,0.209
	c-1.483,0.916-2.838,1.217-3.449,0.773c-0.542-0.397-0.701-1.56-0.423-3.007l10.62-14.533l14.797,10.815
	c0.165,0.121,0.354,0.207,0.554,0.252c2.916,0.661,5.187,0.12,6.383-1.518c1.149-1.568,1.021-3.837-0.337-6.289
	c-0.016-0.091-0.04-0.182-0.072-0.271c-0.292-0.788-0.32-1.428-0.075-1.762c0.194-0.266,0.594-0.377,0.896-0.424
	c1.477-0.229,4.294,0.508,7.263,2.677c1.827,1.335,3.345,2.974,4.163,4.494c0.609,1.129,0.789,2.15,0.462,2.597
	c-0.236,0.321-0.82,0.485-1.571,0.47c-0.021-0.006-0.044-0.011-0.065-0.016c-2.922-0.651-5.187-0.109-6.379,1.523
	c-1.23,1.678-0.995,4.158,0.646,6.804c0.099,0.16,0.227,0.299,0.378,0.412l14.607,10.683L73.28,60.123
	c-0.122,0.166-0.208,0.356-0.253,0.558C72.375,63.599,72.917,65.866,74.555,67.066z"/>
</svg>
