<svg id="Layer_1" data-name="Layer 1" xmlns="http://www.w3.org/2000/svg" viewBox="0 0 101 101"><title>Artboard 32</title><path d="M87.5,25H55.95l3-9a1.49,1.49,0,0,0,0-.71A1.5,1.5,0,0,0,59,15a7.06,7.06,0,0,0-.63-2.93A20.35,20.35,0,0,1,67.5,10C76,10,83,14.8,83,20.69a1.5,1.5,0,1,0,3,0C86,13.14,77.7,7,67.5,7A22.94,22.94,0,0,0,56.6,9.65,8.25,8.25,0,0,0,51,7.5,7.77,7.77,0,0,0,43,15a1.5,1.5,0,0,0,0,.25,1.49,1.49,0,0,0,0,.66l3.35,11.56c-2.78,2.88-7.53,4.78-12.91,4.78C25,32.26,18,27.46,18,21.56a1.5,1.5,0,1,0-3,0c0,7.55,8.3,13.69,18.5,13.69a24.17,24.17,0,0,0,6.5-.89V78H16V29.5a1.5,1.5,0,0,0-3,0v50A1.5,1.5,0,0,0,14.5,81h73A1.5,1.5,0,0,0,89,79.5v-53A1.5,1.5,0,0,0,87.5,25ZM56,15a1.48,1.48,0,0,0,0,.2L50.67,31.43l-1-3.29A11,11,0,0,0,52,21.56v-.87a9,9,0,0,1,3.77-7A4,4,0,0,1,56,15Zm-10,.21A1.48,1.48,0,0,0,46,15a4.78,4.78,0,0,1,5-4.5,5.32,5.32,0,0,1,3,.89c-3.07,2.44-5,5.71-5,9.3v.87a7.56,7.56,0,0,1-.45,2.52ZM43,33.29a18.48,18.48,0,0,0,4.32-2.66l1.82,6.28A1.5,1.5,0,0,0,50.55,38h0A1.5,1.5,0,0,0,52,37l3-9.06a1.49,1.49,0,0,0,.51.09H58V78H52V72.5a1.5,1.5,0,0,0-3,0V78H43ZM86,78H61V28H86Z"/><path d="M50.5,65A1.5,1.5,0,0,0,52,63.5v-6a1.5,1.5,0,0,0-3,0v6A1.5,1.5,0,0,0,50.5,65Z"/><path d="M50.5,52A1.5,1.5,0,0,0,52,50.5v-7a1.5,1.5,0,0,0-3,0v7A1.5,1.5,0,0,0,50.5,52Z"/><path d="M50.5,83A1.5,1.5,0,0,0,49,84.5v5.79c0,1.24-2.44,3.21-5.33,3.21s-4.86-1.43-4.86-2.71a1.5,1.5,0,0,0-3,0c0,3.2,3.45,5.71,7.86,5.71s8.33-3,8.33-6.21V84.5A1.5,1.5,0,0,0,50.5,83Z"/></svg>