<?xml version="1.0" encoding="iso-8859-1"?>
<!-- Generator: Adobe Illustrator 22.0.0, SVG Export Plug-In . SVG Version: 6.00 Build 0)  -->
<svg version="1.1" id="Layer_1" xmlns="http://www.w3.org/2000/svg" xmlns:xlink="http://www.w3.org/1999/xlink" x="0px" y="0px"
	 viewBox="0 0 100.25 100.25" style="enable-background:new 0 0 100.25 100.25;" xml:space="preserve">
<g>
	<path d="M29,63.5c-0.829,0-1.5,0.671-1.5,1.5v13.973c0,0.775,0.591,1.423,1.363,1.494c0.052,0.005,0.387,0.033,0.911,0.033
		c1.627,0,5.066-0.276,7.401-2.408c1.543-1.408,2.325-3.324,2.325-5.694C39.5,65.043,33.79,63.5,29,63.5z M35.16,75.869
		c-1.312,1.204-3.327,1.533-4.66,1.609V66.547c3.165,0.224,6,1.355,6,5.85C36.5,73.906,36.062,75.042,35.16,75.869z"/>
	<path d="M49.5,63.5c-3.645,0-6.5,3.733-6.5,8.5s2.855,8.5,6.5,8.5S56,76.767,56,72S53.145,63.5,49.5,63.5z M49.5,77.5
		c-1.897,0-3.5-2.519-3.5-5.5s1.603-5.5,3.5-5.5S53,69.019,53,72S51.397,77.5,49.5,77.5z"/>
	<path d="M70.713,74.899c-0.73-0.396-1.64-0.123-2.033,0.606c-0.686,1.268-1.661,1.995-2.675,1.995c-1.9,0-3.505-2.519-3.505-5.5
		s1.605-5.5,3.505-5.5c1.132,0,1.939,0.892,2.319,1.423c0.482,0.674,1.418,0.829,2.093,0.348c0.674-0.482,0.83-1.419,0.348-2.093
		c-1.217-1.702-2.952-2.678-4.759-2.678c-3.648,0-6.505,3.733-6.505,8.5s2.857,8.5,6.505,8.5c2.12,0,4.106-1.334,5.314-3.568
		C71.713,76.202,71.442,75.292,70.713,74.899z"/>
	<path d="M79.567,29.924l-18.26-18.479c-0.282-0.285-0.666-0.446-1.067-0.446H20.5c-0.829,0-1.5,0.671-1.5,1.5v75
		c0,0.829,0.671,1.5,1.5,1.5h58c0.829,0,1.5-0.671,1.5-1.5V30.978C80,30.584,79.844,30.205,79.567,29.924z M62,16.415L74.93,29.5H62
		V16.415z M22,86V14h37v17c0,0.829,0.671,1.5,1.5,1.5H77V86H22z"/>
</g>
</svg>
