<?xml version="1.0" encoding="iso-8859-1"?>
<!-- Generator: Adobe Illustrator 21.0.2, SVG Export Plug-In . SVG Version: 6.00 Build 0)  -->
<svg version="1.1" id="Layer_1" xmlns="http://www.w3.org/2000/svg" xmlns:xlink="http://www.w3.org/1999/xlink" x="0px" y="0px"
	 viewBox="0 0 100.75 100.749" style="enable-background:new 0 0 100.75 100.749;" xml:space="preserve">
<path d="M92.45,21.729H7.549c-0.829,0-1.5,0.672-1.5,1.5v53.542c0,0.828,0.671,1.5,1.5,1.5H92.45c0.829,0,1.5-0.672,1.5-1.5V23.229
	C93.95,22.401,93.279,21.729,92.45,21.729z M90.95,64.865c-7.654-0.756-13.654-7.228-13.654-15.078s6-14.323,13.654-15.078V64.865z
	 M48.5,57.617c-3.566-0.701-6.265-3.848-6.265-7.616c0-3.769,2.699-6.916,6.265-7.617V57.617z M51.5,42.383
	c3.566,0.701,6.265,3.848,6.265,7.617c0,3.768-2.699,6.915-6.265,7.616V42.383z M9.049,34.708
	c7.654,0.756,13.654,7.228,13.654,15.078s-6,14.323-13.654,15.078V34.708z M9.049,67.865c9.31-0.767,16.654-8.574,16.654-18.078
	S18.358,32.476,9.049,31.709V24.73H48.5v14.623c-5.227,0.734-9.265,5.222-9.265,10.649c0,5.425,4.039,9.914,9.265,10.648v14.623
	H9.049V67.865z M51.5,75.271V60.648c5.227-0.734,9.265-5.222,9.265-10.648s-4.039-9.915-9.265-10.649V24.728h39.45v6.979
	c-9.309,0.767-16.654,8.574-16.654,18.078S81.64,67.096,90.95,67.863v7.406H51.5V75.271z"/>
</svg>
