<?xml version="1.0" encoding="iso-8859-1"?>
<!-- Generator: Adobe Illustrator 21.1.0, SVG Export Plug-In . SVG Version: 6.00 Build 0)  -->
<svg version="1.1" id="Layer_1" xmlns="http://www.w3.org/2000/svg" xmlns:xlink="http://www.w3.org/1999/xlink" x="0px" y="0px"
	 viewBox="0 0 100.176 100.178" style="enable-background:new 0 0 100.176 100.178;" xml:space="preserve">
<g>
	<path d="M80.113,14.231H60.757v-3.576c0-0.829-0.672-1.5-1.5-1.5H40.743c-0.829,0-1.5,0.671-1.5,1.5v3.576H19.887
		c-0.829,0-1.5,0.671-1.5,1.5v73.616c0,0.828,0.671,1.5,1.5,1.5h60.227c0.828,0,1.5-0.672,1.5-1.5V15.731
		C81.613,14.902,80.941,14.231,80.113,14.231z M42.243,12.155h15.514v6.05H42.243V12.155z M78.613,87.847H21.387V17.231h17.856
		v2.474c0,0.829,0.671,1.5,1.5,1.5h18.514c0.828,0,1.5-0.671,1.5-1.5v-2.474h17.856V87.847z"/>
	<path d="M32.601,37.352h-5.796c-0.829,0-1.5,0.671-1.5,1.5s0.671,1.5,1.5,1.5h5.796c0.829,0,1.5-0.671,1.5-1.5
		S33.43,37.352,32.601,37.352z"/>
	<path d="M38.242,38.852c0,0.829,0.671,1.5,1.5,1.5h33.453c0.828,0,1.5-0.671,1.5-1.5s-0.672-1.5-1.5-1.5H39.742
		C38.914,37.352,38.242,38.024,38.242,38.852z"/>
	<path d="M32.601,50.742h-5.796c-0.829,0-1.5,0.672-1.5,1.5s0.671,1.5,1.5,1.5h5.796c0.829,0,1.5-0.672,1.5-1.5
		S33.43,50.742,32.601,50.742z"/>
	<path d="M73.195,50.742H39.742c-0.829,0-1.5,0.672-1.5,1.5s0.671,1.5,1.5,1.5h33.453c0.828,0,1.5-0.672,1.5-1.5
		S74.023,50.742,73.195,50.742z"/>
	<path d="M32.601,64.125h-5.796c-0.829,0-1.5,0.672-1.5,1.5s0.671,1.5,1.5,1.5h5.796c0.829,0,1.5-0.672,1.5-1.5
		S33.43,64.125,32.601,64.125z"/>
	<path d="M73.195,64.125H39.742c-0.829,0-1.5,0.672-1.5,1.5s0.671,1.5,1.5,1.5h33.453c0.828,0,1.5-0.672,1.5-1.5
		S74.023,64.125,73.195,64.125z"/>
</g>
</svg>
