<?xml version="1.0" encoding="iso-8859-1"?>
<!-- Generator: Adobe Illustrator 22.0.0, SVG Export Plug-In . SVG Version: 6.00 Build 0)  -->
<svg version="1.1" id="Layer_1" xmlns="http://www.w3.org/2000/svg" xmlns:xlink="http://www.w3.org/1999/xlink" x="0px" y="0px"
	 viewBox="0 0 100.25 100.25" style="enable-background:new 0 0 100.25 100.25;" xml:space="preserve">
<g>
	<path d="M79.567,29.924l-18.26-18.479c-0.282-0.285-0.666-0.446-1.067-0.446H20.5c-0.829,0-1.5,0.671-1.5,1.5v75
		c0,0.829,0.671,1.5,1.5,1.5h58c0.829,0,1.5-0.671,1.5-1.5V30.978C80,30.584,79.844,30.205,79.567,29.924z M62,16.415L74.93,29.5H62
		V16.415z M22,86V14h37v17c0,0.829,0.671,1.5,1.5,1.5H77V86H22z"/>
	<path d="M50.376,62.522c-0.853-0.047-3.146-0.008-3.404-0.002c-0.818,0.015-1.473,0.682-1.473,1.5V78c0,0.829,0.671,1.5,1.5,1.5
		s1.5-0.671,1.5-1.5v-5.49h2.206c1.927,0,4.794-1.275,4.794-4.79C55.5,65.885,54.834,62.77,50.376,62.522z M50.706,69.51H48.5
		v-4.008c0.677-0.007,1.373-0.003,1.71,0.016c1.519,0.084,2.29,0.448,2.29,2.203C52.5,69.242,51.366,69.495,50.706,69.51z"/>
	<path d="M39.908,62.556c-0.646-0.185-1.334,0.086-1.686,0.659l-3.655,5.955l-3.801-5.975c-0.358-0.562-1.041-0.82-1.685-0.635
		C28.441,62.747,28,63.333,28,64v14c0,0.829,0.671,1.5,1.5,1.5S31,78.829,31,78v-8.847l2.323,3.652
		c0.275,0.433,0.753,0.695,1.266,0.695c0.004,0,0.008,0,0.012,0c0.517-0.004,0.996-0.274,1.266-0.715L38,69.311V78
		c0,0.829,0.671,1.5,1.5,1.5S41,78.829,41,78V64C41,63.328,40.554,62.738,39.908,62.556z"/>
	<path d="M69,72.28h-1.635V64c0-0.636-0.401-1.204-1.001-1.415c-0.6-0.208-1.268-0.021-1.667,0.475l-7.865,9.78
		c-0.362,0.45-0.433,1.067-0.184,1.588c0.249,0.521,0.775,0.852,1.353,0.852h6.365V78c0,0.829,0.671,1.5,1.5,1.5s1.5-0.671,1.5-1.5
		v-2.72h1.635c0.829,0,1.5-0.671,1.5-1.5S69.829,72.28,69,72.28z M64.365,72.28h-3.234l3.234-4.021V72.28z"/>
</g>
</svg>
