<svg id="Layer_1" data-name="Layer 1" xmlns="http://www.w3.org/2000/svg" viewBox="0 0 101 101"><title>Artboard 2 copy 25</title><path d="M57.88,69.25l14.28-23a1.42,1.42,0,0,0,.12-.24A25.9,25.9,0,0,0,48.6,6.67a26.09,26.09,0,0,0-24.2,23.15,25.71,25.71,0,0,0,3.69,16.24,1.55,1.55,0,0,0,.11.21L41.89,69.18c-11,1.39-17.7,5.66-17.7,11.33,0,6.72,11.4,12,26,12s26-5.27,26-12C76.1,75,69,70.66,57.88,69.25ZM30.78,44.7a22.74,22.74,0,0,1-3.39-14.57A23.06,23.06,0,0,1,48.78,9.67a22.89,22.89,0,0,1,20.8,35,1.47,1.47,0,0,0-.12.24L49.79,76.56,30.92,45A1.43,1.43,0,0,0,30.78,44.7ZM50.14,89.5c-13.53,0-23-4.74-23-9,0-4,6.73-7.53,16.38-8.51l4.91,8.21a1.5,1.5,0,0,0,1.27.73h0A1.5,1.5,0,0,0,51,80.24l5.08-8.16c9.88,1,17,4.5,17,8.44C73.1,84.76,63.67,89.5,50.14,89.5Z"/><path d="M60.07,32.06a9.46,9.46,0,1,0-9.46,9.46A9.47,9.47,0,0,0,60.07,32.06Zm-15.92,0a6.46,6.46,0,1,1,6.46,6.46A6.47,6.47,0,0,1,44.16,32.06Z"/></svg>