<?xml version="1.0" encoding="iso-8859-1"?>
<!-- Generator: Adobe Illustrator 21.0.0, SVG Export Plug-In . SVG Version: 6.00 Build 0)  -->
<svg version="1.1" id="Layer_1" xmlns="http://www.w3.org/2000/svg" xmlns:xlink="http://www.w3.org/1999/xlink" x="0px" y="0px"
	 viewBox="0 0 100.353 101.168" style="enable-background:new 0 0 100.353 101.168;" xml:space="preserve">
<g>
	<path style="fill:#231F20;" d="M39.073,75.619c0.274,0.273,0.644,0.426,1.03,0.426c0.014,0,0.028,0,0.041,0
		c0.401-0.011,0.778-0.187,1.045-0.486l44.204-49.511c0.536-0.6,0.484-1.521-0.117-2.056c-0.6-0.536-1.521-0.483-2.056,0.116
		L40.042,72.47L17.254,49.687c-0.569-0.569-1.491-0.569-2.059,0c-0.569,0.569-0.569,1.491,0,2.06L39.073,75.619z"/>
	<path style="fill:#231F20;" d="M98.544,0H1.457C0.653,0,0.001,0.652,0.001,1.457v98.255c0,0.805,0.652,1.457,1.456,1.457h97.087
		c0.805,0,1.456-0.652,1.456-1.457V1.457C100,0.652,99.349,0,98.544,0z M97.088,98.255H2.913V2.912h94.175V98.255z"/>
</g>
</svg>
