<svg id="Layer_1" data-name="Layer 1" xmlns="http://www.w3.org/2000/svg" viewBox="0 0 100 100"><title>Artboard 4</title><path d="M72,34.78a1.5,1.5,0,0,0,0-.28V17.25C72,8.84,63.92,2,54,2H43C33.08,2,25,8.84,25,17.25V59H16.5A1.5,1.5,0,0,0,15,60.5v8.06A1.5,1.5,0,0,0,16.94,70H36.5A1.5,1.5,0,0,0,38,68.5v-8A1.5,1.5,0,0,0,36.5,59H28V17.25C28,10.49,34.73,5,43,5H54c8.27,0,15,5.49,15,12.25V32.89A34.11,34.11,0,0,0,52.5,29,1.5,1.5,0,0,0,51,30.5v40a1.5,1.5,0,0,0,3,0V32c15.24.56,25,9.66,25,23.51V86H68.5a1.5,1.5,0,0,0,0,3h12A1.5,1.5,0,0,0,82,87.5v-32C82,46.68,78.3,39.44,72,34.78ZM35,67H18V62H35Z"/><path d="M53,76a9,9,0,1,0,9,9A9,9,0,0,0,53,76Zm0,15a6,6,0,1,1,6-6A6,6,0,0,1,53,91Z"/><path d="M17.5,74A1.5,1.5,0,0,0,16,75.5v10a1.5,1.5,0,0,0,3,0v-10A1.5,1.5,0,0,0,17.5,74Z"/><path d="M26.5,74A1.5,1.5,0,0,0,25,75.5v10a1.5,1.5,0,0,0,3,0v-10A1.5,1.5,0,0,0,26.5,74Z"/><path d="M35.5,74A1.5,1.5,0,0,0,34,75.5v10a1.5,1.5,0,0,0,3,0v-10A1.5,1.5,0,0,0,35.5,74Z"/></svg>