<?xml version="1.0" encoding="iso-8859-1"?>
<!-- Generator: Adobe Illustrator 22.0.1, SVG Export Plug-In . SVG Version: 6.00 Build 0)  -->
<svg version="1.1" id="Layer_1" xmlns="http://www.w3.org/2000/svg" xmlns:xlink="http://www.w3.org/1999/xlink" x="0px" y="0px"
	 viewBox="0 0 100.25 100.25" style="enable-background:new 0 0 100.25 100.25;" xml:space="preserve">
<g>
	<path d="M82.5,39.892H68V27.73c0-10.053-8.075-18.231-18-18.231c-9.925,0-18,8.178-18,18.231v3.662c0,0.829,0.671,1.5,1.5,1.5
		s1.5-0.671,1.5-1.5V27.73c0-8.398,6.729-15.231,15-15.231c8.271,0,15,6.833,15,15.231v12.162H17.5c-0.829,0-1.5,0.671-1.5,1.5v43
		c0,0.828,0.671,1.5,1.5,1.5h65c0.828,0,1.5-0.672,1.5-1.5v-43C84,40.563,83.328,39.892,82.5,39.892z M81,82.892H19v-40h62V82.892z"
		/>
	<path d="M56.38,51.5c-0.004,0-0.007,0-0.011,0c-2.559,0-4.894,1.188-6.391,3.094c-1.506-1.887-3.833-3.063-6.37-3.066
		c-0.004,0-0.009,0-0.014,0c-2.181,0-4.225,0.843-5.757,2.375c-1.51,1.509-2.34,3.511-2.337,5.636
		c0.002,2.054,0.751,3.963,2.109,5.374c2.737,2.85,11.019,10.83,11.37,11.168c0.291,0.28,0.666,0.42,1.041,0.42
		c0.376,0,0.753-0.141,1.044-0.423c0.349-0.338,8.573-8.313,11.307-11.146c1.375-1.427,2.13-3.348,2.128-5.407
		C64.494,55.104,60.852,51.505,56.38,51.5z M60.213,62.849c-2.129,2.205-7.837,7.771-10.195,10.063
		c-2.371-2.292-8.116-7.862-10.245-10.079c-0.819-0.852-1.271-2.022-1.272-3.299c-0.002-1.322,0.516-2.569,1.458-3.511
		c0.965-0.965,2.256-1.496,3.637-1.496c0.003,0,0.006,0,0.009,0c2.309,0.003,4.342,1.536,4.942,3.729
		c0.179,0.652,0.771,1.104,1.447,1.104c0.002,0,0.005,0,0.007,0c0.678-0.003,1.27-0.462,1.443-1.117
		c0.582-2.205,2.606-3.743,4.927-3.743c0.002,0,0.004,0,0.006,0c2.822,0.003,5.12,2.259,5.124,5.027
		C61.501,60.806,61.044,61.985,60.213,62.849z"/>
</g>
</svg>
