<svg id="Layer_1" data-name="Layer 1" xmlns="http://www.w3.org/2000/svg" viewBox="0 0 101 101"><title>Artboard 2 copy 6</title><path d="M85.59,69.15,56.5,39.53a24.55,24.55,0,0,0-5.89-23.15,23.81,23.81,0,0,0-33.77-.52,24.5,24.5,0,0,0-.24,34.52,23.67,23.67,0,0,0,24.12,6l3.15,3.21a1.5,1.5,0,0,0,1.08.45L56,60,56,71.5a1.5,1.5,0,0,0,1.5,1.5h0L69,73,69,84.5a1.5,1.5,0,0,0,1.5,1.5h0l14,0a1.5,1.5,0,0,0,1.5-1.5L86,70.2A1.5,1.5,0,0,0,85.59,69.15ZM83,83,72,83l0-11.52A1.5,1.5,0,0,0,70.5,70h0L59,70l0-11.54a1.5,1.5,0,0,0-.44-1.06A1.63,1.63,0,0,0,57.49,57L45.56,57l-3.38-3.44a1.49,1.49,0,0,0-1.59-.36,20.66,20.66,0,0,1-21.86-4.93A21.5,21.5,0,0,1,18.94,18a20.81,20.81,0,0,1,29.49.46,21.55,21.55,0,0,1,4.95,21.07A1.5,1.5,0,0,0,53.74,41L83,70.81Z"/><path d="M30.09,20.36a4.51,4.51,0,0,0-6.36,0L20.19,23.9a4.5,4.5,0,0,0,0,6.36l3.54,3.54a4.5,4.5,0,0,0,6.36,0l3.54-3.54a4.51,4.51,0,0,0,0-6.36Zm1.41,7.78L28,31.68a1.54,1.54,0,0,1-2.12,0l-3.54-3.54a1.5,1.5,0,0,1,0-2.12l3.54-3.54a1.5,1.5,0,0,1,2.12,0L31.5,26A1.5,1.5,0,0,1,31.5,28.14Z"/></svg>