<?xml version="1.0" encoding="iso-8859-1"?>
<!-- Generator: Adobe Illustrator 22.0.0, SVG Export Plug-In . SVG Version: 6.00 Build 0)  -->
<svg version="1.1" id="Layer_1" xmlns="http://www.w3.org/2000/svg" xmlns:xlink="http://www.w3.org/1999/xlink" x="0px" y="0px"
	 viewBox="0 0 100.25 100.25" style="enable-background:new 0 0 100.25 100.25;" xml:space="preserve">
<g>
	<path d="M79.567,29.924l-18.26-18.479C61.025,11.16,60.641,11,60.24,11H20.5c-0.828,0-1.5,0.672-1.5,1.5v75
		c0,0.828,0.672,1.5,1.5,1.5h58c0.828,0,1.5-0.672,1.5-1.5V30.979C80,30.585,79.845,30.206,79.567,29.924z M62,16.415L74.929,29.5
		H62V16.415z M22,86V14h37v17c0,0.828,0.672,1.5,1.5,1.5H77V86H22z"/>
	<path d="M50.761,63.44c-0.229-0.568-0.779-0.94-1.392-0.94c-0.004,0-0.008,0-0.011,0c-0.617,0.005-1.168,0.386-1.389,0.961
		L42.6,77.404c-0.298,0.773,0.087,1.642,0.86,1.938c0.773,0.298,1.641-0.087,1.938-0.86l0.763-1.982h6.617l0.828,2.06
		c0.235,0.585,0.798,0.94,1.392,0.94c0.187,0,0.376-0.034,0.56-0.108c0.769-0.309,1.142-1.183,0.832-1.951L50.761,63.44z
		 M47.318,73.5l2.081-5.404l2.174,5.404H47.318z"/>
	<path d="M39.5,67.72c0-1.836-0.666-4.952-5.122-5.198c-0.854-0.046-3.146-0.006-3.406-0.002c-0.817,0.016-1.472,0.683-1.472,1.5
		v13.979c0,0.828,0.672,1.5,1.5,1.5s1.5-0.672,1.5-1.5v-4.008l4.371,4.996c0.297,0.34,0.712,0.513,1.13,0.513
		c0.351,0,0.702-0.122,0.986-0.371c0.624-0.546,0.688-1.493,0.142-2.116l-3.963-4.529C37.058,72.297,39.5,70.964,39.5,67.72z
		 M34.706,69.509h-2.142L32.5,69.436v-3.935c0.678-0.003,1.375-0.002,1.711,0.017c1.519,0.084,2.289,0.447,2.289,2.202
		C36.5,69.242,35.366,69.495,34.706,69.509z"/>
	<path d="M69.5,67.72c0-1.836-0.666-4.952-5.122-5.198c-0.853-0.046-3.146-0.006-3.406-0.002c-0.817,0.016-1.472,0.683-1.472,1.5
		v13.979c0,0.828,0.672,1.5,1.5,1.5s1.5-0.672,1.5-1.5v-4.008l4.371,4.996c0.297,0.34,0.712,0.513,1.13,0.513
		c0.351,0,0.702-0.122,0.986-0.371c0.624-0.546,0.688-1.493,0.142-2.116l-3.963-4.529C67.058,72.297,69.5,70.964,69.5,67.72z
		 M64.706,69.509h-2.142L62.5,69.436v-3.935c0.678-0.003,1.375-0.002,1.711,0.017c1.519,0.084,2.289,0.447,2.289,2.202
		C66.5,69.242,65.366,69.495,64.706,69.509z"/>
</g>
</svg>
