<?xml version="1.0" encoding="iso-8859-1"?>
<!-- Generator: Adobe Illustrator 21.0.2, SVG Export Plug-In . SVG Version: 6.00 Build 0)  -->
<svg version="1.1" id="Layer_1" xmlns="http://www.w3.org/2000/svg" xmlns:xlink="http://www.w3.org/1999/xlink" x="0px" y="0px"
	 viewBox="0 0 100.5 100.5" style="enable-background:new 0 0 100.5 100.5;" xml:space="preserve">
<g>
	<path d="M87.666,11.582H26.572c-3.648,0-6.571,2.565-6.655,5.878v12.814c0,0.829,0.671,1.5,1.5,1.5s1.5-0.671,1.5-1.5l0-12.776
		c0.041-1.608,1.681-2.916,3.655-2.916h61.094c2.018,0,3.659,1.335,3.659,2.977v48.946c0,1.643-1.642,2.979-3.659,2.979H26.572
		c-2.015,0-3.655-1.336-3.655-2.979v-7.007c0-0.828-0.671-1.5-1.5-1.5s-1.5,0.672-1.5,1.5v7.007c0,3.297,2.985,5.979,6.655,5.979
		H55.39v12.935H36.349c-0.829,0-1.5,0.672-1.5,1.5s0.671,1.5,1.5,1.5h40.914c0.828,0,1.5-0.672,1.5-1.5s-0.672-1.5-1.5-1.5H58.39
		V72.483h29.276c3.672,0,6.659-2.682,6.659-5.979V17.559C94.325,14.263,91.338,11.582,87.666,11.582z"/>
	<path d="M47.129,36.057H79.28c0.828,0,1.5-0.671,1.5-1.5s-0.672-1.5-1.5-1.5H47.129c-0.829,0-1.5,0.671-1.5,1.5
		S46.3,36.057,47.129,36.057z"/>
	<path d="M47.129,45.556H79.28c0.828,0,1.5-0.671,1.5-1.5s-0.672-1.5-1.5-1.5H47.129c-0.829,0-1.5,0.671-1.5,1.5
		S46.3,45.556,47.129,45.556z"/>
	<path d="M47.129,55.58H79.28c0.828,0,1.5-0.672,1.5-1.5s-0.672-1.5-1.5-1.5H47.129c-0.829,0-1.5,0.672-1.5,1.5
		S46.3,55.58,47.129,55.58z"/>
	<path d="M21.111,48.725c0.387,0,0.771-0.149,1.061-0.439l21.672-21.673c0.586-0.586,0.586-1.536,0-2.121
		c-0.586-0.586-1.535-0.586-2.121,0L20.948,45.268L8.045,36.082c-0.676-0.48-1.611-0.322-2.092,0.352
		c-0.48,0.675-0.323,1.612,0.353,2.092l13.937,9.921C20.504,48.634,20.809,48.725,21.111,48.725z"/>
</g>
</svg>
