<?xml version="1.0" encoding="iso-8859-1"?>
<!-- Generator: Adobe Illustrator 21.1.0, SVG Export Plug-In . SVG Version: 6.00 Build 0)  -->
<svg version="1.1" id="Layer_1" xmlns="http://www.w3.org/2000/svg" xmlns:xlink="http://www.w3.org/1999/xlink" x="0px" y="0px"
	 viewBox="0 0 100.752 100.748" style="enable-background:new 0 0 100.752 100.748;" xml:space="preserve">
<g>
	<path d="M90.507,6.105c-0.744-0.802-1.719-1.313-2.746-1.442c-1.115-0.137-2.19,0.196-2.965,0.916
		c-0.109,0.102-0.199,0.218-0.269,0.345L63.719,25.249l-12.136-0.846c-0.411-0.027-0.822,0.115-1.126,0.398l-3.731,3.473
		c0,0,0,0,0,0l-5.499,5.099c-0.607,0.563-0.643,1.513-0.08,2.12c0.296,0.319,0.698,0.48,1.101,0.48c0.365,0,0.73-0.132,1.02-0.4
		l4.4-4.08l3.537,3.812l-4.479,4.158c-0.607,0.563-0.643,1.513-0.079,2.12c0.295,0.318,0.697,0.479,1.1,0.479
		c0.365,0,0.731-0.133,1.02-0.401l4.479-4.158l3.684,3.97l-4.809,4.457c-0.607,0.563-0.644,1.512-0.081,2.12
		c0.296,0.319,0.698,0.48,1.101,0.48c0.365,0,0.73-0.132,1.02-0.4l4.81-4.458l3.041,3.277l-4.398,4.074
		c-0.607,0.563-0.644,1.513-0.081,2.12c0.296,0.319,0.697,0.48,1.101,0.48c0.365,0,0.73-0.132,1.02-0.399l5.499-5.094
		c0,0,0-0.001,0.001-0.001c0.001-0.001,0.002-0.001,0.003-0.002l3.737-3.482c0.303-0.282,0.476-0.676,0.478-1.089l0.067-12.166
		l20.761-19.275c0.148-0.066,0.287-0.157,0.409-0.27c0.78-0.72,1.194-1.775,1.137-2.895C91.689,7.919,91.251,6.909,90.507,6.105z
		 M88.705,9.433c-0.067,0.045-0.132,0.095-0.191,0.151l-21.605,20.06c-0.353,0.327-0.523,0.8-0.47,1.271l-0.066,11.977l-2.164,2.016
		L49.864,29.451l2.159-2.01l12.135,0.846c0.42,0.026,0.821-0.116,1.125-0.397l21.6-20.059c0.056-0.052,0.106-0.107,0.151-0.166
		c0.122-0.038,0.25-0.036,0.355-0.024c0.323,0.041,0.657,0.225,0.917,0.504c0.263,0.284,0.423,0.634,0.439,0.961
		C88.751,9.202,88.745,9.321,88.705,9.433z"/>
	<path d="M61.496,69.458c0-1.41-0.429-2.75-1.241-3.881l-4.161-6.539c-0.275-0.433-0.753-0.694-1.266-0.694c0,0,0,0-0.001,0
		c-0.513,0-0.99,0.263-1.265,0.695l-4.135,6.507c-0.005,0.008-0.011,0.016-0.017,0.023c-0.819,1.14-1.251,2.484-1.251,3.889
		c0,3.678,2.995,6.669,6.676,6.669C58.508,76.127,61.496,73.136,61.496,69.458z M51.159,69.458c0-0.598,0.143-1.177,0.416-1.698
		l3.254-5.121l2.854,4.485c0.015,0.025,0.03,0.052,0.047,0.077l0.341,0.532c0.28,0.523,0.426,1.111,0.426,1.725
		c0,2.023-1.643,3.669-3.661,3.669C52.809,73.127,51.159,71.481,51.159,69.458z"/>
	<path d="M73.473,33.261c-0.779,0.281-1.184,1.14-0.903,1.919C75.053,42.085,75.83,49.12,74.647,54
		c-1.024,4.234-3.27,7.214-5.441,10.095c-2.591,3.438-5.27,6.991-5.27,12.261v15.61H36.856v-8.28c0-0.455-0.207-0.885-0.562-1.169
		c-0.354-0.285-0.818-0.396-1.264-0.295c-0.085,0.019-8.58,1.835-13.103-2.185c-4.958-4.408-3.849-15.638-3.837-15.75
		c0.071-0.68-0.326-1.322-0.966-1.562l-4.768-1.786l8.944-10.508c0.326-0.383,0.438-0.903,0.3-1.386
		c-0.015-0.053-1.379-4.921-0.78-10.566c3.352,1.661,7.457,2.689,12.098,2.941c0.419,0.023,1.478,0.185,2.233,1.192
		c0.903,1.203,1.069,3.173,0.482,5.696c-1.598,6.834,3.326,8.171,6.583,9.056c0.544,0.148,1.089,0.296,1.615,0.464
		c0.152,0.049,0.306,0.071,0.458,0.071c0.635,0,1.225-0.406,1.428-1.043c0.252-0.789-0.183-1.633-0.972-1.886
		c-0.567-0.182-1.156-0.342-1.743-0.501c-3.735-1.015-5.349-1.626-4.448-5.479c1.005-4.315,0.009-6.83-1.004-8.179
		c-1.066-1.42-2.695-2.29-4.47-2.386c-9.031-0.492-15.713-4.08-17.876-9.6c-1.327-3.378-1.041-8.509-0.711-11.504
		c4.23,2.601,14.707,6.992,32.355,1.944c5.154-1.475,10.913-1.319,15.401,0.416c0.773,0.299,1.641-0.085,1.94-0.858
		c0.299-0.772-0.086-1.641-0.858-1.939c-5.152-1.991-11.46-2.175-17.309-0.502c-21.521,6.158-31.559-2.743-31.653-2.829
		c-0.401-0.375-0.976-0.5-1.495-0.328c-0.521,0.172-0.906,0.616-1.004,1.156c-0.072,0.396-1.733,9.75,0.541,15.542
		c1.068,2.726,3,5.048,5.6,6.888c-0.847,5.438,0.067,10.383,0.503,12.266L8.688,60.622c-0.317,0.373-0.433,0.876-0.31,1.349
		c0.123,0.474,0.468,0.857,0.926,1.028l5.717,2.142c-0.175,3.295-0.175,12.615,4.914,17.139c4.262,3.787,10.769,3.559,13.921,3.169
		v8.018c0,0.828,0.671,1.5,1.5,1.5h30.081c0.828,0,1.5-0.672,1.5-1.5v-17.11c0-4.266,2.162-7.134,4.666-10.455
		c2.245-2.979,4.79-6.356,5.961-11.194c1.896-7.823-0.888-16.971-2.172-20.541C75.111,33.384,74.251,32.982,73.473,33.261z"/>
</g>
</svg>
