<?xml version="1.0" encoding="iso-8859-1"?>
<!-- Generator: Adobe Illustrator 22.0.1, SVG Export Plug-In . SVG Version: 6.00 Build 0)  -->
<svg version="1.1" id="Layer_1" xmlns="http://www.w3.org/2000/svg" xmlns:xlink="http://www.w3.org/1999/xlink" x="0px" y="0px"
	 viewBox="0 0 100.25 100.25" style="enable-background:new 0 0 100.25 100.25;" xml:space="preserve">
<g>
	<path d="M65.932,46.041l8.723-34.928c0.112-0.448,0.012-0.922-0.272-1.287C74.098,9.463,73.662,9.25,73.2,9.25H27.906
		c-0.462,0-0.898,0.213-1.182,0.577s-0.385,0.838-0.273,1.287l8.718,34.93C27.345,51.105,22.153,59.9,22.153,69.889
		c0,15.659,12.741,28.399,28.402,28.399c15.655,0,28.39-12.74,28.39-28.399C78.945,59.898,73.754,51.103,65.932,46.041z
		 M29.827,12.25H71.28l-8.052,32.243c-3.817-1.913-8.119-2.996-12.672-2.996c-4.556,0-8.861,1.084-12.68,2.998L29.827,12.25z
		 M50.555,95.289c-14.007,0-25.402-11.395-25.402-25.399c0-8.958,4.669-16.842,11.699-21.364c0.771-0.495,1.272-0.74,1.485-0.89
		c3.628-1.998,7.792-3.138,12.218-3.138c4.422,0,8.582,1.139,12.207,3.135c0.458,0.241,1.24,0.751,1.5,0.901
		c7.02,4.522,11.682,12.403,11.682,21.357C75.945,83.894,64.556,95.289,50.555,95.289z"/>
	<path d="M50.552,52.893c-9.209,0-16.701,7.49-16.701,16.696c0,9.208,7.492,16.699,16.701,16.699
		c9.206,0,16.695-7.491,16.695-16.699C67.247,60.383,59.758,52.893,50.552,52.893z M50.552,83.289
		c-7.555,0-13.701-6.146-13.701-13.699c0-7.552,6.146-13.696,13.701-13.696c7.552,0,13.695,6.145,13.695,13.696
		C64.247,77.143,58.104,83.289,50.552,83.289z"/>
</g>
</svg>
