<svg id="Layer_1" data-name="Layer 1" xmlns="http://www.w3.org/2000/svg" viewBox="0 0 101 101"><title>log_Artboard 32 copy 2</title><path d="M90.27,67l-19.58-31L79,23a12.25,12.25,0,0,0,1.94-8.92,6.63,6.63,0,0,0-2.86-4.31l-.46-.3c-3.73-2.38-9.18-.32-12.4,4.71L57.41,26.36l-43.21-4a1.5,1.5,0,0,0-1.4.68L9.6,28a1.5,1.5,0,0,0,.77,2.23L46.82,42.91,33,64.48,11.55,66.56a1.5,1.5,0,0,0-1.21.85L8.64,71a1.5,1.5,0,0,0,1.11,2.12L34.5,77.33,48.68,98a1.5,1.5,0,0,0,1.16.65h.07a1.5,1.5,0,0,0,1.15-.54l2.56-3a1.5,1.5,0,0,0,.27-1.46l-7.1-20.37,13.44-21L84.8,73.9a1.5,1.5,0,0,0,2.25-.32l3.21-5A1.5,1.5,0,0,0,90.27,67ZM85.47,70.5,60.9,48.89a1.5,1.5,0,0,0-2.25.32L43.87,72.29a1.5,1.5,0,0,0-.15,1.3l7.06,20.25-.74.88L36.7,75.24a1.5,1.5,0,0,0-.43-.41L36,74.67a1.48,1.48,0,0,0-.56-.22l-23.28-4,.49-1L34,67.39a1.5,1.5,0,0,0,1.12-.68L50.37,42.92a1.5,1.5,0,0,0-.77-2.23L13.15,28l1.68-2.63,43.21,4a1.47,1.47,0,0,0,1.4-.68L67.73,15.8C70,12.31,73.75,10.57,76,12l.47.31A3.76,3.76,0,0,1,78,14.72a9.23,9.23,0,0,1-1.54,6.66l-8.8,13.75a1.5,1.5,0,0,0,0,1.61l19.58,31Z"/></svg>