<?xml version="1.0" encoding="iso-8859-1"?>
<!-- Generator: Adobe Illustrator 21.1.0, SVG Export Plug-In . SVG Version: 6.00 Build 0)  -->
<svg version="1.1" id="Layer_1" xmlns="http://www.w3.org/2000/svg" xmlns:xlink="http://www.w3.org/1999/xlink" x="0px" y="0px"
	 viewBox="0 0 100.176 100.178" style="enable-background:new 0 0 100.176 100.178;" xml:space="preserve">
<path d="M92.63,21.216H75.581v-4.329c0-3.103-2.847-7.879-6.637-7.915c-0.014,0-0.028-0.004-0.042-0.004
	c-0.005,0-0.01,0.001-0.016,0.001h-48.44c-0.03,0-0.058,0.007-0.088,0.009c-0.03-0.002-0.058-0.009-0.088-0.009
	c-6.089,0-8.25,5.066-8.25,9.404v60.616c-0.048,0.146-0.08,0.3-0.08,0.462s0.032,0.316,0.08,0.462v9.621c0,0.828,0.671,1.5,1.5,1.5
	h47.462c0.828,0,1.5-0.672,1.5-1.5V40.353h11.599c0.828,0,1.5-0.671,1.5-1.5V24.216H92.63c0.828,0,1.5-0.671,1.5-1.5
	S93.458,21.216,92.63,21.216z M72.581,16.887v4.329H62.482v-2.844c0-2.988,3.409-6.393,6.405-6.403h0.014
	C70.689,11.969,72.581,15.167,72.581,16.887z M20.27,11.969c0.03,0,0.058-0.007,0.088-0.009c0.03,0.002,0.058,0.009,0.088,0.009
	H62.4c-1.747,1.764-2.918,4.094-2.918,6.403v59.579H15.02V18.373C15.02,16.447,15.532,11.969,20.27,11.969z M15.02,88.034v-7.083
	h44.462v7.083H15.02z M72.581,37.353H62.482V24.216h10.099V37.353z"/>
</svg>
