<?xml version="1.0" encoding="iso-8859-1"?>
<!-- Generator: Adobe Illustrator 21.0.2, SVG Export Plug-In . SVG Version: 6.00 Build 0)  -->
<svg version="1.1" id="Layer_1" xmlns="http://www.w3.org/2000/svg" xmlns:xlink="http://www.w3.org/1999/xlink" x="0px" y="0px"
	 viewBox="0 0 100.75 100.749" style="enable-background:new 0 0 100.75 100.749;" xml:space="preserve">
<path d="M41.519,48.213V31.855h6.256c0.829,0,1.5-0.671,1.5-1.5s-0.671-1.5-1.5-1.5h-7.756H24.506h-7.758
	c-0.829,0-1.5,0.671-1.5,1.5s0.671,1.5,1.5,1.5h6.258v16.358l-7.638,17.44c-0.001,0.002-0.002,0.005-0.003,0.007L9.316,79.473
	c-0.083,0.189-0.126,0.395-0.126,0.602c0,6.008,4.365,10.896,9.73,10.896h26.682c5.367,0,9.734-4.888,9.734-10.896
	c0-0.207-0.043-0.412-0.126-0.602L41.519,48.213z M25.88,49.128c0.083-0.189,0.126-0.395,0.126-0.602V31.854h12.513v16.672
	c0,0.207,0.043,0.412,0.126,0.602l6.837,15.612h-26.44L25.88,49.128z M45.602,87.969H18.92c-3.625,0-6.589-3.379-6.725-7.593
	l5.534-12.637h29.068l5.534,12.637C52.194,84.59,49.228,87.969,45.602,87.969z"/>
<path d="M90.074,9.03H65.516c-0.829,0-1.5,0.671-1.5,1.5s0.671,1.5,1.5,1.5h2.697v68.215c0,5.913,4.299,10.724,9.583,10.724
	c5.283,0,9.582-4.811,9.582-10.724V12.03h2.697c0.829,0,1.5-0.671,1.5-1.5S90.902,9.03,90.074,9.03z M84.377,80.246
	c0,4.259-2.953,7.724-6.582,7.724c-3.629,0-6.583-3.465-6.583-7.724V57.039h6.233c0.829,0,1.5-0.671,1.5-1.5s-0.671-1.5-1.5-1.5
	h-6.233v-8.154h6.233c0.829,0,1.5-0.671,1.5-1.5s-0.671-1.5-1.5-1.5h-6.233v-8.153h6.233c0.829,0,1.5-0.671,1.5-1.5
	s-0.671-1.5-1.5-1.5h-6.233v-8.15h6.233c0.829,0,1.5-0.671,1.5-1.5s-0.671-1.5-1.5-1.5h-6.233V12.03h13.164L84.377,80.246
	L84.377,80.246z"/>
</svg>
