<?xml version="1.0" encoding="iso-8859-1"?>
<!-- Generator: Adobe Illustrator 21.0.2, SVG Export Plug-In . SVG Version: 6.00 Build 0)  -->
<svg version="1.1" id="Layer_1" xmlns="http://www.w3.org/2000/svg" xmlns:xlink="http://www.w3.org/1999/xlink" x="0px" y="0px"
	 viewBox="0 0 100.752 100.749" style="enable-background:new 0 0 100.752 100.749;" xml:space="preserve">
<path d="M99.394,80.178l-19.268-51.46c-0.331-0.883-0.795-1.71-1.358-2.462c-0.115-0.336-0.352-0.622-0.667-0.806
	c-0.584-0.632-1.245-1.193-1.975-1.655l-11.485-7.274l-2.206-5.735c-0.007-0.017-0.02-0.031-0.027-0.048
	c-0.05-0.118-0.111-0.23-0.19-0.331c-0.005-0.006-0.008-0.013-0.012-0.019c-0.081-0.101-0.179-0.187-0.285-0.266
	c-0.027-0.02-0.054-0.039-0.083-0.057c-0.103-0.066-0.212-0.122-0.333-0.162c-0.01-0.003-0.019-0.008-0.029-0.011
	c-0.131-0.041-0.263-0.056-0.394-0.06c-0.016-0.001-0.031-0.007-0.048-0.007H39.636c-0.621,0-1.178,0.382-1.4,0.961l-2.205,5.736
	l-11.485,7.274c-0.834,0.528-1.578,1.186-2.219,1.932c-0.022,0.023-0.043,0.047-0.063,0.072c-0.73,0.867-1.318,1.854-1.717,2.92
	L1.277,80.18c-0.144,0.381-0.125,0.805,0.051,1.172S1.821,82,2.208,82.129l13.59,4.523c0.741,0.248,1.552-0.118,1.855-0.839
	l12.225-28.928l1.541,7.099l-6.347,24.315c-0.117,0.45-0.02,0.928,0.264,1.296c0.284,0.368,0.723,0.583,1.188,0.583H74.46
	c0.468,0,0.909-0.218,1.192-0.59c0.284-0.372,0.378-0.855,0.255-1.306l-6.651-24.307l1.54-7.09L83.02,85.813
	c0.304,0.721,1.114,1.086,1.855,0.839l13.59-4.523c0.387-0.129,0.704-0.409,0.88-0.777S99.538,80.559,99.394,80.178z M74.521,26.329
	c0.414,0.262,0.785,0.582,1.134,0.924l-6.537,23.832c-0.113,0.16-0.206,0.336-0.25,0.536l-2.366,10.894H34.17l-2.169-9.989
	c8.555-6.829,14.896-13.991,19.503-20.377c0.087-0.092,0.157-0.195,0.217-0.302c4.882-6.822,7.782-12.718,9.319-16.331l0.979,2.546
	c0.116,0.301,0.325,0.556,0.598,0.729L74.521,26.329z M50.385,28.461c-4.753-6.957-7.356-12.764-8.495-15.638h16.997
	c-0.881,2.227-2.634,6.205-5.58,11.103C52.472,25.315,51.495,26.842,50.385,28.461z M26.151,26.329l11.904-7.54
	c0.272-0.172,0.481-0.428,0.598-0.729l1.032-2.684c1.468,3.451,4.243,9.097,8.857,15.685c-4.113,5.596-9.788,12.066-17.361,18.278
	l-6.083-22.171C25.424,26.859,25.77,26.57,26.151,26.329z M15.429,83.366L4.631,79.772l18.347-48.993l5.776,21.054L15.429,83.366z
	 M72.493,87.176H28.465l5.655-21.662h13.595L36.287,76.942c-0.586,0.586-0.586,1.536,0,2.121c0.586,0.586,1.535,0.586,2.121,0
	l11.928-11.928l11.929,11.928c0.293,0.293,0.677,0.439,1.061,0.439s0.768-0.146,1.061-0.439c0.586-0.586,0.586-1.536,0-2.121
	L52.958,65.514h13.609L72.493,87.176z M85.242,83.366L71.981,51.983l5.773-21.046l18.285,48.835L85.242,83.366z"/>
</svg>
