<?xml version="1.0" encoding="iso-8859-1"?>
<!-- Generator: Adobe Illustrator 22.0.1, SVG Export Plug-In . SVG Version: 6.00 Build 0)  -->
<svg version="1.1" id="Layer_1" xmlns="http://www.w3.org/2000/svg" xmlns:xlink="http://www.w3.org/1999/xlink" x="0px" y="0px"
	 viewBox="0 0 100.25 100.25" style="enable-background:new 0 0 100.25 100.25;" xml:space="preserve">
<g>
	<path style="fill:#FFFFFF;" d="M91.705,55.25H86.5V48c0-0.096-0.011-0.188-0.028-0.279c0.006-0.075,0.028-0.145,0.028-0.221
		c0-4.123-8.294-6-16-6c-5.401,0-11.079,0.926-14,2.897V40c0-0.138-0.025-0.269-0.06-0.397c0.035-0.198,0.06-0.398,0.06-0.603
		c0-4.924-10.313-7.5-20.5-7.5S15.5,34.076,15.5,39c0,0.206,0.024,0.406,0.06,0.603C15.525,39.73,15.5,39.862,15.5,40v10.25H9.194
		C6.33,50.25,4,52.58,4,55.444v13.611c0,2.864,2.33,5.194,5.194,5.194H15.5v8.193c0,5.125,10.313,7.807,20.5,7.807
		c7.783,0,15.633-1.567,18.908-4.591c2.841,2.692,9.4,4.091,15.592,4.091c7.951,0,16-2.283,16-6.648V74.25h5.205
		c2.368,0,4.295-1.947,4.295-4.34V59.59C96,57.197,94.073,55.25,91.705,55.25z M70.5,44.5c8.549,0,12.82,2.182,13.001,2.989
		C83.32,48.318,79.049,50.5,70.5,50.5s-12.82-2.182-13.001-2.989C57.68,46.682,61.951,44.5,70.5,44.5z M53.5,74.961
		c-2.648-2.549-6.627-6.401-8.296-8.126c-0.775-0.801-1.202-1.901-1.204-3.099c-0.002-1.235,0.484-2.401,1.368-3.285
		c0.919-0.92,2.153-1.426,3.474-1.426c0.002,0,0.005,0,0.007,0c2.149,0.003,4.037,1.392,4.651,3.388
		C53.5,62.413,53.5,74.961,53.5,74.961z M56.5,62.361c0.609-1.986,2.478-3.362,4.623-3.362c0.002,0,0.005,0,0.007,0
		c2.682,0.004,4.866,2.126,4.87,4.73c0.001,1.203-0.432,2.311-1.22,3.119c-1.674,1.721-5.647,5.586-8.28,8.134V62.361z M36,34.5
		c11.323,0,17.5,2.973,17.5,4.5s-6.177,4.5-17.5,4.5S18.5,40.527,18.5,39S24.677,34.5,36,34.5z M9.194,71.25
		C7.984,71.25,7,70.266,7,69.056V55.444c0-1.21,0.984-2.194,2.194-2.194H15.5v18H9.194z M36,87.25c-11.323,0-17.5-3.175-17.5-4.807
		V43.098C22.299,45.342,29.175,46.5,36,46.5s13.701-1.158,17.5-3.402v14.447c-1.317-0.954-2.929-1.518-4.647-1.52
		c-0.004,0-0.007,0-0.011,0c-2.123,0-4.109,0.818-5.595,2.305c-1.452,1.451-2.25,3.373-2.247,5.41
		c0.002,1.979,0.73,3.819,2.048,5.181c2.296,2.373,8.639,8.463,10.452,10.201v3.322C53.5,84.075,47.323,87.25,36,87.25z M70.5,86.75
		c-8.436,0-13.644-2.586-14.023-3.945c0.012-0.12,0.023-0.239,0.023-0.361v-3.289c1.75-1.687,8.123-7.842,10.43-10.213
		c1.338-1.372,2.072-3.225,2.07-5.216c-0.006-4.255-3.535-7.721-7.866-7.727c-0.004,0-0.007,0-0.011,0
		c-1.712,0-3.314,0.555-4.623,1.498v-6.895c2.921,1.971,8.599,2.898,14,2.898c4.833,0,9.896-0.74,13-2.307v31.909
		C83.5,84.192,79.077,86.75,70.5,86.75z M93,69.91c0,0.739-0.581,1.34-1.295,1.34H86.5v-13h5.205c0.714,0,1.295,0.601,1.295,1.34
		V69.91z"/>
	<path style="fill:#FFFFFF;" d="M67.552,21.056l2.965,1.911c0.404,0.261,0.65,0.702,0.675,1.211
		c0.025,0.516-0.181,0.986-0.566,1.292L68.4,27.235c-0.992,0.787-1.608,1.976-1.692,3.262c-0.085,1.292,0.377,2.56,1.268,3.478
		l3.948,4.07C72.218,38.348,72.608,38.5,73,38.5c0.376,0,0.753-0.141,1.045-0.423c0.594-0.577,0.608-1.526,0.031-2.121l-3.947-4.069
		c-0.301-0.311-0.457-0.746-0.428-1.194c0.029-0.442,0.234-0.845,0.564-1.107l2.224-1.764c1.136-0.9,1.771-2.316,1.698-3.789
		c-0.071-1.466-0.836-2.807-2.046-3.587l-2.965-1.911c-0.404-0.261-0.65-0.702-0.675-1.21c-0.025-0.516,0.181-0.987,0.565-1.292
		l4.861-3.856c0.648-0.515,0.758-1.458,0.242-2.107c-0.514-0.649-1.456-0.758-2.107-0.243l-4.861,3.856
		c-1.135,0.901-1.77,2.318-1.697,3.79C65.577,18.937,66.343,20.276,67.552,21.056z"/>
	<path style="fill:#FFFFFF;" d="M38.452,14.96c0.788,0.96,0.709,2.703-0.16,3.517l-2.317,2.172c-1.863,1.746-2.199,4.963-0.75,7.173
		c0.288,0.439,0.767,0.677,1.256,0.677c0.282,0,0.568-0.08,0.821-0.246c0.693-0.455,0.886-1.385,0.432-2.077
		c-0.652-0.993-0.512-2.584,0.292-3.339l2.317-2.172c2.044-1.917,2.239-5.401,0.427-7.609l-4.11-5.008
		c-0.525-0.64-1.471-0.734-2.111-0.208s-0.733,1.471-0.208,2.111L38.452,14.96z"/>
</g>
</svg>
