<?xml version="1.0" encoding="iso-8859-1"?>
<!-- Generator: Adobe Illustrator 22.0.1, SVG Export Plug-In . SVG Version: 6.00 Build 0)  -->
<svg version="1.1" id="Layer_1" xmlns="http://www.w3.org/2000/svg" xmlns:xlink="http://www.w3.org/1999/xlink" x="0px" y="0px"
	 viewBox="0 0 100.25 100.25" style="enable-background:new 0 0 100.25 100.25;" xml:space="preserve">
<g>
	<path style="fill:#FFFFFF;" d="M18.542,29.421c-0.594-0.574-1.545-0.558-2.121,0.037c-4.548,4.71-4.548,12.374,0,17.084
		C16.715,46.847,17.107,47,17.5,47c0.375,0,0.751-0.14,1.042-0.421c0.596-0.576,0.612-1.525,0.037-2.121
		c-3.439-3.561-3.439-9.355,0-12.916C19.154,30.946,19.138,29.997,18.542,29.421z"/>
	<path style="fill:#FFFFFF;" d="M85.367,43.805C85.785,42.168,86,40.474,86,38.747C86,27.307,76.312,18,64.404,18
		c-8.396,0-15.896,4.671-19.437,11.741c-3.572-6.994-11.045-11.613-19.372-11.613C13.688,18.128,4,27.436,4,38.876
		c0,5.315,1.973,10.236,5.554,13.857c8.267,8.363,34.16,32.617,34.42,32.861C44.263,85.865,44.631,86,45,86
		c0.37,0,0.74-0.136,1.029-0.408c0,0,3.584-3.378,8.516-8.055c6.519,6.146,13.326,12.461,13.437,12.562
		c0.287,0.267,0.653,0.4,1.02,0.4c0.368,0,0.735-0.135,1.023-0.403c0.178-0.166,17.81-16.626,23.474-22.273
		c2.581-2.574,4.002-6.053,4.002-9.794C97.5,51.032,92.285,45.176,85.367,43.805z M44.997,82.44
		c-4.913-4.608-26.023-24.445-33.31-31.816C8.665,47.568,7,43.396,7,38.876c0-9.786,8.342-17.748,18.596-17.748
		c8.392,0,15.771,5.41,17.943,13.155c0.182,0.647,0.772,1.095,1.444,1.095c0.002,0,0.004,0,0.005,0
		c0.674-0.002,1.265-0.455,1.442-1.105C48.561,26.458,55.951,21,64.404,21C74.658,21,83,28.961,83,38.747
		c0,1.633-0.231,3.226-0.666,4.756c-0.024,0-0.047-0.003-0.07-0.003c-5.605,0-10.647,2.932-13.289,7.444
		c-2.659-4.461-7.68-7.357-13.237-7.357c-8.401,0-15.236,6.518-15.236,14.529c0,3.728,1.398,7.182,3.938,9.727
		c1.766,1.769,4.707,4.587,7.921,7.631C49.065,78.598,46.382,81.134,44.997,82.44z M91.379,65.698
		c-4.84,4.826-18.526,17.646-22.381,21.252c-3.867-3.595-17.605-16.388-22.435-21.227c-1.975-1.979-3.062-4.681-3.062-7.607
		c0-6.357,5.489-11.529,12.236-11.529c5.525,0,10.382,3.518,11.809,8.556c0.184,0.647,0.748,1.131,1.449,1.091
		c0.673-0.003,1.262-0.453,1.44-1.102c1.399-5.083,6.263-8.632,11.828-8.632c6.747,0,12.236,5.172,12.236,11.529
		C94.5,60.968,93.392,63.691,91.379,65.698z"/>
	<path style="fill:#FFFFFF;" d="M25.061,51.939c-0.586-0.586-1.535-0.586-2.121,0s-0.586,1.535,0,2.121l10,10
		c0.292,0.294,0.676,0.44,1.06,0.44s0.768-0.146,1.061-0.439c0.586-0.586,0.586-1.535,0-2.121L25.061,51.939z"/>
</g>
</svg>
