<?xml version="1.0" encoding="iso-8859-1"?>
<!-- Generator: Adobe Illustrator 22.0.1, SVG Export Plug-In . SVG Version: 6.00 Build 0)  -->
<svg version="1.1" id="Layer_1" xmlns="http://www.w3.org/2000/svg" xmlns:xlink="http://www.w3.org/1999/xlink" x="0px" y="0px"
	 viewBox="0 0 100.25 100.25" style="enable-background:new 0 0 100.25 100.25;" xml:space="preserve">
<g>
	<path style="fill:#FFFFFF;" d="M49.25,51.25c-18.472,0-33.5,15.028-33.5,33.5c0,0.828,0.671,1.5,1.5,1.5h64
		c0.828,0,1.5-0.672,1.5-1.5C82.75,66.278,67.722,51.25,49.25,51.25z M61.159,56.679l-11.488,8.477L37.39,56.657
		c3.648-1.546,7.654-2.407,11.86-2.407C53.474,54.25,57.497,55.119,61.159,56.679z M18.787,83.25
		c0.524-10.766,6.66-20.077,15.534-25.081c0.026,0.021,0.048,0.045,0.076,0.065l14.449,10c0.257,0.178,0.555,0.267,0.854,0.267
		c0.313,0,0.626-0.098,0.891-0.293l13.551-10c0.015-0.011,0.026-0.025,0.041-0.037c8.873,5.004,15.008,14.315,15.532,25.08
		L18.787,83.25L18.787,83.25z"/>
	<path style="fill:#FFFFFF;" d="M49.248,47c11.029,0,20.002-8.972,20.002-20S60.277,7,49.248,7C38.221,7,29.25,15.972,29.25,27
		S38.221,47,49.248,47z M49.248,10c7.088,0,13.171,4.363,15.719,10.541c-0.803-0.439-1.744-1.001-2.628-1.529
		c-3.812-2.28-6.266-3.651-8.003-3.5C51,15.8,48.893,17.14,46.855,18.437c-1.16,0.738-2.359,1.5-3.855,2.129l-0.401,0.168
		c-3.412,1.436-5.527,2.321-9.973,2.726C34.26,15.781,41.089,10,49.248,10z M32.275,26.499c0.031-0.001,0.063-0.001,0.094-0.004
		c5.274-0.422,7.708-1.446,11.393-2.996l0.4-0.168c1.73-0.727,3.098-1.597,4.304-2.364c1.97-1.253,3.525-2.242,6.129-2.467
		c0.964-0.083,4.364,1.985,6.205,3.086c2.427,1.451,3.971,2.354,5.099,2.626c0.035,0.008,0.07,0.009,0.105,0.014
		c0.149,0.905,0.247,1.827,0.247,2.773c0,9.374-7.627,17-17.002,17c-9.373,0-16.998-7.626-16.998-17
		C32.25,26.831,32.27,26.667,32.275,26.499z"/>
</g>
</svg>
