<svg id="Слой_2" data-name="Слой 2" xmlns="http://www.w3.org/2000/svg" viewBox="0 0 101 101"><defs><style>.cls-1{fill:#fff;}</style></defs><title>hhhArtboard 2 copy 10</title><path class="cls-1" d="M83.06,63.94,64.84,45.72,40.63,21.51l4-4A1.5,1.5,0,0,0,43.52,15h-27A1.5,1.5,0,0,0,15,16.5v27a1.5,1.5,0,0,0,2.56,1.06L22.11,40,46.33,64.24a1.5,1.5,0,0,0,2.12,0L63.78,48.91,80.94,66.06a1.5,1.5,0,0,0,2.12-2.12ZM18,18H39.9L18,39.9ZM47.39,61.06,24.24,37.91,38.51,23.63,61.66,46.78Z"/><path class="cls-1" d="M61.56,69.44a1.5,1.5,0,1,0-2.13,2.12L73.9,86.09a3.43,3.43,0,1,1-4.85,4.85,1.5,1.5,0,1,0-2.12,2.12A6.43,6.43,0,0,0,76,84Z"/><path class="cls-1" d="M71.5,72a1.5,1.5,0,0,0,1.06-2.56l-9-9a1.5,1.5,0,0,0-2.12,2.12l9,9A1.5,1.5,0,0,0,71.5,72Z"/></svg>