<svg id="Слой_2" data-name="Слой 2" xmlns="http://www.w3.org/2000/svg" viewBox="0 0 101 101"><defs><style>.cls-1{fill:#fff;}</style></defs><title>hhhArtboard 2 copy 7</title><path class="cls-1" d="M62.54,37.43a1.5,1.5,0,0,0,0,3A26,26,0,1,1,37,61.32a1.5,1.5,0,0,0-2.94-.59,29,29,0,1,0,28.47-23.3Z"/><path class="cls-1" d="M39.5,55a1.5,1.5,0,0,0,0-3H23.12l11-11H53.5a1.5,1.5,0,0,0,0-3H37.12l12-12H68.5a1.5,1.5,0,0,0,0-3H52.12L68.06,7.06a1.5,1.5,0,0,0-2.12-2.12L50,20.88V4.5a1.5,1.5,0,0,0-3,0V23.88l-12,12V19.5a1.5,1.5,0,0,0-3,0V38.88l-11,11V33.5a1.5,1.5,0,0,0-3,0V52.88L4.44,66.44a1.5,1.5,0,1,0,2.12,2.12L20.12,55Z"/><path class="cls-1" d="M81.5,66a1.5,1.5,0,0,0-3,0A15.52,15.52,0,0,1,63,81.5a1.5,1.5,0,0,0,0,3A18.52,18.52,0,0,0,81.5,66Z"/></svg>