<svg id="Слой_2" data-name="Слой 2" xmlns="http://www.w3.org/2000/svg" viewBox="0 0 101 101"><defs><style>.cls-1{fill:#fff;}</style></defs><title>hhhArtboard 2 copy 10 копия 10</title><path class="cls-1" d="M39.5,82H27.27a21.5,21.5,0,0,1,0-43h9.9a20,20,0,0,1,.33,3.5,1.5,1.5,0,0,0,3,0,23.09,23.09,0,0,0-.27-3.5H50.51A21.54,21.54,0,0,1,71.83,57.69a1.5,1.5,0,0,0,3-.39A24.55,24.55,0,0,0,50.51,36h-11a22.86,22.86,0,0,0-2-4.81c.52,0,1,.06,1.55.06A22.42,22.42,0,0,0,61,4.19,1.5,1.5,0,0,0,59.81,3,22.41,22.41,0,0,0,32.76,25.31,22.9,22.9,0,0,0,17.5,19.5a1.5,1.5,0,0,0,0,3A20,20,0,0,1,36.39,36H27.27a24.5,24.5,0,0,0,0,49H39.5a1.5,1.5,0,0,0,0-3Zm1.94-70.77A19.37,19.37,0,0,1,58.21,5.79,19.42,19.42,0,0,1,36,28,19.37,19.37,0,0,1,41.44,11.23Z"/><path class="cls-1" d="M93.31,64.74A5,5,0,0,0,89.52,63H44.71a5,5,0,0,0-3.79,1.74,4.85,4.85,0,0,0-1.13,3.89,27.64,27.64,0,0,0,54.66,0A4.85,4.85,0,0,0,93.31,64.74Zm-1.83,3.44a24.64,24.64,0,0,1-48.73,0,1.84,1.84,0,0,1,.44-1.49,2,2,0,0,1,1.52-.7H89.52a2,2,0,0,1,1.52.7A1.84,1.84,0,0,1,91.48,68.18Z"/><path class="cls-1" d="M67.5,71A1.5,1.5,0,0,0,66,72.5v11a1.5,1.5,0,0,0,3,0v-11A1.5,1.5,0,0,0,67.5,71Z"/><path class="cls-1" d="M76.2,70.93A1.5,1.5,0,0,0,74.08,73l3.81,3.81A1.5,1.5,0,0,0,80,74.74Z"/><circle class="cls-1" cx="17.5" cy="65" r="2.5" transform="translate(-0.64 0.18) rotate(-0.57)"/><circle class="cls-1" cx="25.5" cy="58" r="2.5" transform="translate(-0.58 0.26) rotate(-0.57)"/></svg>