<svg id="Слой_2" data-name="Слой 2" xmlns="http://www.w3.org/2000/svg" viewBox="0 0 101 101"><defs><style>.cls-1{fill:#fff;}</style></defs><title>hhhArtboard 2 copy 10 копия 9</title><path class="cls-1" d="M93.5,47a43,43,0,1,0-70,33.46v11A1.5,1.5,0,0,0,25,93H76a1.5,1.5,0,0,0,1.5-1.5v-11A42.8,42.8,0,0,0,93.5,47Zm-19,43h-48V81h48Zm1.26-12H25.24a40,40,0,1,1,50.53,0Z"/><path class="cls-1" d="M85,53.22A39.87,39.87,0,0,0,69,50c-8.5,0-14.53,3.21-20.35,6.32-3.8,2-7.47,4-11.7,5V50H47.44a1.5,1.5,0,0,0,1.36-2.14L36.86,22.61a1.5,1.5,0,0,0-2.71,0L22.2,47.86A1.5,1.5,0,0,0,23.56,50H34V61.83A26.45,26.45,0,0,1,18.71,59a1.5,1.5,0,0,0-1.41,2.65A28.94,28.94,0,0,0,31,65c7.75,0,13.5-3.07,19.06-6C55.86,55.9,61.29,53,69,53a36.92,36.92,0,0,1,14.76,3A1.5,1.5,0,0,0,85,53.22ZM35.5,26.76,45.08,47H25.92Z"/><circle class="cls-1" cx="67.58" cy="37.98" r="2.5" transform="translate(-0.37 0.67) rotate(-0.57)"/><circle class="cls-1" cx="76.54" cy="33.89" r="2.5" transform="translate(-0.33 0.76) rotate(-0.57)"/><circle class="cls-1" cx="54.42" cy="21.11" r="2.5" transform="translate(-0.21 0.54) rotate(-0.57)"/></svg>